<?xml version="1.0" encoding="UTF-8"?>
<svg version="1.1" xmlns="http://www.w3.org/2000/svg" width="875" height="223">
<path d="M0 0 C0.87140625 -0.66386719 1.7428125 -1.32773438 2.640625 -2.01171875 C19.69880538 -14.75774925 35.85853151 -18.60223331 57 -17 C61.63285011 -16.18298435 65.69666927 -14.88015264 70 -13 C71.02222656 -12.56429688 72.04445312 -12.12859375 73.09765625 -11.6796875 C90.07206986 -3.82553405 101.17326374 9.30635372 108.39453125 26.27734375 C113.98902764 42.90268461 112.31735072 61.56035975 104.75 77.1875 C101.73496398 82.97971205 98.28353952 88.07848651 94 93 C95.43911048 96.11101824 97.1984885 98.69753081 99.25 101.4375 C109.6898181 116.19273351 113.67332746 132.82125635 111.375 150.6875 C108.07024016 168.29839125 98.60973168 183.15449014 84.375 194 C68.83543209 204.4801737 51.26325792 208.35334616 32.875 204.8125 C22.97116685 202.45444449 14.84929944 198.15616207 6.41015625 192.55078125 C4.3179485 191.20457951 2.24777215 190.05869547 0 189 C-0.48726563 189.42410156 -0.97453125 189.84820312 -1.4765625 190.28515625 C-17.8264122 203.810941 -35.23418207 207.66126543 -56 206 C-73.85708576 203.57596121 -88.69398232 192.50493024 -99.4375 178.5625 C-108.804376 164.84255299 -112.90765847 148.01348414 -110.49609375 131.5625 C-108.09566931 119.05285947 -103.82890071 109.34698553 -95.79296875 99.59375 C-93.62091329 96.97712733 -93.62091329 96.97712733 -94 93 C-95.08877985 91.39569068 -95.08877985 91.39569068 -96.625 89.9375 C-108.63501358 76.62451325 -111.7077928 59.48425349 -111.140625 42.21044922 C-110.8250462 37.24994493 -109.58934016 32.68545735 -108 28 C-107.59974609 26.72962891 -107.59974609 26.72962891 -107.19140625 25.43359375 C-104.70939312 18.38467647 -100.59022639 12.83472784 -96 7 C-95.53980469 6.36191406 -95.07960938 5.72382813 -94.60546875 5.06640625 C-85.57042337 -6.75285251 -69.00890144 -14.74371509 -54.5625 -16.6875 C-33.46981376 -18.38130662 -17.3746677 -11.65965218 0 0 Z " fill="#EFC349" transform="translate(117,17)"/>
<path d="M0 0 C1.02222656 0.43570312 2.04445313 0.87140625 3.09765625 1.3203125 C20.07206986 9.17446595 31.17326374 22.30635372 38.39453125 39.27734375 C43.98902764 55.90268461 42.31735072 74.56035975 34.75 90.1875 C31.73496398 95.97971205 28.28353952 101.07848651 24 106 C25.43911048 109.11101824 27.1984885 111.69753081 29.25 114.4375 C39.6898181 129.19273351 43.67332746 145.82125635 41.375 163.6875 C38.07024016 181.29839125 28.60973168 196.15449014 14.375 207 C-1.16456791 217.4801737 -18.73674208 221.35334616 -37.125 217.8125 C-48.91922668 215.00435079 -61.83940599 209.2587714 -70 200 C-70 199.34 -70 198.68 -70 198 C-70.66 198 -71.32 198 -72 198 C-85.54846072 181.68765329 -89.43201365 164.68865367 -89 144 C-87.97916667 144.875 -86.95833333 145.75 -85.9375 146.625 C-84.98617187 147.43904297 -84.98617187 147.43904297 -84.015625 148.26953125 C-82.68900974 149.40846645 -81.36598187 150.55159577 -80.046875 151.69921875 C-79.12648438 152.49779297 -79.12648438 152.49779297 -78.1875 153.3125 C-77.62417969 153.80363281 -77.06085938 154.29476562 -76.48046875 154.80078125 C-73.35280159 157.33427417 -70.95985249 157.38075505 -67 157 C-58.81555876 152.55193411 -51.350535 145.10440538 -45.5 137.9375 C-43 135 -43 135 -40.5625 133.0625 C-38.40852083 131.32880945 -36.92133944 129.79622365 -35.1875 127.6875 C-33.01383579 125.05797783 -30.76675908 122.90579948 -28.125 120.75 C-20.24907193 114.02295971 -13.69469512 105.2459339 -12.69140625 94.78125 C-12.38317532 86.18814541 -13.03688001 77.26686276 -19.140625 70.6953125 C-20.06101563 69.85613281 -20.06101563 69.85613281 -21 69 C-21.2784375 70.175625 -21.2784375 70.175625 -21.5625 71.375 C-22.91163534 74.77716737 -24.30057653 76.82047606 -26.5 79.6875 C-29.82824843 84.2423079 -30.98841869 87.98773014 -31.61328125 93.5546875 C-32 96 -32 96 -33.01196289 97.86865234 C-34.13596925 100.29330654 -34.23123468 101.88863338 -34.1953125 104.546875 C-34.18564453 105.81337891 -34.18564453 105.81337891 -34.17578125 107.10546875 C-34.15902344 107.97816406 -34.14226562 108.85085937 -34.125 109.75 C-34.11597656 110.63816406 -34.10695312 111.52632813 -34.09765625 112.44140625 C-34.07414577 114.62788058 -34.04128499 116.81380094 -34 119 C-34.99 119 -35.98 119 -37 119 C-37.99 114.38 -38.98 109.76 -40 105 C-40.66 105 -41.32 105 -42 105 C-43.32 110.61 -44.64 116.22 -46 122 C-47.32 122 -48.64 122 -50 122 C-49.67 116.72 -49.34 111.44 -49 106 C-50.55831126 110.42623195 -50.55831126 110.42623195 -52.11083984 114.85449219 C-53.23097014 118.01346014 -54.40550698 121.04944282 -56 124 C-56.99 123.67 -57.98 123.34 -59 123 C-58.3900874 118.01155691 -57.36525565 113.39844654 -55.9375 108.5625 C-55.57527344 107.32628906 -55.21304688 106.09007813 -54.83984375 104.81640625 C-54.56269531 103.88699219 -54.28554687 102.95757812 -54 102 C-59.59967378 106.79502751 -59.59967378 106.79502751 -64.875 111.9375 C-67 114 -67 114 -69 114 C-68.61859301 107.89748809 -64.2009476 103.72637276 -60.52734375 99.17578125 C-57.370939 95.08073719 -56.31712321 92.17967903 -56 87 C-58.65297959 85.40821225 -60.49692539 84.93145857 -63.625 84.5 C-67 84 -67 84 -69 82 C-69 80.68 -69 79.36 -69 78 C-67.515 78.495 -67.515 78.495 -66 79 C-59.2234515 79.58632366 -53.41334648 78.87405254 -46.99609375 76.65625 C-45 76 -45 76 -43 76 C-42.773125 75.175 -42.54625 74.35 -42.3125 73.5 C-40.96451501 69.90537335 -39.25997692 67.090411 -37.12109375 63.9296875 C-35.9708126 61.94976106 -35.44219499 60.23581739 -35 58 C-47.35268198 57.58620048 -57.48880824 57.44036923 -67.40625 65.79296875 C-69 67 -69 67 -71 67 C-71 66.34 -71 65.68 -71 65 C-71.87011719 64.56880859 -71.87011719 64.56880859 -72.7578125 64.12890625 C-74.15705346 63.42441036 -75.54918953 62.70539428 -76.9296875 61.96484375 C-80.96281299 59.83489997 -84.39106378 58.46089362 -89 58 C-89.21430248 52.33359034 -88.6610596 47.59976135 -86.875 42.1875 C-86.64981689 41.49317871 -86.42463379 40.79885742 -86.19262695 40.08349609 C-80.27293448 22.53750326 -69.13930705 9.73527504 -52.74609375 1.33203125 C-36.47755207 -5.75299137 -16.46280766 -7.19270565 0 0 Z " fill="#53E526" transform="translate(187,4)"/>
<path d="M0 0 C1.02222656 0.43570312 2.04445313 0.87140625 3.09765625 1.3203125 C20.07206986 9.17446595 31.17326374 22.30635372 38.39453125 39.27734375 C43.97604863 55.86411448 42.32156615 74.51140753 34.8125 90.125 C31.56080083 96.37826764 27.66915879 101.73658464 23 107 C19.88898176 105.56088952 17.30246919 103.8015115 14.5625 101.75 C6.52587352 96.06381967 -2.32064118 91.89791349 -12 90 C-12.17015625 89.14277344 -12.3403125 88.28554687 -12.515625 87.40234375 C-13.8896694 80.91948532 -15.16069296 75.44933903 -19 70 C-19.66 69.67 -20.32 69.34 -21 69 C-21.2784375 70.175625 -21.2784375 70.175625 -21.5625 71.375 C-22.91163534 74.77716737 -24.30057653 76.82047606 -26.5 79.6875 C-29.82824843 84.2423079 -30.98841869 87.98773014 -31.61328125 93.5546875 C-32 96 -32 96 -33.01196289 97.86865234 C-34.13596925 100.29330654 -34.23123468 101.88863338 -34.1953125 104.546875 C-34.18564453 105.81337891 -34.18564453 105.81337891 -34.17578125 107.10546875 C-34.15902344 107.97816406 -34.14226562 108.85085937 -34.125 109.75 C-34.11597656 110.63816406 -34.10695312 111.52632813 -34.09765625 112.44140625 C-34.07414577 114.62788058 -34.04128499 116.81380094 -34 119 C-34.99 119 -35.98 119 -37 119 C-37.99 114.38 -38.98 109.76 -40 105 C-40.66 105 -41.32 105 -42 105 C-43.32 110.61 -44.64 116.22 -46 122 C-47.32 122 -48.64 122 -50 122 C-49.67 116.72 -49.34 111.44 -49 106 C-50.55831126 110.42623195 -50.55831126 110.42623195 -52.11083984 114.85449219 C-53.23097014 118.01346014 -54.40550698 121.04944282 -56 124 C-56.99 123.67 -57.98 123.34 -59 123 C-58.3900874 118.01155691 -57.36525565 113.39844654 -55.9375 108.5625 C-55.57527344 107.32628906 -55.21304688 106.09007813 -54.83984375 104.81640625 C-54.56269531 103.88699219 -54.28554687 102.95757812 -54 102 C-59.59967378 106.79502751 -59.59967378 106.79502751 -64.875 111.9375 C-67 114 -67 114 -69 114 C-68.61859301 107.89748809 -64.2009476 103.72637276 -60.52734375 99.17578125 C-57.370939 95.08073719 -56.31712321 92.17967903 -56 87 C-58.65297959 85.40821225 -60.49692539 84.93145857 -63.625 84.5 C-67 84 -67 84 -69 82 C-69 80.68 -69 79.36 -69 78 C-67.515 78.495 -67.515 78.495 -66 79 C-59.2234515 79.58632366 -53.41334648 78.87405254 -46.99609375 76.65625 C-45 76 -45 76 -43 76 C-42.773125 75.175 -42.54625 74.35 -42.3125 73.5 C-40.96451501 69.90537335 -39.25997692 67.090411 -37.12109375 63.9296875 C-35.9708126 61.94976106 -35.44219499 60.23581739 -35 58 C-47.35268198 57.58620048 -57.48880824 57.44036923 -67.40625 65.79296875 C-69 67 -69 67 -71 67 C-71 66.34 -71 65.68 -71 65 C-71.87011719 64.56880859 -71.87011719 64.56880859 -72.7578125 64.12890625 C-74.15705346 63.42441036 -75.54918953 62.70539428 -76.9296875 61.96484375 C-80.96281299 59.83489997 -84.39106378 58.46089362 -89 58 C-89.21430248 52.33359034 -88.6610596 47.59976135 -86.875 42.1875 C-86.64981689 41.49317871 -86.42463379 40.79885742 -86.19262695 40.08349609 C-80.27293448 22.53750326 -69.13930705 9.73527504 -52.74609375 1.33203125 C-36.47755207 -5.75299137 -16.46280766 -7.19270565 0 0 Z " fill="#28B1F3" transform="translate(187,4)"/>
<path d="M0 0 C0.15855469 0.67804688 0.31710938 1.35609375 0.48046875 2.0546875 C0.83044922 3.45074219 0.83044922 3.45074219 1.1875 4.875 C1.40792969 5.77992187 1.62835938 6.68484375 1.85546875 7.6171875 C2.23316406 8.73351562 2.61085937 9.84984375 3 11 C3.22284668 11.68868164 3.44569336 12.37736328 3.67529297 13.08691406 C6.24390743 19.43940143 10.3111571 23.54418712 15.234375 28.125 C16.25547112 29.08045212 16.25547112 29.08045212 17.29719543 30.0552063 C20.15803823 32.7148036 23.02654118 35.361145 25.95458984 37.94677734 C39.56249215 50.04438215 39.56249215 50.04438215 40.34039307 59.20043945 C40.39316067 62.15815845 40.27030838 65.07550362 40.06227112 68.02537537 C39.6647032 80.63230194 47.09956276 94.13785605 54.93359375 103.546875 C56 105 56 105 56 107 C56.66 107 57.32 107 58 107 C58.33 107.99 58.66 108.98 59 110 C47.9952172 121.5839819 31.81425136 127.89966589 16.10180664 128.39819336 C-2.74059103 128.65232974 -18.89815352 123.4855156 -32.81713867 110.32763672 C-45.79713814 97.48472694 -52.81480966 81.31578862 -53.375 63 C-52.78785629 43.80295363 -45.07113921 27.5359387 -31.375 14.25 C-22.99168462 7.04743327 -11.23950175 0 0 0 Z " fill="#F82672" transform="translate(59,95)"/>
<path d="M0 0 C0.6290625 0.474375 1.258125 0.94875 1.90625 1.4375 C1.90625 2.0975 1.90625 2.7575 1.90625 3.4375 C2.51210937 2.96699219 3.11796875 2.49648437 3.7421875 2.01171875 C13.79885315 -5.46115742 22.39505913 -7.47495712 34.90625 -6.5625 C35.89625 -6.2325 36.88625 -5.9025 37.90625 -5.5625 C36.86052267 1.17803157 34.02996323 7.03352589 29.90625 12.4375 C23.26531524 16.63177459 14.61667059 17.57488623 6.90625 16.4375 C5.91625 15.7775 4.92625 15.1175 3.90625 14.4375 C4.23011813 16.96735528 4.23011813 16.96735528 5.90625 19.4375 C8.17029691 20.22556248 10.34585896 20.62531617 12.71484375 20.98046875 C14.90625 21.4375 14.90625 21.4375 17.90625 23.4375 C17.75522826 30.53552196 14.34214894 34.14998334 9.90625 39.4375 C5.99660952 44.48235296 5.99660952 44.48235296 3.90625 50.4375 C9.50592378 45.64247249 9.50592378 45.64247249 14.78125 40.5 C16.90625 38.4375 16.90625 38.4375 18.90625 38.4375 C18.42079093 43.77754973 17.41466029 48.33857118 15.52734375 53.359375 C14.71534576 55.71475647 14.71534576 55.71475647 14.90625 59.4375 C15.56625 59.7675 16.22625 60.0975 16.90625 60.4375 C17.02097656 59.92574219 17.13570313 59.41398437 17.25390625 58.88671875 C18.12552975 55.61421615 19.22727125 52.44703854 20.34375 49.25 C20.66956055 48.28803711 20.66956055 48.28803711 21.00195312 47.30664062 C22.67313621 42.55405689 22.67313621 42.55405689 24.90625 41.4375 C25.03087322 47.17016804 24.5479466 52.74244264 23.90625 58.4375 C24.56625 58.4375 25.22625 58.4375 25.90625 58.4375 C27.22625 52.8275 28.54625 47.2175 29.90625 41.4375 C31.22625 41.4375 32.54625 41.4375 33.90625 41.4375 C34.24445166 43.0198006 34.57660939 44.60339375 34.90625 46.1875 C35.091875 47.06921875 35.2775 47.9509375 35.46875 48.859375 C35.90625 51.4375 35.90625 51.4375 35.90625 55.4375 C36.89625 55.4375 37.88625 55.4375 38.90625 55.4375 C38.74576172 53.519375 38.74576172 53.519375 38.58203125 51.5625 C38.46001214 49.85423251 38.33897039 48.14589502 38.21875 46.4375 C38.14591797 45.59832031 38.07308594 44.75914063 37.99804688 43.89453125 C37.65750751 38.72634552 38.09701777 35.0463628 40.1784668 30.3034668 C41.08419682 28.21540289 41.08419682 28.21540289 41.3125 24.89453125 C42.06722332 20.50025403 43.8991725 17.73814111 46.40625 14.125 C47.22966508 12.90007448 48.05260383 11.67482858 48.875 10.44921875 C49.5453125 9.45535156 50.215625 8.46148437 50.90625 7.4375 C51.23625 6.7775 51.56625 6.1175 51.90625 5.4375 C54.90625 6.4375 54.90625 6.4375 56.2578125 8.58203125 C56.67804688 9.46246094 57.09828125 10.34289062 57.53125 11.25 C57.95664063 12.12269531 58.38203125 12.99539062 58.8203125 13.89453125 C62.18744318 21.77943079 62.30833882 31.63324467 59.40625 39.6875 C55.41417413 48.23194308 48.94819303 54.77183674 41.7890625 60.74609375 C39.69320585 62.4881045 39.69320585 62.4881045 37.90625 65.4375 C37.24625 65.4375 36.58625 65.4375 35.90625 65.4375 C35.679375 66.015 35.4525 66.5925 35.21875 67.1875 C33.5653807 70.02184736 31.47661056 71.40512189 28.90625 73.4375 C27.71311299 74.88861258 26.52091507 76.34058844 25.34375 77.8046875 C22.51537017 81.01735807 19.16166069 83.67189422 15.90625 86.4375 C13.79157815 88.30688478 11.68032898 90.18005134 9.5703125 92.0546875 C7.41096377 93.84907588 6.07278486 94.40974419 3.28125 94.875 C-5.01861497 93.79909158 -11.72361032 85.15453135 -17.4140625 79.5234375 C-18.27635468 78.67254547 -19.13864685 77.82165344 -20.02706909 76.94497681 C-21.83999503 75.15085149 -23.65010122 73.35387284 -25.45751953 71.55419922 C-28.20370577 68.82743782 -30.97050297 66.12278708 -33.73828125 63.41796875 C-35.50652662 61.66278543 -37.27349635 59.90631586 -39.0390625 58.1484375 C-39.85794952 57.35424408 -40.67683655 56.56005066 -41.52053833 55.74179077 C-47.99092967 49.22125897 -53.91421554 41.30229161 -54.78515625 31.86328125 C-54.77819716 30.49153202 -54.73558509 29.11947082 -54.65625 27.75 C-54.63328857 27.02522461 -54.61032715 26.30044922 -54.58666992 25.55371094 C-54.2576017 18.55767339 -53.39319716 12.51778926 -48.40625 7.375 C-47.643125 6.735625 -46.88 6.09625 -46.09375 5.4375 C-45.11843819 7.15270353 -44.14458827 8.86876189 -43.1796875 10.58984375 C-42.07054873 12.5558661 -42.07054873 12.5558661 -40.40625 14.6875 C-38.66280741 18.34042733 -38.58829188 21.70677818 -38.40234375 25.71875 C-38.0750177 28.60253395 -37.19472282 30.76807781 -36.09375 33.4375 C-35.77067308 39.79134615 -35.77067308 39.79134615 -37.09375 42.4375 C-37.31997081 44.14113822 -37.50263473 45.85078701 -37.65625 47.5625 C-37.74003906 48.47257812 -37.82382813 49.38265625 -37.91015625 50.3203125 C-38.00103516 51.36832031 -38.00103516 51.36832031 -38.09375 52.4375 C-37.43375 52.4375 -36.77375 52.4375 -36.09375 52.4375 C-35.88878906 51.59445313 -35.68382813 50.75140625 -35.47265625 49.8828125 C-35.20324219 48.78710938 -34.93382813 47.69140625 -34.65625 46.5625 C-34.38941406 45.47195312 -34.12257813 44.38140625 -33.84765625 43.2578125 C-33.09375 40.4375 -33.09375 40.4375 -32.09375 38.4375 C-31.10375 38.4375 -30.11375 38.4375 -29.09375 38.4375 C-28.59167321 41.22880788 -28.09199925 44.02050871 -27.59375 46.8125 C-27.37912109 48.00359375 -27.37912109 48.00359375 -27.16015625 49.21875 C-26.09375 55.2109375 -26.09375 55.2109375 -26.09375 57.4375 C-25.10375 57.4375 -24.11375 57.4375 -23.09375 57.4375 C-23.42375 51.4975 -23.75375 45.5575 -24.09375 39.4375 C-23.43375 39.4375 -22.77375 39.4375 -22.09375 39.4375 C-21.25544027 42.20691606 -20.42292966 44.97785069 -19.59375 47.75 C-19.35527344 48.53568359 -19.11679688 49.32136719 -18.87109375 50.13085938 C-18.64550781 50.88818359 -18.41992188 51.64550781 -18.1875 52.42578125 C-17.87329102 53.47052612 -17.87329102 53.47052612 -17.55273438 54.53637695 C-17.09375 56.4375 -17.09375 56.4375 -17.09375 59.4375 C-16.10375 59.4375 -15.11375 59.4375 -14.09375 59.4375 C-14.3103125 58.26832031 -14.526875 57.09914062 -14.75 55.89453125 C-15.03147917 54.34639582 -15.31271644 52.79821639 -15.59375 51.25 C-15.73683594 50.48107422 -15.87992188 49.71214844 -16.02734375 48.91992188 C-16.72613715 45.04328227 -17.28414017 41.396029 -17.09375 37.4375 C-13.17787272 38.74279243 -12.05791327 40.70736706 -9.53125 43.9375 C-6.77699681 47.74376077 -6.77699681 47.74376077 -3.09375 50.4375 C-5.04966287 45.56001916 -7.30044039 41.39900175 -10.21875 37 C-13.41527721 31.93005025 -15.09375 28.41963465 -15.09375 22.4375 C-12.0467871 20.74316082 -9.26553534 19.94282888 -5.84375 19.3125 C-4.95171875 19.14492187 -4.0596875 18.97734375 -3.140625 18.8046875 C-2.46515625 18.68351562 -1.7896875 18.56234375 -1.09375 18.4375 C-1.09375 17.4475 -1.09375 16.4575 -1.09375 15.4375 C-1.96773437 15.48970703 -1.96773437 15.48970703 -2.859375 15.54296875 C-9.89368153 15.77523359 -18.93285144 15.57268868 -24.7734375 11.171875 C-26.49384984 8.91192507 -27.61211185 6.58755199 -28.78125 4 C-29.21824219 3.05253906 -29.65523437 2.10507813 -30.10546875 1.12890625 C-31.09375 -1.5625 -31.09375 -1.5625 -31.09375 -5.5625 C-19.58057998 -8.63267867 -9.88494855 -5.95478828 0 0 Z " fill="#F9FBF9" transform="translate(114.09375,67.5625)"/>
<path d="M0 0 C1.21042969 -0.03738281 2.42085938 -0.07476563 3.66796875 -0.11328125 C4.82683594 -0.12488281 5.98570312 -0.13648437 7.1796875 -0.1484375 C8.24687012 -0.16825684 9.31405273 -0.18807617 10.41357422 -0.20849609 C13.125 0.375 13.125 0.375 14.875 2.60620117 C16.01107332 5.12264795 17.10402882 7.6129889 18.0703125 10.19921875 C18.42085693 11.1334668 18.77140137 12.06771484 19.13256836 13.03027344 C19.5013208 14.0309082 19.87007324 15.03154297 20.25 16.0625 C20.63744385 17.1030957 21.0248877 18.14369141 21.42407227 19.21582031 C24.82871383 28.42555738 28.05157231 37.69658587 31.20556641 46.99487305 C31.55925293 48.03297119 31.91293945 49.07106934 32.27734375 50.140625 C32.7412854 51.51395996 32.7412854 51.51395996 33.21459961 52.91503906 C34.04920382 55.17019381 35.03277287 57.23680992 36.125 59.375 C36.31434616 58.84010452 36.50369232 58.30520905 36.69877625 57.75410461 C38.692506 52.12300135 40.68871286 46.49278047 42.6862793 40.86303711 C43.42876072 38.76950669 44.17063682 36.67576149 44.91186523 34.58178711 C56.41725564 2.08274436 56.41725564 2.08274436 58.125 0.375 C59.96659023 0.27540379 61.81196967 0.24419589 63.65625 0.2421875 C64.77644531 0.24089844 65.89664063 0.23960938 67.05078125 0.23828125 C68.23027344 0.24214844 69.40976562 0.24601562 70.625 0.25 C72.39423828 0.24419922 72.39423828 0.24419922 74.19921875 0.23828125 C75.87951172 0.24021484 75.87951172 0.24021484 77.59375 0.2421875 C78.62951172 0.24331543 79.66527344 0.24444336 80.73242188 0.24560547 C83.125 0.375 83.125 0.375 84.125 1.375 C84.22004251 3.90041002 84.25057158 6.39837126 84.23852539 8.92407227 C84.23867142 9.71425751 84.23881744 10.50444275 84.2389679 11.318573 C84.23826857 13.94287822 84.23047527 16.56711336 84.22265625 19.19140625 C84.22079214 21.00601665 84.2193682 22.82062756 84.21836853 24.63523865 C84.21454279 29.4209023 84.20471204 34.2065358 84.19366455 38.9921875 C84.18345163 43.87174064 84.17887117 48.75129864 84.17382812 53.63085938 C84.16308981 63.21225499 84.14549257 72.79362028 84.125 82.375 C78.185 82.375 72.245 82.375 66.125 82.375 C66.125 62.905 66.125 43.435 66.125 23.375 C60.79951581 37.17941573 60.79951581 37.17941573 55.47607422 50.98461914 C51.42748607 61.47658885 47.32945643 71.94445552 43.125 82.375 C37.845 82.375 32.565 82.375 27.125 82.375 C23.22805178 73.95225616 19.97485423 65.29754101 16.6875 56.625 C16.12197915 55.13793169 15.55622534 53.65095195 14.99023438 52.1640625 C14.15881806 49.97963849 13.32761837 47.79513458 12.49746704 45.61022949 C10.05837957 39.191374 7.59630789 32.7815249 5.125 26.375 C4.795 26.375 4.465 26.375 4.125 26.375 C4.12722061 27.06182358 4.12944122 27.74864716 4.13172913 28.45628357 C4.15377895 35.57705162 4.16890533 42.69781004 4.17993164 49.81860352 C4.18497383 52.47941481 4.19180736 55.14022332 4.20043945 57.80102539 C4.21251009 61.61605516 4.21822929 65.43104844 4.22265625 69.24609375 C4.22781754 70.44399033 4.23297882 71.6418869 4.23829651 72.87608337 C4.23840981 74.52768211 4.23840981 74.52768211 4.23852539 76.21264648 C4.240746 77.18749496 4.24296661 78.16234344 4.24525452 79.16673279 C4.125 81.375 4.125 81.375 3.125 82.375 C0.4476862 82.47481214 -2.19804175 82.51379875 -4.875 82.5 C-6.00035156 82.50580078 -6.00035156 82.50580078 -7.1484375 82.51171875 C-12.74838947 82.50161053 -12.74838947 82.50161053 -13.875 81.375 C-13.97533866 78.88546303 -14.01117943 76.42365047 -14.00439453 73.93359375 C-14.00614685 73.15476837 -14.00789917 72.37594299 -14.00970459 71.57351685 C-14.01412349 68.98648889 -14.01118499 66.39952871 -14.0078125 63.8125 C-14.00848553 62.02270494 -14.00945554 60.23290998 -14.01071167 58.44311523 C-14.01218869 54.68700289 -14.01003394 50.93091428 -14.00537109 47.17480469 C-13.9996738 42.34899507 -14.00295278 37.52324105 -14.00894356 32.69743347 C-14.01254905 29.00011777 -14.01141064 25.30281536 -14.00881577 21.60549927 C-14.00814646 19.82561232 -14.00897503 18.04572418 -14.01129532 16.26583862 C-14.01382165 13.78266178 -14.00998154 11.29957626 -14.00439453 8.81640625 C-14.00641876 8.07351349 -14.00844299 7.33062073 -14.01052856 6.56521606 C-13.97271346 -2.46084359 -7.66623938 0.08923665 0 0 Z " fill="#FDFDFD" transform="translate(331.875,17.625)"/>
<path d="M0 0 C5.61927468 -0.07486735 11.2382509 -0.12893696 16.85791016 -0.16479492 C18.76453721 -0.17976338 20.67113055 -0.20014546 22.57763672 -0.22631836 C51.81288532 -0.61724591 51.81288532 -0.61724591 61.68359375 8.56640625 C66.18859876 13.39551234 67.77670487 17.87386818 68.25 24.5 C67.75176041 31.47535424 66.15809914 35.67073625 61.0859375 40.421875 C57.69292159 42.9888758 53.97720342 44.5480051 50 46 C51.19625 46.515625 52.3925 47.03125 53.625 47.5625 C59.20674515 49.96842464 62.88887589 54.23940904 65.13427734 59.81811523 C66.14010564 63.00623617 67.03039357 66.20304127 67.875 69.4375 C68.33519531 71.1071582 68.33519531 71.1071582 68.8046875 72.81054688 C69.55338039 75.53625693 70.28452226 78.26541982 71 81 C70 82 70 82 68.14233398 82.11352539 C66.95619507 82.10567017 66.95619507 82.10567017 65.74609375 82.09765625 C64.89208984 82.09443359 64.03808594 82.09121094 63.15820312 82.08789062 C62.26037109 82.07951172 61.36253906 82.07113281 60.4375 82.0625 C59.53580078 82.05798828 58.63410156 82.05347656 57.70507812 82.04882812 C55.46998686 82.03700225 53.23502563 82.0205222 51 82 C48.37783585 76.2075357 46.76024194 70.49036547 45.2578125 64.3046875 C43.79584494 60.46361746 42.17067832 58.58386621 39 56 C35.01236948 54.72604685 30.90241897 54.66126109 26.75 54.4375 C26.00492187 54.39431641 25.25984375 54.35113281 24.4921875 54.30664062 C22.661651 54.20103275 20.83084824 54.10005799 19 54 C19.00785522 55.21901001 19.00785522 55.21901001 19.01586914 56.46264648 C19.03656994 60.12092322 19.04963803 63.77918767 19.0625 67.4375 C19.07087891 68.71689453 19.07925781 69.99628906 19.08789062 71.31445312 C19.09272461 73.13686523 19.09272461 73.13686523 19.09765625 74.99609375 C19.10551147 76.68496704 19.10551147 76.68496704 19.11352539 78.40795898 C19 81 19 81 18 82 C16.65732587 82.08631874 15.31025678 82.10706473 13.96484375 82.09765625 C12.87224243 82.09390991 12.87224243 82.09390991 11.75756836 82.09008789 C10.8269458 82.08098389 9.89632324 82.07187988 8.9375 82.0625 C7.34318275 82.05101129 5.74886286 82.03988509 4.15454102 82.02905273 C2.07727051 82.01452637 2.07727051 82.01452637 0 82 C-1.04516389 63.80306844 -0.96182375 45.71644399 -0.5625 27.5 C-0.5082652 24.815133 -0.45625778 22.13022434 -0.40429688 19.4453125 C-0.27719442 12.96336804 -0.14197359 6.48163494 0 0 Z M19 15 C19 22.92 19 30.84 19 39 C23.764375 39.0928125 23.764375 39.0928125 28.625 39.1875 C29.6145166 39.21481201 30.6040332 39.24212402 31.62353516 39.27026367 C36.82654348 39.31917006 40.5651546 39.03616339 45 36 C47.820631 33.13166277 48.43135748 31.04899357 48.4375 27.0625 C48.32450863 23.57517553 48.06225628 22.11067782 46.3125 19 C40.92065763 14.33678498 35.46803893 14.75136936 28.6875 14.875 C25.490625 14.91625 22.29375 14.9575 19 15 Z " fill="#FDFDFD" transform="translate(410,120)"/>
<path d="M0 0 C8.12517549 7.45975163 11.84699215 17.44665471 12.37109375 28.3203125 C12.67218726 42.44026791 12.18640931 54.1941419 2.8125 65.5625 C-1.59579213 70.02205134 -6.14803022 72.81029235 -12 75 C-12.64453125 75.24363281 -13.2890625 75.48726563 -13.953125 75.73828125 C-25.73890218 79.37800655 -37.9697291 77.0823055 -48.609375 71.46875 C-56.94012232 66.35051308 -60.92371149 58.87188961 -64.11328125 49.8515625 C-67.15218124 36.65175903 -66.47437051 20.58824657 -59.6796875 8.6875 C-58.24528838 6.6182029 -56.73267665 4.82513967 -55 3 C-54.41347656 2.37351562 -53.82695313 1.74703125 -53.22265625 1.1015625 C-38.73958317 -12.93724453 -15.43120485 -11.73873798 0 0 Z M-40.3125 13.0625 C-46.57478417 21.25295341 -46.80570041 31.06302823 -46 41 C-44.89579247 48.28776969 -42.7636674 54.16641096 -37 59 C-31.92374635 62.27749421 -25.79336677 61.55814143 -20 61 C-15.70842602 59.76432266 -13.00435995 57.41088346 -10.6875 53.625 C-5.85607631 43.24638614 -4.90555563 30.10798102 -8.89453125 19.15234375 C-11.68801284 13.71344496 -14.93892794 9.8528574 -20.625 7.5 C-28.2611271 6.36872191 -34.77478475 7.22172571 -40.3125 13.0625 Z " fill="#FDFDFD" transform="translate(633,25)"/>
<path d="M0 0 C20.46 0 40.92 0 62 0 C63.43316898 2.86633795 63.13200361 5.37235501 63.125 8.5625 C63.12886719 10.32787109 63.12886719 10.32787109 63.1328125 12.12890625 C63 15 63 15 62 16 C60.64905018 16.09268999 59.29332909 16.11747326 57.93920898 16.11352539 C57.07839218 16.11344986 56.21757538 16.11337433 55.33067322 16.11329651 C54.39526199 16.10813522 53.45985077 16.10297394 52.49609375 16.09765625 C51.54307877 16.0962413 50.59006378 16.09482635 49.60816956 16.09336853 C46.55124835 16.08775152 43.49439923 16.07519616 40.4375 16.0625 C38.37044376 16.05748719 36.30338638 16.05292391 34.23632812 16.04882812 C29.15752412 16.03777656 24.0787743 16.02050055 19 16 C19 21.94 19 27.88 19 34 C21.24039062 33.91621094 23.48078125 33.83242188 25.7890625 33.74609375 C27.97342279 33.66855561 30.15784562 33.59309081 32.34228516 33.51782227 C33.85343062 33.46464934 35.3645026 33.40934146 36.87548828 33.35180664 C39.05485189 33.26920057 41.23436953 33.1944279 43.4140625 33.12109375 C45.37786865 33.05039673 45.37786865 33.05039673 47.38134766 32.97827148 C50.72074139 32.99832317 53.73271075 33.34344729 57 34 C57.02685938 36.14576637 57.04633088 38.29162645 57.0625 40.4375 C57.07410156 41.63246094 57.08570313 42.82742187 57.09765625 44.05859375 C57 47 57 47 56 48 C53.26105915 48.08858646 50.5474673 48.11523479 47.80859375 48.09765625 C46.98875504 48.0962413 46.16891632 48.09482635 45.32423401 48.09336853 C42.69528618 48.08775289 40.06642227 48.07519779 37.4375 48.0625 C35.65950643 48.05748701 33.88151154 48.05292376 32.10351562 48.04882812 C27.73561842 48.03862752 23.3679036 48.01905532 19 48 C19 53.94 19 59.88 19 66 C20.89274658 65.99214478 20.89274658 65.99214478 22.82373047 65.98413086 C27.49397068 65.96606542 32.16420779 65.95456231 36.83447266 65.94506836 C38.85791543 65.94003169 40.88135456 65.93320211 42.90478516 65.92456055 C45.80892843 65.91246588 48.71302369 65.90676512 51.6171875 65.90234375 C52.52556366 65.89718246 53.43393982 65.89202118 54.36984253 65.88670349 C55.21056305 65.88662796 56.05128357 65.88655243 56.91748047 65.88647461 C58.03000687 65.88314369 58.03000687 65.88314369 59.16500854 65.87974548 C61 66 61 66 63 67 C63.02685412 69.31243792 63.04632841 71.6249627 63.0625 73.9375 C63.07410156 75.22527344 63.08570313 76.51304688 63.09765625 77.83984375 C63 81 63 81 62 82 C60.06693502 82.09396057 58.13041162 82.11743517 56.19506836 82.11352539 C54.33325172 82.11341209 54.33325172 82.11341209 52.43382263 82.11329651 C51.0691626 82.10818911 49.70450298 82.1029731 48.33984375 82.09765625 C46.95121817 82.095792 45.56259193 82.09436813 44.17396545 82.09336853 C40.51278885 82.08954387 36.8516517 82.07971403 33.19049072 82.06866455 C29.45707737 82.05844932 25.72365766 82.05387067 21.99023438 82.04882812 C14.66013823 82.03809171 7.33007464 82.02101591 0 82 C-1.47152506 79.05694988 -1.13876024 76.0855822 -1.12939453 72.85986328 C-1.13114685 72.12472504 -1.13289917 71.38958679 -1.13470459 70.63217163 C-1.13911621 68.19486144 -1.13618693 65.75762347 -1.1328125 63.3203125 C-1.13348588 61.62881456 -1.1344562 59.9373167 -1.13571167 58.24581909 C-1.13718783 54.69658489 -1.13503725 51.14737582 -1.13037109 47.59814453 C-1.12468255 43.04954584 -1.12794778 38.50100626 -1.13394356 33.95240974 C-1.1375588 30.45742346 -1.13640599 26.96245116 -1.13381577 23.46746445 C-1.13314871 21.79053617 -1.13396719 20.11360663 -1.13629532 18.43667984 C-1.13883665 16.09072768 -1.13495993 13.74487085 -1.12939453 11.39892578 C-1.13141876 10.70579285 -1.13344299 10.01265991 -1.13552856 9.29852295 C-1.12080307 5.94547515 -0.82272566 3.29090265 0 0 Z " fill="#FDFDFD" transform="translate(243,18)"/>
<path d="M0 0 C20.46 0 40.92 0 62 0 C63.36538938 2.73077876 63.13231826 4.95560367 63.125 8 C63.12886719 9.60875 63.12886719 9.60875 63.1328125 11.25 C63 14 63 14 62 16 C47.81 16.33 33.62 16.66 19 17 C19.495 24.92 19.495 24.92 20 33 C22.58714844 33.06058594 25.17429687 33.12117188 27.83984375 33.18359375 C30.33523625 33.24533614 32.83058124 33.30874326 35.32592773 33.37231445 C37.06514288 33.41572573 38.80440235 33.45739612 40.54370117 33.49731445 C43.03838488 33.55486768 45.5328441 33.6186042 48.02734375 33.68359375 C49.2007859 33.70866249 49.2007859 33.70866249 50.39793396 33.73423767 C55.88612829 33.88612829 55.88612829 33.88612829 57 35 C57.09894455 36.4346959 57.12970735 37.87440397 57.125 39.3125 C57.12886719 40.48232422 57.12886719 40.48232422 57.1328125 41.67578125 C57 44 57 44 56 48 C43.79 48.33 31.58 48.66 19 49 C19.495 57.415 19.495 57.415 20 66 C21.1960083 65.99476318 22.3920166 65.98952637 23.62426758 65.98413086 C28.05785373 65.96604288 32.49143661 65.95455405 36.92504883 65.94506836 C38.84465076 65.94003685 40.76424886 65.93321102 42.68383789 65.92456055 C45.44157864 65.91244331 48.19926876 65.90675989 50.95703125 65.90234375 C51.81649857 65.89718246 52.67596588 65.89202118 53.56147766 65.88670349 C54.36208115 65.88662796 55.16268463 65.88655243 55.98754883 65.88647461 C56.6914827 65.884254 57.39541656 65.88203339 58.12068176 65.87974548 C60 66 60 66 63 67 C63 71.95 63 76.9 63 82 C42.21 82 21.42 82 0 82 C-0.98159335 78.07362659 -1.14107757 74.60155516 -1.12939453 70.60107422 C-1.13114685 69.86243134 -1.13289917 69.12378845 -1.13470459 68.36276245 C-1.13909802 65.92671342 -1.13619455 63.49073724 -1.1328125 61.0546875 C-1.13348612 59.36125678 -1.13445662 57.66782615 -1.13571167 55.97439575 C-1.13718512 52.4287219 -1.13504486 48.88307326 -1.13037109 45.33740234 C-1.1246653 40.7864221 -1.12796041 36.23550073 -1.13394356 31.68452263 C-1.13755125 28.18962152 -1.13640977 24.69473444 -1.13381577 21.19983292 C-1.13314753 19.52125161 -1.13397134 17.84266904 -1.13629532 16.1640892 C-1.13882618 13.82273716 -1.1349755 11.48148155 -1.12939453 9.14013672 C-1.13141876 8.44295532 -1.13344299 7.74577393 -1.13552856 7.02746582 C-1.11426646 2.22853292 -1.11426646 2.22853292 0 0 Z " fill="#FEFEFE" transform="translate(808,18)"/>
<path d="M0 0 C1.09920273 0.00222061 2.19840546 0.00444122 3.33091736 0.00672913 C4.57212845 0.00680466 5.81333954 0.00688019 7.09216309 0.00695801 C8.45682311 0.01206541 9.82148274 0.01728142 11.18614197 0.02259827 C12.57476755 0.02446251 13.96339379 0.02588638 15.35202026 0.02688599 C19.01319686 0.03071065 22.67433402 0.04054048 26.335495 0.05158997 C30.06890835 0.06180519 33.80232805 0.06638384 37.53575134 0.07142639 C44.86584956 0.08216281 52.1959071 0.09975918 59.52598572 0.12025452 C59.52598572 5.07025452 59.52598572 10.02025452 59.52598572 15.12025452 C56.12527448 15.80039676 53.70357522 16.24461149 50.37828064 16.23377991 C49.59784897 16.23370438 48.8174173 16.23362885 48.01333618 16.23355103 C47.18606522 16.22838974 46.35879425 16.22322845 45.50645447 16.21791077 C44.21859795 16.21578835 44.21859795 16.21578835 42.90472412 16.21362305 C40.17427523 16.20804509 37.44390965 16.19549666 34.71348572 16.18275452 C32.85736711 16.17773667 31.00124722 16.17317426 29.14512634 16.16908264 C24.60535522 16.15893563 20.06576325 16.13935596 15.52598572 16.12025452 C16.02098572 24.53525452 16.02098572 24.53525452 16.52598572 33.12025452 C18.10766541 33.10865295 19.68934509 33.09705139 21.31895447 33.08509827 C43.05484434 32.97497343 43.05484434 32.97497343 53.52598572 34.12025452 C53.5528451 36.26602088 53.5723166 38.41188097 53.58848572 40.55775452 C53.60008728 41.75271545 53.61168884 42.94767639 53.62364197 44.17884827 C53.52598572 47.12025452 53.52598572 47.12025452 52.52598572 48.12025452 C49.78704487 48.20884097 47.07345302 48.23548931 44.33457947 48.21791077 C43.51474075 48.21649582 42.69490204 48.21508087 41.85021973 48.21362305 C39.22127189 48.20800741 36.59240798 48.19545231 33.96348572 48.18275452 C32.18549215 48.17774153 30.40749726 48.17317827 28.62950134 48.16908264 C24.26160414 48.15888204 19.89388931 48.13930984 15.52598572 48.12025452 C15.52598572 54.06025452 15.52598572 60.00025452 15.52598572 66.12025452 C30.04598572 66.12025452 44.56598572 66.12025452 59.52598572 66.12025452 C59.52598572 71.40025452 59.52598572 76.68025452 59.52598572 82.12025452 C51.45945982 82.142809 43.39295826 82.16117161 35.32640934 82.17206669 C31.58115534 82.17729466 27.83592396 82.18439073 24.09068298 82.19569397 C20.47916884 82.20652592 16.86767651 82.212532 13.25614738 82.21513176 C11.87538243 82.21698545 10.49461872 82.22060501 9.11386299 82.22598457 C7.1862262 82.23319898 5.25856765 82.2336626 3.33091736 82.23377991 C2.23171463 82.23600052 1.1325119 82.23822113 0 82.24050903 C-2.47401428 82.12025452 -2.47401428 82.12025452 -3.47401428 81.12025452 C-3.57435294 78.63071755 -3.61019371 76.16890498 -3.60340881 73.67884827 C-3.60516113 72.90002289 -3.60691345 72.12119751 -3.60871887 71.31877136 C-3.61313777 68.7317434 -3.61019927 66.14478323 -3.60682678 63.55775452 C-3.60749981 61.76795946 -3.60846983 59.97816449 -3.60972595 58.18836975 C-3.61120298 54.43225741 -3.60904822 50.6761688 -3.60438538 46.9200592 C-3.59868808 42.09424958 -3.60196706 37.26849557 -3.60795784 32.44268799 C-3.61156333 28.74537229 -3.61042492 25.04806987 -3.60783005 21.35075378 C-3.60716074 19.57086684 -3.60798931 17.7909787 -3.6103096 16.01109314 C-3.61283593 13.52791629 -3.60899583 11.04483077 -3.60340881 8.56166077 C-3.60543304 7.81876801 -3.60745728 7.07587524 -3.60954285 6.31047058 C-3.58383465 0.1741996 -3.58383465 0.1741996 0 0 Z " fill="#FDFDFD" transform="translate(495.47401428222656,119.87974548339844)"/>
<path d="M0 0 C1.09920273 0.00222061 2.19840546 0.00444122 3.33091736 0.00672913 C4.57212845 0.00680466 5.81333954 0.00688019 7.09216309 0.00695801 C8.45682311 0.01206541 9.82148274 0.01728142 11.18614197 0.02259827 C12.57476755 0.02446251 13.96339379 0.02588638 15.35202026 0.02688599 C19.01319686 0.03071065 22.67433402 0.04054048 26.335495 0.05158997 C30.06890835 0.06180519 33.80232805 0.06638384 37.53575134 0.07142639 C44.86584748 0.08216281 52.19591108 0.0992386 59.52598572 0.12025452 C59.55283667 2.59949253 59.57275119 5.07844291 59.58848572 7.55775452 C59.59686462 8.2648053 59.60524353 8.97185608 59.61387634 9.70033264 C59.62252159 11.50719011 59.57818583 13.31413054 59.52598572 15.12025452 C58.52598572 16.12025452 58.52598572 16.12025452 56.77328491 16.24050903 C56.01161514 16.23828842 55.24994537 16.23606781 54.4651947 16.23377991 C53.6043779 16.23370438 52.7435611 16.23362885 51.85665894 16.23355103 C50.92124771 16.22838974 49.98583649 16.22322845 49.02207947 16.21791077 C48.06906448 16.21649582 47.1160495 16.21508087 46.13415527 16.21362305 C43.07723407 16.20800604 40.02038495 16.19545067 36.96348572 16.18275452 C34.89642948 16.17774171 32.8293721 16.17317842 30.76231384 16.16908264 C25.68350984 16.15803108 20.60476002 16.14075506 15.52598572 16.12025452 C15.52598572 22.06025452 15.52598572 28.00025452 15.52598572 34.12025452 C28.06598572 34.12025452 40.60598572 34.12025452 53.52598572 34.12025452 C53.52598572 38.74025452 53.52598572 43.36025452 53.52598572 48.12025452 C40.98598572 48.12025452 28.44598572 48.12025452 15.52598572 48.12025452 C15.52598572 54.06025452 15.52598572 60.00025452 15.52598572 66.12025452 C16.82334656 66.1150177 18.1207074 66.10978088 19.4573822 66.10438538 C24.25245987 66.08633982 29.04753452 66.07482415 33.84263611 66.06532288 C35.92141728 66.06028163 38.00019488 66.05344877 40.07896423 66.04481506 C43.06001158 66.03274029 46.04101221 66.02702428 49.02207947 66.02259827 C50.4251963 66.01485634 50.4251963 66.01485634 51.85665894 66.00695801 C52.71747574 66.00688248 53.57829254 66.00680695 54.4651947 66.00672913 C55.22686447 66.00450851 55.98853424 66.0022879 56.77328491 66 C58.52598572 66.12025452 58.52598572 66.12025452 59.52598572 67.12025452 C59.52598572 72.07025452 59.52598572 77.02025452 59.52598572 82.12025452 C38.73598572 82.12025452 17.94598572 82.12025452 -3.47401428 82.12025452 C-3.51412309 61.94552342 -3.51412309 61.94552342 -3.52284241 53.37611389 C-3.52883085 47.51827596 -3.53593118 41.66045358 -3.54945374 35.80262756 C-3.56028263 31.08237474 -3.56629112 26.36213859 -3.56889153 21.64187431 C-3.57074577 19.83686498 -3.57436638 18.0318566 -3.57974434 16.22685432 C-3.5869548 13.70765807 -3.58800522 11.18853161 -3.58753967 8.66932678 C-3.59113495 7.91551224 -3.59473022 7.16169769 -3.59843445 6.38504028 C-3.58593274 0.17430158 -3.58593274 0.17430158 0 0 Z " fill="#FEFEFE" transform="translate(735.4740142822266,17.879745483398438)"/>
<path d="M0 0 C2.61376953 -0.34057617 2.61376953 -0.34057617 5.8828125 -0.29296875 C7.04941406 -0.28330078 8.21601563 -0.27363281 9.41796875 -0.26367188 C10.64128906 -0.23853516 11.86460937 -0.21339844 13.125 -0.1875 C14.97158203 -0.16719727 14.97158203 -0.16719727 16.85546875 -0.14648438 C19.90407843 -0.11103543 22.951825 -0.06162079 26 0 C31.31740553 13.74208471 36.09690372 27.67081904 40.88769531 41.6027832 C42.03020747 44.92525047 43.1763622 48.24644784 44.3235817 51.56729221 C45.43110836 54.77469511 46.53575603 57.98308686 47.640625 61.19140625 C48.04895569 62.37376358 48.45728638 63.55612091 48.87799072 64.77430725 C50.72479275 70.15150315 52.5202699 75.50960547 54 81 C53 82 53 82 51.14233398 82.11352539 C49.95619507 82.10567017 49.95619507 82.10567017 48.74609375 82.09765625 C47.89208984 82.09443359 47.03808594 82.09121094 46.15820312 82.08789062 C44.81145508 82.07532227 44.81145508 82.07532227 43.4375 82.0625 C42.53580078 82.05798828 41.63410156 82.05347656 40.70507812 82.04882812 C38.46998686 82.03700225 36.23502563 82.0205222 34 82 C31.43515269 76.52055347 30.36369909 72.13664591 29 66 C18.44 66 7.88 66 -3 66 C-3.99 69.63 -4.98 73.26 -6 77 C-6.66 78.65 -7.32 80.3 -8 82 C-14.6 82 -21.2 82 -28 82 C-25.74991773 71.87462978 -25.74991773 71.87462978 -24.32348633 67.70581055 C-24.00587845 66.77000656 -23.68827057 65.83420258 -23.36103821 64.87004089 C-23.02146591 63.88554459 -22.68189362 62.90104828 -22.33203125 61.88671875 C-21.9741301 60.8370845 -21.61622894 59.78745026 -21.2474823 58.70600891 C-20.10695173 55.36496055 -18.95976175 52.02624213 -17.8125 48.6875 C-17.06142729 46.4890763 -16.31077285 44.29050967 -15.56054688 42.09179688 C-13.73450334 36.74591817 -11.89812168 31.40367881 -10.0557251 26.06341553 C-9.35661014 24.03478174 -8.65927877 22.00553234 -7.96380615 19.97564697 C-7.00469707 17.17634814 -6.04020035 14.37896465 -5.07421875 11.58203125 C-4.79109329 10.75225266 -4.50796783 9.92247406 -4.21626282 9.06755066 C-3.95242294 8.30767349 -3.68858307 7.54779633 -3.41674805 6.76489258 C-3.19004929 6.10620682 -2.96335052 5.44752106 -2.7297821 4.76887512 C-2 3 -2 3 0 0 Z M11 18 C9.57231067 22.66201319 8.14823891 27.32510989 6.72753906 31.98925781 C6.24351197 33.57647685 5.75848987 35.16339281 5.27246094 36.75 C4.57486644 39.0278596 3.88083316 41.30677777 3.1875 43.5859375 C2.96876221 44.29744965 2.75002441 45.00896179 2.5246582 45.74203491 C1.39058962 49.30680063 1.39058962 49.30680063 1 53 C8.59 53 16.18 53 24 53 C22.9664412 45.76508842 21.21704336 39.12342537 19.1875 32.125 C18.84396484 30.8771875 18.50042969 29.629375 18.14648438 28.34375 C17.80294922 27.16039062 17.45941406 25.97703125 17.10546875 24.7578125 C16.79762451 23.6764502 16.48978027 22.59508789 16.17260742 21.48095703 C15.2604458 18.8247507 15.2604458 18.8247507 12.8684082 18.14013672 C12.2518335 18.0938916 11.63525879 18.04764648 11 18 Z " fill="#FDFDFD" transform="translate(346,120)"/>
<path d="M0 0 C0.8381424 -0.00570007 1.67628479 -0.01140015 2.53982544 -0.01727295 C4.32373792 -0.02674611 6.10766807 -0.03326607 7.89160156 -0.03710938 C10.58691503 -0.04671149 13.28143166 -0.07766758 15.9765625 -0.109375 C28.73048117 -0.18901701 40.77331016 0.2073792 50.7578125 9.203125 C58.12796962 18.14041026 58.7644179 26.97183153 57.7578125 38.203125 C56.18084843 45.41497342 51.84005412 50.20711301 45.7578125 54.203125 C39.51790506 57.2856018 33.53628988 59.34137196 26.5546875 59.30078125 C25.67135742 59.29828369 24.78802734 59.29578613 23.87792969 59.29321289 C22.76579102 59.28410889 21.65365234 59.27500488 20.5078125 59.265625 C16.9603125 59.245 13.4128125 59.224375 9.7578125 59.203125 C9.7578125 66.793125 9.7578125 74.383125 9.7578125 82.203125 C3.4878125 82.203125 -2.7821875 82.203125 -9.2421875 82.203125 C-9.26473852 71.65930807 -9.28310258 61.11550703 -9.29399967 50.57167149 C-9.2992285 45.67627126 -9.30632614 40.78088832 -9.31762695 35.88549805 C-9.32845584 31.16524522 -9.33446434 26.44500908 -9.33706474 21.7247448 C-9.33891899 19.91973546 -9.34253959 18.11472708 -9.34791756 16.30972481 C-9.35512802 13.79052856 -9.35617844 11.2714021 -9.35571289 8.75219727 C-9.35930817 7.99838272 -9.36290344 7.24456818 -9.36660767 6.46791077 C-9.35131381 -1.12994306 -6.79531157 0.03550399 0 0 Z M9.7578125 15.203125 C9.7578125 24.773125 9.7578125 34.343125 9.7578125 44.203125 C12.7690625 44.265 15.7803125 44.326875 18.8828125 44.390625 C19.82012207 44.41793701 20.75743164 44.44524902 21.72314453 44.47338867 C28.05779262 44.536128 32.12816453 43.34836414 37.1328125 39.265625 C39.72249976 34.38506055 39.46771219 29.60421747 38.7578125 24.203125 C36.70209497 19.51608903 34.52444111 17.71740455 29.82397461 15.79858398 C26.02365413 14.70334806 22.24106936 14.89338306 18.3203125 15.015625 C14.081875 15.1084375 14.081875 15.1084375 9.7578125 15.203125 Z " fill="#FEFEFE" transform="translate(441.2421875,17.796875)"/>
<path d="M0 0 C4.10481712 3.76065045 7.73505317 9.0868436 8.0078125 14.79296875 C7.97526042 16.77864583 7.94270833 18.76432292 7.91015625 20.75 C6.01630188 21.25744423 4.11996959 21.75564574 2.22265625 22.25 C1.16691406 22.5284375 0.11117187 22.806875 -0.9765625 23.09375 C-3.80127047 23.6891715 -6.21821083 23.87786492 -9.08984375 23.75 C-9.3321875 23.06292969 -9.57453125 22.37585938 -9.82421875 21.66796875 C-10.159375 20.76691406 -10.49453125 19.86585938 -10.83984375 18.9375 C-11.1646875 18.04417969 -11.48953125 17.15085938 -11.82421875 16.23046875 C-13.49153006 12.96274443 -15.49160959 11.35622675 -18.90234375 10.0625 C-24.70894187 9.23298598 -29.07541755 9.5431275 -34.2265625 12.34375 C-38.60739459 15.65003837 -40.96569432 20.47366287 -42.08984375 25.75 C-42.32969575 28.80956669 -42.32083162 31.86941717 -42.33984375 34.9375 C-42.36046875 35.75025391 -42.38109375 36.56300781 -42.40234375 37.40039062 C-42.44900538 44.73209889 -40.7687626 51.36523461 -37.08984375 57.75 C-34.76129912 58.94838209 -34.76129912 58.94838209 -32.08984375 59.75 C-30.97609375 60.306875 -30.97609375 60.306875 -29.83984375 60.875 C-24.48051724 62.58024025 -19.65002002 62.18480322 -14.27734375 60.6875 C-8.25742772 57.02833535 -6.68123277 51.24817182 -5.08984375 44.75 C-1.43590838 43.48176515 1.40085651 43.99284679 5.16015625 44.6875 C6.2378125 44.88214844 7.31546875 45.07679688 8.42578125 45.27734375 C9.245625 45.43332031 10.06546875 45.58929688 10.91015625 45.75 C11.35729802 55.13997724 9.70789237 62.53149377 3.69921875 69.9609375 C-3.37679911 77.03695536 -12.75296712 78.72638238 -22.40234375 79.0625 C-34.93143556 78.76166022 -46.19607018 75.1960655 -54.96484375 66 C-61.95084743 57.43225964 -63.2832607 47.77675916 -63.33984375 37.125 C-63.36046875 36.17753906 -63.38109375 35.23007813 -63.40234375 34.25390625 C-63.46660456 22.51024238 -59.97342528 12.28731282 -52.05078125 3.484375 C-38.1819293 -9.74739188 -15.6459694 -11.3582355 0 0 Z " fill="#FDFDFD" transform="translate(303.08984375,125.25)"/>
<path d="M0 0 C6.93 0 13.86 0 21 0 C24.9579674 7.69886164 28.45564789 15.52243423 31.8125 23.5 C32.31458984 24.67820312 32.81667969 25.85640625 33.33398438 27.0703125 C33.80771484 28.19179688 34.28144531 29.31328125 34.76953125 30.46875 C35.19854736 31.48388672 35.62756348 32.49902344 36.06958008 33.54492188 C37 36 37 36 37 38 C40.08536793 36.45731603 40.4091146 33.99390829 41.6796875 30.83984375 C41.93372345 30.21654678 42.1877594 29.59324982 42.44949341 28.95106506 C43.26443458 26.94908463 44.07025219 24.94359728 44.875 22.9375 C45.67381134 20.95692202 46.47464376 18.97721559 47.27908325 16.99891663 C48.01569297 15.18582493 48.74605981 13.3702006 49.47607422 11.55444336 C51.15826692 7.6308542 53.09084709 3.81830582 55 0 C61.93 0 68.86 0 76 0 C75.10651583 4.46742086 74.07323085 7.16562534 72.0078125 11.12890625 C71.70572876 11.710923 71.40364502 12.29293976 71.09240723 12.89259338 C70.44452438 14.13827643 69.79378372 15.38247659 69.14044189 16.62530518 C68.11235503 18.58662327 67.09876827 20.55491693 66.08740234 22.52490234 C63.11242482 28.28757837 60.11906196 33.95917418 56.59375 39.41015625 C48.3898855 52.28588367 47.52426328 63.56097423 48.03076172 78.7253418 C48 81 48 81 47 82 C45.65732587 82.08631874 44.31025678 82.10706473 42.96484375 82.09765625 C42.15595703 82.09443359 41.34707031 82.09121094 40.51367188 82.08789062 C39.66353516 82.07951172 38.81339844 82.07113281 37.9375 82.0625 C37.08349609 82.05798828 36.22949219 82.05347656 35.34960938 82.04882812 C33.23304337 82.03700373 31.11651315 82.01906769 29 82 C27.7422882 79.48457641 28.05591028 78.15310659 28.32421875 75.36328125 C29.42203369 59.46569079 26.01939897 49.39314 17.78027344 35.93359375 C15.3003855 31.84715197 12.98305741 27.67536066 10.65307617 23.50219727 C9.02493418 20.59369202 7.37321682 17.69993677 5.71484375 14.80859375 C0 4.72778742 0 4.72778742 0 0 Z " fill="#FDFDFD" transform="translate(647,18)"/>
<path d="M0 0 C5.94 0 11.88 0 18 0 C18.33 21.45 18.66 42.9 19 65 C35.335 65.495 35.335 65.495 52 66 C52 71.28 52 76.56 52 82 C44.61271409 82.02464071 37.22545188 82.0428316 29.83813477 82.05493164 C27.32283105 82.05997363 24.80753028 82.06680703 22.29223633 82.07543945 C18.68570225 82.08751094 15.07920677 82.09322949 11.47265625 82.09765625 C9.77424339 82.10539818 9.77424339 82.10539818 8.04151917 82.11329651 C7.00051559 82.11337204 5.95951202 82.11344757 4.88696289 82.11352539 C3.96540909 82.115746 3.04385529 82.11796661 2.09437561 82.12025452 C0 82 0 82 -1 81 C-1.10032069 78.5462176 -1.1361818 76.12056624 -1.12939453 73.66625977 C-1.13202301 72.51506149 -1.13202301 72.51506149 -1.13470459 71.34060669 C-1.13912394 68.79085054 -1.13618455 66.24116316 -1.1328125 63.69140625 C-1.13348559 61.92642707 -1.13445565 60.16144798 -1.13571167 58.39646912 C-1.13718881 54.69163127 -1.13503383 50.98681748 -1.13037109 47.28198242 C-1.12467796 42.52577324 -1.12795007 37.76962053 -1.13394356 33.01341343 C-1.13755228 29.36666944 -1.13640907 25.71993889 -1.13381577 22.0731945 C-1.13314714 20.31925385 -1.13397267 18.565312 -1.13629532 16.81137276 C-1.13882647 14.36192708 -1.13497448 11.91257356 -1.12939453 9.46313477 C-1.13141876 8.73318802 -1.13344299 8.00324127 -1.13552856 7.25117493 C-1.11426354 2.22852707 -1.11426354 2.22852707 0 0 Z " fill="#FDFDFD" transform="translate(511,18)"/>
<path d="M0 0 C1.02083333 0.875 2.04166667 1.75 3.0625 2.625 C4.01382813 3.43904297 4.01382813 3.43904297 4.984375 4.26953125 C6.31099026 5.40846645 7.63401813 6.55159577 8.953125 7.69921875 C9.56671875 8.23160156 10.1803125 8.76398438 10.8125 9.3125 C11.37582031 9.80363281 11.93914062 10.29476562 12.51953125 10.80078125 C15.64719841 13.33427417 18.04014751 13.38075505 22 13 C26.99743733 10.33470009 30.91981522 6.45568241 35.046875 2.609375 C37 1 37 1 39 1 C39.62204649 13.717395 38.71909139 24.13368007 34 36 C33.7009375 36.77472656 33.401875 37.54945313 33.09375 38.34765625 C30.24739698 44.76512811 25.56501697 50.71233556 21 56 C20.34 56 19.68 56 19 56 C19 55.34 19 54.68 19 54 C18.34 54 17.68 54 17 54 C3.45153928 37.68765329 -0.43201365 20.68865367 0 0 Z " fill="#512513" transform="translate(98,148)"/>
<path d="M0 0 C10.6320313 10.0066177 18.85000711 23.82467847 20.24609375 38.60546875 C20.25 40.8125 20.25 40.8125 20 44 C19.3709375 44.14695313 18.741875 44.29390625 18.09375 44.4453125 C12.28939765 45.96633254 8.18926914 47.92256226 3.59375 51.79296875 C2 53 2 53 0 53 C0 52.34 0 51.68 0 51 C-0.87011719 50.56880859 -0.87011719 50.56880859 -1.7578125 50.12890625 C-3.15705346 49.42441036 -4.54918953 48.70539428 -5.9296875 47.96484375 C-9.96281299 45.83489997 -13.39106378 44.46089362 -18 44 C-18.21430804 38.33344335 -17.66068151 33.59997144 -15.875 28.1875 C-15.65054199 27.49390381 -15.42608398 26.80030762 -15.19482422 26.08569336 C-11.85519184 16.17123145 -6.68273047 8.00741373 0 0 Z " fill="#248947" transform="translate(116,18)"/>
<path d="M0 0 C0.15855469 0.67804688 0.31710938 1.35609375 0.48046875 2.0546875 C3.35076609 13.50416089 7.40341981 21.03439104 15.98608398 29.06616211 C17.35358956 30.34661163 18.68057841 31.67005671 20 33 C20 33.66 20 34.32 20 35 C3.09964282 38.38007144 -14.13703346 31.19174955 -28 22 C-28.7528125 21.52820313 -29.505625 21.05640625 -30.28125 20.5703125 C-30.8484375 20.05210938 -31.415625 19.53390625 -32 19 C-32 15 -32 15 -30.70703125 13.54296875 C-21.72155708 7.1141862 -11.38169163 0 0 0 Z " fill="#E91E22" transform="translate(59,95)"/>
<path d="M0 0 C12.02947015 1.15667982 24.49429661 7.49429661 33 16 C29.23710824 24.72391822 17.8345878 29.51144578 9.5546875 33.04296875 C0.39128726 36.10222306 -9.4695962 35.25202831 -19 35 C-18.0859375 33.93359375 -17.171875 32.8671875 -16.2578125 31.80078125 C-15.70899414 31.15963379 -15.16017578 30.51848633 -14.59472656 29.85791016 C-13.3376423 28.39336465 -12.07260728 26.93564359 -10.8046875 25.48046875 C-4.21013664 17.64443361 -0.7577546 10.22968704 0 0 Z " fill="#0FA026" transform="translate(175,94)"/>
<path d="M0 0 C0.33 0.66 0.66 1.32 1 2 C0.67 2.66 0.34 3.32 0 4 C5.445 3.505 5.445 3.505 11 3 C11.33 3.99 11.66 4.98 12 6 C13.299375 5.979375 14.59875 5.95875 15.9375 5.9375 C17.29165633 5.91600546 18.64756083 5.92851801 20 6 C20.33 6.33 20.66 6.66 21 7 C21.66 5.02 22.32 3.04 23 1 C23.66 1 24.32 1 25 1 C25 7.93 25 14.86 25 22 C24.01 22 23.02 22 22 22 C20.515 15.07 20.515 15.07 19 8 C18.34 8 17.68 8 17 8 C15.68 13.61 14.36 19.22 13 25 C11.68 25 10.36 25 9 25 C9.33 19.72 9.66 14.44 10 9 C8.44168874 13.42623195 8.44168874 13.42623195 6.88916016 17.85449219 C5.76902986 21.01346014 4.59449302 24.04944282 3 27 C2.01 26.67 1.02 26.34 0 26 C0.6099126 21.01155691 1.63474435 16.39844654 3.0625 11.5625 C3.42472656 10.32628906 3.78695312 9.09007813 4.16015625 7.81640625 C4.43730469 6.88699219 4.71445313 5.95757812 5 5 C-0.59967378 9.79502751 -0.59967378 9.79502751 -5.875 14.9375 C-8 17 -8 17 -10 17 C-9.65806126 11.52898009 -6.27704522 8.10038245 -3 4 C-1.99593287 2.66972673 -0.99475047 1.33725438 0 0 Z " fill="#3BB0E8" transform="translate(128,101)"/>
<path d="M0 0 C2.4144002 3.62160031 4.7807956 7.27016623 7.125 10.9375 C7.82689453 12.01161133 7.82689453 12.01161133 8.54296875 13.10742188 C8.98511719 13.80287109 9.42726563 14.49832031 9.8828125 15.21484375 C10.28902832 15.84511475 10.69524414 16.47538574 11.11376953 17.12475586 C12 19 12 19 12 23 C8.14295732 21.48658639 6.34598463 19.20239414 3.875 15.9375 C1.39068378 12.4287459 1.39068378 12.4287459 -2 10 C-1.7834375 11.00160156 -1.566875 12.00320312 -1.34375 13.03515625 C-1.06213368 14.37752737 -0.78090434 15.71997971 -0.5 17.0625 C-0.35691406 17.71927734 -0.21382812 18.37605469 -0.06640625 19.05273438 C0.83952455 23.43139988 1.14031146 27.50418704 1 32 C0.01 32 -0.98 32 -2 32 C-2.83830973 29.23058394 -3.67082034 26.45964931 -4.5 23.6875 C-4.85771484 22.50897461 -4.85771484 22.50897461 -5.22265625 21.30664062 C-5.44824219 20.54931641 -5.67382812 19.79199219 -5.90625 19.01171875 C-6.22045898 17.96697388 -6.22045898 17.96697388 -6.54101562 16.90112305 C-7 15 -7 15 -7 12 C-7.66 11.67 -8.32 11.34 -9 11 C-8.2575 10.855625 -7.515 10.71125 -6.75 10.5625 C-4.47972261 10.09812508 -2.24240521 9.58136431 0 9 C-0.185625 8.2575 -0.37125 7.515 -0.5625 6.75 C-0.99203108 4.05009037 -0.85122974 2.55368923 0 0 Z " fill="#EBC65F" transform="translate(99,95)"/>
<path d="M0 0 C0.33 0.99 0.66 1.98 1 3 C-0.32 4.32 -1.64 5.64 -3 7 C-3.66 6.67 -4.32 6.34 -5 6 C-5.66 8.31 -6.32 10.62 -7 13 C-7.99 13 -8.98 13 -10 13 C-9.97643433 13.88353149 -9.97643433 13.88353149 -9.95239258 14.78491211 C-9.889308 17.50234027 -9.85078009 20.21961361 -9.8125 22.9375 C-9.78736328 23.86369141 -9.76222656 24.78988281 -9.73632812 25.74414062 C-9.67758296 31.32493132 -10.26307344 35.85480839 -12.28320312 41.07226562 C-13.24648026 43.66287742 -13.64959186 46.26681654 -14 49 C-14.66 49 -15.32 49 -16 49 C-16.144375 49.598125 -16.28875 50.19625 -16.4375 50.8125 C-16.8872439 52.56150404 -17.42892341 54.28677023 -18 56 C-18.66 56 -19.32 56 -20 56 C-20 56.66 -20 57.32 -20 58 C-20.66 57.67 -21.32 57.34 -22 57 C-21.68546875 56.44054687 -21.3709375 55.88109375 -21.046875 55.3046875 C-13.83599867 41.79515414 -12.32043506 29.02840433 -12 14 C-12.66 13.67 -13.32 13.34 -14 13 C-13.113125 12.278125 -12.22625 11.55625 -11.3125 10.8125 C-8.37088913 8.3634702 -5.67143151 5.74363236 -3 3 C-2 2 -1 1 0 0 Z " fill="#63D035" transform="translate(149,135)"/>
<path d="M0 0 C-1.32915392 3.55073976 -2.93936642 6.68302799 -4.875 9.9375 C-9.55192495 18.38798298 -11.77826137 27.46801941 -13 37 C-17.62 37.33 -22.24 37.66 -27 38 C-27 37.34 -27 36.68 -27 36 C-22.71 36 -18.42 36 -14 36 C-14.061875 33.958125 -14.12375 31.91625 -14.1875 29.8125 C-14.33993386 24.78218248 -13.8291575 22.15712939 -11 18 C-10.29329272 15.30745009 -10.29329272 15.30745009 -10 13 C-9.34 13 -8.68 13 -8 13 C-8 11.68 -8 10.36 -8 9 C-7.34 9 -6.68 9 -6 9 C-6.12375 7.88625 -6.12375 7.88625 -6.25 6.75 C-6 4 -6 4 -4.125 1.6875 C-2 0 -2 0 0 0 Z " fill="#D5C65E" transform="translate(111,24)"/>
<path d="M0 0 C0.66 0 1.32 0 2 0 C2 6.93 2 13.86 2 21 C1.01 21 0.02 21 -1 21 C-1.99 16.38 -2.98 11.76 -4 7 C-4.66 7 -5.32 7 -6 7 C-6.33 8.65 -6.66 10.3 -7 12 C-7.33 12 -7.66 12 -8 12 C-8 10.02 -8 8.04 -8 6 C-6.34385343 5.61781233 -4.67542976 5.28604898 -3 5 C-2.67 5.33 -2.34 5.66 -2 6 C-1.34 4.02 -0.68 2.04 0 0 Z " fill="#39AEE7" transform="translate(151,102)"/>
<path d="M0 0 C1.85625 0.6496875 1.85625 0.6496875 3.75 1.3125 C14.80148661 4.96173893 27.35504149 8.91123963 39 6 C39.99 7.32 40.98 8.64 42 10 C26.69707315 10.58606954 13.50945515 8.7735971 0 1 C0 0.67 0 0.34 0 0 Z " fill="#F83062" transform="translate(41,123)"/>
<path d="M0 0 C0.66 0 1.32 0 2 0 C1.67 2.31 1.34 4.62 1 7 C1.66 7 2.32 7 3 7 C3.33 6.34 3.66 5.68 4 5 C4.90413673 8.83724172 5.10576898 12.37502274 5.0625 16.3125 C5.05347656 17.38113281 5.04445313 18.44976562 5.03515625 19.55078125 C5.02355469 20.35902344 5.01195313 21.16726562 5 22 C4.01 22 3.02 22 2 22 C-1.65989848 4.97969543 -1.65989848 4.97969543 0 0 Z " fill="#ECC257" transform="translate(86,103)"/>
<path d="M0 0 C0 4.08354031 -1.46261447 4.8956823 -4.3125 7.75 C-10.45224623 13.70660039 -17.29222458 19.73369873 -26 21 C-26 20.34 -26 19.68 -26 19 C-24.68 19 -23.36 19 -22 19 C-21.34 17.68 -20.68 16.36 -20 15 C-18.35 15 -16.7 15 -15 15 C-15.33 14.01 -15.66 13.02 -16 12 C-15.34 11.67 -14.68 11.34 -14 11 C-13.01 11.33 -12.02 11.66 -11 12 C-10.67 10.35 -10.34 8.7 -10 7 C-9.360625 6.896875 -8.72125 6.79375 -8.0625 6.6875 C-7.0415625 6.3471875 -7.0415625 6.3471875 -6 6 C-5.67 5.01 -5.34 4.02 -5 3 C-3 1.875 -3 1.875 -1 1 C-0.67 0.67 -0.34 0.34 0 0 Z " fill="#5EDB37" transform="translate(214,196)"/>
<path d="M0 0 C4.95 0 9.9 0 15 0 C14.67 1.65 14.34 3.3 14 5 C9.71 5.99 5.42 6.98 1 8 C0.67 9.65 0.34 11.3 0 13 C-0.33 13 -0.66 13 -1 13 C-1.17754126 9.09409237 -1.20731737 6.31097606 1 3 C1.66 2.67 2.32 2.34 3 2 C2.01 1.34 1.02 0.68 0 0 Z " fill="#EAC866" transform="translate(99,82)"/>
<path d="M0 0 C2 2 2 2 2.6796875 5.0078125 C3.11539063 5.99523438 3.55109375 6.98265625 4 8 C7.2945875 9.38103087 7.2945875 9.38103087 11.125 9.875 C12.40632812 10.09929688 13.68765625 10.32359375 15.0078125 10.5546875 C15.99523437 10.70164062 16.98265625 10.84859375 18 11 C18 13.31 18 15.62 18 18 C17.34 18 16.68 18 16 18 C15.9175 18.515625 15.835 19.03125 15.75 19.5625 C14.67859775 23.04455732 12.86476395 25.87200885 11 29 C10.34 28.67 9.68 28.34 9 28 C9.49371094 27.18015625 9.98742187 26.3603125 10.49609375 25.515625 C11.13675781 24.43796875 11.77742187 23.3603125 12.4375 22.25 C13.07558594 21.18265625 13.71367187 20.1153125 14.37109375 19.015625 C16.18804166 15.94956599 16.18804166 15.94956599 17 12 C11.72 11.67 6.44 11.34 1 11 C0.67 7.37 0.34 3.74 0 0 Z " fill="#3DAFDB" transform="translate(135,50)"/>
<path d="M0 0 C-2.93361396 1.55508703 -5.84915205 2.65128364 -9 3.6875 C-17.8795263 6.8731935 -26.03976 11.61978 -33 18 C-33.66 17.34 -34.32 16.68 -35 16 C-29.25 11 -29.25 11 -27 11 C-27 10.34 -27 9.68 -27 9 C-25.5437455 8.32880451 -24.08492133 7.66318193 -22.625 7 C-21.81289063 6.62875 -21.00078125 6.2575 -20.1640625 5.875 C-18 5 -18 5 -16 5 C-16 4.34 -16 3.68 -16 3 C-14.27318563 2.49193553 -12.54342021 1.99389533 -10.8125 1.5 C-9.36810547 1.08234375 -9.36810547 1.08234375 -7.89453125 0.65625 C-5.14654124 0.03322392 -2.80401584 -0.12302812 0 0 Z " fill="#FAAE55" transform="translate(59,94)"/>
<path d="M0 0 C0.66 0 1.32 0 2 0 C2.83661862 2.7907207 3.66942737 5.58248012 4.5 8.375 C4.73847656 9.1690625 4.97695312 9.963125 5.22265625 10.78125 C5.44824219 11.54179688 5.67382812 12.30234375 5.90625 13.0859375 C6.22045898 14.1385376 6.22045898 14.1385376 6.54101562 15.21240234 C7 17 7 17 7 19 C6.34 19 5.68 19 5 19 C5 17.68 5 16.36 5 15 C4.34 15 3.68 15 3 15 C2.67 16.32 2.34 17.64 2 19 C0.68 18.67 -0.64 18.34 -2 18 C-1.01 18 -0.02 18 1 18 C0.67 12.06 0.34 6.12 0 0 Z " fill="#FDF1C5" transform="translate(90,107)"/>
<path d="M0 0 C0.33 0 0.66 0 1 0 C2.11349678 10.91226845 -2.75734217 22.26027904 -9 31 C-9.33 29.68 -9.66 28.36 -10 27 C-9.34 27 -8.68 27 -8 27 C-7.855625 26.401875 -7.71125 25.80375 -7.5625 25.1875 C-7.1127561 23.43849596 -6.57107659 21.71322977 -6 20 C-6.66 19.67 -7.32 19.34 -8 19 C-6.71937515 17.2925002 -5.38232443 15.62626404 -4 14 C-3.34 14 -2.68 14 -2 14 C-1.855625 12.989375 -1.71125 11.97875 -1.5625 10.9375 C-0.78125 5.46875 -0.78125 5.46875 0 0 Z " fill="#61D83C" transform="translate(227,162)"/>
<path d="M0 0 C3.36748512 1.51947499 4.60840337 2.52100842 6 6 C4.35 6.66 2.7 7.32 1 8 C0.34 7.34 -0.32 6.68 -1 6 C-1.33 6.66 -1.66 7.32 -2 8 C-4.25 8.5625 -4.25 8.5625 -7 9 C-7.928125 9.185625 -8.85625 9.37125 -9.8125 9.5625 C-10.534375 9.706875 -11.25625 9.85125 -12 10 C-11.319375 9.46375 -10.63875 8.9275 -9.9375 8.375 C-6.56615832 5.64923439 -3.27934457 2.83516822 0 0 Z " fill="#54DC35" transform="translate(208,111)"/>
<path d="M0 0 C0.33 0.99 0.66 1.98 1 3 C-0.32 4.32 -1.64 5.64 -3 7 C-3.66 6.67 -4.32 6.34 -5 6 C-5.66 8.31 -6.32 10.62 -7 13 C-7.99 13 -8.98 13 -10 13 C-10.33 18.61 -10.66 24.22 -11 30 C-11.33 30 -11.66 30 -12 30 C-12 24.72 -12 19.44 -12 14 C-12.66 13.67 -13.32 13.34 -14 13 C-13.113125 12.278125 -12.22625 11.55625 -11.3125 10.8125 C-8.37088913 8.3634702 -5.67143151 5.74363236 -3 3 C-2 2 -1 1 0 0 Z " fill="#69D441" transform="translate(149,135)"/>
<path d="M0 0 C3.12079623 2.64139681 4.53499866 5.77022771 6.25 9.4375 C7.06210938 11.13712891 7.06210938 11.13712891 7.890625 12.87109375 C8.97961706 15.9425115 9.24107438 17.06327167 8 20 C7.01 17.69 6.02 15.38 5 13 C4.34 13 3.68 13 3 13 C3 11.02 3 9.04 3 7 C2.34 7 1.68 7 1 7 C1 9.31 1 11.62 1 14 C-1.33214424 10.35602463 -1.23164058 7.24674388 -1 3 C-0.67 2.01 -0.34 1.02 0 0 Z " fill="#5BDD33" transform="translate(217,121)"/>
<path d="M0 0 C9.11578307 -0.96520056 16.60822737 1.86707155 25 5 C25 5.33 25 5.66 25 6 C20.24433495 6.23198366 16.55038342 5.30010955 12 4 C8.70780572 3.83152909 8.70780572 3.83152909 6 4 C6 3.34 6 2.68 6 2 C4.02 2 2.04 2 0 2 C0 1.34 0 0.68 0 0 Z " fill="#E5BF5D" transform="translate(74,1)"/>
<path d="M0 0 C2 2 2 2 2.1953125 3.9453125 C2.13020833 5.96354167 2.06510417 7.98177083 2 10 C2.66 10 3.32 10 4 10 C3.69106068 11.6256807 3.3777305 13.25052748 3.0625 14.875 C2.88847656 15.77992187 2.71445313 16.68484375 2.53515625 17.6171875 C2 20 2 20 1 22 C0.34 22 -0.32 22 -1 22 C-1.02698189 20.37509046 -1.04638757 18.75005367 -1.0625 17.125 C-1.07410156 16.22007813 -1.08570312 15.31515625 -1.09765625 14.3828125 C-1 12 -1 12 0 10 C0.06996014 8.29297265 0.08440154 6.58331997 0.0625 4.875 C0.05347656 3.96492188 0.04445313 3.05484375 0.03515625 2.1171875 C0.02355469 1.41851562 0.01195313 0.71984375 0 0 Z " fill="#E9C76B" transform="translate(77,98)"/>
<path d="M0 0 C1.65 0 3.3 0 5 0 C5.99 2.97 6.98 5.94 8 9 C8.66 9 9.32 9 10 9 C10.36398622 11.08164018 10.71583287 13.16540562 11.0625 15.25 C11.25972656 16.41015625 11.45695312 17.5703125 11.66015625 18.765625 C11.9606216 21.62522624 11.9439206 23.33325929 11 26 C9.77240971 23.54481943 9.89511943 21.80467806 9.8125 19.0625 C9.30191312 12.40726406 6.51690437 7.56036562 3 2 C1.35 3.32 -0.3 4.64 -2 6 C-2 4.68 -2 3.36 -2 2 C-1.34 2 -0.68 2 0 2 C0 1.34 0 0.68 0 0 Z " fill="#E8C96C" transform="translate(65,72)"/>
<path d="M0 0 C1.65 0 3.3 0 5 0 C5.33 0.66 5.66 1.32 6 2 C8.02463255 2.65213292 8.02463255 2.65213292 10 3 C10 3.66 10 4.32 10 5 C15.28 5 20.56 5 26 5 C25.67 5.66 25.34 6.32 25 7 C17.43006175 7.45218658 7.25405993 7.55254477 1.15234375 2.45703125 C0 1 0 1 0 0 Z " fill="#FDF9DA" transform="translate(88,76)"/>
<path d="M0 0 C4.19635765 6.29453647 3.60674546 13.65601602 3 21 C1.99513608 24.52799386 0.68092094 27.74321568 -1 31 C-1.33 31 -1.66 31 -2 31 C-2.20086443 27.28400809 -2.1519437 26.22791555 0 23 C1.50998248 15.34504532 0.87252121 7.69161004 0 0 Z " fill="#D4F9F3" transform="translate(172,81)"/>
<path d="M0 0 C1 4 1 4 1 8 C0.67 7.34 0.34 6.68 0 6 C-0.45375 6.495 -0.9075 6.99 -1.375 7.5 C-3 9 -3 9 -5 9 C-4.67 10.65 -4.34 12.3 -4 14 C-3.01 14 -2.02 14 -1 14 C-0.34 15.32 0.32 16.64 1 18 C-2.81684226 16.44499019 -5.19195732 13.96404505 -8 11 C-5.36 7.37 -2.72 3.74 0 0 Z " fill="#5ECC33" transform="translate(126,193)"/>
<path d="M0 0 C0.99 0 1.98 0 3 0 C5.29612756 9.41002278 5.29612756 9.41002278 5 14 C3.26337666 10.77484237 2.1094072 7.48670834 1 4 C0.89042969 4.63808594 0.78085938 5.27617188 0.66796875 5.93359375 C0.50941406 6.75988281 0.35085937 7.58617188 0.1875 8.4375 C0.03667969 9.26121094 -0.11414063 10.08492187 -0.26953125 10.93359375 C-0.51058594 11.61550781 -0.75164062 12.29742187 -1 13 C-1.99 13.33 -2.98 13.66 -4 14 C-3.52372025 12.04096255 -3.04388577 10.08278903 -2.5625 8.125 C-2.29566406 7.03445312 -2.02882813 5.94390625 -1.75390625 4.8203125 C-1 2 -1 2 0 0 Z " fill="#FBEFC0" transform="translate(82,106)"/>
<path d="M0 0 C-1 1 -1 1 -3.5625 1.0625 C-4.7690625 1.0315625 -4.7690625 1.0315625 -6 1 C-6.33 1.99 -6.66 2.98 -7 4 C-9.68168324 4.7860106 -12.27676414 5.41782414 -15 6 C-16.33666334 6.36295165 -17.67039919 6.73697364 -19 7.125 C-19.99 7.41375 -20.98 7.7025 -22 8 C-17.15438183 2.75058032 -7.07888108 -2.83155243 0 0 Z " fill="#DB351C" transform="translate(59,96)"/>
<path d="M0 0 C0.66 0.33 1.32 0.66 2 1 C3.36817102 7.04275534 3.36817102 7.04275534 2.0625 10.4375 C1.711875 10.953125 1.36125 11.46875 1 12 C0.01 11.67 -0.98 11.34 -2 11 C-1.85957123 9.35369672 -1.71250671 7.70795821 -1.5625 6.0625 C-1.48128906 5.14597656 -1.40007812 4.22945313 -1.31640625 3.28515625 C-1 1 -1 1 0 0 Z " fill="#47B3E6" transform="translate(139,115)"/>
<path d="M0 0 C2.31 1.98 4.62 3.96 7 6 C6.67 7.32 6.34 8.64 6 10 C4.68 10.33 3.36 10.66 2 11 C2.66 9.35 3.32 7.7 4 6 C3.34 6 2.68 6 2 6 C1.67 9.63 1.34 13.26 1 17 C0.67 17 0.34 17 0 17 C0 11.39 0 5.78 0 0 Z " fill="#6B2A29" transform="translate(98,148)"/>
<path d="M0 0 C0.33 0 0.66 0 1 0 C1.25706972 5.91260345 0.2982126 11.23918159 -1 17 C-1.66 15.68 -2.32 14.36 -3 13 C-3.66 13 -4.32 13 -5 13 C-4.54554036 11.58208592 -4.08625056 10.16571954 -3.625 8.75 C-3.24214844 7.56664063 -3.24214844 7.56664063 -2.8515625 6.359375 C-2.04826333 4.13372042 -1.10288338 2.09068328 0 0 Z " fill="#DBF9FD" transform="translate(138,109)"/>
<path d="M0 0 C2.80655613 2.80655613 2.98666573 4.61997321 3.125 8.5625 C3 12 3 12 2 14 C1.77377919 15.70363822 1.59111527 17.41328701 1.4375 19.125 C1.31181641 20.49011719 1.31181641 20.49011719 1.18359375 21.8828125 C1.12300781 22.58148438 1.06242187 23.28015625 1 24 C0.67 24 0.34 24 0 24 C0 16.08 0 8.16 0 0 Z " fill="#FDF7D7" transform="translate(75,96)"/>
<path d="M0 0 C0.99 0.33 1.98 0.66 3 1 C5.22818441 1.06937062 7.45834524 1.08457084 9.6875 1.0625 C10.86699219 1.05347656 12.04648438 1.04445313 13.26171875 1.03515625 C14.16535156 1.02355469 15.06898438 1.01195313 16 1 C16 1.66 16 2.32 16 3 C10.06 3.495 10.06 3.495 4 4 C6.31 4.33 8.62 4.66 11 5 C11 5.66 11 6.32 11 7 C9.54077307 6.88590407 8.08259402 6.75834456 6.625 6.625 C5.40683594 6.52058594 5.40683594 6.52058594 4.1640625 6.4140625 C2 6 2 6 0 4 C0 2.68 0 1.36 0 0 Z " fill="#3EAEE1" transform="translate(118,82)"/>
<path d="M0 0 C0.33 1.32 0.66 2.64 1 4 C-3.3600859 6.45953564 -7.26071784 7.58966317 -12.14453125 8.375 C-12.75683594 8.58125 -13.36914062 8.7875 -14 9 C-14.33 9.99 -14.66 10.98 -15 12 C-15 10.35 -15 8.7 -15 7 C-11.9530371 5.30566082 -9.17178534 4.50532888 -5.75 3.875 C-4.41195312 3.62363281 -4.41195312 3.62363281 -3.046875 3.3671875 C-2.37140625 3.24601562 -1.6959375 3.12484375 -1 3 C-0.67 2.01 -0.34 1.02 0 0 Z " fill="#FEF4D3" transform="translate(114,83)"/>
<path d="M0 0 C1.45880109 0.14107747 2.91703551 0.28802415 4.375 0.4375 C5.59316406 0.55931641 5.59316406 0.55931641 6.8359375 0.68359375 C9 1 9 1 11 2 C12.03789581 3.64333504 13.03567924 5.31243867 14 7 C14.99 8.485 14.99 8.485 16 10 C12.86129509 8.48174274 9.86833539 6.7870659 6.875 5 C6.00617188 4.484375 5.13734375 3.96875 4.2421875 3.4375 C2 2 2 2 0 0 Z " fill="#29B4B5" transform="translate(190,98)"/>
<path d="M0 0 C0.33 0 0.66 0 1 0 C1 4.29 1 8.58 1 13 C0.01 13 -0.98 13 -2 13 C-2.66 9.37 -3.32 5.74 -4 2 C-3.01 2.99 -2.02 3.98 -1 5 C-0.67 3.35 -0.34 1.7 0 0 Z " fill="#5FB8E3" transform="translate(152,110)"/>
<path d="M0 0 C0.33 0 0.66 0 1 0 C1 2.31 1 4.62 1 7 C1.33 6.01 1.66 5.02 2 4 C2.66 4 3.32 4 4 4 C4 4.66 4 5.32 4 6 C5.32 6.33 6.64 6.66 8 7 C8 6.34 8 5.68 8 5 C8.66 5 9.32 5 10 5 C10 6.65 10 8.3 10 10 C6.7 9.34 3.4 8.68 0 8 C0 5.36 0 2.72 0 0 Z " fill="#3C8F53" transform="translate(98,54)"/>
<path d="M0 0 C0.33 0 0.66 0 1 0 C1.125 5.75 1.125 5.75 0 8 C-0.5775 8.103125 -1.155 8.20625 -1.75 8.3125 C-5.03513837 9.31629228 -6.71052302 11.51973328 -9 14 C-7.65378455 10.19136032 -5.94641263 7.34590149 -3.4375 4.1875 C-2.81746094 3.39730469 -2.19742188 2.60710938 -1.55859375 1.79296875 C-0.78708984 0.90544922 -0.78708984 0.90544922 0 0 Z " fill="#468A3E" transform="translate(116,18)"/>
<path d="M0 0 C3.00617269 3.00617269 2.59585316 5.82381598 3 10 C3.33 7.36 3.66 4.72 4 2 C4.33 2 4.66 2 5 2 C5 5.96 5 9.92 5 14 C4.01 14 3.02 14 2 14 C1.66179834 12.4176994 1.32964061 10.83410625 1 9.25 C0.814375 8.36828125 0.62875 7.4865625 0.4375 6.578125 C0 4 0 4 0 0 Z " fill="#E4C76E" transform="translate(86,111)"/>
<path d="M0 0 C0.33 0 0.66 0 1 0 C1.19392201 5.52677733 0.7479503 9.75614911 -1 15 C-0.34 15.33 0.32 15.66 1 16 C0.01 16.66 -0.98 17.32 -2 18 C-2.66 18.99 -3.32 19.98 -4 21 C-4.34781014 16.36253142 -3.44895394 13.2326396 -1.734375 9.03515625 C-0.65446312 6.04242173 -0.32886742 3.1571272 0 0 Z " fill="#CBF1FD" transform="translate(156,89)"/>
<path d="M0 0 C0.99 0.66 1.98 1.32 3 2 C3 3.32 3 4.64 3 6 C0.36 6 -2.28 6 -5 6 C-5 5.34 -5 4.68 -5 4 C-3.37373596 2.61767557 -1.7074998 1.28062485 0 0 Z " fill="#25B2F5" transform="translate(133,99)"/>
<path d="M0 0 C0.33 0 0.66 0 1 0 C1.98248524 4.0527516 2.08159574 7.83861737 2 12 C1.01 12 0.02 12 -1 12 C-1.33 9.69 -1.66 7.38 -2 5 C-1.34 5 -0.68 5 0 5 C0 3.35 0 1.7 0 0 Z " fill="#E9C972" transform="translate(98,115)"/>
<path d="M0 0 C0.33 0.66 0.66 1.32 1 2 C1.66 2 2.32 2 3 2 C1.79618552 4.49361571 0.54571278 6.68143083 -1 9 C-1.66 9 -2.32 9 -3 9 C-3 7.02 -3 5.04 -3 3 C-2.01 2.67 -1.02 2.34 0 2 C0 1.34 0 0.68 0 0 Z " fill="#48300D" transform="translate(121,194)"/>
<path d="M0 0 C1.125 3.75 1.125 3.75 0 6 C-0.66 6 -1.32 6 -2 6 C-2 6.66 -2 7.32 -2 8 C-2.99 8 -3.98 8 -5 8 C-5 8.99 -5 9.98 -5 11 C-5.66 11 -6.32 11 -7 11 C-5.5140084 6.40693504 -3.14985318 3.56430755 0 0 Z " fill="#E6C25C" transform="translate(22,23)"/>
<path d="M0 0 C3 2 3 2 3.73046875 4.1640625 C3.88128906 4.97617188 4.03210938 5.78828125 4.1875 6.625 C4.34605469 7.44226563 4.50460938 8.25953125 4.66796875 9.1015625 C4.83232422 10.04128906 4.83232422 10.04128906 5 11 C4.34 11 3.68 11 3 11 C3 9.68 3 8.36 3 7 C2.34 7 1.68 7 1 7 C0.67 7.66 0.34 8.32 0 9 C0 6.03 0 3.06 0 0 Z " fill="#FDF7D9" transform="translate(92,115)"/>
<path d="M0 0 C0 3 0 3 -1.96875 5.26171875 C-2.8040625 6.06222656 -3.639375 6.86273438 -4.5 7.6875 C-5.3353125 8.49574219 -6.170625 9.30398437 -7.03125 10.13671875 C-7.6809375 10.75160156 -8.330625 11.36648437 -9 12 C-9.33 11.01 -9.66 10.02 -10 9 C-6.77275295 5.77275295 -3.68505204 2.7023715 0 0 Z " fill="#66D540" transform="translate(214,196)"/>
<path d="M0 0 C0.66 0 1.32 0 2 0 C2.70180531 1.4096347 3.38593958 2.82807641 4.0625 4.25 C4.44535156 5.03890625 4.82820312 5.8278125 5.22265625 6.640625 C6.08564091 9.25993522 5.93045933 10.44855176 5 13 C4.01 10.69 3.02 8.38 2 6 C1.34 6 0.68 6 0 6 C0 4.02 0 2.04 0 0 Z " fill="#62D639" transform="translate(220,128)"/>
<path d="M0 0 C0.33 0 0.66 0 1 0 C1.22304441 1.74818591 1.4278645 3.49870323 1.625 5.25 C1.74101562 6.22453125 1.85703125 7.1990625 1.9765625 8.203125 C2.00112537 11.13429393 1.5312717 12.54528964 0 15 C-0.99 14.67 -1.98 14.34 -3 14 C-3 13.34 -3 12.68 -3 12 C-2.01 12 -1.02 12 0 12 C0 8.04 0 4.08 0 0 Z " fill="#E4FDFE" transform="translate(153,111)"/>
<path d="M0 0 C0.66 0.33 1.32 0.66 2 1 C1.67 1.99 1.34 2.98 1 4 C0.01 4 -0.98 4 -2 4 C-2 4.66 -2 5.32 -2 6 C-2.639375 6.28875 -3.27875 6.5775 -3.9375 6.875 C-6.15206079 7.82823451 -6.15206079 7.82823451 -7 10 C-7.66 10 -8.32 10 -9 10 C-7.61811547 6.78956118 -6.07578097 4.95063635 -3.375 2.75 C-2.74335938 2.22921875 -2.11171875 1.7084375 -1.4609375 1.171875 C-0.73777344 0.59179688 -0.73777344 0.59179688 0 0 Z " fill="#E1C361" transform="translate(32,13)"/>
<path d="M0 0 C0.33 0.66 0.66 1.32 1 2 C3.4887744 2.31733007 5.95019108 2.37947445 8.45703125 2.4609375 C11.67745879 3.14360878 12.89621911 4.53823308 15 7 C13.06213915 6.52229477 11.12472326 6.04278429 9.1875 5.5625 C8.10855469 5.29566406 7.02960938 5.02882813 5.91796875 4.75390625 C3.9259157 4.23922588 1.95188476 3.65062825 0 3 C0 2.01 0 1.02 0 0 Z " fill="#33B6B1" transform="translate(175,91)"/>
<path d="M0 0 C1.440578 2.85508218 2.84334242 5.72317245 4.1875 8.625 C4.55230469 9.40101562 4.91710937 10.17703125 5.29296875 10.9765625 C5.52628906 11.64429687 5.75960937 12.31203125 6 13 C5.67 13.66 5.34 14.32 5 15 C2 10.25 2 10.25 2 8 C1.34 8 0.68 8 0 8 C0 5.36 0 2.72 0 0 Z " fill="#E9CA6B" transform="translate(82,62)"/>
<path d="M0 0 C0.99 0.66 1.98 1.32 3 2 C2.34 3.65 1.68 5.3 1 7 C-0.32 7 -1.64 7 -3 7 C-2.625 4.0625 -2.625 4.0625 -2 1 C-1.34 0.67 -0.68 0.34 0 0 Z " fill="#2F8740" transform="translate(108,31)"/>
<path d="M0 0 C0 3.61537605 -0.89229241 5.11165997 -3 8 C-3.99 8 -4.98 8 -6 8 C-5.65120368 4.74456771 -4.97866739 3.98126893 -2.4375 1.75 C-1.633125 1.1725 -0.82875 0.595 0 0 Z " fill="#573322" transform="translate(134,150)"/>
<path d="M0 0 C0.99 0 1.98 0 3 0 C2.34 5.94 1.68 11.88 1 18 C0.67 18 0.34 18 0 18 C0 12.06 0 6.12 0 0 Z " fill="#F2BD7C" transform="translate(59,82)"/>
<path d="M0 0 C0.33 0.66 0.66 1.32 1 2 C1.66 2 2.32 2 3 2 C2.67 3.98 2.34 5.96 2 8 C1.01 8 0.02 8 -1 8 C-1.125 2.25 -1.125 2.25 0 0 Z " fill="#32ADEB" transform="translate(134,107)"/>
<path d="M0 0 C0.33 0 0.66 0 1 0 C1 2.64 1 5.28 1 8 C-0.875 7.6875 -0.875 7.6875 -3 7 C-3.66 6.01 -4.32 5.02 -5 4 C-4.34 4 -3.68 4 -3 4 C-2.67 3.34 -2.34 2.68 -2 2 C-1.67 2.33 -1.34 2.66 -1 3 C-0.67 2.01 -0.34 1.02 0 0 Z " fill="#2D8C5A" transform="translate(135,54)"/>
<path d="M0 0 C-0.75 7.625 -0.75 7.625 -3 11 C-2.67 8.69 -2.34 6.38 -2 4 C-2.99 3.67 -3.98 3.34 -5 3 C-2.25 0 -2.25 0 0 0 Z " fill="#BEF3FD" transform="translate(133,106)"/>
<path d="M0 0 C3 1 3 1 4.6875 4.0625 C5.120625 5.031875 5.55375 6.00125 6 7 C5.34 7 4.68 7 4 7 C3.67 6.34 3.34 5.68 3 5 C1.35 5.33 -0.3 5.66 -2 6 C-1.34 4.02 -0.68 2.04 0 0 Z " fill="#CCF5FE" transform="translate(166,73)"/>
<path d="M0 0 C0.66 0.33 1.32 0.66 2 1 C-0.14144306 4.21216459 -1.76447436 5.05868462 -5 7 C-5.66 7.99 -6.32 8.98 -7 10 C-7.33 8.68 -7.66 7.36 -8 6 C-5.36 4.02 -2.72 2.04 0 0 Z " fill="#42ABD3" transform="translate(125,11)"/>
<path d="M0 0 C2 2 2 2 2 5 C2.99 5 3.98 5 5 5 C5.66 6.32 6.32 7.64 7 9 C3.18315774 7.44499019 0.80804268 4.96404505 -2 2 C-1.34 1.34 -0.68 0.68 0 0 Z " fill="#68D040" transform="translate(120,202)"/>
<path d="M0 0 C0.33 0.66 0.66 1.32 1 2 C1.99 2.66 2.98 3.32 4 4 C2.68 4 1.36 4 0 4 C0 4.66 0 5.32 0 6 C-1.65 6.33 -3.3 6.66 -5 7 C-5 5 -5 5 -2.5 2.375 C-1.675 1.59125 -0.85 0.8075 0 0 Z " fill="#67E049" transform="translate(155,128)"/>
<path d="M0 0 C1.12894876 0.93274109 2.25300876 1.87140122 3.375 2.8125 C4.00148438 3.33457031 4.62796875 3.85664062 5.2734375 4.39453125 C7 6 7 6 9 9 C7 8 5 7 3 6 C3 5.34 3 4.68 3 4 C2.01 4 1.02 4 0 4 C0 2.68 0 1.36 0 0 Z " fill="#D32E33" transform="translate(68,118)"/>
<path d="M0 0 C0.66 0 1.32 0 2 0 C3.35439668 2.70879335 3.06501451 5.00933268 3 8 C2.01 8 1.02 8 0 8 C0 5.36 0 2.72 0 0 Z " fill="#E8C550" transform="translate(95,112)"/>
<path d="M0 0 C3 1 3 1 4.1875 3.0625 C4.455625 3.701875 4.72375 4.34125 5 5 C4.01 5 3.02 5 2 5 C2 6.65 2 8.3 2 10 C1.67 10 1.34 10 1 10 C0.67 6.7 0.34 3.4 0 0 Z " fill="#FEF6CD" transform="translate(97,105)"/>
<path d="M0 0 C0.33 0 0.66 0 1 0 C1.37952295 6.19887485 0.8352113 10.4477112 -2 16 C-2.33 16 -2.66 16 -3 16 C-3.20086443 12.28400809 -3.1519437 11.22791555 -1 8 C-0.54860541 5.9507906 -0.54860541 5.9507906 -0.375 3.8125 C-0.25125 2.554375 -0.1275 1.29625 0 0 Z " fill="#E4FDE9" transform="translate(173,96)"/>
<path d="M0 0 C1.5 1.25 1.5 1.25 3 3 C3 4.32 3 5.64 3 7 C1.0625 6.1875 1.0625 6.1875 -1 5 C-1.33 4.01 -1.66 3.02 -2 2 C-1.34 2 -0.68 2 0 2 C0 1.34 0 0.68 0 0 Z " fill="#E6C56A" transform="translate(108,111)"/>
<path d="M0 0 C2.52259061 1.97420135 2.9929808 2.96745642 3.6875 6.1875 C3.790625 7.115625 3.89375 8.04375 4 9 C1.4375 6.75 1.4375 6.75 -1 4 C-0.8125 1.6875 -0.8125 1.6875 0 0 Z " fill="#EABF5D" transform="translate(18,99)"/>
<path d="M0 0 C-2.71182212 2.60334924 -3.89133813 2.99456691 -7.75 3.1875 C-8.8225 3.125625 -9.895 3.06375 -11 3 C-7.68381684 -0.31618316 -4.50821267 -1.6697084 0 0 Z " fill="#E2C160" transform="translate(55,4)"/>
<path d="M0 0 C0.33 0 0.66 0 1 0 C1.02689216 1.47906892 1.04634621 2.95827483 1.0625 4.4375 C1.07410156 5.26121094 1.08570313 6.08492188 1.09765625 6.93359375 C1 9 1 9 0 10 C-1.66617115 10.04063832 -3.33388095 10.042721 -5 10 C-4.67 9.34 -4.34 8.68 -4 8 C-3.34 8 -2.68 8 -2 8 C-1.34 5.36 -0.68 2.72 0 0 Z " fill="#D3F4FC" transform="translate(142,118)"/>
<path d="M0 0 C0.99 0.33 1.98 0.66 3 1 C2.01 2.485 2.01 2.485 1 4 C-2.625 4.1875 -2.625 4.1875 -6 4 C-4.03617993 2.49440461 -2.21736634 1.10868317 0 0 Z " fill="#4ADB36" transform="translate(194,121)"/>
<path d="M0 0 C0 1.65 0 3.3 0 5 C-1.98 5.66 -3.96 6.32 -6 7 C-2.86206897 0 -2.86206897 0 0 0 Z " fill="#E13965" transform="translate(27,111)"/>
<path d="M0 0 C0.66 0.33 1.32 0.66 2 1 C2 3.64 2 6.28 2 9 C-2 4.375 -2 4.375 -2 1 C-1.34 0.67 -0.68 0.34 0 0 Z " fill="#E7C458" transform="translate(14,91)"/>
<path d="M0 0 C1.98 0.99 3.96 1.98 6 3 C5.01 3.33 4.02 3.66 3 4 C2.67 4.66 2.34 5.32 2 6 C1.01 5.01 0.02 4.02 -1 3 C-0.67 2.01 -0.34 1.02 0 0 Z " fill="#ECC35B" transform="translate(105,10)"/>
<path d="M0 0 C0.99 0.495 0.99 0.495 2 1 C2 1.66 2 2.32 2 3 C2.66 3 3.32 3 4 3 C4.33 3.99 4.66 4.98 5 6 C4.01 6.99 3.02 7.98 2 9 C1.34 8.67 0.68 8.34 0 8 C0.2784375 7.13375 0.2784375 7.13375 0.5625 6.25 C1.04023546 3.79307475 0.75729364 2.35602466 0 0 Z " fill="#CD3D5F" transform="translate(113,199)"/>
<path d="M0 0 C0.33 0 0.66 0 1 0 C1 2.31 1 4.62 1 7 C-0.32 7.33 -1.64 7.66 -3 8 C-1.125 1.125 -1.125 1.125 0 0 Z " fill="#B4F2FE" transform="translate(138,109)"/>
<path d="M0 0 C0.66 0.33 1.32 0.66 2 1 C1.67 3.31 1.34 5.62 1 8 C0.34 8 -0.32 8 -1 8 C-1.125 2.25 -1.125 2.25 0 0 Z " fill="#EBC45B" transform="translate(78,110)"/>
<path d="M0 0 C3.2542015 2.83430453 4.5206753 4.68607774 5 9 C2 7 2 7 1 4 C0.34 3.67 -0.32 3.34 -1 3 C-0.67 2.01 -0.34 1.02 0 0 Z " fill="#FEF7CD" transform="translate(67,73)"/>
<path d="M0 0 C2.52588702 2.36292656 3.88820837 3.66462511 5 7 C2.525 6.01 2.525 6.01 0 5 C0 3.35 0 1.7 0 0 Z " fill="#CB305C" transform="translate(108,192)"/>
<path d="M0 0 C0.33 0.66 0.66 1.32 1 2 C-1.48387097 8.74193548 -1.48387097 8.74193548 -4 10 C-3.52449439 8.51965236 -3.04448784 7.04074979 -2.5625 5.5625 C-2.29566406 4.73878906 -2.02882813 3.91507813 -1.75390625 3.06640625 C-1 1 -1 1 0 0 Z " fill="#D5376E" transform="translate(15,125)"/>
<path d="M0 0 C1 2 1 2 1 5 C0.01 6.485 0.01 6.485 -1 8 C-1.66 8 -2.32 8 -3 8 C-2.45276317 4.62537285 -1.9451 2.91765 0 0 Z " fill="#46AFDC" transform="translate(121,110)"/>
<path d="M0 0 C-0.33 1.65 -0.66 3.3 -1 5 C-2.32 4.34 -3.64 3.68 -5 3 C-2.25 0 -2.25 0 0 0 Z " fill="#DE2F1C" transform="translate(37,104)"/>
<path d="M0 0 C0.66 0 1.32 0 2 0 C2.33 1.98 2.66 3.96 3 6 C2.01 6 1.02 6 0 6 C0 4.02 0 2.04 0 0 Z " fill="#999999" transform="translate(334,37)"/>
<path d="M0 0 C0.99 0 1.98 0 3 0 C3.33 2.31 3.66 4.62 4 7 C2 5.75 2 5.75 0 4 C0 2.68 0 1.36 0 0 Z " fill="#2CAFE0" transform="translate(119,18)"/>
</svg>
