<?xml version="1.0" encoding="UTF-8"?>
<svg version="1.1" xmlns="http://www.w3.org/2000/svg" width="875" height="223">
<path d="M0 0 C0.78761719 -0.58007812 1.57523437 -1.16015625 2.38671875 -1.7578125 C19.78822288 -14.33425605 35.64937202 -18.61808473 57 -17 C61.63285011 -16.18298435 65.69666927 -14.88015264 70 -13 C71.02222656 -12.56429688 72.04445312 -12.12859375 73.09765625 -11.6796875 C89.16875134 -4.24350444 101.16101889 8.28358417 107.55078125 24.84765625 C113.92495051 43.02978402 112.31182891 60.99657108 104.1875 78.3125 C101.36423526 83.69186632 97.93766932 88.38663594 94 93 C95.46256659 96.15568555 97.25580639 98.8249781 99.3125 101.625 C110.43577188 117.39645826 114.05793781 134.63705125 110.78125 153.62890625 C107.0440855 169.75477108 97.75989921 185.21198866 83.6015625 194.2578125 C66.32295169 204.68492663 49.29328188 208.67677814 29.3828125 203.97265625 C20.90381825 201.53470063 13.7255146 197.40973061 6.41015625 192.55078125 C4.3179485 191.20457951 2.24777215 190.05869547 0 189 C-0.67804688 189.51949219 -1.35609375 190.03898438 -2.0546875 190.57421875 C-19.39465492 203.56718603 -36.89696845 208.2551205 -58.41796875 205.57421875 C-73.61676113 202.23089465 -89.09116531 192.96045898 -98 180 C-108.57410481 163.18310639 -113.22810806 145.78029574 -109.31640625 125.828125 C-106.25276726 114.38714952 -100.53517157 105.02882984 -93 96 C-94.55666295 92.56571266 -96.60284942 89.7509536 -98.875 86.75 C-109.79593649 71.76820986 -113.29776066 54.77840311 -110.45703125 36.5078125 C-106.09781068 17.57771653 -95.2154236 2.51863809 -79 -8 C-72.27098031 -11.64423815 -65.53925537 -14.61780318 -58 -16 C-57.36578125 -16.12117188 -56.7315625 -16.24234375 -56.078125 -16.3671875 C-34.84421863 -19.64008284 -17.29505517 -11.60622645 0 0 Z " fill="#EFC349" transform="translate(117,17)"/>
<path d="M0 0 C1.02222656 0.43570312 2.04445313 0.87140625 3.09765625 1.3203125 C19.16875134 8.75649556 31.16101889 21.28358417 37.55078125 37.84765625 C43.92495051 56.02978402 42.31182891 73.99657108 34.1875 91.3125 C31.36423526 96.69186632 27.93766932 101.38663594 24 106 C25.46256659 109.15568555 27.25580639 111.8249781 29.3125 114.625 C40.43577188 130.39645826 44.05793781 147.63705125 40.78125 166.62890625 C37.0440855 182.75477108 27.75989921 198.21198866 13.6015625 207.2578125 C-3.67704831 217.68492663 -20.70671812 221.67677814 -40.6171875 216.97265625 C-58.12098275 211.93980981 -71.04482257 201.30010626 -80.43359375 185.85546875 C-88.08673776 171.90422617 -89.32473487 159.55119218 -89 144 C-87.97916667 144.875 -86.95833333 145.75 -85.9375 146.625 C-84.98617187 147.43904297 -84.98617187 147.43904297 -84.015625 148.26953125 C-82.68900974 149.40846645 -81.36598187 150.55159577 -80.046875 151.69921875 C-79.12648438 152.49779297 -79.12648438 152.49779297 -78.1875 153.3125 C-77.62417969 153.80363281 -77.06085938 154.29476562 -76.48046875 154.80078125 C-73.35280159 157.33427417 -70.95985249 157.38075505 -67 157 C-58.81555876 152.55193411 -51.350535 145.10440538 -45.5 137.9375 C-43 135 -43 135 -40.5625 133.0625 C-38.40852083 131.32880945 -36.92133944 129.79622365 -35.1875 127.6875 C-33.01383579 125.05797783 -30.76675908 122.90579948 -28.125 120.75 C-20.24907193 114.02295971 -13.69469512 105.2459339 -12.69140625 94.78125 C-12.38317532 86.18814541 -13.03688001 77.26686276 -19.140625 70.6953125 C-20.06101563 69.85613281 -20.06101563 69.85613281 -21 69 C-21.2784375 70.175625 -21.2784375 70.175625 -21.5625 71.375 C-22.91163534 74.77716737 -24.30057653 76.82047606 -26.5 79.6875 C-29.82824843 84.2423079 -30.98841869 87.98773014 -31.61328125 93.5546875 C-32 96 -32 96 -33.01196289 97.86865234 C-34.13596925 100.29330654 -34.23123468 101.88863338 -34.1953125 104.546875 C-34.18564453 105.81337891 -34.18564453 105.81337891 -34.17578125 107.10546875 C-34.15902344 107.97816406 -34.14226562 108.85085937 -34.125 109.75 C-34.11597656 110.63816406 -34.10695312 111.52632813 -34.09765625 112.44140625 C-34.07414577 114.62788058 -34.04128499 116.81380094 -34 119 C-34.99 119 -35.98 119 -37 119 C-37.99 114.38 -38.98 109.76 -40 105 C-40.66 105 -41.32 105 -42 105 C-43.32 110.61 -44.64 116.22 -46 122 C-47.32 122 -48.64 122 -50 122 C-49.67 116.72 -49.34 111.44 -49 106 C-50.55831126 110.42623195 -50.55831126 110.42623195 -52.11083984 114.85449219 C-53.23097014 118.01346014 -54.40550698 121.04944282 -56 124 C-56.99 123.67 -57.98 123.34 -59 123 C-58.3900874 118.01155691 -57.36525565 113.39844654 -55.9375 108.5625 C-55.57527344 107.32628906 -55.21304688 106.09007813 -54.83984375 104.81640625 C-54.56269531 103.88699219 -54.28554687 102.95757812 -54 102 C-59.59967378 106.79502751 -59.59967378 106.79502751 -64.875 111.9375 C-67 114 -67 114 -69 114 C-68.61859301 107.89748809 -64.2009476 103.72637276 -60.52734375 99.17578125 C-57.370939 95.08073719 -56.31712321 92.17967903 -56 87 C-58.65297959 85.40821225 -60.49692539 84.93145857 -63.625 84.5 C-67 84 -67 84 -69 82 C-69 80.68 -69 79.36 -69 78 C-67.515 78.495 -67.515 78.495 -66 79 C-59.2234515 79.58632366 -53.41334648 78.87405254 -46.99609375 76.65625 C-45 76 -45 76 -43 76 C-42.773125 75.175 -42.54625 74.35 -42.3125 73.5 C-40.96451501 69.90537335 -39.25997692 67.090411 -37.12109375 63.9296875 C-35.9708126 61.94976106 -35.44219499 60.23581739 -35 58 C-47.35268198 57.58620048 -57.48880824 57.44036923 -67.40625 65.79296875 C-69 67 -69 67 -71 67 C-71 66.34 -71 65.68 -71 65 C-71.87011719 64.56880859 -71.87011719 64.56880859 -72.7578125 64.12890625 C-74.15705346 63.42441036 -75.54918953 62.70539428 -76.9296875 61.96484375 C-80.96281299 59.83489997 -84.39106378 58.46089362 -89 58 C-89.21430248 52.33359034 -88.6610596 47.59976135 -86.875 42.1875 C-86.64981689 41.49317871 -86.42463379 40.79885742 -86.19262695 40.08349609 C-80.32162549 22.68182361 -69.65856951 10.77153718 -53.58984375 2.17578125 C-37.18346668 -5.74917048 -16.95199692 -7.40643556 0 0 Z " fill="#53E526" transform="translate(187,4)"/>
<path d="M0 0 C1.02222656 0.43570312 2.04445313 0.87140625 3.09765625 1.3203125 C19.16875134 8.75649556 31.16101889 21.28358417 37.55078125 37.84765625 C43.90169014 55.96343452 42.34051093 73.9233223 34.25 91.1875 C31.10170681 97.15480062 27.44793428 102.91092204 23 108 C22.34 108 21.68 108 21 108 C19.86549096 106.8311119 18.7311639 105.66204671 17.59765625 104.4921875 C9.50152838 96.93052284 -1.26129005 92.22878886 -12 90 C-12.17015625 89.14277344 -12.3403125 88.28554687 -12.515625 87.40234375 C-13.8896694 80.91948532 -15.16069296 75.44933903 -19 70 C-19.66 69.67 -20.32 69.34 -21 69 C-21.2784375 70.175625 -21.2784375 70.175625 -21.5625 71.375 C-22.91163534 74.77716737 -24.30057653 76.82047606 -26.5 79.6875 C-29.82824843 84.2423079 -30.98841869 87.98773014 -31.61328125 93.5546875 C-32 96 -32 96 -33.01196289 97.86865234 C-34.13596925 100.29330654 -34.23123468 101.88863338 -34.1953125 104.546875 C-34.18564453 105.81337891 -34.18564453 105.81337891 -34.17578125 107.10546875 C-34.15902344 107.97816406 -34.14226562 108.85085937 -34.125 109.75 C-34.11597656 110.63816406 -34.10695312 111.52632813 -34.09765625 112.44140625 C-34.07414577 114.62788058 -34.04128499 116.81380094 -34 119 C-34.99 119 -35.98 119 -37 119 C-37.99 114.38 -38.98 109.76 -40 105 C-40.66 105 -41.32 105 -42 105 C-43.32 110.61 -44.64 116.22 -46 122 C-47.32 122 -48.64 122 -50 122 C-49.67 116.72 -49.34 111.44 -49 106 C-50.55831126 110.42623195 -50.55831126 110.42623195 -52.11083984 114.85449219 C-53.23097014 118.01346014 -54.40550698 121.04944282 -56 124 C-56.99 123.67 -57.98 123.34 -59 123 C-58.3900874 118.01155691 -57.36525565 113.39844654 -55.9375 108.5625 C-55.57527344 107.32628906 -55.21304688 106.09007813 -54.83984375 104.81640625 C-54.56269531 103.88699219 -54.28554687 102.95757812 -54 102 C-59.59967378 106.79502751 -59.59967378 106.79502751 -64.875 111.9375 C-67 114 -67 114 -69 114 C-68.61859301 107.89748809 -64.2009476 103.72637276 -60.52734375 99.17578125 C-57.370939 95.08073719 -56.31712321 92.17967903 -56 87 C-58.65297959 85.40821225 -60.49692539 84.93145857 -63.625 84.5 C-67 84 -67 84 -69 82 C-69 80.68 -69 79.36 -69 78 C-67.515 78.495 -67.515 78.495 -66 79 C-59.2234515 79.58632366 -53.41334648 78.87405254 -46.99609375 76.65625 C-45 76 -45 76 -43 76 C-42.773125 75.175 -42.54625 74.35 -42.3125 73.5 C-40.96451501 69.90537335 -39.25997692 67.090411 -37.12109375 63.9296875 C-35.9708126 61.94976106 -35.44219499 60.23581739 -35 58 C-47.35268198 57.58620048 -57.48880824 57.44036923 -67.40625 65.79296875 C-69 67 -69 67 -71 67 C-71 66.34 -71 65.68 -71 65 C-71.87011719 64.56880859 -71.87011719 64.56880859 -72.7578125 64.12890625 C-74.15705346 63.42441036 -75.54918953 62.70539428 -76.9296875 61.96484375 C-80.96281299 59.83489997 -84.39106378 58.46089362 -89 58 C-89.21430248 52.33359034 -88.6610596 47.59976135 -86.875 42.1875 C-86.64981689 41.49317871 -86.42463379 40.79885742 -86.19262695 40.08349609 C-80.32162549 22.68182361 -69.65856951 10.77153718 -53.58984375 2.17578125 C-37.18346668 -5.74917048 -16.95199692 -7.40643556 0 0 Z " fill="#27B1F3" transform="translate(187,4)"/>
<path d="M0 0 C0.15855469 0.67804688 0.31710938 1.35609375 0.48046875 2.0546875 C0.83044922 3.45074219 0.83044922 3.45074219 1.1875 4.875 C1.40792969 5.77992187 1.62835938 6.68484375 1.85546875 7.6171875 C2.23316406 8.73351562 2.61085937 9.84984375 3 11 C3.22284668 11.68868164 3.44569336 12.37736328 3.67529297 13.08691406 C6.24390743 19.43940143 10.3111571 23.54418712 15.234375 28.125 C16.25547112 29.08045212 16.25547112 29.08045212 17.29719543 30.0552063 C20.15803823 32.7148036 23.02654118 35.361145 25.95458984 37.94677734 C39.56249215 50.04438215 39.56249215 50.04438215 40.34039307 59.20043945 C40.39316073 62.15816214 40.2703006 65.07551383 40.06228638 68.02539062 C39.65299977 81.00063834 47.39112287 94.5721674 55.51953125 104.1328125 C57.0038888 106.00490461 58.01213712 107.83152051 59 110 C42.22912813 124.61885734 24.77820465 129.22002821 3 128 C-12.84123277 126.026635 -28.57399213 116.55434557 -38.53125 104.13671875 C-50.14927863 87.23495902 -54.47566147 70.27561478 -51.69970703 49.78320312 C-48.65672578 34.26206052 -39.15188774 20.03328114 -26.51171875 10.6875 C-18.52743345 5.32325233 -9.84811542 0 0 0 Z " fill="#F82672" transform="translate(59,95)"/>
<path d="M0 0 C0.6290625 0.474375 1.258125 0.94875 1.90625 1.4375 C1.90625 2.0975 1.90625 2.7575 1.90625 3.4375 C2.51210937 2.96699219 3.11796875 2.49648437 3.7421875 2.01171875 C13.79885315 -5.46115742 22.39505913 -7.47495712 34.90625 -6.5625 C35.89625 -6.2325 36.88625 -5.9025 37.90625 -5.5625 C36.86052267 1.17803157 34.02996323 7.03352589 29.90625 12.4375 C23.26531524 16.63177459 14.61667059 17.57488623 6.90625 16.4375 C5.91625 15.7775 4.92625 15.1175 3.90625 14.4375 C4.23011813 16.96735528 4.23011813 16.96735528 5.90625 19.4375 C8.17029691 20.22556248 10.34585896 20.62531617 12.71484375 20.98046875 C14.90625 21.4375 14.90625 21.4375 17.90625 23.4375 C17.75522826 30.53552196 14.34214894 34.14998334 9.90625 39.4375 C5.99660952 44.48235296 5.99660952 44.48235296 3.90625 50.4375 C9.50592378 45.64247249 9.50592378 45.64247249 14.78125 40.5 C16.90625 38.4375 16.90625 38.4375 18.90625 38.4375 C18.42079093 43.77754973 17.41466029 48.33857118 15.52734375 53.359375 C14.71534576 55.71475647 14.71534576 55.71475647 14.90625 59.4375 C15.56625 59.7675 16.22625 60.0975 16.90625 60.4375 C17.02097656 59.92574219 17.13570313 59.41398437 17.25390625 58.88671875 C18.12552975 55.61421615 19.22727125 52.44703854 20.34375 49.25 C20.66956055 48.28803711 20.66956055 48.28803711 21.00195312 47.30664062 C22.67313621 42.55405689 22.67313621 42.55405689 24.90625 41.4375 C25.03087322 47.17016804 24.5479466 52.74244264 23.90625 58.4375 C24.56625 58.4375 25.22625 58.4375 25.90625 58.4375 C27.22625 52.8275 28.54625 47.2175 29.90625 41.4375 C31.22625 41.4375 32.54625 41.4375 33.90625 41.4375 C34.24445166 43.0198006 34.57660939 44.60339375 34.90625 46.1875 C35.091875 47.06921875 35.2775 47.9509375 35.46875 48.859375 C35.90625 51.4375 35.90625 51.4375 35.90625 55.4375 C36.89625 55.4375 37.88625 55.4375 38.90625 55.4375 C38.74576172 53.519375 38.74576172 53.519375 38.58203125 51.5625 C38.46001214 49.85423251 38.33897039 48.14589502 38.21875 46.4375 C38.14591797 45.59832031 38.07308594 44.75914063 37.99804688 43.89453125 C37.65750751 38.72634552 38.09701777 35.0463628 40.1784668 30.3034668 C41.08419682 28.21540289 41.08419682 28.21540289 41.3125 24.89453125 C42.06722332 20.50025403 43.8991725 17.73814111 46.40625 14.125 C47.22966508 12.90007448 48.05260383 11.67482858 48.875 10.44921875 C49.5453125 9.45535156 50.215625 8.46148437 50.90625 7.4375 C51.23625 6.7775 51.56625 6.1175 51.90625 5.4375 C54.90625 6.4375 54.90625 6.4375 56.2578125 8.58203125 C56.67804688 9.46246094 57.09828125 10.34289062 57.53125 11.25 C57.95664063 12.12269531 58.38203125 12.99539062 58.8203125 13.89453125 C62.18744318 21.77943079 62.30833882 31.63324467 59.40625 39.6875 C55.41417413 48.23194308 48.94819303 54.77183674 41.7890625 60.74609375 C39.69320585 62.4881045 39.69320585 62.4881045 37.90625 65.4375 C37.24625 65.4375 36.58625 65.4375 35.90625 65.4375 C35.679375 66.015 35.4525 66.5925 35.21875 67.1875 C33.5653807 70.02184736 31.47661056 71.40512189 28.90625 73.4375 C27.71311299 74.88861258 26.52091507 76.34058844 25.34375 77.8046875 C22.51537017 81.01735807 19.16166069 83.67189422 15.90625 86.4375 C13.79157815 88.30688478 11.68032898 90.18005134 9.5703125 92.0546875 C7.3201509 93.9245401 6.09918886 94.41557513 3.15625 94.75 C-4.6951357 93.99505907 -10.34791029 86.53766297 -15.65625 81.28125 C-16.56576416 80.38313599 -17.47527832 79.48502197 -18.41235352 78.55969238 C-20.33246888 76.66050123 -22.24795392 74.75676268 -24.16113281 72.85058594 C-26.58830054 70.43434319 -29.03343567 68.03720488 -31.48347473 65.64418793 C-33.84609761 63.3282671 -36.18704 60.99080408 -38.53125 58.65625 C-39.40015869 57.81203491 -40.26906738 56.96781982 -41.16430664 56.09802246 C-47.77450516 49.43950093 -53.88532404 41.52404733 -54.78515625 31.86328125 C-54.77819716 30.49153202 -54.73558509 29.11947082 -54.65625 27.75 C-54.63328857 27.02522461 -54.61032715 26.30044922 -54.58666992 25.55371094 C-54.2576017 18.55767339 -53.39319716 12.51778926 -48.40625 7.375 C-47.643125 6.735625 -46.88 6.09625 -46.09375 5.4375 C-45.11843819 7.15270353 -44.14458827 8.86876189 -43.1796875 10.58984375 C-42.07054873 12.5558661 -42.07054873 12.5558661 -40.40625 14.6875 C-38.66280741 18.34042733 -38.58829188 21.70677818 -38.40234375 25.71875 C-38.0750177 28.60253395 -37.19472282 30.76807781 -36.09375 33.4375 C-35.77067308 39.79134615 -35.77067308 39.79134615 -37.09375 42.4375 C-37.31997081 44.14113822 -37.50263473 45.85078701 -37.65625 47.5625 C-37.74003906 48.47257812 -37.82382813 49.38265625 -37.91015625 50.3203125 C-38.00103516 51.36832031 -38.00103516 51.36832031 -38.09375 52.4375 C-37.43375 52.4375 -36.77375 52.4375 -36.09375 52.4375 C-35.88878906 51.59445313 -35.68382813 50.75140625 -35.47265625 49.8828125 C-35.20324219 48.78710938 -34.93382813 47.69140625 -34.65625 46.5625 C-34.38941406 45.47195312 -34.12257813 44.38140625 -33.84765625 43.2578125 C-33.09375 40.4375 -33.09375 40.4375 -32.09375 38.4375 C-31.10375 38.4375 -30.11375 38.4375 -29.09375 38.4375 C-28.59167321 41.22880788 -28.09199925 44.02050871 -27.59375 46.8125 C-27.37912109 48.00359375 -27.37912109 48.00359375 -27.16015625 49.21875 C-26.09375 55.2109375 -26.09375 55.2109375 -26.09375 57.4375 C-25.10375 57.4375 -24.11375 57.4375 -23.09375 57.4375 C-23.42375 51.4975 -23.75375 45.5575 -24.09375 39.4375 C-23.43375 39.4375 -22.77375 39.4375 -22.09375 39.4375 C-21.25544027 42.20691606 -20.42292966 44.97785069 -19.59375 47.75 C-19.35527344 48.53568359 -19.11679688 49.32136719 -18.87109375 50.13085938 C-18.64550781 50.88818359 -18.41992188 51.64550781 -18.1875 52.42578125 C-17.87329102 53.47052612 -17.87329102 53.47052612 -17.55273438 54.53637695 C-17.09375 56.4375 -17.09375 56.4375 -17.09375 59.4375 C-16.10375 59.4375 -15.11375 59.4375 -14.09375 59.4375 C-14.3103125 58.26832031 -14.526875 57.09914062 -14.75 55.89453125 C-15.03147917 54.34639582 -15.31271644 52.79821639 -15.59375 51.25 C-15.73683594 50.48107422 -15.87992188 49.71214844 -16.02734375 48.91992188 C-16.72613715 45.04328227 -17.28414017 41.396029 -17.09375 37.4375 C-13.17787272 38.74279243 -12.05791327 40.70736706 -9.53125 43.9375 C-6.77699681 47.74376077 -6.77699681 47.74376077 -3.09375 50.4375 C-5.04966287 45.56001916 -7.30044039 41.39900175 -10.21875 37 C-13.41527721 31.93005025 -15.09375 28.41963465 -15.09375 22.4375 C-12.0467871 20.74316082 -9.26553534 19.94282888 -5.84375 19.3125 C-4.95171875 19.14492187 -4.0596875 18.97734375 -3.140625 18.8046875 C-2.46515625 18.68351562 -1.7896875 18.56234375 -1.09375 18.4375 C-1.09375 17.4475 -1.09375 16.4575 -1.09375 15.4375 C-1.96773437 15.48970703 -1.96773437 15.48970703 -2.859375 15.54296875 C-9.89368153 15.77523359 -18.93285144 15.57268868 -24.7734375 11.171875 C-26.49384984 8.91192507 -27.61211185 6.58755199 -28.78125 4 C-29.21824219 3.05253906 -29.65523437 2.10507813 -30.10546875 1.12890625 C-31.09375 -1.5625 -31.09375 -1.5625 -31.09375 -5.5625 C-19.58057998 -8.63267867 -9.88494855 -5.95478828 0 0 Z " fill="#F9FBF9" transform="translate(114.09375,67.5625)"/>
<path d="M0 0 C1.03688965 0.01047363 2.0737793 0.02094727 3.14208984 0.03173828 C4.26357422 0.03818359 5.38505859 0.04462891 6.54052734 0.05126953 C7.71615234 0.06802734 8.89177734 0.08478516 10.10302734 0.10205078 C11.87806641 0.11558594 11.87806641 0.11558594 13.68896484 0.12939453 C16.61885257 0.15302266 19.54834075 0.18596564 22.47802734 0.22705078 C25.71894852 6.37927723 28.19808411 12.5991615 30.51708984 19.14892578 C30.88401947 20.17133362 31.2509491 21.19374146 31.6289978 22.24713135 C32.79171749 25.48877488 33.94781757 28.73272418 35.10302734 31.97705078 C36.26625327 35.23533414 37.43092827 38.49308111 38.59848022 41.74981689 C39.32241433 43.76996155 40.04373071 45.79104668 40.76211548 47.81317139 C41.08940643 48.72802307 41.41669739 49.64287476 41.75390625 50.58544922 C42.03940338 51.38738708 42.32490051 52.18932495 42.61904907 53.01556396 C43.45331516 55.16342791 44.41265051 57.18535485 45.47802734 59.22705078 C45.90100098 58.03853516 46.32397461 56.85001953 46.75976562 55.62548828 C48.35753457 51.13705022 49.95708732 46.64924946 51.55712891 42.16162109 C52.24412497 40.2340551 52.9306628 38.30632572 53.61669922 36.37841797 C55.58257491 30.85442225 57.55632144 25.33337401 59.54455566 19.81738281 C60.15680225 18.11843256 60.76745376 16.41890647 61.37634277 14.71875 C62.19174684 12.44785255 63.01674486 10.18070842 63.84521484 7.91455078 C64.20379074 6.90956543 64.20379074 6.90956543 64.5696106 5.88427734 C66.24844528 1.34184181 66.24844528 1.34184181 68.47802734 0.22705078 C70.27937083 0.13050795 72.08425604 0.09629638 73.88818359 0.09423828 C74.96003906 0.09294922 76.03189453 0.09166016 77.13623047 0.09033203 C78.25964844 0.09419922 79.38306641 0.09806641 80.54052734 0.10205078 C81.6678125 0.09818359 82.79509766 0.09431641 83.95654297 0.09033203 C85.02710938 0.09162109 86.09767578 0.09291016 87.20068359 0.09423828 C88.68193726 0.09593018 88.68193726 0.09593018 90.19311523 0.09765625 C92.47802734 0.22705078 92.47802734 0.22705078 93.47802734 1.22705078 C93.578366 3.71658775 93.61420677 6.17840031 93.60742188 8.66845703 C93.61005035 9.8366951 93.61005035 9.8366951 93.61273193 11.02853394 C93.61715083 13.61556189 93.61421233 16.20252207 93.61083984 18.78955078 C93.61151287 20.57934584 93.61248289 22.3691408 93.61373901 24.15893555 C93.61521604 27.91504789 93.61306129 31.6711365 93.60839844 35.42724609 C93.60270115 40.25305572 93.60598013 45.07880973 93.6119709 49.90461731 C93.61557639 53.60193301 93.61443798 57.29923542 93.61184311 60.99655151 C93.61117381 62.77643846 93.61200238 64.5563266 93.61432266 66.33621216 C93.61684899 68.819389 93.61300889 71.30247453 93.60742188 73.78564453 C93.60944611 74.52853729 93.61147034 75.27143005 93.61355591 76.03683472 C93.59228996 81.11278816 93.59228996 81.11278816 92.47802734 82.22705078 C89.80071355 82.32686292 87.1549856 82.36584954 84.47802734 82.35205078 C83.35267578 82.35785156 83.35267578 82.35785156 82.20458984 82.36376953 C76.60463788 82.35366131 76.60463788 82.35366131 75.47802734 81.22705078 C75.38426681 79.41650053 75.36058625 77.60227877 75.36450195 75.78930664 C75.36461525 74.04761452 75.36461525 74.04761452 75.36473083 72.27073669 C75.36989212 71.00721878 75.37505341 69.74370087 75.38037109 68.44189453 C75.38178604 67.15593887 75.38320099 65.86998322 75.38465881 64.5450592 C75.38848316 61.12061636 75.39831272 57.69621569 75.40936279 54.27178955 C75.4195787 50.77966889 75.42415682 47.28754144 75.42919922 43.79541016 C75.43993508 36.939273 75.4570105 30.08316391 75.47802734 23.22705078 C70.02364479 36.76508941 64.69912928 50.34747129 59.47802734 63.97705078 C58.79195817 65.76486061 58.10576066 67.55262119 57.41943359 69.34033203 C55.77082917 73.63534294 54.1239246 77.93100177 52.47802734 82.22705078 C47.19802734 82.22705078 41.91802734 82.22705078 36.47802734 82.22705078 C32.17520543 72.11909341 28.2748838 61.88550652 24.41552734 51.60205078 C23.49247146 49.14606713 22.56877828 46.69032746 21.64393616 44.23501587 C21.07399832 42.72158246 20.50508897 41.2077611 19.93748474 39.69345093 C17.86069258 34.17359665 15.68432295 28.69633144 13.47802734 23.22705078 C13.48024796 23.95145859 13.48246857 24.67586639 13.48475647 25.42222595 C13.50475962 32.23548531 13.5200016 39.04874031 13.52983952 45.86202145 C13.53506723 49.36513963 13.54216285 52.86823363 13.5534668 56.37133789 C13.5663694 60.39485919 13.57125646 64.41835492 13.57568359 68.44189453 C13.58084488 69.70541245 13.58600616 70.96893036 13.59132385 72.27073669 C13.59143715 74.01242882 13.59143715 74.01242882 13.59155273 75.78930664 C13.59377335 76.8174498 13.59599396 77.84559296 13.59828186 78.90489197 C13.47802734 81.22705078 13.47802734 81.22705078 12.47802734 82.22705078 C9.78147881 82.300247 7.11111276 82.31947615 4.41552734 82.28955078 C3.65691406 82.28503906 2.89830078 82.28052734 2.11669922 82.27587891 C0.23710863 82.26405758 -1.64244164 82.24612156 -3.52197266 82.22705078 C-5.01966763 79.23166084 -4.66930679 76.15658302 -4.66723633 72.87158203 C-4.67059494 72.11372406 -4.67395355 71.35586609 -4.67741394 70.57504272 C-4.68693392 68.06319553 -4.68886745 65.5514149 -4.68994141 63.03955078 C-4.69315282 61.29842094 -4.6965168 59.55729137 -4.70002747 57.81616211 C-4.70602105 54.16438165 -4.70786709 50.51262487 -4.70727539 46.86083984 C-4.70717365 42.17299779 -4.72083672 37.48530681 -4.7380476 32.79750061 C-4.74914434 29.20136818 -4.75119533 25.60527256 -4.75066566 22.00912476 C-4.75184888 20.28029865 -4.75628967 18.55147168 -4.76399803 16.82266235 C-4.77375293 14.40917241 -4.7709381 11.99601438 -4.76489258 9.58251953 C-4.77051208 8.86349457 -4.77613159 8.1444696 -4.78192139 7.40365601 C-4.73732025 0.4264964 -4.73732025 0.4264964 0 0 Z " fill="#000000" transform="translate(322.52197265625,17.77294921875)"/>
<path d="M0 0 C5.45854803 -0.07498534 10.91678652 -0.12899073 16.37573242 -0.16479492 C18.22702263 -0.17974413 20.07827829 -0.20011097 21.92944336 -0.22631836 C51.66985543 -0.63636459 51.66985543 -0.63636459 62.5234375 9.41015625 C66.4569743 13.67338255 67.96412652 17.92384869 68.03125 23.6796875 C67.64276036 30.84732135 66.04310169 35.04384407 60.8125 40.125 C57.08329247 42.61113835 53.13790103 44.30517343 49 46 C49.59167969 46.21914062 50.18335938 46.43828125 50.79296875 46.6640625 C56.06681606 48.7804841 60.23353691 50.8333651 63 56 C66.40506734 64.18010347 70 73.04660957 70 82 C63.73 82 57.46 82 51 82 C48.79356402 76.11617073 47.17496439 70.87796327 45.84375 64.83203125 C44.6679846 60.88559647 43.52480827 57.93613465 39.92578125 55.7265625 C35.69576112 54.67611691 31.53077378 54.53102805 27.1875 54.375 C22.6396875 54.189375 22.6396875 54.189375 18 54 C18 63.24 18 72.48 18 82 C15.215625 82.020625 12.43125 82.04125 9.5625 82.0625 C8.68408447 82.071604 7.80566895 82.08070801 6.90063477 82.09008789 C4.93354026 82.09723091 2.96646379 82.05031893 1 82 C-0.73141493 80.26858507 -0.11977579 78.04249956 -0.12442017 75.73521423 C-0.12082489 74.98139969 -0.11722961 74.22758514 -0.11352539 73.45092773 C-0.11367142 72.66074249 -0.11381744 71.87055725 -0.1139679 71.056427 C-0.11326857 68.43212178 -0.10547527 65.80788664 -0.09765625 63.18359375 C-0.09579214 61.36898335 -0.0943682 59.55437244 -0.09336853 57.73976135 C-0.08954279 52.9540977 -0.07971204 48.1684642 -0.06866455 43.3828125 C-0.05845163 38.50325936 -0.05387117 33.62370136 -0.04882812 28.74414062 C-0.03808982 19.16274714 -0.02101273 9.58137607 0 0 Z M18 15 C17.97106068 18.62498334 17.95322208 22.24993713 17.9375 25.875 C17.92912109 26.90753906 17.92074219 27.94007813 17.91210938 29.00390625 C17.90888672 29.99003906 17.90566406 30.97617188 17.90234375 31.9921875 C17.89710693 32.90339355 17.89187012 33.81459961 17.88647461 34.75341797 C17.85114435 37.03687509 17.85114435 37.03687509 19 39 C26.25189061 41.41729687 35.85741666 40.64635282 43 38 C45.79619538 36.19884712 46.32826587 35.12057038 48 32 C48.86732305 27.11642426 48.76279019 23.35607145 46.3125 19 C42.47206394 15.67854179 38.93611142 14.7431152 33.91796875 14.8046875 C32.98662109 14.81113281 32.05527344 14.81757813 31.09570312 14.82421875 C30.13599609 14.84097656 29.17628906 14.85773438 28.1875 14.875 C27.20845703 14.88402344 26.22941406 14.89304688 25.22070312 14.90234375 C22.81354939 14.92582818 20.40690257 14.9586716 18 15 Z " fill="#000000" transform="translate(410,120)"/>
<path d="M0 0 C9.73889728 6.79501008 15.04634242 14.95748148 17.453125 26.57421875 C19.40050313 41.49187012 18.23053026 56.43747416 8.8671875 68.74609375 C1.87966947 76.35691151 -6.94312479 79.91921522 -17.1328125 80.74609375 C-25.86697023 80.82857793 -33.5285539 80.23806085 -41.1328125 75.74609375 C-42.1846875 75.14796875 -43.2365625 74.54984375 -44.3203125 73.93359375 C-52.65674039 67.44970539 -57.63934508 58.26195197 -59.1328125 47.74609375 C-60.01373376 34.17885138 -59.60343152 20.06132364 -51.1328125 8.74609375 C-38.63767849 -4.89159142 -16.49281892 -9.69632761 0 0 Z M-36.0078125 17.93359375 C-41.57546612 26.83809028 -41.1891806 38.60120406 -39.703125 48.65234375 C-38.13542132 54.92315848 -35.03444526 59.53868365 -30.1328125 63.74609375 C-25.7151224 66.0019355 -21.03469665 66.48963797 -16.1328125 65.74609375 C-10.89227815 63.98336856 -7.02142768 61.56045238 -4.1328125 56.74609375 C-1.51229218 50.55235261 -0.65964237 44.93257069 -0.7578125 38.24609375 C-0.74621094 37.45589844 -0.73460937 36.66570313 -0.72265625 35.8515625 C-0.75697575 28.86182469 -2.11428097 22.06188813 -6.3828125 16.37109375 C-10.63408126 12.31306448 -14.74464092 10.61942993 -20.5703125 10.30859375 C-26.94661202 10.56929424 -32.01144351 12.90891928 -36.0078125 17.93359375 Z " fill="#000000" transform="translate(627.1328125,21.25390625)"/>
<path d="M0 0 C7.93613787 -0.02312764 15.87226176 -0.04091723 23.80842495 -0.05181217 C27.49314498 -0.05704008 31.17784203 -0.06413605 34.86254883 -0.07543945 C38.41570831 -0.08627162 41.96884563 -0.09227753 45.52202034 -0.09487724 C46.88045666 -0.0967309 48.23889171 -0.10035038 49.59731865 -0.10573006 C51.49382223 -0.11294475 53.39034793 -0.11340809 55.28686523 -0.11352539 C56.36830307 -0.115746 57.44974091 -0.11796661 58.56394958 -0.12025452 C61 0 61 0 62 1 C62.07271741 3.35313555 62.08370868 5.70833668 62.0625 8.0625 C62.05347656 9.35285156 62.04445313 10.64320312 62.03515625 11.97265625 C62.02355469 12.97167969 62.01195312 13.97070312 62 15 C59.21945349 15.78670772 56.76039307 16.12265947 53.87402344 16.11352539 C53.07349548 16.11344986 52.27296753 16.11337433 51.44818115 16.11329651 C50.16672211 16.10555458 50.16672211 16.10555458 48.859375 16.09765625 C47.97719299 16.0962413 47.09501099 16.09482635 46.18609619 16.09336853 C43.37402935 16.08778001 40.5620427 16.07522961 37.75 16.0625 C35.84114698 16.05748352 33.93229272 16.05292087 32.0234375 16.04882812 C27.34890272 16.03866609 22.67454093 16.01908842 18 16 C18 21.94 18 27.88 18 34 C30.54 34 43.08 34 56 34 C56 38.62 56 43.24 56 48 C43.46 48 30.92 48 18 48 C18 54.27 18 60.54 18 67 C32.52 67 47.04 67 62 67 C62 71.95 62 76.9 62 82 C41.54 82 21.08 82 0 82 C-1.49815639 79.00368721 -1.13864385 75.92997309 -1.12939453 72.64453125 C-1.13114685 71.88667328 -1.13289917 71.12881531 -1.13470459 70.34799194 C-1.13911553 67.83613819 -1.13618777 65.32435451 -1.1328125 62.8125 C-1.13348576 61.0713703 -1.13445597 59.3302407 -1.13571167 57.58911133 C-1.13718761 53.93732815 -1.13503739 50.28556941 -1.13037109 46.63378906 C-1.12467387 41.94598953 -1.12795342 37.25824726 -1.13394356 32.57044983 C-1.13755195 28.97432013 -1.1364093 25.37820408 -1.13381577 21.78207397 C-1.13314727 20.05325311 -1.13397224 18.32443101 -1.13629532 16.59561157 C-1.13882638 14.18219712 -1.13497481 11.76887621 -1.12939453 9.35546875 C-1.13141876 8.63644379 -1.13344299 7.91741882 -1.13552856 7.17660522 C-1.11426448 2.22852896 -1.11426448 2.22852896 0 0 Z " fill="#000000" transform="translate(733,18)"/>
<path d="M0 0 C1.09920273 0.00222061 2.19840546 0.00444122 3.33091736 0.00672913 C4.57212845 0.00680466 5.81333954 0.00688019 7.09216309 0.00695801 C8.45682311 0.01206541 9.82148274 0.01728142 11.18614197 0.02259827 C12.57476755 0.02446251 13.96339379 0.02588638 15.35202026 0.02688599 C19.01319686 0.03071065 22.67433402 0.04054048 26.335495 0.05158997 C30.06890835 0.06180519 33.80232805 0.06638384 37.53575134 0.07142639 C44.86584956 0.08216281 52.1959071 0.09975918 59.52598572 0.12025452 C59.52598572 5.07025452 59.52598572 10.02025452 59.52598572 15.12025452 C45.00598572 15.45025452 30.48598572 15.78025452 15.52598572 16.12025452 C15.52598572 21.73025452 15.52598572 27.34025452 15.52598572 33.12025452 C28.06598572 33.45025452 40.60598572 33.78025452 53.52598572 34.12025452 C53.52598572 38.41025452 53.52598572 42.70025452 53.52598572 47.12025452 C52.52598572 48.12025452 52.52598572 48.12025452 49.01597595 48.23377991 C47.4555015 48.23362078 45.89502179 48.22792594 44.33457947 48.21791077 C43.51474075 48.21649582 42.69490204 48.21508087 41.85021973 48.21362305 C39.22127189 48.20800741 36.59240798 48.19545231 33.96348572 48.18275452 C32.18549215 48.17774153 30.40749726 48.17317827 28.62950134 48.16908264 C24.26160414 48.15888204 19.89388931 48.13930984 15.52598572 48.12025452 C15.85598572 54.06025452 16.18598572 60.00025452 16.52598572 66.12025452 C17.79305359 66.1150177 19.06012146 66.10978088 20.36558533 66.10438538 C25.04884642 66.08633937 29.73210442 66.07482398 34.41539001 66.06532288 C36.4456687 66.06028174 38.47594374 66.05344895 40.50621033 66.04481506 C43.41775918 66.03273984 46.32926022 66.02702417 49.24082947 66.02259827 C50.15436691 66.01743698 51.06790436 66.0122757 52.00912476 66.00695801 C54.18173999 66.00676284 56.35425868 66.05813647 58.52598572 66.12025452 C62.3045804 69.8988492 59.52598572 76.77651467 59.52598572 82.12025452 C39.06598572 82.12025452 18.60598572 82.12025452 -2.47401428 82.12025452 C-3.98544765 79.09738779 -3.61260235 75.97235177 -3.60340881 72.65711975 C-3.60516113 71.88790192 -3.60691345 71.11868408 -3.60871887 70.32615662 C-3.61312948 67.77703106 -3.61020246 65.22797456 -3.60682678 62.67884827 C-3.60749998 60.9129027 -3.60847014 59.14695722 -3.60972595 57.38101196 C-3.6112018 53.67795429 -3.60905174 49.97492072 -3.60438538 46.27186584 C-3.59868399 41.51446589 -3.6019704 36.75712229 -3.60795784 31.99972439 C-3.61156296 28.35302299 -3.61042517 24.70633505 -3.60783005 21.05963326 C-3.60716086 19.30486609 -3.60798893 17.55009772 -3.6103096 15.79533195 C-3.61283577 13.34818635 -3.60899625 10.90113342 -3.60340881 8.45399475 C-3.60543304 7.72202377 -3.60745728 6.9900528 -3.60954285 6.23590088 C-3.58376951 0.17419644 -3.58376951 0.17419644 0 0 Z " fill="#000000" transform="translate(495.47401428222656,119.87974548339844)"/>
<path d="M0 0 C1.62215675 0.00333092 1.62215675 0.00333092 3.27708435 0.00672913 C4.49827469 0.00680466 5.71946503 0.00688019 6.97766113 0.00695801 C8.32022644 0.0120654 9.66279134 0.01728141 11.00535583 0.02259827 C12.37156116 0.02446252 13.73776716 0.02588639 15.10397339 0.02688599 C18.70596654 0.03071058 22.30791959 0.04054035 25.90989685 0.05158997 C29.58298703 0.06180536 33.25608368 0.06638388 36.92918396 0.07142639 C44.14079081 0.08216268 51.35236459 0.09923838 58.56394958 0.12025452 C59.92933896 2.85103328 59.69626785 5.07585819 59.68894958 8.12025452 C59.69281677 9.72900452 59.69281677 9.72900452 59.69676208 11.37025452 C59.56394958 14.12025452 59.56394958 14.12025452 58.56394958 16.12025452 C44.04394958 16.12025452 29.52394958 16.12025452 14.56394958 16.12025452 C15.05894958 24.53525452 15.05894958 24.53525452 15.56394958 33.12025452 C18.22328552 33.18084045 20.88262146 33.24142639 23.62254333 33.30384827 C26.18743371 33.36558981 28.75227783 33.42899729 31.31712341 33.49256897 C33.10484229 33.53598152 34.89260433 33.5776518 36.68040466 33.61756897 C39.24458349 33.67511912 41.80854371 33.73885655 44.37254333 33.80384827 C45.17671188 33.82056076 45.98088043 33.83727325 46.80941772 33.85449219 C52.45007788 34.00638281 52.45007788 34.00638281 53.56394958 35.12025452 C53.66268775 37.11825023 53.69366758 39.1198261 53.68894958 41.12025452 C53.69281677 42.75994202 53.69281677 42.75994202 53.69676208 44.43275452 C53.56394958 47.12025452 53.56394958 47.12025452 52.56394958 48.12025452 C49.75231579 48.20887444 46.96536703 48.23547807 44.15379333 48.21791077 C43.31175858 48.21649582 42.46972382 48.21508087 41.60217285 48.21362305 C38.90189624 48.20800715 36.20170131 48.195452 33.50144958 48.18275452 C31.6752789 48.17774156 29.84910693 48.1731783 28.02293396 48.16908264 C23.53654873 48.15888167 19.05034104 48.13930951 14.56394958 48.12025452 C14.89394958 54.06025452 15.22394958 60.00025452 15.56394958 66.12025452 C37.34394958 66.61525452 37.34394958 66.61525452 59.56394958 67.12025452 C59.56394958 71.74025452 59.56394958 76.36025452 59.56394958 81.12025452 C57.79671148 82.88749263 55.26076118 82.24788284 52.86668396 82.24964905 C51.64872131 82.25280121 50.43075867 82.25595337 49.17588806 82.25920105 C47.83649154 82.25741127 46.49709534 82.25536031 45.15769958 82.25306702 C43.79388919 82.25374011 42.43007891 82.25471019 41.06626892 82.25596619 C38.20464437 82.25744289 35.34305099 82.25528948 32.48143005 82.25062561 C28.80576345 82.24492832 25.13016985 82.24820747 21.45450592 82.25419807 C18.63732855 82.25780443 15.82016861 82.25666476 13.00299072 82.25407028 C11.64734895 82.25340122 10.29170562 82.25422873 8.93606567 82.25654984 C7.04444914 82.25907753 5.15282709 82.25454465 3.26121521 82.24964905 C1.64358276 82.24845566 1.64358276 82.24845566 -0.00672913 82.24723816 C-2.43605042 82.12025452 -2.43605042 82.12025452 -3.43605042 81.12025452 C-3.53638908 78.63071755 -3.57222984 76.16890498 -3.56544495 73.67884827 C-3.56719727 72.90002289 -3.56894958 72.12119751 -3.570755 71.31877136 C-3.57517391 68.7317434 -3.57223541 66.14478323 -3.56886292 63.55775452 C-3.56953594 61.76795946 -3.57050596 59.97816449 -3.57176208 58.18836975 C-3.57323911 54.43225741 -3.57108436 50.6761688 -3.56642151 46.9200592 C-3.56072422 42.09424958 -3.5640032 37.26849557 -3.56999397 32.44268799 C-3.57359946 28.74537229 -3.57246106 25.04806987 -3.56986618 21.35075378 C-3.56919688 19.57086684 -3.57002545 17.7909787 -3.57234573 16.01109314 C-3.57487207 13.52791629 -3.57103196 11.04483077 -3.56544495 8.56166077 C-3.56746918 7.81876801 -3.56949341 7.07587524 -3.57157898 6.31047058 C-3.54587431 0.17504047 -3.54587431 0.17504047 0 0 Z " fill="#000000" transform="translate(246.43605041503906,17.879745483398438)"/>
<path d="M0 0 C1.16273438 -0.03738281 2.32546875 -0.07476562 3.5234375 -0.11328125 C5.1940625 -0.13068359 5.1940625 -0.13068359 6.8984375 -0.1484375 C7.92372559 -0.16825684 8.94901367 -0.18807617 10.00537109 -0.20849609 C12.625 0.375 12.625 0.375 14.29736328 2.40283203 C15.91683745 6.02833379 17.30418281 9.70101082 18.59375 13.453125 C18.8708078 14.24529419 19.1478656 15.03746338 19.43331909 15.8536377 C20.33652417 18.44205637 21.23117825 21.03332751 22.125 23.625 C22.74673487 25.41705211 23.36864411 27.20904373 23.99072266 29.00097656 C25.88038439 34.45503176 27.75497137 39.91418635 29.625 45.375 C30.05951477 46.6424707 30.05951477 46.6424707 30.50280762 47.93554688 C32.10493388 52.61264416 33.69779641 57.2927206 35.27612305 61.97790527 C35.75660537 63.40306609 36.23884963 64.82763415 36.72290039 66.25158691 C37.3918014 68.22299265 38.05260779 70.19691802 38.7109375 72.171875 C39.2685376 73.83234863 39.2685376 73.83234863 39.83740234 75.52636719 C40.625 78.375 40.625 78.375 40.625 82.375 C37.68652347 82.482834 34.75198849 82.56221916 31.8125 82.625 C30.97912109 82.65851563 30.14574219 82.69203125 29.28710938 82.7265625 C28.48466797 82.73945313 27.68222656 82.75234375 26.85546875 82.765625 C25.74788208 82.7970459 25.74788208 82.7970459 24.61791992 82.82910156 C22.625 82.375 22.625 82.375 19.625 78.375 C18.635 74.415 17.645 70.455 16.625 66.375 C0.785 66.87 0.785 66.87 -15.375 67.375 C-17.025 71.995 -18.675 76.615 -20.375 81.375 C-21.375 82.375 -21.375 82.375 -23.14086914 82.48852539 C-23.88973389 82.48328857 -24.63859863 82.47805176 -25.41015625 82.47265625 C-26.21904297 82.46943359 -27.02792969 82.46621094 -27.86132812 82.46289062 C-28.71146484 82.45451172 -29.56160156 82.44613281 -30.4375 82.4375 C-31.29150391 82.43298828 -32.14550781 82.42847656 -33.02539062 82.42382812 C-35.14195663 82.41200373 -37.25848685 82.39406769 -39.375 82.375 C-40.375 80.375 -40.375 80.375 -39.625 77.52563477 C-39.2125 76.30158936 -38.8 75.07754395 -38.375 73.81640625 C-38.14774734 73.13616394 -37.92049469 72.45592163 -37.68635559 71.75506592 C-36.92360516 69.47987123 -36.14960047 67.20868526 -35.375 64.9375 C-34.83907474 63.34997571 -34.30351834 61.76232686 -33.76831055 60.17456055 C-29.31075397 46.98858965 -24.75622325 33.83529173 -20.1875 20.6875 C-19.68778687 19.24662521 -19.68778687 19.24662521 -19.17797852 17.77664185 C-18.23265676 15.0543475 -17.2831313 12.33356141 -16.33203125 9.61328125 C-16.04713333 8.79204773 -15.76223541 7.97081421 -15.46870422 7.12469482 C-12.38352544 -1.6613591 -8.77540667 0.10630999 0 0 Z M-1.375 22.375 C-3.80963235 25.59186836 -5.04015823 28.95423758 -6.19921875 32.7890625 C-6.50537109 33.79710937 -6.81152344 34.80515625 -7.12695312 35.84375 C-7.43568359 36.8853125 -7.74441406 37.926875 -8.0625 39 C-8.38283203 40.04929687 -8.70316406 41.09859375 -9.03320312 42.1796875 C-10.77887631 47.6841416 -10.77887631 47.6841416 -11.375 53.375 C-3.455 53.375 4.465 53.375 12.625 53.375 C11.52841057 49.33113871 10.42306002 45.29002518 9.3125 41.25 C8.8494043 39.53683594 8.8494043 39.53683594 8.37695312 37.7890625 C6.87729107 32.35870726 5.4534752 27.26608635 2.625 22.375 C1.305 22.375 -0.015 22.375 -1.375 22.375 Z " fill="#000000" transform="translate(358.375,119.625)"/>
<path d="M0 0 C1.62215675 0.00333092 1.62215675 0.00333092 3.27708435 0.00672913 C4.49827469 0.00680466 5.71946503 0.00688019 6.97766113 0.00695801 C8.32022644 0.0120654 9.66279134 0.01728141 11.00535583 0.02259827 C12.37156116 0.02446252 13.73776716 0.02588639 15.10397339 0.02688599 C18.70596654 0.03071058 22.30791959 0.04054035 25.90989685 0.05158997 C29.58298703 0.06180536 33.25608368 0.06638388 36.92918396 0.07142639 C44.14079081 0.08216268 51.35236459 0.09923838 58.56394958 0.12025452 C58.59080054 2.59949253 58.61071506 5.07844291 58.62644958 7.55775452 C58.63482849 8.2648053 58.6432074 8.97185608 58.65184021 9.70033264 C58.66048546 11.50719011 58.6161497 13.31413054 58.56394958 15.12025452 C57.56394958 16.12025452 57.56394958 16.12025452 55.81124878 16.24050903 C55.04957901 16.23828842 54.28790924 16.23606781 53.50315857 16.23377991 C52.64234177 16.23370438 51.78152496 16.23362885 50.8946228 16.23355103 C49.95921158 16.22838974 49.02380035 16.22322845 48.06004333 16.21791077 C47.10702835 16.21649582 46.15401337 16.21508087 45.17211914 16.21362305 C42.11519793 16.20800604 39.05834882 16.19545067 36.00144958 16.18275452 C33.93439335 16.17774171 31.86733597 16.17317842 29.80027771 16.16908264 C24.72147371 16.15803108 19.64272389 16.14075506 14.56394958 16.12025452 C14.56394958 22.06025452 14.56394958 28.00025452 14.56394958 34.12025452 C27.10394958 34.12025452 39.64394958 34.12025452 52.56394958 34.12025452 C52.56394958 38.74025452 52.56394958 43.36025452 52.56394958 48.12025452 C40.02394958 48.12025452 27.48394958 48.12025452 14.56394958 48.12025452 C14.56394958 54.39025452 14.56394958 60.66025452 14.56394958 67.12025452 C15.89160339 67.1150177 17.2192572 67.10978088 18.58714294 67.10438538 C23.49403718 67.08634025 28.40092846 67.0748243 33.30784607 67.06532288 C35.43512973 67.06028153 37.5624099 67.05344861 39.68968201 67.04481506 C42.74022784 67.03274073 45.79072804 67.02702438 48.84129333 67.02259827 C50.27722084 67.01485634 50.27722084 67.01485634 51.74215698 67.00695801 C53.06341331 67.00684471 53.06341331 67.00684471 54.41136169 67.00672913 C55.19079636 67.00450851 55.97023102 67.0022879 56.77328491 67 C58.56394958 67.12025452 58.56394958 67.12025452 59.56394958 68.12025452 C59.66295158 70.09738259 59.69365731 72.0781549 59.68894958 74.05775452 C59.69281677 75.68003967 59.69281677 75.68003967 59.69676208 77.33509827 C59.56394958 80.12025452 59.56394958 80.12025452 58.56394958 82.12025452 C38.10394958 82.12025452 17.64394958 82.12025452 -3.43605042 82.12025452 C-3.47615922 61.94552342 -3.47615922 61.94552342 -3.48487854 53.37611389 C-3.49086698 47.51827596 -3.49796731 41.66045358 -3.51148987 35.80262756 C-3.52231876 31.08237474 -3.52832725 26.36213859 -3.53092766 21.64187431 C-3.5327819 19.83686498 -3.53640251 18.0318566 -3.54178047 16.22685432 C-3.54899094 13.70765807 -3.55004136 11.18853161 -3.54957581 8.66932678 C-3.55317108 7.91551224 -3.55676636 7.16169769 -3.56047058 6.38504028 C-3.54797057 0.17514395 -3.54797057 0.17514395 0 0 Z " fill="#000000" transform="translate(811.4360504150391,17.879745483398438)"/>
<path d="M0 0 C0.76443924 -0.00570007 1.52887848 -0.01140015 2.31648254 -0.01727295 C3.94656993 -0.02674954 5.5766767 -0.03326742 7.20678711 -0.03710938 C9.6518972 -0.04665965 12.09610885 -0.07758749 14.54101562 -0.109375 C27.54766573 -0.19860193 41.35410015 -0.03227729 51.51953125 9.203125 C57.97995756 16.12501033 58.93899919 23.75505769 58.76953125 32.98046875 C58.19076689 40.4411031 55.93280605 45.91014519 50.51953125 51.203125 C38.99088212 60.61371999 24.54620398 59.57735441 10.51953125 59.203125 C10.52738647 60.19493774 10.52738647 60.19493774 10.53540039 61.20678711 C10.55610781 64.18472351 10.56917137 67.16264482 10.58203125 70.140625 C10.59041016 71.18154297 10.59878906 72.22246094 10.60742188 73.29492188 C10.61225586 74.77895508 10.61225586 74.77895508 10.6171875 76.29296875 C10.62504272 77.66763306 10.62504272 77.66763306 10.63305664 79.07006836 C10.51953125 81.203125 10.51953125 81.203125 9.51953125 82.203125 C6.67618077 82.30299475 3.86255962 82.34190381 1.01953125 82.328125 C0.22160156 82.33199219 -0.57632812 82.33585937 -1.3984375 82.33984375 C-7.35386108 82.32973267 -7.35386108 82.32973267 -8.48046875 81.203125 C-8.58080741 78.71358803 -8.61664818 76.25177547 -8.60986328 73.76171875 C-8.6116156 72.98289337 -8.61336792 72.20406799 -8.61517334 71.40164185 C-8.61959224 68.81461389 -8.61665374 66.22765371 -8.61328125 63.640625 C-8.61395428 61.85082994 -8.61492429 60.06103498 -8.61618042 58.27124023 C-8.61765744 54.51512789 -8.61550269 50.75903928 -8.61083984 47.00292969 C-8.60514255 42.17712007 -8.60842153 37.35136605 -8.61441231 32.52555847 C-8.6180178 28.82824277 -8.61687939 25.13094036 -8.61428452 21.43362427 C-8.61361521 19.65373732 -8.61444378 17.87384918 -8.61676407 16.09396362 C-8.6192904 13.61078678 -8.61545029 11.12770126 -8.60986328 8.64453125 C-8.61188751 7.90163849 -8.61391174 7.15874573 -8.61599731 6.39334106 C-8.58576917 -0.82179267 -6.51671646 0.03750833 0 0 Z M10.51953125 15.203125 C10.51953125 24.773125 10.51953125 34.343125 10.51953125 44.203125 C13.86078125 44.285625 17.20203125 44.368125 20.64453125 44.453125 C22.2071167 44.50774902 22.2071167 44.50774902 23.80126953 44.56347656 C29.52569214 44.63174242 33.10162532 44.23993362 37.51953125 40.203125 C40.97732516 35.42855492 40.30512683 28.77679016 39.51953125 23.203125 C38.00780994 20.22385605 36.27502344 18.09910586 33.51953125 16.203125 C30.61336861 15.29864807 28.00708369 15.08496586 24.97265625 15.10546875 C24.21114258 15.10796631 23.44962891 15.11046387 22.66503906 15.11303711 C21.70952148 15.12214111 20.75400391 15.13124512 19.76953125 15.140625 C16.71703125 15.16125 13.66453125 15.181875 10.51953125 15.203125 Z " fill="#000000" transform="translate(440.48046875,17.796875)"/>
<path d="M0 0 C5.34293033 3.95914981 8.57452325 8.46656491 10 15 C10.1875 18.5 10.1875 18.5 10 21 C4.30601106 23.09570426 -0.95198929 24.45018084 -7 25 C-7.15855469 24.39671875 -7.31710937 23.7934375 -7.48046875 23.171875 C-8.99192523 17.99451027 -10.17105344 14.89736793 -15 12 C-20.1671159 10.27762803 -25.10599758 10.34438378 -30.25 12.125 C-35.13100534 15.45295818 -38.16192897 19.42240514 -40 25 C-41.63057171 36.38770243 -42.08321704 48.35895458 -35 58 C-28.25248677 63.23276536 -22.32639796 63.74992723 -14 63 C-9.39659088 61.10931411 -7.76300029 58.93858758 -5.75 54.5625 C-5.1495965 53.0483245 -4.56656801 51.52715831 -4 50 C-3.33575358 48.33236727 -2.66970414 46.66544846 -2 45 C0.31317961 45.30742903 2.62553352 45.62107702 4.9375 45.9375 C6.22527344 46.11152344 7.51304687 46.28554687 8.83984375 46.46484375 C12 47 12 47 13 48 C13.70658602 55.63112906 12.02530165 62.8488266 7.45703125 69.1171875 C2.20373986 74.71909548 -4.56055706 78.58122585 -12.29907227 79.17700195 C-34.73804489 79.7232324 -34.73804489 79.7232324 -43 75 C-43.71929687 74.59910156 -44.43859375 74.19820313 -45.1796875 73.78515625 C-53.22754136 68.54645893 -58.44281589 59.52055943 -60.5625 50.2734375 C-62.62159221 34.86701546 -61.644506 19.90413525 -51.91015625 7.15234375 C-48.92909201 3.79331227 -45.86524338 1.27785982 -42 -1 C-41.33097656 -1.4125 -40.66195313 -1.825 -39.97265625 -2.25 C-28.32406778 -8.14594636 -10.83981842 -6.92349693 0 0 Z " fill="#000000" transform="translate(301,124)"/>
<path d="M0 0 C0.86818359 -0.04576172 1.73636719 -0.09152344 2.63085938 -0.13867188 C3.47068359 -0.15349609 4.31050781 -0.16832031 5.17578125 -0.18359375 C5.94446533 -0.2086499 6.71314941 -0.23370605 7.50512695 -0.25952148 C11.02102708 0.86341116 11.91789051 3.30282748 13.6875 6.4375 C14.81736864 8.76069612 15.89314583 11.11075154 16.921875 13.48046875 C17.20476379 14.13074539 17.48765259 14.78102203 17.77911377 15.45100403 C18.37011066 16.81366436 18.95819241 18.17759245 19.54345703 19.54272461 C20.4410195 21.63319712 21.35071221 23.71809099 22.26171875 25.80273438 C22.83666611 27.13249771 23.41091012 28.46256542 23.984375 29.79296875 C24.50354492 30.99590576 25.02271484 32.19884277 25.55761719 33.43823242 C26.6875 36.4375 26.6875 36.4375 26.6875 39.4375 C27.3475 39.4375 28.0075 39.4375 28.6875 39.4375 C28.79328369 38.75502197 28.89906738 38.07254395 29.00805664 37.36938477 C29.81898264 33.87013562 31.11995321 30.81946915 32.55859375 27.52734375 C32.84098404 26.87802383 33.12337433 26.22870392 33.4143219 25.55970764 C34.31329008 23.49609902 35.21916419 21.43560176 36.125 19.375 C36.73024555 17.98651455 37.33506757 16.59784439 37.93945312 15.20898438 C42.31048863 5.19152275 42.31048863 5.19152275 44.6875 0.4375 C51.6175 0.4375 58.5475 0.4375 65.6875 0.4375 C64.87910536 4.47947318 64.23040333 6.69269145 62.38671875 10.18359375 C61.90968506 11.09310791 61.43265137 12.00262207 60.94116211 12.93969727 C60.42432861 13.90834717 59.90749512 14.87699707 59.375 15.875 C58.57944702 17.38308228 58.57944702 17.38308228 57.76782227 18.92163086 C53.45395455 27.07117662 49.05464384 35.17470543 44.61010742 43.25366211 C43.68691673 44.93240609 42.77104432 46.61520428 41.86401367 48.30273438 C40.93911348 49.98095129 39.92945274 51.61247325 38.890625 53.22265625 C36.88258975 58.5882829 37.10772671 64.13068543 37 69.8125 C36.96583984 71.02550781 36.93167969 72.23851563 36.89648438 73.48828125 C36.8142825 76.47103494 36.7492077 79.45425195 36.6875 82.4375 C30.7475 82.4375 24.8075 82.4375 18.6875 82.4375 C18.77773438 80.87386719 18.86796875 79.31023437 18.9609375 77.69921875 C19.4438787 59.83456955 14.63355418 47.88214351 5.60498047 32.68408203 C3.14237819 28.51452701 0.82099762 24.27598976 -1.48901367 20.02050781 C-2.50804356 18.14530308 -3.53752279 16.27572377 -4.5793457 14.41308594 C-6.94297348 10.16307374 -8.98985048 6.15136136 -10.3125 1.4375 C-8.05213309 -0.82286691 -3.03185257 0.06441298 0 0 Z " fill="#000000" transform="translate(657.3125,17.5625)"/>
<path d="M0 0 C1.12535156 0.00580078 1.12535156 0.00580078 2.2734375 0.01171875 C3.02367187 0.00785156 3.77390625 0.00398438 4.546875 0 C10.14682697 0.01010822 10.14682697 0.01010822 11.2734375 1.13671875 C11.36753229 3.16166106 11.39086872 5.18991745 11.38696289 7.21704102 C11.38688736 8.51831436 11.38681183 9.81958771 11.38673401 11.16029358 C11.38162659 12.59123777 11.37641058 14.02218157 11.37109375 15.453125 C11.36922953 16.90901135 11.36780565 18.36489832 11.36680603 19.82078552 C11.36298115 23.65951254 11.35315114 27.49820194 11.34210205 31.33691406 C11.33009248 35.93907646 11.32548554 40.54125141 11.31964874 45.14342499 C11.30993935 52.14121577 11.29078263 59.13892395 11.2734375 66.13671875 C22.4934375 66.13671875 33.7134375 66.13671875 45.2734375 66.13671875 C45.2734375 71.41671875 45.2734375 76.69671875 45.2734375 82.13671875 C28.1134375 82.13671875 10.9534375 82.13671875 -6.7265625 82.13671875 C-7.39402202 71.4573664 -7.83344726 61.0490251 -7.640625 50.390625 C-7.61876943 48.95857846 -7.59732417 47.52652561 -7.57626343 46.09446716 C-7.53136788 43.13410603 -7.4822036 40.17385854 -7.4296875 37.21362305 C-7.36255295 33.41407561 -7.30563158 29.6144528 -7.25165749 25.81469822 C-7.20898626 22.87653827 -7.16154151 19.93847102 -7.11256027 17.00041008 C-7.08965982 15.59734205 -7.06815072 14.19425059 -7.04805374 12.7911396 C-7.01942633 10.84839456 -6.98377753 8.90575674 -6.94775391 6.96313477 C-6.92919342 5.85889664 -6.91063293 4.75465851 -6.89151001 3.61695862 C-6.58074632 -1.05585209 -4.11582588 0.00742929 0 0 Z " fill="#000000" transform="translate(517.7265625,17.86328125)"/>
<path d="M0 0 C1.02083333 0.875 2.04166667 1.75 3.0625 2.625 C4.01382813 3.43904297 4.01382813 3.43904297 4.984375 4.26953125 C6.31099026 5.40846645 7.63401813 6.55159577 8.953125 7.69921875 C9.56671875 8.23160156 10.1803125 8.76398438 10.8125 9.3125 C11.37582031 9.80363281 11.93914062 10.29476562 12.51953125 10.80078125 C15.64719841 13.33427417 18.04014751 13.38075505 22 13 C26.99743733 10.33470009 30.91981522 6.45568241 35.046875 2.609375 C37 1 37 1 39 1 C39.62204649 13.717395 38.71909139 24.13368007 34 36 C33.7009375 36.77472656 33.401875 37.54945313 33.09375 38.34765625 C30.24739698 44.76512811 25.56501697 50.71233556 21 56 C20.34 56 19.68 56 19 56 C3.81063361 39.78319932 -0.45134098 21.61421818 0 0 Z " fill="#512513" transform="translate(98,148)"/>
<path d="M0 0 C10.6320313 10.0066177 18.85000711 23.82467847 20.24609375 38.60546875 C20.25 40.8125 20.25 40.8125 20 44 C19.3709375 44.14695313 18.741875 44.29390625 18.09375 44.4453125 C12.28939765 45.96633254 8.18926914 47.92256226 3.59375 51.79296875 C2 53 2 53 0 53 C0 52.34 0 51.68 0 51 C-0.87011719 50.56880859 -0.87011719 50.56880859 -1.7578125 50.12890625 C-3.15705346 49.42441036 -4.54918953 48.70539428 -5.9296875 47.96484375 C-9.96281299 45.83489997 -13.39106378 44.46089362 -18 44 C-18.21430804 38.33344335 -17.66068151 33.59997144 -15.875 28.1875 C-15.65054199 27.49390381 -15.42608398 26.80030762 -15.19482422 26.08569336 C-11.85519184 16.17123145 -6.68273047 8.00741373 0 0 Z " fill="#248947" transform="translate(116,18)"/>
<path d="M0 0 C0.15855469 0.67804688 0.31710938 1.35609375 0.48046875 2.0546875 C3.35076609 13.50416089 7.40341981 21.03439104 15.98608398 29.06616211 C17.35358956 30.34661163 18.68057841 31.67005671 20 33 C20 33.66 20 34.32 20 35 C2.58439736 38.48312053 -13.85628934 30.66699939 -28.48046875 22.0625 C-31 20 -31 20 -31.86328125 17.25 C-31.90839844 16.5075 -31.95351563 15.765 -32 15 C-23.08839546 7.6499455 -11.89332966 0 0 0 Z " fill="#E91E22" transform="translate(59,95)"/>
<path d="M0 0 C12.02947015 1.15667982 24.49429661 7.49429661 33 16 C29.23710824 24.72391822 17.8345878 29.51144578 9.5546875 33.04296875 C0.39128726 36.10222306 -9.4695962 35.25202831 -19 35 C-18.0859375 33.93359375 -17.171875 32.8671875 -16.2578125 31.80078125 C-15.70899414 31.15963379 -15.16017578 30.51848633 -14.59472656 29.85791016 C-13.3376423 28.39336465 -12.07260728 26.93564359 -10.8046875 25.48046875 C-4.21013664 17.64443361 -0.7577546 10.22968704 0 0 Z " fill="#0FA026" transform="translate(175,94)"/>
<path d="M0 0 C0.33 0.66 0.66 1.32 1 2 C0.67 2.66 0.34 3.32 0 4 C5.445 3.505 5.445 3.505 11 3 C11.33 3.99 11.66 4.98 12 6 C13.918125 5.9690625 13.918125 5.9690625 15.875 5.9375 C19.75 5.875 19.75 5.875 22 7 C22.33 5.02 22.66 3.04 23 1 C23.66 1 24.32 1 25 1 C25 7.93 25 14.86 25 22 C24.01 22 23.02 22 22 22 C20.515 15.07 20.515 15.07 19 8 C18.34 8 17.68 8 17 8 C15.68 13.61 14.36 19.22 13 25 C11.68 25 10.36 25 9 25 C9.33 19.72 9.66 14.44 10 9 C8.44168874 13.42623195 8.44168874 13.42623195 6.88916016 17.85449219 C5.76902986 21.01346014 4.59449302 24.04944282 3 27 C2.01 26.67 1.02 26.34 0 26 C0.6099126 21.01155691 1.63474435 16.39844654 3.0625 11.5625 C3.42472656 10.32628906 3.78695312 9.09007813 4.16015625 7.81640625 C4.43730469 6.88699219 4.71445313 5.95757812 5 5 C-0.59967378 9.79502751 -0.59967378 9.79502751 -5.875 14.9375 C-8 17 -8 17 -10 17 C-9.65806126 11.52898009 -6.27704522 8.10038245 -3 4 C-1.99593287 2.66972673 -0.99475047 1.33725438 0 0 Z " fill="#3BB0E8" transform="translate(128,101)"/>
<path d="M0 0 C2.4144002 3.62160031 4.7807956 7.27016623 7.125 10.9375 C7.82689453 12.01161133 7.82689453 12.01161133 8.54296875 13.10742188 C8.98511719 13.80287109 9.42726563 14.49832031 9.8828125 15.21484375 C10.28902832 15.84511475 10.69524414 16.47538574 11.11376953 17.12475586 C12 19 12 19 12 23 C8.14295732 21.48658639 6.34598463 19.20239414 3.875 15.9375 C1.39068378 12.4287459 1.39068378 12.4287459 -2 10 C-1.7834375 11.00160156 -1.566875 12.00320312 -1.34375 13.03515625 C-1.06213368 14.37752737 -0.78090434 15.71997971 -0.5 17.0625 C-0.35691406 17.71927734 -0.21382812 18.37605469 -0.06640625 19.05273438 C0.83952455 23.43139988 1.14031146 27.50418704 1 32 C0.01 32 -0.98 32 -2 32 C-2.83830973 29.23058394 -3.67082034 26.45964931 -4.5 23.6875 C-4.85771484 22.50897461 -4.85771484 22.50897461 -5.22265625 21.30664062 C-5.44824219 20.54931641 -5.67382812 19.79199219 -5.90625 19.01171875 C-6.22045898 17.96697388 -6.22045898 17.96697388 -6.54101562 16.90112305 C-7 15 -7 15 -7 12 C-7.66 11.67 -8.32 11.34 -9 11 C-8.2575 10.855625 -7.515 10.71125 -6.75 10.5625 C-4.47972261 10.09812508 -2.24240521 9.58136431 0 9 C-0.185625 8.2575 -0.37125 7.515 -0.5625 6.75 C-0.99203108 4.05009037 -0.85122974 2.55368923 0 0 Z " fill="#EBC65F" transform="translate(99,95)"/>
<path d="M0 0 C-0.99 0.99 -1.98 1.98 -3 3 C-2.67 3.33 -2.34 3.66 -2 4 C-1.95936168 5.66617115 -1.957279 7.33388095 -2 9 C-8.15234375 9.09765625 -8.15234375 9.09765625 -10 9 C-10.33 8.67 -10.66 8.34 -11 8 C-11.87785156 8.24169922 -11.87785156 8.24169922 -12.7734375 8.48828125 C-15.38331196 9.0880945 -17.02949701 8.79080253 -19.625 8.1875 C-20.40101562 8.01605469 -21.17703125 7.84460938 -21.9765625 7.66796875 C-24 7 -24 7 -26 5 C-26 3.68 -26 2.36 -26 1 C-25.01 1.33 -24.02 1.66 -23 2 C-16.18955337 2.58925661 -10.41903006 1.87085082 -3.99609375 -0.44140625 C-2 -1 -2 -1 0 0 Z " fill="#2DB2EF" transform="translate(144,81)"/>
<path d="M0 0 C0.33 0.99 0.66 1.98 1 3 C-0.32 4.32 -1.64 5.64 -3 7 C-3.66 6.67 -4.32 6.34 -5 6 C-5.66 8.31 -6.32 10.62 -7 13 C-7.99 13 -8.98 13 -10 13 C-9.97643433 13.88353149 -9.97643433 13.88353149 -9.95239258 14.78491211 C-9.889308 17.50234027 -9.85078009 20.21961361 -9.8125 22.9375 C-9.78736328 23.86369141 -9.76222656 24.78988281 -9.73632812 25.74414062 C-9.67758296 31.32493132 -10.26307344 35.85480839 -12.28320312 41.07226562 C-13.24648026 43.66287742 -13.64959186 46.26681654 -14 49 C-14.66 49 -15.32 49 -16 49 C-16.144375 49.598125 -16.28875 50.19625 -16.4375 50.8125 C-16.8872439 52.56150404 -17.42892341 54.28677023 -18 56 C-18.66 56 -19.32 56 -20 56 C-20 56.66 -20 57.32 -20 58 C-20.66 57.67 -21.32 57.34 -22 57 C-21.68546875 56.44054687 -21.3709375 55.88109375 -21.046875 55.3046875 C-13.83599867 41.79515414 -12.32043506 29.02840433 -12 14 C-12.66 13.67 -13.32 13.34 -14 13 C-13.113125 12.278125 -12.22625 11.55625 -11.3125 10.8125 C-8.37088913 8.3634702 -5.67143151 5.74363236 -3 3 C-2 2 -1 1 0 0 Z " fill="#63D035" transform="translate(149,135)"/>
<path d="M0 0 C3.80720963 1.102087 7.14745829 2.5753325 10.625 4.4375 C20.90899271 9.65647235 34.58931432 12.85267142 46 10 C46.99 11.32 47.98 12.64 49 14 C36.02465517 14.4969281 23.84064754 13.70157377 12.0078125 7.78515625 C8.62156987 6.46096409 5.59035399 6.73888335 2 7 C2.33 6.01 2.66 5.02 3 4 C2.2575 3.2884375 2.2575 3.2884375 1.5 2.5625 C0 1 0 1 0 0 Z " fill="#F92F62" transform="translate(34,119)"/>
<path d="M0 0 C-1.32915392 3.55073976 -2.93936642 6.68302799 -4.875 9.9375 C-9.55192495 18.38798298 -11.77826137 27.46801941 -13 37 C-17.62 37.33 -22.24 37.66 -27 38 C-27 37.34 -27 36.68 -27 36 C-22.71 36 -18.42 36 -14 36 C-14.061875 33.958125 -14.12375 31.91625 -14.1875 29.8125 C-14.33993386 24.78218248 -13.8291575 22.15712939 -11 18 C-10.29329272 15.30745009 -10.29329272 15.30745009 -10 13 C-9.34 13 -8.68 13 -8 13 C-8 11.68 -8 10.36 -8 9 C-7.34 9 -6.68 9 -6 9 C-6.12375 7.88625 -6.12375 7.88625 -6.25 6.75 C-6 4 -6 4 -4.125 1.6875 C-2 0 -2 0 0 0 Z " fill="#D5C65E" transform="translate(111,24)"/>
<path d="M0 0 C0.66 0 1.32 0 2 0 C2 6.93 2 13.86 2 21 C1.01 21 0.02 21 -1 21 C-1.99 16.38 -2.98 11.76 -4 7 C-4.66 7 -5.32 7 -6 7 C-6.33 8.65 -6.66 10.3 -7 12 C-7.33 12 -7.66 12 -8 12 C-8 10.02 -8 8.04 -8 6 C-3.25 4.875 -3.25 4.875 -1 6 C-0.67 4.02 -0.34 2.04 0 0 Z " fill="#3AAEE7" transform="translate(151,102)"/>
<path d="M0 0 C0 3.2182288 -0.56827481 4.21778225 -2 7 C-2.57455535 8.7394795 -3.11562198 10.49033048 -3.625 12.25 C-3.88539062 13.14203125 -4.14578125 14.0340625 -4.4140625 14.953125 C-4.60742188 15.62859375 -4.80078125 16.3040625 -5 17 C-5.99 17 -6.98 17 -8 17 C-10.15294651 22.28830549 -12.27933894 27.55123997 -14 33 C-16.01150055 27.4387926 -13.09542435 22.20091852 -11 17 C-8.02340432 10.71336485 -4.71028015 5.12589311 0 0 Z " fill="#3E893B" transform="translate(114,21)"/>
<path d="M0 0 C0.66 0 1.32 0 2 0 C1.67 2.31 1.34 4.62 1 7 C1.66 7 2.32 7 3 7 C3.33 6.34 3.66 5.68 4 5 C4.90413673 8.83724172 5.10576898 12.37502274 5.0625 16.3125 C5.05347656 17.38113281 5.04445313 18.44976562 5.03515625 19.55078125 C5.02355469 20.35902344 5.01195313 21.16726562 5 22 C4.01 22 3.02 22 2 22 C-1.65989848 4.97969543 -1.65989848 4.97969543 0 0 Z " fill="#ECC257" transform="translate(86,103)"/>
<path d="M0 0 C4.95 0 9.9 0 15 0 C14.67 1.65 14.34 3.3 14 5 C9.71 5.99 5.42 6.98 1 8 C0.67 9.65 0.34 11.3 0 13 C-0.33 13 -0.66 13 -1 13 C-1.17754126 9.09409237 -1.20731737 6.31097606 1 3 C1.66 2.67 2.32 2.34 3 2 C2.01 1.34 1.02 0.68 0 0 Z " fill="#EAC866" transform="translate(99,82)"/>
<path d="M0 0 C2 2 2 2 2.6796875 5.0078125 C3.11539063 5.99523438 3.55109375 6.98265625 4 8 C7.2945875 9.38103087 7.2945875 9.38103087 11.125 9.875 C12.40632812 10.09929688 13.68765625 10.32359375 15.0078125 10.5546875 C15.99523437 10.70164062 16.98265625 10.84859375 18 11 C18 13.31 18 15.62 18 18 C17.34 18 16.68 18 16 18 C15.9175 18.515625 15.835 19.03125 15.75 19.5625 C14.67859775 23.04455732 12.86476395 25.87200885 11 29 C10.34 28.67 9.68 28.34 9 28 C9.49371094 27.18015625 9.98742187 26.3603125 10.49609375 25.515625 C11.13675781 24.43796875 11.77742187 23.3603125 12.4375 22.25 C13.07558594 21.18265625 13.71367187 20.1153125 14.37109375 19.015625 C16.18804166 15.94956599 16.18804166 15.94956599 17 12 C11.72 11.67 6.44 11.34 1 11 C0.67 7.37 0.34 3.74 0 0 Z " fill="#3DAFDB" transform="translate(135,50)"/>
<path d="M0 0 C0.66 0 1.32 0 2 0 C2.83661862 2.7907207 3.66942737 5.58248012 4.5 8.375 C4.73847656 9.1690625 4.97695312 9.963125 5.22265625 10.78125 C5.44824219 11.54179688 5.67382812 12.30234375 5.90625 13.0859375 C6.22045898 14.1385376 6.22045898 14.1385376 6.54101562 15.21240234 C7 17 7 17 7 19 C6.34 19 5.68 19 5 19 C5 17.68 5 16.36 5 15 C4.34 15 3.68 15 3 15 C2.67 16.32 2.34 17.64 2 19 C0.68 18.67 -0.64 18.34 -2 18 C-1.01 18 -0.02 18 1 18 C0.67 12.06 0.34 6.12 0 0 Z " fill="#FDF1C5" transform="translate(90,107)"/>
<path d="M0 0 C0.33 0.99 0.66 1.98 1 3 C-0.32 4.32 -1.64 5.64 -3 7 C-3.66 6.67 -4.32 6.34 -5 6 C-5.66 8.31 -6.32 10.62 -7 13 C-7.99 13 -8.98 13 -10 13 C-10.33 18.61 -10.66 24.22 -11 30 C-11.33 30 -11.66 30 -12 30 C-12 24.72 -12 19.44 -12 14 C-12.66 13.67 -13.32 13.34 -14 13 C-13.113125 12.278125 -12.22625 11.55625 -11.3125 10.8125 C-8.37088913 8.3634702 -5.67143151 5.74363236 -3 3 C-2 2 -1 1 0 0 Z " fill="#69D441" transform="translate(149,135)"/>
<path d="M0 0 C2 2 2 2 2.1953125 3.9453125 C2.13020833 5.96354167 2.06510417 7.98177083 2 10 C2.66 10 3.32 10 4 10 C3.69106068 11.6256807 3.3777305 13.25052748 3.0625 14.875 C2.88847656 15.77992187 2.71445313 16.68484375 2.53515625 17.6171875 C2 20 2 20 1 22 C0.34 22 -0.32 22 -1 22 C-1.02698189 20.37509046 -1.04638757 18.75005367 -1.0625 17.125 C-1.07410156 16.22007813 -1.08570312 15.31515625 -1.09765625 14.3828125 C-1 12 -1 12 0 10 C0.06996014 8.29297265 0.08440154 6.58331997 0.0625 4.875 C0.05347656 3.96492188 0.04445313 3.05484375 0.03515625 2.1171875 C0.02355469 1.41851562 0.01195313 0.71984375 0 0 Z " fill="#E9C76B" transform="translate(77,98)"/>
<path d="M0 0 C1.65 0 3.3 0 5 0 C5.99 2.97 6.98 5.94 8 9 C8.66 9 9.32 9 10 9 C10.36398622 11.08164018 10.71583287 13.16540562 11.0625 15.25 C11.25972656 16.41015625 11.45695312 17.5703125 11.66015625 18.765625 C11.9606216 21.62522624 11.9439206 23.33325929 11 26 C9.77240971 23.54481943 9.89511943 21.80467806 9.8125 19.0625 C9.30191312 12.40726406 6.51690437 7.56036562 3 2 C1.35 3.32 -0.3 4.64 -2 6 C-2 4.68 -2 3.36 -2 2 C-1.34 2 -0.68 2 0 2 C0 1.34 0 0.68 0 0 Z " fill="#E8C96C" transform="translate(65,72)"/>
<path d="M0 0 C0.66 0 1.32 0 2 0 C2.66 1.32 3.32 2.64 4 4 C4.66 4 5.32 4 6 4 C4.63055898 6.94956528 3.12169591 9.52468811 1 12 C0.34 12 -0.32 12 -1 12 C-1.92470553 7.28400182 -2.22923777 4.32734391 0 0 Z " fill="#4B2C0F" transform="translate(118,192)"/>
<path d="M0 0 C1.65 0 3.3 0 5 0 C5.33 0.66 5.66 1.32 6 2 C8.02463255 2.65213292 8.02463255 2.65213292 10 3 C10 3.66 10 4.32 10 5 C15.28 5 20.56 5 26 5 C25.67 5.66 25.34 6.32 25 7 C17.43006175 7.45218658 7.25405993 7.55254477 1.15234375 2.45703125 C0 1 0 1 0 0 Z " fill="#FDF9DA" transform="translate(88,76)"/>
<path d="M0 0 C4.19635765 6.29453647 3.60674546 13.65601602 3 21 C1.99513608 24.52799386 0.68092094 27.74321568 -1 31 C-1.33 31 -1.66 31 -2 31 C-2.20086443 27.28400809 -2.1519437 26.22791555 0 23 C1.50998248 15.34504532 0.87252121 7.69161004 0 0 Z " fill="#D4F9F3" transform="translate(172,81)"/>
<path d="M0 0 C0.66 0.33 1.32 0.66 2 1 C1.195625 1.763125 0.39125 2.52625 -0.4375 3.3125 C-3.16799024 5.79430898 -3.16799024 5.79430898 -4 9 C-5.32 9 -6.64 9 -8 9 C-7.34 10.98 -6.68 12.96 -6 15 C-8.5 13.1875 -8.5 13.1875 -11 11 C-11 10.01 -11 9.02 -11 8 C-8.59375 5.95703125 -8.59375 5.95703125 -5.5 3.8125 C-4.4790625 3.09707031 -3.458125 2.38164062 -2.40625 1.64453125 C-1.6121875 1.10183594 -0.818125 0.55914062 0 0 Z " fill="#32AEE5" transform="translate(128,9)"/>
<path d="M0 0 C-2.93361396 1.55508703 -5.84915205 2.65128364 -9 3.6875 C-15.49174656 5.99412327 -21.14413273 9.41880348 -27 13 C-27.99 13.495 -27.99 13.495 -29 14 C-29 13.01 -29 12.02 -29 11 C-27.58671871 10.18162558 -26.16921654 9.37053781 -24.75 8.5625 C-23.96109375 8.11003906 -23.1721875 7.65757813 -22.359375 7.19140625 C-20.21166532 6.10688398 -18.34794939 5.46851284 -16 5 C-16 4.34 -16 3.68 -16 3 C-14.27318563 2.49193553 -12.54342021 1.99389533 -10.8125 1.5 C-9.36810547 1.08234375 -9.36810547 1.08234375 -7.89453125 0.65625 C-5.14654124 0.03322392 -2.80401584 -0.12302812 0 0 Z " fill="#FCAC56" transform="translate(59,94)"/>
<path d="M0 0 C0.99 0 1.98 0 3 0 C5.29612756 9.41002278 5.29612756 9.41002278 5 14 C3.26337666 10.77484237 2.1094072 7.48670834 1 4 C0.89042969 4.63808594 0.78085938 5.27617188 0.66796875 5.93359375 C0.50941406 6.75988281 0.35085937 7.58617188 0.1875 8.4375 C0.03667969 9.26121094 -0.11414063 10.08492187 -0.26953125 10.93359375 C-0.51058594 11.61550781 -0.75164062 12.29742187 -1 13 C-1.99 13.33 -2.98 13.66 -4 14 C-3.52372025 12.04096255 -3.04388577 10.08278903 -2.5625 8.125 C-2.29566406 7.03445312 -2.02882813 5.94390625 -1.75390625 4.8203125 C-1 2 -1 2 0 0 Z " fill="#FBEFC0" transform="translate(82,106)"/>
<path d="M0 0 C-1 1 -1 1 -3.5625 1.0625 C-4.7690625 1.0315625 -4.7690625 1.0315625 -6 1 C-6.33 1.99 -6.66 2.98 -7 4 C-9.68168324 4.7860106 -12.27676414 5.41782414 -15 6 C-16.33666334 6.36295165 -17.67039919 6.73697364 -19 7.125 C-19.99 7.41375 -20.98 7.7025 -22 8 C-17.15438183 2.75058032 -7.07888108 -2.83155243 0 0 Z " fill="#DB351C" transform="translate(59,96)"/>
<path d="M0 0 C0 3 0 3 -2.1875 5.48046875 C-3.115625 6.37378906 -4.04375 7.26710937 -5 8.1875 C-5.928125 9.08855469 -6.85625 9.98960937 -7.8125 10.91796875 C-8.534375 11.60503906 -9.25625 12.29210937 -10 13 C-10.66 12.67 -11.32 12.34 -12 12 C-11.67 11.34 -11.34 10.68 -11 10 C-11.66 9.67 -12.32 9.34 -13 9 C-11.88625 8.5875 -10.7725 8.175 -9.625 7.75 C-6.33509473 6.35887773 -5.39420668 5.3246467 -4 2 C-1.875 0.75 -1.875 0.75 0 0 Z " fill="#61DA37" transform="translate(214,196)"/>
<path d="M0 0 C0.66 0.33 1.32 0.66 2 1 C3.36817102 7.04275534 3.36817102 7.04275534 2.0625 10.4375 C1.711875 10.953125 1.36125 11.46875 1 12 C0.01 11.67 -0.98 11.34 -2 11 C-1.85957123 9.35369672 -1.71250671 7.70795821 -1.5625 6.0625 C-1.48128906 5.14597656 -1.40007812 4.22945313 -1.31640625 3.28515625 C-1 1 -1 1 0 0 Z " fill="#47B3E6" transform="translate(139,115)"/>
<path d="M0 0 C2.31 1.98 4.62 3.96 7 6 C6.67 7.32 6.34 8.64 6 10 C4.68 10.33 3.36 10.66 2 11 C2.66 9.35 3.32 7.7 4 6 C3.34 6 2.68 6 2 6 C1.67 9.63 1.34 13.26 1 17 C0.67 17 0.34 17 0 17 C0 11.39 0 5.78 0 0 Z " fill="#6B2A29" transform="translate(98,148)"/>
<path d="M0 0 C0.33 0 0.66 0 1 0 C1.25706972 5.91260345 0.2982126 11.23918159 -1 17 C-1.66 15.68 -2.32 14.36 -3 13 C-3.66 13 -4.32 13 -5 13 C-4.54554036 11.58208592 -4.08625056 10.16571954 -3.625 8.75 C-3.24214844 7.56664063 -3.24214844 7.56664063 -2.8515625 6.359375 C-2.04826333 4.13372042 -1.10288338 2.09068328 0 0 Z " fill="#DBF9FD" transform="translate(138,109)"/>
<path d="M0 0 C2.80655613 2.80655613 2.98666573 4.61997321 3.125 8.5625 C3 12 3 12 2 14 C1.77377919 15.70363822 1.59111527 17.41328701 1.4375 19.125 C1.31181641 20.49011719 1.31181641 20.49011719 1.18359375 21.8828125 C1.12300781 22.58148438 1.06242187 23.28015625 1 24 C0.67 24 0.34 24 0 24 C0 16.08 0 8.16 0 0 Z " fill="#FDF7D7" transform="translate(75,96)"/>
<path d="M0 0 C0.33 0.66 0.66 1.32 1 2 C3.02463255 2.65213292 3.02463255 2.65213292 5 3 C5 3.66 5 4.32 5 5 C7.31 5 9.62 5 12 5 C12.33 5.66 12.66 6.32 13 7 C5.69354394 5.94915607 -1.06392339 4.54322809 -8 2 C-4.77208445 -0.1519437 -3.71599191 -0.20086443 0 0 Z " fill="#5ED837" transform="translate(146,216)"/>
<path d="M0 0 C0.99 0.33 1.98 0.66 3 1 C5.22818441 1.06937062 7.45834524 1.08457084 9.6875 1.0625 C10.86699219 1.05347656 12.04648438 1.04445313 13.26171875 1.03515625 C14.16535156 1.02355469 15.06898438 1.01195313 16 1 C16 1.66 16 2.32 16 3 C10.06 3.495 10.06 3.495 4 4 C6.31 4.33 8.62 4.66 11 5 C11 5.66 11 6.32 11 7 C9.54077307 6.88590407 8.08259402 6.75834456 6.625 6.625 C5.40683594 6.52058594 5.40683594 6.52058594 4.1640625 6.4140625 C2 6 2 6 0 4 C0 2.68 0 1.36 0 0 Z " fill="#3EAEE1" transform="translate(118,82)"/>
<path d="M0 0 C2.5 0.125 2.5 0.125 5 1 C6.3125 3.0625 6.3125 3.0625 7 5 C6.319375 4.5875 5.63875 4.175 4.9375 3.75 C1.59722379 2.89716352 1.16815029 3.12502745 -1.6875 4.75 C-3.75196312 6.05001669 -5.25976238 7.25976238 -7 9 C-9.125 8.625 -9.125 8.625 -11 8 C-10.37351563 7.59007813 -9.74703125 7.18015625 -9.1015625 6.7578125 C-8.28429687 6.21898438 -7.46703125 5.68015625 -6.625 5.125 C-5.40683594 4.32449219 -5.40683594 4.32449219 -4.1640625 3.5078125 C-1.92405904 2.04134945 -1.92405904 2.04134945 0 0 Z " fill="#55D93A" transform="translate(207,112)"/>
<path d="M0 0 C0.33 1.32 0.66 2.64 1 4 C-3.3600859 6.45953564 -7.26071784 7.58966317 -12.14453125 8.375 C-12.75683594 8.58125 -13.36914062 8.7875 -14 9 C-14.33 9.99 -14.66 10.98 -15 12 C-15 10.35 -15 8.7 -15 7 C-11.9530371 5.30566082 -9.17178534 4.50532888 -5.75 3.875 C-4.41195312 3.62363281 -4.41195312 3.62363281 -3.046875 3.3671875 C-2.37140625 3.24601562 -1.6959375 3.12484375 -1 3 C-0.67 2.01 -0.34 1.02 0 0 Z " fill="#FEF4D3" transform="translate(114,83)"/>
<path d="M0 0 C1.45880109 0.14107747 2.91703551 0.28802415 4.375 0.4375 C5.59316406 0.55931641 5.59316406 0.55931641 6.8359375 0.68359375 C9 1 9 1 11 2 C12.03789581 3.64333504 13.03567924 5.31243867 14 7 C14.99 8.485 14.99 8.485 16 10 C12.86129509 8.48174274 9.86833539 6.7870659 6.875 5 C6.00617188 4.484375 5.13734375 3.96875 4.2421875 3.4375 C2 2 2 2 0 0 Z " fill="#29B4B5" transform="translate(190,98)"/>
<path d="M0 0 C0.33 0 0.66 0 1 0 C1 4.29 1 8.58 1 13 C0.01 13 -0.98 13 -2 13 C-2.66 9.37 -3.32 5.74 -4 2 C-3.01 2.99 -2.02 3.98 -1 5 C-0.67 3.35 -0.34 1.7 0 0 Z " fill="#5FB8E3" transform="translate(152,110)"/>
<path d="M0 0 C0.33 0 0.66 0 1 0 C1 2.31 1 4.62 1 7 C1.33 6.01 1.66 5.02 2 4 C2.66 4 3.32 4 4 4 C4 4.66 4 5.32 4 6 C5.32 6.33 6.64 6.66 8 7 C8 6.34 8 5.68 8 5 C8.66 5 9.32 5 10 5 C10 6.65 10 8.3 10 10 C6.7 9.34 3.4 8.68 0 8 C0 5.36 0 2.72 0 0 Z " fill="#3C8F53" transform="translate(98,54)"/>
<path d="M0 0 C3.00617269 3.00617269 2.59585316 5.82381598 3 10 C3.33 7.36 3.66 4.72 4 2 C4.33 2 4.66 2 5 2 C5 5.96 5 9.92 5 14 C4.01 14 3.02 14 2 14 C1.66179834 12.4176994 1.32964061 10.83410625 1 9.25 C0.814375 8.36828125 0.62875 7.4865625 0.4375 6.578125 C0 4 0 4 0 0 Z " fill="#E4C76E" transform="translate(86,111)"/>
<path d="M0 0 C0.33 0 0.66 0 1 0 C1.19392201 5.52677733 0.7479503 9.75614911 -1 15 C-0.34 15.33 0.32 15.66 1 16 C0.01 16.66 -0.98 17.32 -2 18 C-2.66 18.99 -3.32 19.98 -4 21 C-4.34781014 16.36253142 -3.44895394 13.2326396 -1.734375 9.03515625 C-0.65446312 6.04242173 -0.32886742 3.1571272 0 0 Z " fill="#CBF1FD" transform="translate(156,89)"/>
<path d="M0 0 C0.99 0.66 1.98 1.32 3 2 C3 3.32 3 4.64 3 6 C0.36 6 -2.28 6 -5 6 C-5 5.34 -5 4.68 -5 4 C-3.37373596 2.61767557 -1.7074998 1.28062485 0 0 Z " fill="#25B2F5" transform="translate(133,99)"/>
<path d="M0 0 C0.33 0 0.66 0 1 0 C1.98248524 4.0527516 2.08159574 7.83861737 2 12 C1.01 12 0.02 12 -1 12 C-1.33 9.69 -1.66 7.38 -2 5 C-1.34 5 -0.68 5 0 5 C0 3.35 0 1.7 0 0 Z " fill="#E9C972" transform="translate(98,115)"/>
<path d="M0 0 C0.33 1.32 0.66 2.64 1 4 C0.34 4 -0.32 4 -1 4 C-2.24199497 6.98078794 -3.24316389 9.8645361 -4 13 C-4.33 13.66 -4.66 14.32 -5 15 C-5.99 13.68 -6.98 12.36 -8 11 C-5.36 7.37 -2.72 3.74 0 0 Z " fill="#63C638" transform="translate(126,193)"/>
<path d="M0 0 C0.33 0.66 0.66 1.32 1 2 C-0.21484375 4.3828125 -0.21484375 4.3828125 -1.9375 7.125 C-2.50339844 8.03507813 -3.06929687 8.94515625 -3.65234375 9.8828125 C-4.09707031 10.58148438 -4.54179687 11.28015625 -5 12 C-5.66 10.68 -6.32 9.36 -7 8 C-6.02133662 6.85373678 -5.04205413 5.70800212 -4.0625 4.5625 C-3.51722656 3.92441406 -2.97195312 3.28632813 -2.41015625 2.62890625 C-1.63204305 1.73008851 -0.84063472 0.84063472 0 0 Z " fill="#64DB3C" transform="translate(223,181)"/>
<path d="M0 0 C0.99 0.33 1.98 0.66 3 1 C3 2.98 3 4.96 3 7 C1.35 7 -0.3 7 -2 7 C-1.125 2.25 -1.125 2.25 0 0 Z " fill="#5E5E60" transform="translate(358,135)"/>
<path d="M0 0 C0.99 0.33 1.98 0.66 3 1 C1.50079488 4.11373372 -0.08152136 7.12228205 -2 10 C-2.66 10 -3.32 10 -4 10 C-4.66 8.68 -5.32 7.36 -6 6 C-4.35 6 -2.7 6 -1 6 C-0.67 4.02 -0.34 2.04 0 0 Z " fill="#3AADC8" transform="translate(212,102)"/>
<path d="M0 0 C0 0.66 0 1.32 0 2 C-0.825 2.37125 -1.65 2.7425 -2.5 3.125 C-6.67693953 5.36264618 -10.28005679 8.08258261 -14 11 C-14.66 10.67 -15.32 10.34 -16 10 C-5.03333333 0 -5.03333333 0 0 0 Z " fill="#E5BF64" transform="translate(44,7)"/>
<path d="M0 0 C3 2 3 2 3.73046875 4.1640625 C3.88128906 4.97617188 4.03210938 5.78828125 4.1875 6.625 C4.34605469 7.44226563 4.50460938 8.25953125 4.66796875 9.1015625 C4.83232422 10.04128906 4.83232422 10.04128906 5 11 C4.34 11 3.68 11 3 11 C3 9.68 3 8.36 3 7 C2.34 7 1.68 7 1 7 C0.67 7.66 0.34 8.32 0 9 C0 6.03 0 3.06 0 0 Z " fill="#FDF7D9" transform="translate(92,115)"/>
<path d="M0 0 C0.33 0 0.66 0 1 0 C1.22304441 1.74818591 1.4278645 3.49870323 1.625 5.25 C1.74101562 6.22453125 1.85703125 7.1990625 1.9765625 8.203125 C2.00112537 11.13429393 1.5312717 12.54528964 0 15 C-0.99 14.67 -1.98 14.34 -3 14 C-3 13.34 -3 12.68 -3 12 C-2.01 12 -1.02 12 0 12 C0 8.04 0 4.08 0 0 Z " fill="#E4FDFE" transform="translate(153,111)"/>
<path d="M0 0 C1 3 1 3 -0.21484375 5.48046875 C-0.78332031 6.37378906 -1.35179687 7.26710938 -1.9375 8.1875 C-2.50339844 9.08855469 -3.06929687 9.98960938 -3.65234375 10.91796875 C-4.09707031 11.60503906 -4.54179687 12.29210937 -5 13 C-6.231394 10.53721199 -6.07159196 8.7204945 -6 6 C-4.68 6 -3.36 6 -2 6 C-1.855625 5.195625 -1.71125 4.39125 -1.5625 3.5625 C-1 1 -1 1 0 0 Z " fill="#3EAEDE" transform="translate(222,89)"/>
<path d="M0 0 C5.34844008 0.53484401 9.35796103 2.46690767 14 5 C14 5.33 14 5.66 14 6 C10.625 6.1875 10.625 6.1875 7 6 C6.34 5.01 5.68 4.02 5 3 C2.44816596 1.79549696 2.44816596 1.79549696 0 1 C0 0.67 0 0.34 0 0 Z " fill="#E7C362" transform="translate(91,4)"/>
<path d="M0 0 C2.61885488 2.36944013 4.41866551 4.83733102 6 8 C5.67 8.99 5.34 9.98 5 11 C4.34 10.67 3.68 10.34 3 10 C3 9.34 3 8.68 3 8 C2.34 8 1.68 8 1 8 C1.33 6.68 1.66 5.36 2 4 C1.34 4 0.68 4 0 4 C0 2.68 0 1.36 0 0 Z " fill="#61D73C" transform="translate(217,121)"/>
<path d="M0 0 C0.33 0.66 0.66 1.32 1 2 C3.4887744 2.31733007 5.95019108 2.37947445 8.45703125 2.4609375 C11.67745879 3.14360878 12.89621911 4.53823308 15 7 C13.06213915 6.52229477 11.12472326 6.04278429 9.1875 5.5625 C8.10855469 5.29566406 7.02960938 5.02882813 5.91796875 4.75390625 C3.9259157 4.23922588 1.95188476 3.65062825 0 3 C0 2.01 0 1.02 0 0 Z " fill="#33B6B1" transform="translate(175,91)"/>
<path d="M0 0 C1.440578 2.85508218 2.84334242 5.72317245 4.1875 8.625 C4.55230469 9.40101562 4.91710937 10.17703125 5.29296875 10.9765625 C5.52628906 11.64429687 5.75960937 12.31203125 6 13 C5.67 13.66 5.34 14.32 5 15 C2 10.25 2 10.25 2 8 C1.34 8 0.68 8 0 8 C0 5.36 0 2.72 0 0 Z " fill="#E9CA6B" transform="translate(82,62)"/>
<path d="M0 0 C0 3.61537605 -0.89229241 5.11165997 -3 8 C-3.99 8 -4.98 8 -6 8 C-5.65120368 4.74456771 -4.97866739 3.98126893 -2.4375 1.75 C-1.633125 1.1725 -0.82875 0.595 0 0 Z " fill="#573322" transform="translate(134,150)"/>
<path d="M0 0 C0.99 0 1.98 0 3 0 C2.34 5.94 1.68 11.88 1 18 C0.67 18 0.34 18 0 18 C0 12.06 0 6.12 0 0 Z " fill="#F2BD7C" transform="translate(59,82)"/>
<path d="M0 0 C0.33 0.66 0.66 1.32 1 2 C1.66 2 2.32 2 3 2 C2.67 3.98 2.34 5.96 2 8 C1.01 8 0.02 8 -1 8 C-1.125 2.25 -1.125 2.25 0 0 Z " fill="#32ADEB" transform="translate(134,107)"/>
<path d="M0 0 C0.33 0 0.66 0 1 0 C1 2.64 1 5.28 1 8 C-0.875 7.6875 -0.875 7.6875 -3 7 C-3.66 6.01 -4.32 5.02 -5 4 C-4.34 4 -3.68 4 -3 4 C-2.67 3.34 -2.34 2.68 -2 2 C-1.67 2.33 -1.34 2.66 -1 3 C-0.67 2.01 -0.34 1.02 0 0 Z " fill="#2D8C5A" transform="translate(135,54)"/>
<path d="M0 0 C7.66742597 5.96583144 7.66742597 5.96583144 9 11 C7.125 10.8125 7.125 10.8125 5 10 C4.28272222 8.35448038 3.61674772 6.68577711 3 5 C2.01 4.34 1.02 3.68 0 3 C0 2.01 0 1.02 0 0 Z " fill="#1E8C67" transform="translate(117,20)"/>
<path d="M0 0 C0.66 0.33 1.32 0.66 2 1 C1.484375 1.350625 0.96875 1.70125 0.4375 2.0625 C-1.40146383 4.09468727 -1.40146383 4.09468727 -0.6875 7.6875 C-0.3471875 9.3271875 -0.3471875 9.3271875 0 11 C-2.5 9.1875 -2.5 9.1875 -5 7 C-5 6.01 -5 5.02 -5 4 C-2.5 1.8125 -2.5 1.8125 0 0 Z " fill="#3FA9CB" transform="translate(122,13)"/>
<path d="M0 0 C-0.75 7.625 -0.75 7.625 -3 11 C-2.67 8.69 -2.34 6.38 -2 4 C-2.99 3.67 -3.98 3.34 -5 3 C-2.25 0 -2.25 0 0 0 Z " fill="#BEF3FD" transform="translate(133,106)"/>
<path d="M0 0 C3 1 3 1 4.6875 4.0625 C5.120625 5.031875 5.55375 6.00125 6 7 C5.34 7 4.68 7 4 7 C3.67 6.34 3.34 5.68 3 5 C1.35 5.33 -0.3 5.66 -2 6 C-1.34 4.02 -0.68 2.04 0 0 Z " fill="#CCF5FE" transform="translate(166,73)"/>
<path d="M0 0 C2.15377564 2.62198774 3.40072174 4.64404172 4 8 C1.03 7.505 1.03 7.505 -2 7 C-2 5.68 -2 4.36 -2 3 C-1.34 3 -0.68 3 0 3 C0 2.01 0 1.02 0 0 Z " fill="#33B0E7" transform="translate(219,32)"/>
<path d="M0 0 C0.33 0.66 0.66 1.32 1 2 C1.99 2.66 2.98 3.32 4 4 C2.68 4 1.36 4 0 4 C0 4.66 0 5.32 0 6 C-1.65 6.33 -3.3 6.66 -5 7 C-5 5 -5 5 -2.5 2.375 C-1.675 1.59125 -0.85 0.8075 0 0 Z " fill="#67E049" transform="translate(155,128)"/>
<path d="M0 0 C1.12894876 0.93274109 2.25300876 1.87140122 3.375 2.8125 C4.00148438 3.33457031 4.62796875 3.85664062 5.2734375 4.39453125 C7 6 7 6 9 9 C7 8 5 7 3 6 C3 5.34 3 4.68 3 4 C2.01 4 1.02 4 0 4 C0 2.68 0 1.36 0 0 Z " fill="#D32E33" transform="translate(68,118)"/>
<path d="M0 0 C0.66 0 1.32 0 2 0 C3.35439668 2.70879335 3.06501451 5.00933268 3 8 C2.01 8 1.02 8 0 8 C0 5.36 0 2.72 0 0 Z " fill="#E8C550" transform="translate(95,112)"/>
<path d="M0 0 C0.66 0 1.32 0 2 0 C2.268125 0.598125 2.53625 1.19625 2.8125 1.8125 C3.98493467 3.97224808 5.19369282 5.35790256 7 7 C4.33333333 6.33333333 1.66666667 5.66666667 -1 5 C-0.67 3.35 -0.34 1.7 0 0 Z " fill="#EC365C" transform="translate(25,111)"/>
<path d="M0 0 C3 1 3 1 4.1875 3.0625 C4.455625 3.701875 4.72375 4.34125 5 5 C4.01 5 3.02 5 2 5 C2 6.65 2 8.3 2 10 C1.67 10 1.34 10 1 10 C0.67 6.7 0.34 3.4 0 0 Z " fill="#FEF6CD" transform="translate(97,105)"/>
<path d="M0 0 C0.33 0 0.66 0 1 0 C1.37952295 6.19887485 0.8352113 10.4477112 -2 16 C-2.33 16 -2.66 16 -3 16 C-3.20086443 12.28400809 -3.1519437 11.22791555 -1 8 C-0.54860541 5.9507906 -0.54860541 5.9507906 -0.375 3.8125 C-0.25125 2.554375 -0.1275 1.29625 0 0 Z " fill="#E4FDE9" transform="translate(173,96)"/>
<path d="M0 0 C1.5 1.25 1.5 1.25 3 3 C3 4.32 3 5.64 3 7 C1.0625 6.1875 1.0625 6.1875 -1 5 C-1.33 4.01 -1.66 3.02 -2 2 C-1.34 2 -0.68 2 0 2 C0 1.34 0 0.68 0 0 Z " fill="#E6C56A" transform="translate(108,111)"/>
<path d="M0 0 C0.99 0 1.98 0 3 0 C3.6496875 1.36125 3.6496875 1.36125 4.3125 2.75 C5.70517271 5.43218449 7.11112757 7.66139605 9 10 C4.71095765 8.4114658 2.67654474 5.56872632 0 2 C0 1.34 0 0.68 0 0 Z " fill="#E8C463" transform="translate(17,101)"/>
<path d="M0 0 C0.33 0 0.66 0 1 0 C1.02689216 1.47906892 1.04634621 2.95827483 1.0625 4.4375 C1.07410156 5.26121094 1.08570313 6.08492188 1.09765625 6.93359375 C1 9 1 9 0 10 C-1.66617115 10.04063832 -3.33388095 10.042721 -5 10 C-4.67 9.34 -4.34 8.68 -4 8 C-3.34 8 -2.68 8 -2 8 C-1.34 5.36 -0.68 2.72 0 0 Z " fill="#D3F4FC" transform="translate(142,118)"/>
<path d="M0 0 C0.99 0.33 1.98 0.66 3 1 C2.01 2.485 2.01 2.485 1 4 C-2.625 4.1875 -2.625 4.1875 -6 4 C-4.03617993 2.49440461 -2.21736634 1.10868317 0 0 Z " fill="#4ADB36" transform="translate(194,121)"/>
<path d="M0 0 C0 3.69418201 -1.28179295 5.77836178 -3 9 C-3.99 8.34 -4.98 7.68 -6 7 C-4.02 4.69 -2.04 2.38 0 0 Z " fill="#E9C35F" transform="translate(23,22)"/>
<path d="M0 0 C0.66 0.33 1.32 0.66 2 1 C2 1.99 2 2.98 2 4 C-0.64 4.66 -3.28 5.32 -6 6 C-2.25 1.125 -2.25 1.125 0 0 Z " fill="#D93419" transform="translate(35,104)"/>
<path d="M0 0 C1.65 1.65 3.3 3.3 5 5 C4.01 6.32 3.02 7.64 2 9 C1.34 8.67 0.68 8.34 0 8 C0.185625 7.236875 0.37125 6.47375 0.5625 5.6875 C1.22819173 2.91032625 1.22819173 2.91032625 0 0 Z " fill="#C93C5E" transform="translate(113,199)"/>
<path d="M0 0 C1 2 1 2 0.3125 4.5 C-1.15567038 7.29651501 -2.09303901 7.93411431 -5 9 C-3.7508258 5.54074837 -2.32472205 2.85306797 0 0 Z " fill="#DC306E" transform="translate(20,118)"/>
<path d="M0 0 C0.33 0 0.66 0 1 0 C1 2.31 1 4.62 1 7 C-0.32 7.33 -1.64 7.66 -3 8 C-1.125 1.125 -1.125 1.125 0 0 Z " fill="#B4F2FE" transform="translate(138,109)"/>
<path d="M0 0 C0.66 0.33 1.32 0.66 2 1 C1.67 3.31 1.34 5.62 1 8 C0.34 8 -0.32 8 -1 8 C-1.125 2.25 -1.125 2.25 0 0 Z " fill="#EBC45B" transform="translate(78,110)"/>
<path d="M0 0 C3.2542015 2.83430453 4.5206753 4.68607774 5 9 C2 7 2 7 1 4 C0.34 3.67 -0.32 3.34 -1 3 C-0.67 2.01 -0.34 1.02 0 0 Z " fill="#FEF7CD" transform="translate(67,73)"/>
<path d="M0 0 C2.31 0 4.62 0 7 0 C6.67 1.65 6.34 3.3 6 5 C3.98079663 3.69593116 1.98075027 2.36176581 0 1 C0 0.67 0 0.34 0 0 Z " fill="#63DB40" transform="translate(123,208)"/>
<path d="M0 0 C2.52588702 2.36292656 3.88820837 3.66462511 5 7 C2.525 6.01 2.525 6.01 0 5 C0 3.35 0 1.7 0 0 Z " fill="#CB2F5C" transform="translate(108,192)"/>
<path d="M0 0 C1 2 1 2 1 5 C0.01 6.485 0.01 6.485 -1 8 C-1.66 8 -2.32 8 -3 8 C-2.45276317 4.62537285 -1.9451 2.91765 0 0 Z " fill="#46AFDC" transform="translate(121,110)"/>
</svg>
