<?xml version="1.0" encoding="UTF-8"?>
<svg version="1.1" xmlns="http://www.w3.org/2000/svg" width="1118" height="223">
<path d="M0 0 C9.85492784 9.43079171 15.14538872 21.7934571 15.625 35.3125 C15.27786191 45.7266426 12.14448063 54.55920376 6.39453125 63.19140625 C4.64558735 66.06468966 4.64558735 66.06468966 4.125 69.3125 C5.67431274 72.31998992 5.67431274 72.31998992 7.875 75.4375 C15.42052603 87.18169352 17.35218001 99.83091274 14.43359375 113.56640625 C13.50896499 116.28613019 12.43675324 118.75824757 11.125 121.3125 C10.47144531 122.60220703 10.47144531 122.60220703 9.8046875 123.91796875 C2.95317516 136.29187491 -7.45441737 143.61391527 -20.875 147.75 C-34.13660248 150.26659407 -46.73881713 147.99579279 -57.875 140.4375 C-58.720625 139.80070313 -59.56625 139.16390625 -60.4375 138.5078125 C-62.83170931 137.01135577 -62.83170931 137.01135577 -65.44921875 137.9375 C-67.70725501 139.21741749 -69.65037783 140.58601496 -71.6875 142.1875 C-81.69489275 148.96455299 -94.19363691 150.44199552 -105.875 148.3125 C-117.54137112 145.96219458 -127.52883744 139.68565927 -134.875 130.3125 C-142.60004238 117.44234352 -146.04946641 105.12013429 -142.6875 90.125 C-140.58396546 82.54433778 -137.04112526 76.24397715 -131.875 70.3125 C-133.33732083 67.26191684 -135.01865068 64.42900731 -136.8125 61.5625 C-143.638856 50.27403812 -145.55733226 38.34025998 -143.37890625 25.35546875 C-140.01728578 13.29541792 -132.50099175 2.51830872 -121.8125 -4.125 C-109.69986563 -10.77286444 -96.63002629 -12.89187215 -83.1875 -9.0625 C-77.99158316 -7.31586774 -73.59466095 -4.97301887 -69.09375 -1.859375 C-66.41241295 -0.44317585 -64.86850261 -0.26601483 -61.875 -0.6875 C-59.99625786 -1.83046161 -59.99625786 -1.83046161 -58.3125 -3.4375 C-41.13537009 -17.17270974 -16.30604644 -12.40437393 0 0 Z " fill="#EFC349" transform="translate(147.875,42.6875)"/>
<path d="M0 0 C9.85492784 9.43079171 15.14538872 21.7934571 15.625 35.3125 C15.27786191 45.7266426 12.14448063 54.55920376 6.39453125 63.19140625 C4.64558735 66.06468966 4.64558735 66.06468966 4.125 69.3125 C5.67431274 72.31998992 5.67431274 72.31998992 7.875 75.4375 C15.42052603 87.18169352 17.35218001 99.83091274 14.43359375 113.56640625 C13.50896499 116.28613019 12.43675324 118.75824757 11.125 121.3125 C10.47144531 122.60220703 10.47144531 122.60220703 9.8046875 123.91796875 C2.95317516 136.29187491 -7.45441737 143.61391527 -20.875 147.75 C-34.77949306 150.3885925 -48.52907231 147.53473304 -60.23046875 139.63671875 C-70.00927334 131.04234839 -76.37054029 119.16093177 -77.875 106.3125 C-78.0129804 102.96981342 -78.00550991 99.65500377 -77.875 96.3125 C-74.98930871 97.60984861 -73.75486927 98.45265252 -71.625 100.9375 C-68.66524461 103.49365238 -66.87628648 104.1934631 -62.94921875 103.90991211 C-60.47281104 103.19666238 -59.27351274 102.24132829 -57.375 100.50390625 C-56.68108154 99.86952637 -55.98716309 99.23514648 -55.2722168 98.58154297 C-50.90781766 94.45049851 -46.56569622 90.30481372 -42.29223633 86.07983398 C-41.22235609 85.02655618 -40.14713257 83.97867851 -39.06665039 82.9362793 C-31.81208865 75.93448975 -25.19158971 69.26343944 -23.24609375 58.9921875 C-23.40295742 52.36700421 -24.27044531 47.93136466 -27.875 42.3125 C-28.865 41.8175 -28.865 41.8175 -29.875 41.3125 C-30.143125 42.034375 -30.41125 42.75625 -30.6875 43.5 C-31.875 46.3125 -31.875 46.3125 -33.3125 48.61328125 C-38.5189987 57.60750775 -39.47555941 67.11967226 -38.875 77.3125 C-39.535 77.3125 -40.195 77.3125 -40.875 77.3125 C-41.535 73.6825 -42.195 70.0525 -42.875 66.3125 C-43.535 66.3125 -44.195 66.3125 -44.875 66.3125 C-45.060625 67.859375 -45.060625 67.859375 -45.25 69.4375 C-45.81389814 72.93366846 -46.66182059 75.99647627 -47.875 79.3125 C-48.535 79.3125 -49.195 79.3125 -49.875 79.3125 C-49.875 76.0125 -49.875 72.7125 -49.875 69.3125 C-51.525 72.9425 -53.175 76.5725 -54.875 80.3125 C-55.205 80.3125 -55.535 80.3125 -55.875 80.3125 C-55.09595672 69.75441344 -55.09595672 69.75441344 -52.875 65.3125 C-53.41769531 65.80621094 -53.96039063 66.29992187 -54.51953125 66.80859375 C-55.23496094 67.44925781 -55.95039062 68.08992188 -56.6875 68.75 C-57.39519531 69.38808594 -58.10289063 70.02617188 -58.83203125 70.68359375 C-60.875 72.3125 -60.875 72.3125 -63.875 73.3125 C-63.09688341 68.63299331 -60.26227412 65.55136548 -57.46875 61.84765625 C-55.83788947 59.25346879 -55.26323182 57.32668869 -54.875 54.3125 C-55.44089844 54.13074219 -56.00679687 53.94898437 -56.58984375 53.76171875 C-57.32332031 53.51035156 -58.05679688 53.25898437 -58.8125 53 C-59.54339844 52.75636719 -60.27429688 52.51273437 -61.02734375 52.26171875 C-62.875 51.3125 -62.875 51.3125 -63.875 48.3125 C-54.47 47.3225 -54.47 47.3225 -44.875 46.3125 C-44.215 44.3325 -43.555 42.3525 -42.875 40.3125 C-41.90495879 38.29779902 -40.91255118 36.29327953 -39.875 34.3125 C-51.30763472 33.38431259 -51.30763472 33.38431259 -61.26171875 38.31640625 C-62.875 39.3125 -62.875 39.3125 -64.86328125 39.08984375 C-67.47655844 38.08005315 -69.7179055 36.71870387 -72.09375 35.25 C-74.00014961 34.24663179 -75.77348311 33.75492461 -77.875 33.3125 C-77.34474124 20.85141908 -72.73155901 10.93965888 -64.5 1.625 C-63.200625 0.4803125 -63.200625 0.4803125 -61.875 -0.6875 C-61.32457031 -1.17992187 -60.77414063 -1.67234375 -60.20703125 -2.1796875 C-42.50627225 -16.85124444 -17.25893906 -13.12926064 0 0 Z " fill="#53E526" transform="translate(147.875,42.6875)"/>
<path d="M0 0 C9.85492784 9.43079171 15.14538872 21.7934571 15.625 35.3125 C15.27886644 45.69650695 12.13124892 54.52828857 6.4921875 63.19140625 C5.21047942 65.17988479 4.14117152 67.17853981 3.125 69.3125 C-0.1132905 67.79478612 -2.97530069 65.93556669 -5.9375 63.9375 C-9.88329696 61.35470011 -13.4195624 59.70065801 -17.9375 58.375 C-22.57382108 56.84271232 -22.57382108 56.84271232 -23.90234375 54.50390625 C-24.375 52.4375 -24.375 52.4375 -24.625 50.34765625 C-25.00032794 47.29225226 -26.33693962 44.94001982 -27.875 42.3125 C-28.865 41.8175 -28.865 41.8175 -29.875 41.3125 C-30.143125 42.034375 -30.41125 42.75625 -30.6875 43.5 C-31.875 46.3125 -31.875 46.3125 -33.3125 48.61328125 C-38.5189987 57.60750775 -39.47555941 67.11967226 -38.875 77.3125 C-39.535 77.3125 -40.195 77.3125 -40.875 77.3125 C-41.535 73.6825 -42.195 70.0525 -42.875 66.3125 C-43.535 66.3125 -44.195 66.3125 -44.875 66.3125 C-45.060625 67.859375 -45.060625 67.859375 -45.25 69.4375 C-45.81389814 72.93366846 -46.66182059 75.99647627 -47.875 79.3125 C-48.535 79.3125 -49.195 79.3125 -49.875 79.3125 C-49.875 76.0125 -49.875 72.7125 -49.875 69.3125 C-51.525 72.9425 -53.175 76.5725 -54.875 80.3125 C-55.205 80.3125 -55.535 80.3125 -55.875 80.3125 C-55.09595672 69.75441344 -55.09595672 69.75441344 -52.875 65.3125 C-53.41769531 65.80621094 -53.96039063 66.29992187 -54.51953125 66.80859375 C-55.23496094 67.44925781 -55.95039062 68.08992188 -56.6875 68.75 C-57.39519531 69.38808594 -58.10289063 70.02617188 -58.83203125 70.68359375 C-60.875 72.3125 -60.875 72.3125 -63.875 73.3125 C-63.09688341 68.63299331 -60.26227412 65.55136548 -57.46875 61.84765625 C-55.83788947 59.25346879 -55.26323182 57.32668869 -54.875 54.3125 C-55.44089844 54.13074219 -56.00679687 53.94898437 -56.58984375 53.76171875 C-57.32332031 53.51035156 -58.05679688 53.25898437 -58.8125 53 C-59.54339844 52.75636719 -60.27429688 52.51273437 -61.02734375 52.26171875 C-62.875 51.3125 -62.875 51.3125 -63.875 48.3125 C-54.47 47.3225 -54.47 47.3225 -44.875 46.3125 C-44.215 44.3325 -43.555 42.3525 -42.875 40.3125 C-41.90495879 38.29779902 -40.91255118 36.29327953 -39.875 34.3125 C-51.30763472 33.38431259 -51.30763472 33.38431259 -61.26171875 38.31640625 C-62.875 39.3125 -62.875 39.3125 -64.86328125 39.08984375 C-67.47655844 38.08005315 -69.7179055 36.71870387 -72.09375 35.25 C-74.00014961 34.24663179 -75.77348311 33.75492461 -77.875 33.3125 C-77.34474124 20.85141908 -72.73155901 10.93965888 -64.5 1.625 C-63.200625 0.4803125 -63.200625 0.4803125 -61.875 -0.6875 C-61.32457031 -1.17992187 -60.77414063 -1.67234375 -60.20703125 -2.1796875 C-42.50627225 -16.85124444 -17.25893906 -13.12926064 0 0 Z " fill="#28B1F2" transform="translate(147.875,42.6875)"/>
<path d="M0 0 C1.084021 0.00523682 2.16804199 0.01047363 3.28491211 0.01586914 C5.03964844 0.02070312 5.03964844 0.02070312 6.82983398 0.02563477 C8.67738281 0.03820312 8.67738281 0.03820312 10.56225586 0.05102539 C12.41560547 0.05779297 12.41560547 0.05779297 14.30639648 0.06469727 C17.37089703 0.07652931 20.43530307 0.09301366 23.49975586 0.11352539 C24.08877686 1.71454102 24.08877686 1.71454102 24.68969727 3.34790039 C26.1765041 7.38877383 27.6639689 11.42940482 29.15161133 15.4699707 C29.78980574 17.20363078 30.42783242 18.9373526 31.06567383 20.67114258 C35.17219116 31.83310937 39.30837045 42.98313336 43.49975586 54.11352539 C46.28482341 51.32845784 47.0877613 48.0056377 48.32788086 44.35180664 C48.59936951 43.56895798 48.87085815 42.78610931 49.15057373 41.97953796 C50.02246611 39.46356047 50.88670989 36.94504986 51.74975586 34.42602539 C55.72412267 22.85895725 59.86219931 11.43337933 64.49975586 0.11352539 C72.74975586 0.11352539 80.99975586 0.11352539 89.49975586 0.11352539 C89.49975586 25.85352539 89.49975586 51.59352539 89.49975586 78.11352539 C84.21975586 78.11352539 78.93975586 78.11352539 73.49975586 78.11352539 C72.49975586 77.11352539 72.49975586 77.11352539 72.37950134 74.90525818 C72.38172195 73.9304097 72.38394257 72.95556122 72.38623047 71.95117188 C72.38634377 70.29957314 72.38634377 70.29957314 72.38645935 68.61460876 C72.39162064 67.41671219 72.39678192 66.21881561 72.40209961 64.98461914 C72.40351456 63.76525162 72.4049295 62.54588409 72.40638733 61.28956604 C72.41200619 57.37669469 72.4245619 53.46387958 72.43725586 49.55102539 C72.44226843 46.90584392 72.44683176 44.26066156 72.45092773 41.61547852 C72.46198175 35.11480813 72.47873822 28.61417078 72.49975586 22.11352539 C72.29788162 22.6381134 72.09600739 23.16270142 71.88801575 23.70318604 C69.76440052 29.22061277 67.63845741 34.7371386 65.51123047 40.25317383 C64.72028249 42.30503237 63.92990536 44.35711107 63.14013672 46.40942383 C59.05161642 57.03285293 54.95937147 67.63923784 50.49975586 78.11352539 C45.54975586 78.11352539 40.59975586 78.11352539 35.49975586 78.11352539 C30.52298018 66.50437332 26.13059807 54.68466086 21.68725586 42.86352539 C18.98538086 35.68602539 16.28350586 28.50852539 13.49975586 21.11352539 C13.49975586 39.92352539 13.49975586 58.73352539 13.49975586 78.11352539 C8.21975586 78.11352539 2.93975586 78.11352539 -2.50024414 78.11352539 C-4.17086503 76.4429045 -3.62593457 74.40798713 -3.63577271 72.17715454 C-3.63273636 71.11891983 -3.63273636 71.11891983 -3.62963867 70.03930664 C-3.63139099 69.29949554 -3.63314331 68.55968445 -3.63494873 67.79745483 C-3.63936724 65.34028816 -3.63642927 62.88319286 -3.63305664 60.42602539 C-3.63372968 58.72591132 -3.63469971 57.02579734 -3.63595581 55.32568359 C-3.63743278 51.75788458 -3.63527826 48.19011056 -3.63061523 44.62231445 C-3.62491794 40.03864045 -3.62819695 35.455025 -3.6341877 30.87135315 C-3.63779333 27.35932979 -3.63665471 23.84732041 -3.63405991 20.33529663 C-3.63339064 18.64472446 -3.63421903 16.95415103 -3.63653946 15.26358032 C-3.63906603 12.90493382 -3.63522535 10.54638344 -3.62963867 8.18774414 C-3.6316629 7.48225433 -3.63368713 6.77676453 -3.63577271 6.04989624 C-3.60981505 0.16390626 -3.60981505 0.16390626 0 0 Z " fill="#000000" transform="translate(249.500244140625,69.886474609375)"/>
<path d="M0 0 C0.18433594 0.75023438 0.36867187 1.50046875 0.55859375 2.2734375 C2.99642192 10.87626224 6.68362494 15.81341346 13 22 C14.28547569 23.29396404 15.5692031 24.5896663 16.8515625 25.88671875 C20.06378449 29.12662237 23.2943725 32.34707325 26.53881836 35.5546875 C27.6961713 36.69947103 28.8489146 37.8489146 30 39 C29.34 39 28.68 39 28 39 C29.53369009 53.92334495 31.54495305 65.6224489 42 77 C39.66536554 82.84941381 34.41629136 85.30433425 29 88 C16.16794587 92.95084466 2.83797485 93.33173223 -10 88 C-23.9283899 81.29453675 -31.41754725 70.8039073 -36.875 56.74609375 C-40.26511999 45.46923628 -38.06006909 32.36076104 -32.625 22.125 C-28.98030551 15.80257079 -24.63200928 11.40040537 -18.625 7.3125 C-17.00464844 6.19294922 -17.00464844 6.19294922 -15.3515625 5.05078125 C-10.41980607 2.03309812 -5.97627697 -0.54329791 0 0 Z " fill="#F82672" transform="translate(42,100)"/>
<path d="M0 0 C1.32735924 -0.00855011 1.32735924 -0.00855011 2.68153381 -0.01727295 C4.56380004 -0.02674514 6.44608301 -0.03326569 8.32836914 -0.03710938 C11.17950573 -0.04672941 14.02989486 -0.07769487 16.88085938 -0.109375 C18.71223532 -0.11591359 20.54361641 -0.12116069 22.375 -0.125 C23.21707504 -0.1373468 24.05915009 -0.1496936 24.92674255 -0.16241455 C34.72744062 -0.12640767 43.89112687 2.59217002 51.28515625 9.203125 C55.55074802 14.34253072 55.85469741 19.94190824 55.6015625 26.43359375 C55.01119382 31.60114187 53.23941545 34.22614534 49.66015625 37.890625 C45.97583463 40.77481616 41.74664723 41.9836508 37.28515625 43.203125 C37.960625 43.50605469 38.63609375 43.80898437 39.33203125 44.12109375 C40.2240625 44.54003906 41.11609375 44.95898438 42.03515625 45.390625 C42.916875 45.79667969 43.79859375 46.20273438 44.70703125 46.62109375 C50.17449171 49.9761263 51.99979789 54.4438643 53.91015625 60.390625 C54.1218042 61.04683838 54.33345215 61.70305176 54.55151367 62.37915039 C56.19719233 67.6078418 57.37145118 72.80395869 58.28515625 78.203125 C52.01515625 78.203125 45.74515625 78.203125 39.28515625 78.203125 C37.503508 73.452063 35.96568258 69.32908059 34.78515625 64.515625 C33.34823169 58.96701735 33.34823169 58.96701735 30.28515625 54.203125 C25.70966066 52.30863729 21.30806976 51.80593493 16.41015625 51.578125 C15.72179687 51.53945312 15.0334375 51.50078125 14.32421875 51.4609375 C12.64492379 51.36764334 10.96507858 51.28434262 9.28515625 51.203125 C9.29301147 52.37669556 9.29301147 52.37669556 9.30102539 53.57397461 C9.32172731 57.09618333 9.33479463 60.6183793 9.34765625 64.140625 C9.35603516 65.37232422 9.36441406 66.60402344 9.37304688 67.87304688 C9.37788086 69.6277832 9.37788086 69.6277832 9.3828125 71.41796875 C9.39066772 73.04400024 9.39066772 73.04400024 9.39868164 74.70288086 C9.28515625 77.203125 9.28515625 77.203125 8.28515625 78.203125 C5.44180577 78.30299475 2.62818462 78.34190381 -0.21484375 78.328125 C-1.01277344 78.33199219 -1.81070313 78.33585937 -2.6328125 78.33984375 C-8.58823608 78.32973267 -8.58823608 78.32973267 -9.71484375 77.203125 C-9.8151007 74.83550925 -9.8510331 72.49705427 -9.84423828 70.12890625 C-9.8459906 69.38909515 -9.84774292 68.64928406 -9.84954834 67.88705444 C-9.85396685 65.42988777 -9.85102888 62.97279247 -9.84765625 60.515625 C-9.84832929 58.81551093 -9.84929932 57.11539695 -9.85055542 55.4152832 C-9.85203239 51.84748419 -9.84987786 48.27971017 -9.84521484 44.71191406 C-9.83951755 40.12824006 -9.84279656 35.54462461 -9.84878731 30.96095276 C-9.85239294 27.44892939 -9.85125432 23.93692002 -9.84865952 20.42489624 C-9.84799025 18.73432407 -9.84881864 17.04375064 -9.85113907 15.35317993 C-9.85366564 12.99453343 -9.84982496 10.63598305 -9.84423828 8.27734375 C-9.84626251 7.57185394 -9.84828674 6.86636414 -9.85037231 6.13949585 C-9.81713532 -1.39711062 -6.6254653 0.03273003 0 0 Z M9.28515625 14.203125 C8.95515625 21.793125 8.62515625 29.383125 8.28515625 37.203125 C13.04953125 37.2959375 13.04953125 37.2959375 17.91015625 37.390625 C18.89967285 37.41793701 19.88918945 37.44524902 20.90869141 37.47338867 C26.11865282 37.52236041 29.81517886 37.19723308 34.28515625 34.203125 C36.74622098 30.78939005 37.53019615 28.20684817 37.22265625 24.078125 C36.2332274 19.98848577 35.63974517 18.62588367 32.28515625 16.203125 C27.59552627 13.71148099 23.13538271 13.97300056 17.97265625 14.078125 C13.67234375 14.14 13.67234375 14.14 9.28515625 14.203125 Z " fill="#000000" transform="translate(976.71484375,69.796875)"/>
<path d="M0 0 C7.75289201 6.79726715 12.28066919 16.46003781 12.96484375 26.72265625 C13.47162125 40.07869555 12.74753948 52.13321624 4.17578125 62.98828125 C-2.16129235 69.80505364 -9.6991635 73.40006402 -18.9765625 73.9609375 C-30.04018206 74.22835427 -39.37841869 73.77112651 -48.34765625 66.53515625 C-57.96521834 57.21321595 -61.05864949 46.92953641 -61.41015625 33.66015625 C-61.09326566 21.26008986 -57.95240223 10.12951615 -48.84765625 1.41015625 C-35.2277775 -9.98514231 -14.3205736 -10.539735 0 0 Z M-37.41015625 13.97265625 C-42.19286487 19.58365519 -42.3772732 26.64093815 -42.34765625 33.66015625 C-42.36376953 34.42005859 -42.37988281 35.17996094 -42.39648438 35.96289062 C-42.40335436 44.00764304 -40.14202087 50.40039047 -34.625 56.30859375 C-30.76126445 59.74513495 -26.97679051 59.87876718 -22.03515625 59.59765625 C-17.45408565 58.99234962 -14.53016939 57.884811 -11.03515625 54.72265625 C-6.35014978 48.10941561 -5.80348473 42.42185331 -5.72265625 34.59765625 C-5.69365234 33.685 -5.66464844 32.77234375 -5.63476562 31.83203125 C-5.56785017 24.60516262 -6.89567518 18.44325916 -11.65087891 12.80786133 C-15.24299301 9.1850597 -18.69136503 7.77840843 -23.76953125 7.5625 C-29.47485286 7.96580722 -33.50284687 9.77206215 -37.41015625 13.97265625 Z " fill="#000000" transform="translate(544.03515625,75.27734375)"/>
<path d="M0 0 C19.8 0 39.6 0 60 0 C60 4.95 60 9.9 60 15 C46.14 15 32.28 15 18 15 C18.495 22.92 18.495 22.92 19 31 C22.64675781 30.98259766 22.64675781 30.98259766 26.3671875 30.96484375 C28.71695831 30.95704918 31.06672768 30.95097469 33.41650391 30.94506836 C35.05192711 30.94003379 36.6873458 30.93320573 38.32275391 30.92456055 C40.67090975 30.91245665 43.01900619 30.906763 45.3671875 30.90234375 C46.10057343 30.89718246 46.83395935 30.89202118 47.58956909 30.88670349 C52.77225659 30.88612829 52.77225659 30.88612829 55 32 C55 36.29 55 40.58 55 45 C42.79 45 30.58 45 18 45 C18 50.94 18 56.88 18 63 C31.86 63 45.72 63 60 63 C60.495 69.93 60.495 69.93 61 77 C59.25700612 78.74299388 56.85593748 78.12758682 54.48632812 78.12939453 C53.30840698 78.13254669 52.13048584 78.13569885 50.91687012 78.13894653 C49.63461548 78.1369223 48.35236084 78.13489807 47.03125 78.1328125 C45.72546997 78.13376923 44.41968994 78.13472595 43.07434082 78.13571167 C40.30687278 78.13718833 37.53943696 78.13503511 34.77197266 78.13037109 C31.21737351 78.12467381 27.66284986 78.12795298 24.10825348 78.13394356 C20.72841286 78.13841747 17.34859277 78.13528886 13.96875 78.1328125 C12.68649536 78.13483673 11.40424072 78.13686096 10.08312988 78.13894653 C8.31624817 78.13421829 8.31624817 78.13421829 6.51367188 78.12939453 C5.47078003 78.12859894 4.42788818 78.12780334 3.35339355 78.12698364 C1 78 1 78 0 77 C-0.09496708 74.59651714 -0.12558862 72.22189018 -0.11352539 69.81811523 C-0.11367142 69.06694427 -0.11381744 68.31577332 -0.1139679 67.5418396 C-0.11326863 65.04739541 -0.10547564 62.55302497 -0.09765625 60.05859375 C-0.09579212 58.33366436 -0.09436819 56.60873443 -0.09336853 54.88380432 C-0.08954297 50.33487497 -0.07971238 45.78597733 -0.06866455 41.23706055 C-0.05665681 35.78388372 -0.05204837 30.33069632 -0.04621124 24.87751007 C-0.03650063 16.58498462 -0.01734435 8.29252884 0 0 Z " fill="#000000" transform="translate(639,70)"/>
<path d="M0 0 C19.8 0 39.6 0 60 0 C60 4.62 60 9.24 60 14 C59 15 59 15 55.12280273 15.11352539 C53.39305833 15.11336621 51.66330919 15.10766849 49.93359375 15.09765625 C49.02497086 15.0962413 48.11634796 15.09482635 47.18019104 15.09336853 C44.26592779 15.08775193 41.35174019 15.07519665 38.4375 15.0625 C36.46679798 15.05748714 34.49609476 15.05292386 32.52539062 15.04882812 C27.68356441 15.03777711 22.84179505 15.02050138 18 15 C18 20.61 18 26.22 18 32 C20.51496094 31.91621094 23.02992188 31.83242187 25.62109375 31.74609375 C28.04691983 31.66877149 30.47279477 31.59321027 32.89868164 31.51782227 C34.58949623 31.46432885 36.28025358 31.40899402 37.97094727 31.35180664 C40.39587047 31.27009959 42.82091994 31.19493605 45.24609375 31.12109375 C46.00651474 31.09405869 46.76693573 31.06702362 47.55039978 31.03916931 C49.36623334 30.98708701 51.18345843 30.98813415 53 31 C56.30823887 34.30823887 54 40.32144372 54 45 C42.12 45 30.24 45 18 45 C18 50.94 18 56.88 18 63 C31.86 63 45.72 63 60 63 C60 67.95 60 72.9 60 78 C40.2 78 20.4 78 0 78 C0 52.26 0 26.52 0 0 Z " fill="#000000" transform="translate(711,70)"/>
<path d="M0 0 C19.8 0 39.6 0 60 0 C60 4.62 60 9.24 60 14 C59 15 59 15 55.12280273 15.11352539 C53.39305833 15.11336621 51.66330919 15.10766849 49.93359375 15.09765625 C49.02497086 15.0962413 48.11634796 15.09482635 47.18019104 15.09336853 C44.26592779 15.08775193 41.35174019 15.07519665 38.4375 15.0625 C36.46679798 15.05748714 34.49609476 15.05292386 32.52539062 15.04882812 C27.68356441 15.03777711 22.84179505 15.02050138 18 15 C18 20.61 18 26.22 18 32 C20.51496094 31.91621094 23.02992187 31.83242187 25.62109375 31.74609375 C28.04691983 31.66877149 30.47279477 31.59321027 32.89868164 31.51782227 C34.58949623 31.46432885 36.28025358 31.40899402 37.97094727 31.35180664 C40.39587047 31.27009959 42.82091994 31.19493605 45.24609375 31.12109375 C46.00651474 31.09405869 46.76693573 31.06702362 47.55039978 31.03916931 C49.36623334 30.98708701 51.18345843 30.98813415 53 31 C56.30823887 34.30823887 54 40.32144372 54 45 C42.12 45 30.24 45 18 45 C18 50.94 18 56.88 18 63 C31.86 63 45.72 63 60 63 C60 67.62 60 72.24 60 77 C59 78 59 78 56.63987732 78.12025452 C55.59396927 78.11803391 54.54806122 78.11581329 53.47045898 78.11352539 C51.67384827 78.11334412 51.67384827 78.11334412 49.84094238 78.11315918 C48.57214233 78.10804321 47.30334229 78.10292725 45.99609375 78.09765625 C44.83726685 78.09664917 43.67843994 78.09564209 42.48449707 78.09460449 C38.13548805 78.08935327 33.78649308 78.07539216 29.4375 78.0625 C14.8659375 78.0315625 14.8659375 78.0315625 0 78 C0 52.26 0 26.52 0 0 Z " fill="#000000" transform="translate(1046,70)"/>
<path d="M0 0 C8.58 0 17.16 0 26 0 C30.50015023 11.25037556 30.50015023 11.25037556 31.93530273 15.48706055 C32.25921494 16.43892746 32.58312714 17.39079437 32.91685486 18.37150574 C33.25237869 19.36652603 33.58790253 20.36154633 33.93359375 21.38671875 C34.29340836 22.44679642 34.65322296 23.50687408 35.02394104 24.59907532 C36.16433434 27.96102885 37.30093677 31.32424999 38.4375 34.6875 C39.19572312 36.92390965 39.95418476 39.16023845 40.71289062 41.39648438 C42.50050694 46.66784058 44.28083175 51.94162285 46.05877686 57.21624756 C46.91631465 59.75249302 47.78103169 62.2861316 48.64892578 64.81884766 C49.11105332 66.1773916 49.57313468 67.53595126 50.03515625 68.89453125 C50.42195557 70.0235083 50.80875488 71.15248535 51.20727539 72.31567383 C52 75 52 75 52 78 C45.73 78 39.46 78 33 78 C29 66.375 29 66.375 29 63 C18.77 63 8.54 63 -2 63 C-2.99 66.96 -3.98 70.92 -5 75 C-5.66 75.99 -6.32 76.98 -7 78 C-8.87939453 78.34057617 -8.87939453 78.34057617 -11.1328125 78.29296875 C-11.93847656 78.28330078 -12.74414062 78.27363281 -13.57421875 78.26367188 C-14.41597656 78.23853516 -15.25773438 78.21339844 -16.125 78.1875 C-17.39923828 78.16719727 -17.39923828 78.16719727 -18.69921875 78.14648438 C-20.79974837 78.11108219 -22.89995293 78.05727401 -25 78 C-24.41028915 72.96381274 -23.32775276 68.50108434 -21.69921875 63.671875 C-21.466548 62.97678833 -21.23387726 62.28170166 -20.99415588 61.56555176 C-20.23119188 59.29165923 -19.45951032 57.02083547 -18.6875 54.75 C-18.15354196 53.16518367 -17.62001981 51.58022042 -17.08691406 49.99511719 C-15.40161671 44.99321332 -13.70275206 39.99598549 -12 35 C-11.71247864 34.15630859 -11.42495728 33.31261719 -11.12872314 32.44335938 C-7.43892207 21.62208175 -3.72625261 10.80877531 0 0 Z M13 14 C8.9046264 25.9061377 5.28062509 37.84238937 2 50 C9.26 50 16.52 50 24 50 C23.22936651 45.37619905 22.28476156 41.30470712 20.93359375 36.8515625 C20.63606956 35.86547501 20.63606956 35.86547501 20.33253479 34.85946655 C19.70432461 32.78024231 19.07100217 30.70261723 18.4375 28.625 C18.00812346 27.20713419 17.57908363 25.78916637 17.15039062 24.37109375 C16.1041509 20.91287443 15.05332356 17.45606918 14 14 C13.67 14 13.34 14 13 14 Z " fill="#000000" transform="translate(906,70)"/>
<path d="M0 0 C7.67536627 -0.02312821 15.35072896 -0.04091753 23.02612209 -0.05181217 C26.58977422 -0.05703995 30.15340257 -0.06413569 33.71704102 -0.07543945 C37.81006097 -0.08834176 41.9030558 -0.09322906 45.99609375 -0.09765625 C47.92418129 -0.10539818 47.92418129 -0.10539818 49.89122009 -0.11329651 C51.66294334 -0.11340981 51.66294334 -0.11340981 53.47045898 -0.11352539 C55.03932106 -0.11685631 55.03932106 -0.11685631 56.63987732 -0.12025452 C59 0 59 0 60 1 C60.09900199 2.97712807 60.12970773 4.95790038 60.125 6.9375 C60.12886719 8.55978516 60.12886719 8.55978516 60.1328125 10.21484375 C60 13 60 13 59 15 C45.47 15 31.94 15 18 15 C18 20.61 18 26.22 18 32 C20.51496094 31.91621094 23.02992188 31.83242187 25.62109375 31.74609375 C28.04691983 31.66877149 30.47279477 31.59321027 32.89868164 31.51782227 C34.58949623 31.46432885 36.28025358 31.40899402 37.97094727 31.35180664 C40.39587047 31.27009959 42.82091994 31.19493605 45.24609375 31.12109375 C46.00651474 31.09405869 46.76693573 31.06702362 47.55039978 31.03916931 C49.36623334 30.98708701 51.18345843 30.98813415 53 31 C56.30823887 34.30823887 54 40.32144372 54 45 C42.12 45 30.24 45 18 45 C18 50.94 18 56.88 18 63 C31.86 63 45.72 63 60 63 C60 67.62 60 72.24 60 77 C58.26932301 78.73067699 55.93511196 78.12756529 53.578125 78.12939453 C52.42022461 78.13254669 51.26232422 78.13569885 50.06933594 78.13894653 C48.17876465 78.13591019 48.17876465 78.13591019 46.25 78.1328125 C44.96641602 78.13376923 43.68283203 78.13472595 42.36035156 78.13571167 C39.63996176 78.13718831 36.91960475 78.13503519 34.19921875 78.13037109 C30.70515331 78.12467381 27.21116467 78.12795299 23.71710205 78.13394356 C20.39472847 78.13841754 17.07237577 78.13528885 13.75 78.1328125 C12.48961914 78.13483673 11.22923828 78.13686096 9.93066406 78.13894653 C8.77276367 78.13579437 7.61486328 78.13264221 6.421875 78.12939453 C5.39674805 78.12859894 4.37162109 78.12780334 3.31542969 78.12698364 C1 78 1 78 0 77 C-0.09496708 74.59651714 -0.12558862 72.22189018 -0.11352539 69.81811523 C-0.11367142 69.06694427 -0.11381744 68.31577332 -0.1139679 67.5418396 C-0.11326863 65.04739541 -0.10547564 62.55302497 -0.09765625 60.05859375 C-0.09579212 58.33366436 -0.09436819 56.60873443 -0.09336853 54.88380432 C-0.08954297 50.33487497 -0.07971238 45.78597733 -0.06866455 41.23706055 C-0.05845124 36.59879994 -0.05387108 31.96053423 -0.04882812 27.32226562 C-0.03809014 18.21482978 -0.02101327 9.10741752 0 0 Z " fill="#000000" transform="translate(175,70)"/>
<path d="M0 0 C5.37106359 -0.07473651 10.74181753 -0.12887661 16.11328125 -0.16479492 C17.93657715 -0.17978489 19.7598376 -0.20018384 21.58300781 -0.22631836 C47.01787501 -0.58151503 47.01787501 -0.58151503 57 8 C62.27317145 14.25266641 64.52982928 21.71733721 64.2421875 29.8671875 C63.29204786 38.23454628 60.40207868 44.44638958 54 50 C43.41362764 57.37971186 30.27565975 56.24069921 18 56 C18.00785522 56.94637329 18.00785522 56.94637329 18.01586914 57.91186523 C18.03657826 60.75373347 18.04964066 63.59558588 18.0625 66.4375 C18.07087891 67.43072266 18.07925781 68.42394531 18.08789062 69.44726562 C18.09272461 70.86362305 18.09272461 70.86362305 18.09765625 72.30859375 C18.10551147 73.62041626 18.10551147 73.62041626 18.11352539 74.95874023 C18 77 18 77 17 78 C14.13732433 78.07325168 11.299281 78.09238205 8.4375 78.0625 C7.63119141 78.05798828 6.82488281 78.05347656 5.99414062 78.04882812 C3.99606244 78.03700518 1.99802217 78.01906914 0 78 C-0.98044225 71.46014838 -1.14567611 65.083529 -1.1328125 58.4765625 C-1.13376923 57.37637787 -1.13472595 56.27619324 -1.13571167 55.14266968 C-1.13639003 52.81793155 -1.1345598 50.49319149 -1.13037109 48.16845703 C-1.1250695 44.67085321 -1.13030114 41.17338084 -1.13671875 37.67578125 C-1.14007757 25.0822092 -0.89721882 12.56310727 0 0 Z M18 14 C18 23.24 18 32.48 18 42 C20.330625 42.04125 22.66125 42.0825 25.0625 42.125 C26.37347656 42.14820312 27.68445313 42.17140625 29.03515625 42.1953125 C33.94930782 41.95323607 38.19537256 41.21934287 42.3125 38.4375 C45.28573217 34.14283131 46.30374512 29.75571661 45.73046875 24.5546875 C44.71457715 20.58287905 43.3906142 17.6862262 39.875 15.4375 C33.21304862 12.65959197 24.97872215 13.78191493 18 14 Z " fill="#000000" transform="translate(355,70)"/>
<path d="M0 0 C4.5688513 3.91615825 9.12525276 8.25101103 10.625 14.25 C10.70146165 16.5820802 10.71643299 18.91845878 10.625 21.25 C5.28664461 23.17471317 0.27520618 24.64891424 -5.375 25.25 C-5.61734375 24.56292969 -5.8596875 23.87585938 -6.109375 23.16796875 C-6.44453125 22.26691406 -6.7796875 21.36585937 -7.125 20.4375 C-7.44984375 19.54417969 -7.7746875 18.65085937 -8.109375 17.73046875 C-9.53719437 14.93211905 -10.67274395 13.81472547 -13.375 12.25 C-18.60371457 10.69711109 -23.59965741 10.91812607 -28.5859375 13.11328125 C-33.08645411 15.97277979 -34.94560465 20.04360354 -36.6875 24.9375 C-38.62267343 34.44749514 -38.26087847 45.05541875 -33.5 53.625 C-30.70306008 57.08004343 -28.5868438 58.84605207 -24.375 60.25 C-22.42024991 60.3947963 -20.4598862 60.47067502 -18.5 60.5 C-17.47132813 60.52578125 -16.44265625 60.5515625 -15.3828125 60.578125 C-11.06682652 60.10729017 -8.57624637 58.5349287 -5.63671875 55.390625 C-4.1757102 52.91188604 -3.67148986 50.82947919 -3.1875 48 C-3.02894531 47.10796875 -2.87039063 46.2159375 -2.70703125 45.296875 C-2.59746094 44.62140625 -2.48789062 43.9459375 -2.375 43.25 C3.19390517 43.72986031 8.29567568 44.54915181 13.625 46.25 C14.07522431 54.50411236 12.74437757 61.03189039 7.4375 67.5625 C1.55161133 73.80925711 -5.15292541 76.12059819 -13.59765625 76.48828125 C-25.84766492 76.77298861 -35.98172296 76.26926544 -45.8125 68.125 C-54.72637996 59.36850797 -57.3296111 48.96519978 -57.625 36.75 C-57.33324887 24.68523273 -54.40222185 13.79669439 -46.01953125 4.77734375 C-33.61300447 -6.74510749 -14.67247974 -7.60795246 0 0 Z " fill="#000000" transform="translate(863.375,72.75)"/>
<path d="M0 0 C15.58981671 -0.91346582 15.58981671 -0.91346582 21.38671875 4.00390625 C22.97444996 5.21216952 22.97444996 5.21216952 25.0234375 4.78125 C27.26642625 3.98365611 27.26642625 3.98365611 29.9375 1.9375 C35.10126079 -1.17428598 41.18286434 -0.4962871 47 0 C47.99 0.495 47.99 0.495 49 1 C46.42414861 9.32198142 46.42414861 9.32198142 44 13 C37.99234912 15.8120919 31.51688103 15.19261717 25 15 C27.57404971 18.86107457 29.61020259 18.94319692 34 20 C34.703125 21.66015625 34.703125 21.66015625 35 24 C33.671875 26.62109375 33.671875 26.62109375 31.75 29.4375 C31.12609375 30.36433594 30.5021875 31.29117188 29.859375 32.24609375 C28.93898438 33.60927734 28.93898438 33.60927734 28 35 C26.98897139 36.65999968 25.9852042 38.3245447 25 40 C25.54269531 39.50628906 26.08539063 39.01257813 26.64453125 38.50390625 C27.35996094 37.86324219 28.07539062 37.22257812 28.8125 36.5625 C29.52019531 35.92441406 30.22789063 35.28632812 30.95703125 34.62890625 C33 33 33 33 36 32 C35.855625 32.59167969 35.71125 33.18335938 35.5625 33.79296875 C35.2840625 34.97826172 35.2840625 34.97826172 35 36.1875 C34.7215625 37.35345703 34.7215625 37.35345703 34.4375 38.54296875 C33.85391411 41.40448243 33.85391411 41.40448243 34 46 C35.65 42.04 37.3 38.08 39 34 C40.15866723 38.63466892 39.70010994 41.33260039 39 46 C39.66 45.67 40.32 45.34 41 45 C41.91485573 42.19521805 41.91485573 42.19521805 42.625 38.9375 C43.01558594 37.28041016 43.01558594 37.28041016 43.4140625 35.58984375 C43.60742188 34.73519531 43.80078125 33.88054687 44 33 C44.66 33 45.32 33 46 33 C47.80230168 36.82989106 48.19622241 39.78121808 48 44 C48.66 44 49.32 44 50 44 C49.88140625 43.21238281 49.7628125 42.42476562 49.640625 41.61328125 C48.10218235 28.61344084 51.75002955 18.70578969 59 8 C62 9 62 9 64.1875 12.3125 C66.67007355 17.69140936 67.09737764 23.20639133 66 29 C63.12037478 36.15142487 59.31157522 41.40524458 53.80078125 46.72265625 C53.12452194 47.39421249 52.44826263 48.06576874 51.75151062 48.75767517 C49.616703 50.87136089 47.4648364 52.96668327 45.3125 55.0625 C43.85762589 56.50084329 42.40383956 57.94028772 40.95117188 59.38085938 C38.30479535 61.99343583 35.65811808 64.60557749 32.9934082 67.19946289 C32.46221878 67.7177919 31.93102936 68.23612091 31.38374329 68.77015686 C28.60948583 71.23586097 25.83961981 71.50558362 22.17578125 71.4921875 C18.06264174 70.56174661 15.40522313 67.32221445 13 64 C13 63.34 13 62.68 13 62 C12.43990234 61.76297363 11.87980469 61.52594727 11.30273438 61.28173828 C6.86570677 58.81201872 3.51292992 54.88475076 -0.05419922 51.31640625 C-1.48514928 49.88980558 -2.93127918 48.47996094 -4.37890625 47.0703125 C-10.53298878 40.94219656 -15.30040455 35.97947348 -16.53125 27.21875 C-16.46805954 19.69908533 -16.15452998 14.36162403 -12 8 C-11.34 8 -10.68 8 -10 8 C-4.50070462 16.5008192 -1.86183104 24.89229221 -4 35 C-4.185625 36.299375 -4.37125 37.59875 -4.5625 38.9375 C-4.706875 39.948125 -4.85125 40.95875 -5 42 C-4.34 42 -3.68 42 -3 42 C-2.855625 40.72125 -2.71125 39.4425 -2.5625 38.125 C-2.29357254 35.74307106 -2.07773654 34.15547309 -1 32 C-0.01 32 0.98 32 2 32 C2.66 36.29 3.32 40.58 4 45 C4.33 45 4.66 45 5 45 C5 41.04 5 37.08 5 33 C5.66 33 6.32 33 7 33 C8.485 39.435 8.485 39.435 10 46 C10.66 46 11.32 46 12 46 C11.855625 45.33613281 11.71125 44.67226562 11.5625 43.98828125 C11.376875 43.10527344 11.19125 42.22226563 11 41.3125 C10.814375 40.44238281 10.62875 39.57226562 10.4375 38.67578125 C10.01027953 36.06287036 9.92383799 33.64186962 10 31 C14.03810445 32.34603482 15.47295076 34.65336723 18 38 C18 38.66 18 39.32 18 40 C18.66 40 19.32 40 20 40 C18.02026144 34.9370475 18.02026144 34.9370475 14.875 30.5625 C12.2639474 26.99406145 12.2194208 24.38841598 12 20 C14.04698414 17.95301586 18.30411241 18.29954307 21 18 C21.495 16.515 21.495 16.515 22 15 C21.28714844 15.03480469 20.57429688 15.06960937 19.83984375 15.10546875 C9.06341005 15.41005167 9.06341005 15.41005167 4 12 C1.59723815 8.15987168 0 4.55490438 0 0 Z " fill="#F8FBF8" transform="translate(59,76)"/>
<path d="M0 0 C6.93 0 13.86 0 21 0 C31.48903057 22.89256381 31.48903057 22.89256381 35.16015625 32.05078125 C35.84313328 33.9663316 35.84313328 33.9663316 37 35 C44.425 17.675 44.425 17.675 52 0 C58.93 0 65.86 0 73 0 C72.10262749 4.48686255 71.11408926 7.01888948 68.97265625 10.9453125 C68.34955566 12.09475342 67.72645508 13.24419434 67.08447266 14.4284668 C66.75408997 15.03137543 66.42370728 15.63428406 66.08331299 16.25546265 C65.05025222 18.14743083 64.03195781 20.04670466 63.01708984 21.94848633 C60.07634977 27.44348944 57.11571236 32.89994566 53.81640625 38.19140625 C46.50010651 50.22072256 45.63686538 60.90722014 46.04663086 74.89306641 C46 77 46 77 45 78 C42.13732433 78.07325168 39.299281 78.09238205 36.4375 78.0625 C35.63119141 78.05798828 34.82488281 78.05347656 33.99414062 78.04882812 C31.99606244 78.03700518 29.99802217 78.01906914 28 78 C28.05873291 77.41025391 28.11746582 76.82050781 28.17797852 76.21289062 C29.80217243 55.5463552 22.28469441 41.78600413 12.12597656 24.62890625 C9.22623215 19.71741766 6.57177168 14.68260262 3.9375 9.625 C3.32177124 8.47572021 3.32177124 8.47572021 2.69360352 7.30322266 C0 2.23536344 0 2.23536344 0 0 Z " fill="#000000" transform="translate(558,70)"/>
<path d="M0 0 C5.94 0 11.88 0 18 0 C18.33 20.46 18.66 40.92 19 62 C29.23 62 39.46 62 50 62 C50 67.28 50 72.56 50 78 C33.5 78 17 78 0 78 C0 52.26 0 26.52 0 0 Z " fill="#000000" transform="translate(429,70)"/>
<path d="M0 0 C1.79068573 2.6860286 2.66055791 4.6626589 3.625 7.6875 C4.01558594 8.89986328 4.01558594 8.89986328 4.4140625 10.13671875 C4.60742188 10.75160156 4.80078125 11.36648437 5 12 C5.78375 12.144375 6.5675 12.28875 7.375 12.4375 C10 13 10 13 12 14 C13.87056791 14.2275015 15.74685958 14.40962811 17.625 14.5625 C18.62789062 14.64628906 19.63078125 14.73007813 20.6640625 14.81640625 C21.82035156 14.90728516 21.82035156 14.90728516 23 15 C22.67 16.32 22.34 17.64 22 19 C18.04 19.495 18.04 19.495 14 20 C14.22502432 26.30068108 15.5625403 29.40298707 19.72265625 34.140625 C21 36 21 36 21 40 C20.34 40 19.68 40 19 40 C17.5625 38.28515625 17.5625 38.28515625 16 36.0625 C13.95183196 33.01367363 13.95183196 33.01367363 11 31 C11.495 32.485 11.495 32.485 12 34 C13.1865126 38.08594833 13.14865179 41.76342394 13 46 C12.34 46 11.68 46 11 46 C10.49242138 44.58603098 9.99425075 43.16868271 9.5 41.75 C9.2215625 40.96109375 8.943125 40.1721875 8.65625 39.359375 C8 37 8 37 8 33 C7.34 33 6.68 33 6 33 C6.33 33.99 6.66 34.98 7 36 C7.06740865 37.56118428 7.08514456 39.1250252 7.0625 40.6875 C7.05347656 41.49574219 7.04445312 42.30398437 7.03515625 43.13671875 C7.02355469 43.75160156 7.01195312 44.36648437 7 45 C6.01 45 5.02 45 4 45 C3.67 40.71 3.34 36.42 3 32 C2.01 32 1.02 32 0 32 C-0.66 35.3 -1.32 38.6 -2 42 C-2.66 42 -3.32 42 -4 42 C-4.0721698 38.46367962 -4.0445333 35.23157314 -3.375 31.75 C-2.55557524 23.55575239 -4.63421664 16.83972727 -9 10 C-9 9.34 -9 8.68 -9 8 C-9.66 8 -10.32 8 -11 8 C-12.75380558 11.91290237 -13.52564918 15.5742335 -14.125 19.8125 C-14.29257812 20.97394531 -14.46015625 22.13539062 -14.6328125 23.33203125 C-14.75398438 24.21246094 -14.87515625 25.09289062 -15 26 C-15.33 25.34 -15.66 24.68 -16 24 C-23.07988635 25.61255546 -28.55061754 28.30909206 -34.5546875 32.37890625 C-36.65796278 33.77325008 -38.71811551 34.93335167 -41 36 C-40.01 33.03 -40.01 33.03 -39 30 C-35.535 29.505 -35.535 29.505 -32 29 C-32 28.34 -32 27.68 -32 27 C-27.11817117 24.24614784 -22.44567686 23.02862785 -17 22 C-17.020625 21.113125 -17.04125 20.22625 -17.0625 19.3125 C-16.99179717 15.56524999 -16.68474273 12.36948547 -15 9 C-14.34 9.33 -13.68 9.66 -13 10 C-12.67 8.68 -12.34 7.36 -12 6 C-11.278125 6.04125 -10.55625 6.0825 -9.8125 6.125 C-6.79270631 5.99078695 -4.73064271 5.24829381 -2 4 C-2 3.01 -2 2.02 -2 1 C-1.34 0.67 -0.68 0.34 0 0 Z " fill="#EFC34B" transform="translate(58,76)"/>
<path d="M0 0 C2.88569129 1.29734861 4.12013073 2.14015252 6.25 4.625 C9.19274154 7.1664586 10.96689247 7.84805884 14.87109375 7.640625 C18.45209976 6.56303787 20.74041614 4.13711208 23.3359375 1.53125 C25 0 25 0 27 0 C27.76131314 15.48003383 24.96668383 25.71098208 15 38 C10.99448694 36.50013828 9.5608292 34.21669291 7.375 30.625 C6.78460938 29.66851562 6.19421875 28.71203125 5.5859375 27.7265625 C0.48895698 18.96377333 -0.39231097 10.04751981 0 0 Z " fill="#522414" transform="translate(70,139)"/>
<path d="M0 0 C8.63168574 7.99230161 13.2137933 17.1785299 13.921875 28.91015625 C13.94765625 29.59980469 13.9734375 30.28945312 14 31 C12.7625 31.433125 11.525 31.86625 10.25 32.3125 C7.66172421 33.26487613 5.94866073 34.03993054 3.75 35.75 C2 37 2 37 0.1875 36.9375 C-2.42628179 35.81730781 -4.80162207 34.43172454 -7.21875 32.9375 C-9.12514961 31.93413179 -10.89848311 31.44242461 -13 31 C-12.49999787 19.24994987 -8.44185056 8.44185056 0 0 Z " fill="#268947" transform="translate(83,45)"/>
<path d="M0 0 C0.66 1.32 1.32 2.64 2 4 C1.01 5.485 1.01 5.485 0 7 C-3.49227241 15.74342656 -4.55182654 23.6342773 -4 33 C-4.66 33 -5.32 33 -6 33 C-6.66 29.37 -7.32 25.74 -8 22 C-8.66 22 -9.32 22 -10 22 C-10.12375 23.03125 -10.2475 24.0625 -10.375 25.125 C-10.93889814 28.62116846 -11.78682059 31.68397627 -13 35 C-13.66 35 -14.32 35 -15 35 C-15 31.7 -15 28.4 -15 25 C-16.65 28.63 -18.3 32.26 -20 36 C-20.33 36 -20.66 36 -21 36 C-20.22095672 25.44191344 -20.22095672 25.44191344 -18 21 C-18.54269531 21.49371094 -19.08539063 21.98742187 -19.64453125 22.49609375 C-20.35996094 23.13675781 -21.07539062 23.77742188 -21.8125 24.4375 C-22.52019531 25.07558594 -23.22789063 25.71367188 -23.95703125 26.37109375 C-26 28 -26 28 -29 29 C-28.22188341 24.32049331 -25.38727412 21.23886548 -22.59375 17.53515625 C-20.96288947 14.94096879 -20.38823182 13.01418869 -20 10 C-20.56589844 9.81824219 -21.13179688 9.63648437 -21.71484375 9.44921875 C-22.44832031 9.19785156 -23.18179688 8.94648437 -23.9375 8.6875 C-24.66839844 8.44386719 -25.39929688 8.20023438 -26.15234375 7.94921875 C-28 7 -28 7 -29 4 C-22.73 3.34 -16.46 2.68 -10 2 C-10.33 2.66 -10.66 3.32 -11 4 C-12.66666667 4.33333333 -14.33333333 4.66666667 -16 5 C-16.33 5.66 -16.66 6.32 -17 7 C-15.20741442 6.91306859 -13.41584856 6.80489496 -11.625 6.6875 C-10.12839844 6.60048828 -10.12839844 6.60048828 -8.6015625 6.51171875 C-7.74304688 6.34285156 -6.88453125 6.17398438 -6 6 C-5.34 5.01 -4.68 4.02 -4 3 C-3.01 3 -2.02 3 -1 3 C-0.67 2.01 -0.34 1.02 0 0 Z " fill="#26B2F4" transform="translate(113,87)"/>
<path d="M0 0 C0.18433594 0.75023438 0.36867188 1.50046875 0.55859375 2.2734375 C2.68292846 9.76997864 5.55914727 14.44438738 11.07421875 19.94140625 C13 22 13 22 14 25 C3.01861948 25.65596742 -6.14959193 23.37209364 -15.6875 18 C-16.30012695 17.65582031 -16.91275391 17.31164062 -17.54394531 16.95703125 C-21.87023461 14.38929616 -21.87023461 14.38929616 -23 11 C-16.15837386 5.24203568 -9.33342653 -0.40792948 0 0 Z " fill="#E91F20" transform="translate(42,100)"/>
<path d="M0 0 C9.31469423 0.41398641 17.29076437 5.83475644 24 12 C16.80721612 19.60333091 7.22173734 24.61495476 -3.296875 25.17578125 C-6.20548423 25.18602283 -9.09483352 25.13477576 -12 25 C-11.41655546 21.44414208 -10.10299587 19.75436914 -7.625 17.1875 C-2.87417537 11.94017526 -0.86690584 7.10862785 0 0 Z " fill="#10A027" transform="translate(125,99)"/>
<path d="M0 0 C3 1 3 1 5.1875 4.3125 C8.07468654 10.56807084 8.21867057 17.20917959 6.1171875 23.74609375 C3.44903949 29.55064091 -0.20512306 33.82693707 -5 38 C-5.99 37.67 -6.98 37.34 -8 37 C-11.15364486 30.69271027 -10.31576338 22.91787614 -8.4375 16.375 C-6.38819487 10.41403876 -3.52647625 5.20742993 0 0 Z " fill="#F8FDFB" transform="translate(118,84)"/>
<path d="M0 0 C0.66 0 1.32 0 2 0 C7.49929538 8.5008192 10.13816896 16.89229221 8 27 C7.814375 28.299375 7.62875 29.59875 7.4375 30.9375 C7.293125 31.948125 7.14875 32.95875 7 34 C7.66 34 8.32 34 9 34 C9.144375 32.72125 9.28875 31.4425 9.4375 30.125 C9.70642746 27.74307106 9.92226346 26.15547309 11 24 C11.99 24 12.98 24 14 24 C14 25.98 14 27.96 14 30 C13.67 29.01 13.34 28.02 13 27 C12.34 27 11.68 27 11 27 C10.87625 28.2375 10.7525 29.475 10.625 30.75 C10.30760664 33.92393362 9.5478831 36.20625977 8 39 C1.56658462 33.12872771 -3.43509912 28.360674 -4.375 19.44140625 C-4.61611208 11.83884095 -4.1850442 6.40834893 0 0 Z " fill="#FDF9F1" transform="translate(47,84)"/>
<path d="M0 0 C3.63 0 7.26 0 11 0 C10.67 1.32 10.34 2.64 10 4 C7.36 4.33 4.72 4.66 2 5 C2.22502432 11.30068108 3.5625403 14.40298707 7.72265625 19.140625 C9 21 9 21 9 25 C8.34 25 7.68 25 7 25 C5.5625 23.28515625 5.5625 23.28515625 4 21.0625 C1.95183196 18.01367363 1.95183196 18.01367363 -1 16 C-0.67 16.99 -0.34 17.98 0 19 C1.1865126 23.08594833 1.14865179 26.76342394 1 31 C0.34 31 -0.32 31 -1 31 C-1.50757862 29.58603098 -2.00574925 28.16868271 -2.5 26.75 C-2.7784375 25.96109375 -3.056875 25.1721875 -3.34375 24.359375 C-4 22 -4 22 -4 18 C-4.66 18 -5.32 18 -6 18 C-5.67 18.99 -5.34 19.98 -5 21 C-4.93259135 22.56118428 -4.91485544 24.1250252 -4.9375 25.6875 C-4.94652344 26.49574219 -4.95554687 27.30398437 -4.96484375 28.13671875 C-4.97644531 28.75160156 -4.98804687 29.36648437 -5 30 C-5.99 30 -6.98 30 -8 30 C-8.33 25.71 -8.66 21.42 -9 17 C-9.99 17 -10.98 17 -12 17 C-12.66 20.3 -13.32 23.6 -14 27 C-14.66 27 -15.32 27 -16 27 C-16.11988017 21.12587158 -15.8682013 15.60460391 -14 10 C-13.34 11.65 -12.68 13.3 -12 15 C-10.8553125 14.505 -10.8553125 14.505 -9.6875 14 C-6.92986588 12.97390358 -4.89920516 13 -2 13 C-1.855625 11.783125 -1.71125 10.56625 -1.5625 9.3125 C-1.18652748 6.14358879 -0.63024451 3.15122255 0 0 Z " fill="#E9C662" transform="translate(70,91)"/>
<path d="M0 0 C-6.5 3 -6.5 3 -11 3 C-11 3.66 -11 4.32 -11 5 C-10.01 5 -9.02 5 -8 5 C-8 7.64 -8 10.28 -8 13 C-8.66 13 -9.32 13 -10 13 C-10 13.66 -10 14.32 -10 15 C-9.01 15.33 -8.02 15.66 -7 16 C-6.67 16.66 -6.34 17.32 -6 18 C-5.01 18.33 -4.02 18.66 -3 19 C-1.36084836 22.98079685 -0.80362611 25.22853113 -1.875 29.4375 C-2.431875 30.7059375 -2.431875 30.7059375 -3 32 C-3.66 32 -4.32 32 -5 32 C-5 28.7 -5 25.4 -5 22 C-6.65 25.63 -8.3 29.26 -10 33 C-10.33 33 -10.66 33 -11 33 C-10.22095672 22.44191344 -10.22095672 22.44191344 -8 18 C-8.54269531 18.49371094 -9.08539063 18.98742187 -9.64453125 19.49609375 C-10.35996094 20.13675781 -11.07539062 20.77742188 -11.8125 21.4375 C-12.52019531 22.07558594 -13.22789063 22.71367188 -13.95703125 23.37109375 C-16 25 -16 25 -19 26 C-18.22188341 21.32049331 -15.38727412 18.23886548 -12.59375 14.53515625 C-10.96288947 11.94096879 -10.38823182 10.01418869 -10 7 C-10.84884766 6.72736328 -10.84884766 6.72736328 -11.71484375 6.44921875 C-12.44832031 6.19785156 -13.18179688 5.94648437 -13.9375 5.6875 C-14.66839844 5.44386719 -15.39929688 5.20023437 -16.15234375 4.94921875 C-18 4 -18 4 -19 1 C-16.20910735 0.63843896 -13.41759278 0.28545167 -10.625 -0.0625 C-9.43390625 -0.2181543 -9.43390625 -0.2181543 -8.21875 -0.37695312 C-2.2265625 -1.11328125 -2.2265625 -1.11328125 0 0 Z " fill="#4EB3E2" transform="translate(103,90)"/>
<path d="M0 0 C2.37570543 -0.0816082 4.74855841 -0.14077222 7.125 -0.1875 C7.79015625 -0.21263672 8.4553125 -0.23777344 9.140625 -0.26367188 C13.86902292 -0.33320714 16.95121479 0.59721625 21 3 C21 3.33 21 3.66 21 4 C16.48543689 4.25080906 16.48543689 4.25080906 14.125 3.03125 C10.56761604 1.30487249 6.91249002 1.34521971 3 1 C3.66 4.3 4.32 7.6 5 11 C6.98 11 8.96 11 11 11 C11 11.66 11 12.32 11 13 C14.96 13.33 18.92 13.66 23 14 C22.67 14.99 22.34 15.98 22 17 C22 16.34 22 15.68 22 15 C21.28714844 15.03480469 20.57429688 15.06960937 19.83984375 15.10546875 C9.06341005 15.41005167 9.06341005 15.41005167 4 12 C1.59723815 8.15987168 0 4.55490438 0 0 Z " fill="#FEF7D3" transform="translate(59,76)"/>
<path d="M0 0 C1.485 0.99 1.485 0.99 3 2 C2.34 2 1.68 2 1 2 C2.24479778 14.00268432 3.37270581 24.64083142 10 35 C7.525 35.495 7.525 35.495 5 36 C5.33 34.35 5.66 32.7 6 31 C5.34 31 4.68 31 4 31 C2.19769832 27.17010894 1.80377759 24.21878192 2 20 C1.34 20 0.68 20 0 20 C0 13.4 0 6.8 0 0 Z " fill="#D23965" transform="translate(69,137)"/>
<path d="M0 0 C0.66 0.33 1.32 0.66 2 1 C1.236875 1.7425 0.47375 2.485 -0.3125 3.25 C-2.4393702 5.4263323 -4.2559956 7.52167796 -6 10 C-5.34 10 -4.68 10 -4 10 C-3.34 13.3 -2.68 16.6 -2 20 C-8.15334773 14.01295896 -8.15334773 14.01295896 -10 11 C-10 9.68 -10 8.36 -10 7 C-7.8125 5.078125 -7.8125 5.078125 -5 3.25 C-4.071875 2.63640625 -3.14375 2.0228125 -2.1875 1.390625 C-1.1046875 0.70226563 -1.1046875 0.70226563 0 0 Z " fill="#38ACD9" transform="translate(94,36)"/>
<path d="M0 0 C12.82423529 -0.75560142 23.19357123 1.65525023 33.9765625 8.73046875 C36.06875884 10.15421138 36.06875884 10.15421138 39 11 C38.34 12.32 37.68 13.64 37 15 C36.34 14.01 35.68 13.02 35 12 C34.01 11.67 33.02 11.34 32 11 C32 10.34 32 9.68 32 9 C31.01 9 30.02 9 29 9 C29 8.34 29 7.68 29 7 C27.68 7 26.36 7 25 7 C25 6.34 25 5.68 25 5 C23.35 5 21.7 5 20 5 C20 4.34 20 3.68 20 3 C13.34063095 2.23581011 6.67728333 1.58660246 0 1 C0 0.67 0 0.34 0 0 Z " fill="#DEBD62" transform="translate(45,32)"/>
<path d="M0 0 C5.51720075 5.51720075 5.28759944 14.09622851 5.3125 21.4375 C5.31781738 22.23091797 5.32313477 23.02433594 5.32861328 23.84179688 C5.28118576 27.72586153 5.19904195 29.70143707 3 33 C2.98018066 32.3702124 2.96036133 31.7404248 2.93994141 31.09155273 C2.84401103 28.2064864 2.7346103 25.3220777 2.625 22.4375 C2.57859375 20.9515332 2.57859375 20.9515332 2.53125 19.43554688 C2.31138858 13.92068965 1.66207228 9.2497161 0 4 C0 2.68 0 1.36 0 0 Z " fill="#67D44B" transform="translate(158,123)"/>
<path d="M0 0 C0.99 0 1.98 0 3 0 C3 1.98 3 3.96 3 6 C2.67 5.01 2.34 4.02 2 3 C1.34 3 0.68 3 0 3 C-0.12375 4.2375 -0.2475 5.475 -0.375 6.75 C-0.7206728 10.20672799 -1.34445298 11.68890596 -3 15 C-5.64 12.36 -8.28 9.72 -11 7 C-9.68 6.67 -8.36 6.34 -7 6 C-5.26973898 4.52109931 -5.26973898 4.52109931 -4 3 C-4 5.31 -4 7.62 -4 10 C-3.34 10 -2.68 10 -2 10 C-1.855625 8.72125 -1.71125 7.4425 -1.5625 6.125 C-1.29357254 3.74307106 -1.07773654 2.15547309 0 0 Z " fill="#FEE7DD" transform="translate(58,108)"/>
<path d="M0 0 C0.33 0 0.66 0 1 0 C1 2.64 1 5.28 1 8 C0.40574219 8.13535156 -0.18851563 8.27070312 -0.80078125 8.41015625 C-7.18160285 10.06738363 -12.10758604 12.68662902 -17.5546875 16.37890625 C-19.65796278 17.77325008 -21.71811551 18.93335167 -24 20 C-23.34 18.02 -22.68 16.04 -22 14 C-18.535 13.505 -18.535 13.505 -15 13 C-15 12.34 -15 11.68 -15 11 C-10.11817117 8.24614784 -5.44567686 7.02862785 0 6 C0 4.02 0 2.04 0 0 Z " fill="#F6AD57" transform="translate(41,92)"/>
<path d="M0 0 C3 1 3 1 5.1875 4.3125 C7.96193515 10.24552286 8.16007745 17.05573666 6.31640625 23.32421875 C5.5 25.25 5.5 25.25 4 28 C3.67 28 3.34 28 3 28 C3 26.35 3 24.7 3 23 C3.66 23 4.32 23 5 23 C5 18.05 5 13.1 5 8 C4.34 8 3.68 8 3 8 C3 6.68 3 5.36 3 4 C1.02 4.99 -0.96 5.98 -3 7 C-1.125 2.25 -1.125 2.25 0 0 Z " fill="#C7F3E2" transform="translate(118,84)"/>
<path d="M0 0 C2.3828125 0.0234375 2.3828125 0.0234375 5.125 0.375 C6.03507812 0.48585937 6.94515625 0.59671875 7.8828125 0.7109375 C8.58148438 0.80632812 9.28015625 0.90171875 10 1 C2.63663588 5.90890941 -6.42869775 5.71779378 -15 5 C-17.421875 3.984375 -17.421875 3.984375 -19 3 C-17.79601562 2.95101562 -16.59203125 2.90203125 -15.3515625 2.8515625 C-13.77601802 2.77653657 -12.20049834 2.70098867 -10.625 2.625 C-9.8309375 2.5940625 -9.036875 2.563125 -8.21875 2.53125 C-3.63332625 2.48183579 -3.63332625 2.48183579 0 0 Z " fill="#5DD83F" transform="translate(124,186)"/>
<path d="M0 0 C0.33 0 0.66 0 1 0 C1.59828863 12.16520214 0.76799717 23.01257507 -7 33 C-7.33 32.34 -7.66 31.68 -8 31 C-7.1953125 29.17578125 -7.1953125 29.17578125 -6 27 C-3.30040988 21.11804635 -1.58559643 16.49232257 -2 10 C-1.67 9.67 -1.34 9.34 -1 9 C-0.76807135 7.48530552 -0.58784762 5.96245438 -0.4375 4.4375 C-0.35371094 3.61121094 -0.26992187 2.78492188 -0.18359375 1.93359375 C-0.12300781 1.29550781 -0.06242187 0.65742188 0 0 Z " fill="#403507" transform="translate(96,139)"/>
<path d="M0 0 C0.33 0.99 0.66 1.98 1 3 C-0.1796875 5.15625 -0.1796875 5.15625 -1.875 7.5 C-3.73229619 10.09157608 -4.98483238 11.95449714 -6 15 C-5.01 15 -4.02 15 -3 15 C-0.8125 17.5 -0.8125 17.5 1 20 C-2.39593478 20 -3.06619881 19.47834052 -5.6875 17.5 C-6.62142578 16.80390625 -6.62142578 16.80390625 -7.57421875 16.09375 C-8.27998047 15.55234375 -8.27998047 15.55234375 -9 15 C-7.38325319 11.57053707 -5.42402323 8.43736948 -3.375 5.25 C-2.74335937 4.26515625 -2.11171875 3.2803125 -1.4609375 2.265625 C-0.97882813 1.51796875 -0.49671875 0.7703125 0 0 Z " fill="#68C73E" transform="translate(93,164)"/>
<path d="M0 0 C0.66 1.32 1.32 2.64 2 4 C1.01 5.485 1.01 5.485 0 7 C-0.58837246 8.71383721 -1.12719954 10.44519841 -1.625 12.1875 C-1.88539062 13.08855469 -2.14578125 13.98960938 -2.4140625 14.91796875 C-2.60742188 15.60503906 -2.80078125 16.29210937 -3 17 C-3.33 17 -3.66 17 -4 17 C-3.96519531 16.07767578 -3.96519531 16.07767578 -3.9296875 15.13671875 C-3.91164063 14.32847656 -3.89359375 13.52023438 -3.875 12.6875 C-3.84019531 11.48673828 -3.84019531 11.48673828 -3.8046875 10.26171875 C-3.84182678 7.71611424 -3.84182678 7.71611424 -6 5 C-5.34 4.34 -4.68 3.68 -4 3 C-3.01 3 -2.02 3 -1 3 C-0.67 2.01 -0.34 1.02 0 0 Z " fill="#3AB2EB" transform="translate(113,87)"/>
<path d="M0 0 C0.66 1.65 1.32 3.3 2 5 C-0.97 4.505 -0.97 4.505 -4 4 C-4.33 4.99 -4.66 5.98 -5 7 C-5.5775 6.814375 -6.155 6.62875 -6.75 6.4375 C-9.20692525 5.95976454 -10.64397534 6.24270636 -13 7 C-5.77659574 -0.48138298 -5.77659574 -0.48138298 0 0 Z " fill="#50DE38" transform="translate(152,112)"/>
<path d="M0 0 C0.66 0 1.32 0 2 0 C1.34 2.97 0.68 5.94 0 9 C-0.99 8.34 -1.98 7.68 -3 7 C-3.4125 7.515625 -3.825 8.03125 -4.25 8.5625 C-4.8275 9.036875 -5.405 9.51125 -6 10 C-8.1875 9.6875 -8.1875 9.6875 -10 9 C-10 7.35 -10 5.7 -10 4 C-9.01 4.495 -9.01 4.495 -8 5 C-8.33 5.99 -8.66 6.98 -9 8 C-7.68712379 6.85459775 -6.37470979 5.70866567 -5.0625 4.5625 C-4.33160156 3.92441406 -3.60070312 3.28632812 -2.84765625 2.62890625 C-1.87860647 1.77458541 -0.91348825 0.91348825 0 0 Z " fill="#CFF9FE" transform="translate(93,108)"/>
<path d="M0 0 C0.33 0 0.66 0 1 0 C1.33 2.64 1.66 5.28 2 8 C1.01 8.495 1.01 8.495 0 9 C-2.42566489 14.42207445 -2.60462704 20.15264205 -3 26 C-3.33 26 -3.66 26 -4 26 C-4.42397763 17.14357843 -4.04612021 8.09224043 0 0 Z " fill="#CF356C" transform="translate(8,125)"/>
<path d="M0 0 C0 0.99 0 1.98 0 3 C-8.51308572 6.56001766 -16.89915004 6.69698663 -26 7 C-25.67 5.68 -25.34 4.36 -25 3 C-24.67 3.66 -24.34 4.32 -24 5 C-11.68267066 3.83644139 -11.68267066 3.83644139 0 0 Z " fill="#48D535" transform="translate(137,119)"/>
<path d="M0 0 C1.7074998 1.28062485 3.37373596 2.61767557 5 4 C5 4.66 5 5.32 5 6 C-1.65050424 6.24991456 -7.56986533 5.73955334 -14 4 C-8.99460666 2.61693079 -3.99355965 2.40206091 1 4 C0.67 2.68 0.34 1.36 0 0 Z " fill="#E32330" transform="translate(51,119)"/>
<path d="M0 0 C1.65 0.33 3.3 0.66 5 1 C5 2.65 5 4.3 5 6 C4.34 4.68 3.68 3.36 3 2 C2.34 2 1.68 2 1 2 C-0.75380558 5.91290237 -1.52564918 9.5742335 -2.125 13.8125 C-2.29257812 14.97394531 -2.46015625 16.13539062 -2.6328125 17.33203125 C-2.75398438 18.21246094 -2.87515625 19.09289062 -3 20 C-3.33 20 -3.66 20 -4 20 C-4 14.39 -4 8.78 -4 3 C-3.01 3.33 -2.02 3.66 -1 4 C-0.67 2.68 -0.34 1.36 0 0 Z " fill="#EFC67B" transform="translate(46,82)"/>
<path d="M0 0 C0.66 0 1.32 0 2 0 C2.99 4.29 3.98 8.58 5 13 C4.01 13 3.02 13 2 13 C0.948125 13.2784375 0.948125 13.2784375 -0.125 13.5625 C-0.74375 13.706875 -1.3625 13.85125 -2 14 C-3 13 -3 13 -3.09765625 11.15234375 C-3.06510417 9.1015625 -3.03255208 7.05078125 -3 5 C-2.67 5 -2.34 5 -2 5 C-1.67 7.31 -1.34 9.62 -1 12 C-0.67 12 -0.34 12 0 12 C0 8.04 0 4.08 0 0 Z " fill="#FEF6CF" transform="translate(64,109)"/>
<path d="M0 0 C0.33 0 0.66 0 1 0 C1.15855469 0.64066406 1.31710938 1.28132813 1.48046875 1.94140625 C3.10165658 7.95144511 5.09827283 12.14920406 9 17 C8.401875 16.835 7.80375 16.67 7.1875 16.5 C4.88655664 15.8885876 4.88655664 15.8885876 2 16 C1.50113689 13.77691098 1.00542822 11.55323107 0.515625 9.328125 C0.12630359 7.57027986 -0.27720728 5.81556891 -0.6875 4.0625 C-1 2 -1 2 0 0 Z " fill="#DB3237" transform="translate(42,102)"/>
<path d="M0 0 C8.26482213 0.97233202 8.26482213 0.97233202 12 3 C13 5 13 5 14 7 C16.53770003 8.28254644 16.53770003 8.28254644 19 9 C19 9.99 19 10.98 19 12 C14.63639296 9.94169479 10.697445 7.27636544 6.65625 4.65625 C4.47430997 3.29574622 2.32239735 2.09547045 0 1 C0 0.67 0 0.34 0 0 Z " fill="#2EB6B0" transform="translate(132,100)"/>
<path d="M0 0 C0.66 0 1.32 0 2 0 C2 4.95 2 9.9 2 15 C1.34 15 0.68 15 0 15 C-0.66 11.37 -1.32 7.74 -2 4 C-2.66 4 -3.32 4 -4 4 C-4.33 5.32 -4.66 6.64 -5 8 C-5 6.35 -5 4.7 -5 3 C-3.68 3 -2.36 3 -1 3 C-0.67 2.01 -0.34 1.02 0 0 Z " fill="#51B0DC" transform="translate(107,105)"/>
<path d="M0 0 C0.66 0.33 1.32 0.66 2 1 C1.401875 2.03125 0.80375 3.0625 0.1875 4.125 C-2.81801597 10.05046565 -3.79813865 16.51723273 -5 23 C-5.33 23 -5.66 23 -6 23 C-6.20517554 17.23228759 -6.21930998 12.42497995 -4 7 C-3.67 5.906875 -3.34 4.81375 -3 3.6875 C-2 1 -2 1 0 0 Z " fill="#C8C65D" transform="translate(75,53)"/>
<path d="M0 0 C0.99 0.495 0.99 0.495 2 1 C1.67 2.65 1.34 4.3 1 6 C1.99 6.33 2.98 6.66 4 7 C3.67 11.62 3.34 16.24 3 21 C2.67 21 2.34 21 2 21 C0.49025965 13.90961228 -0.28307925 7.24997422 0 0 Z " fill="#641D1D" transform="translate(70,139)"/>
<path d="M0 0 C1.32451172 0.32484375 1.32451172 0.32484375 2.67578125 0.65625 C10.26176961 2.41626448 17.21575289 3.4289279 25 3 C25.33 3.66 25.66 4.32 26 5 C21.31601269 6.31300638 17.17969307 5.78587114 12.4375 5.1875 C11.30538086 5.0627832 11.30538086 5.0627832 10.15039062 4.93554688 C6.41858517 4.48509987 3.21556588 4.02145653 0 2 C0 1.34 0 0.68 0 0 Z " fill="#F93662" transform="translate(32,121)"/>
<path d="M0 0 C0.33 0 0.66 0 1 0 C1.33 2.31 1.66 4.62 2 7 C3.98 7 5.96 7 8 7 C8 7.66 8 8.32 8 9 C11.96 9.33 15.92 9.66 20 10 C19.67 10.99 19.34 11.98 19 13 C19 12.34 19 11.68 19 11 C18.28714844 11.03480469 17.57429688 11.06960937 16.83984375 11.10546875 C10.72011121 11.27843562 6.36842332 11.03432622 1 8 C-0.35439668 5.29120665 -0.06501451 2.99066732 0 0 Z " fill="#FEF7D7" transform="translate(62,80)"/>
<path d="M0 0 C0.66 0 1.32 0 2 0 C4.09230769 4.43076923 4.09230769 4.43076923 3.625 7.3125 C3.41875 7.869375 3.2125 8.42625 3 9 C2.67 8.01 2.34 7.02 2 6 C1.34 5.67 0.68 5.34 0 5 C0.04125 6.11375 0.0825 7.2275 0.125 8.375 C0 12 0 12 -2 14 C-2.99 13.67 -3.98 13.34 -5 13 C-4.34 12.67 -3.68 12.34 -3 12 C-2.08514427 9.19521805 -2.08514427 9.19521805 -1.375 5.9375 C-1.11460938 4.83277344 -0.85421875 3.72804688 -0.5859375 2.58984375 C-0.39257812 1.73519531 -0.19921875 0.88054687 0 0 Z " fill="#C2F0FD" transform="translate(103,109)"/>
<path d="M0 0 C1.32 0.33 2.64 0.66 4 1 C4 1.66 4 2.32 4 3 C3.34 3 2.68 3 2 3 C2 3.66 2 4.32 2 5 C4.97 5 7.94 5 11 5 C11.33 5.66 11.66 6.32 12 7 C10.27014758 6.88487847 8.54111249 6.75744323 6.8125 6.625 C5.84957031 6.55539063 4.88664062 6.48578125 3.89453125 6.4140625 C0.98491062 5.99784147 -1.32890774 5.20125904 -4 4 C-2.68 3.67 -1.36 3.34 0 3 C0 2.01 0 1.02 0 0 Z " fill="#DF2E6E" transform="translate(36,184)"/>
<path d="M0 0 C0.33 0.66 0.66 1.32 1 2 C1.66 1.67 2.32 1.34 3 1 C5.2072923 0.92907158 7.41667452 0.91584975 9.625 0.9375 C10.81351563 0.94652344 12.00203125 0.95554687 13.2265625 0.96484375 C14.14179687 0.97644531 15.05703125 0.98804687 16 1 C16 1.33 16 1.66 16 2 C8.61538462 4.21538462 8.61538462 4.21538462 5.5 3.125 C5.005 2.75375 4.51 2.3825 4 2 C3.67 2.66 3.34 3.32 3 4 C1.02 4 -0.96 4 -3 4 C-2.01 2.68 -1.02 1.36 0 0 Z " fill="#5CE23B" transform="translate(110,124)"/>
<path d="M0 0 C0.66 0 1.32 0 2 0 C2.33 1.32 2.66 2.64 3 4 C2.01 4 1.02 4 0 4 C0 4.66 0 5.32 0 6 C-0.66 6 -1.32 6 -2 6 C-2 8.64 -2 11.28 -2 14 C-2.66 14 -3.32 14 -4 14 C-3.38029501 4.19156581 -3.38029501 4.19156581 0 0 Z " fill="#FEF8D6" transform="translate(47,84)"/>
<path d="M0 0 C0.66 0 1.32 0 2 0 C3.85072153 5.14089313 4.21474076 7.95531271 2 13 C1.34 13 0.68 13 0 13 C0 8.71 0 4.42 0 0 Z " fill="#4EB4E7" transform="translate(98,109)"/>
<path d="M0 0 C3 1 3 1 4.75 3.9375 C5.36875 5.4534375 5.36875 5.4534375 6 7 C5.67 7.66 5.34 8.32 5 9 C4.34 8.67 3.68 8.34 3 8 C3 6.68 3 5.36 3 4 C1.02 4.99 -0.96 5.98 -3 7 C-1.125 2.25 -1.125 2.25 0 0 Z " fill="#CCF5FD" transform="translate(118,84)"/>
<path d="M0 0 C0.33 0.66 0.66 1.32 1 2 C0.0625 4.625 0.0625 4.625 -1 7 C-1.66 7 -2.32 7 -3 7 C-3.66 8.98 -4.32 10.96 -5 13 C-5.66 13 -6.32 13 -7 13 C-5.58832253 7.73829306 -3.25149768 4.27828642 0 0 Z " fill="#DFC161" transform="translate(15,48)"/>
<path d="M0 0 C0.66 0.33 1.32 0.66 2 1 C1.39254603 5.85963179 -0.72758967 9.7405518 -3 14 C-3.33 14 -3.66 14 -4 14 C-4 12.35 -4 10.7 -4 9 C-3.34 9 -2.68 9 -2 9 C-2 7.35 -2 5.7 -2 4 C-1.34 4 -0.68 4 0 4 C0 2.68 0 1.36 0 0 Z " fill="#5FD841" transform="translate(159,156)"/>
<path d="M0 0 C0.99 0.495 0.99 0.495 2 1 C2 2.32 2 3.64 2 5 C2.66 5 3.32 5 4 5 C4.33 4.34 4.66 3.68 5 3 C5 5.64 5 8.28 5 11 C4.34 11 3.68 11 3 11 C2.49632243 9.54293274 1.99717444 8.08429904 1.5 6.625 C1.2215625 5.81289062 0.943125 5.00078125 0.65625 4.1640625 C0 2 0 2 0 0 Z " fill="#E9CD7D" transform="translate(66,111)"/>
<path d="M0 0 C-1.06541016 0.41572266 -1.06541016 0.41572266 -2.15234375 0.83984375 C-3.53099609 1.38318359 -3.53099609 1.38318359 -4.9375 1.9375 C-5.85402344 2.29714844 -6.77054688 2.65679687 -7.71484375 3.02734375 C-9.92418533 3.7996218 -9.92418533 3.7996218 -11 5 C-12.66617115 5.04063832 -14.33388095 5.042721 -16 5 C-11.53321948 1.09156705 -5.86504904 -1.93756084 0 0 Z " fill="#DEBF69" transform="translate(43,34)"/>
<path d="M0 0 C0.33 0.66 0.66 1.32 1 2 C-0.125 4.5625 -0.125 4.5625 -2 7 C-4.6875 7.8125 -4.6875 7.8125 -7 8 C-6.02133662 6.85373678 -5.04205413 5.70800212 -4.0625 4.5625 C-3.51722656 3.92441406 -2.97195312 3.28632813 -2.41015625 2.62890625 C-1.63204305 1.73008851 -0.84063472 0.84063472 0 0 Z " fill="#6CDE41" transform="translate(106,128)"/>
<path d="M0 0 C1.35439668 2.70879335 1.06501451 5.00933268 1 8 C-0.65 8 -2.3 8 -4 8 C-2.25 2.25 -2.25 2.25 0 0 Z " fill="#DE316E" transform="translate(13,117)"/>
<path d="M0 0 C1.79068573 2.6860286 2.66055791 4.6626589 3.625 7.6875 C3.88539062 8.49574219 4.14578125 9.30398437 4.4140625 10.13671875 C4.60742188 10.75160156 4.80078125 11.36648437 5 12 C2.20766929 9.44722581 1.51032394 7.77639718 1 4 C0.01 4 -0.98 4 -2 4 C-2 3.01 -2 2.02 -2 1 C-1.34 0.67 -0.68 0.34 0 0 Z " fill="#EAC868" transform="translate(58,76)"/>
<path d="M0 0 C0.33 0.99 0.66 1.98 1 3 C0.67 3.33 0.34 3.66 0 4 C-0.1546875 5.6396875 -0.1546875 5.6396875 -0.3125 7.3125 C-1.07747278 11.41553579 -2.00980062 12.29628679 -5 15 C-4.54901762 13.06077578 -4.08894441 11.12366406 -3.625 9.1875 C-3.24214844 7.56908203 -3.24214844 7.56908203 -2.8515625 5.91796875 C-2 3 -2 3 0 0 Z " fill="#D0F4FD" transform="translate(114,91)"/>
<path d="M0 0 C0.33 0.66 0.66 1.32 1 2 C0.0625 4.625 0.0625 4.625 -1 7 C-1.66 7 -2.32 7 -3 7 C-3.33 7.66 -3.66 8.32 -4 9 C-4 8.34 -4 7.68 -4 7 C-4.66 6.67 -5.32 6.34 -6 6 C-4.02 4.02 -2.04 2.04 0 0 Z " fill="#522E21" transform="translate(95,139)"/>
<path d="M0 0 C2.375 0.3125 2.375 0.3125 5 1 C7 4 7 4 7 7 C6.34 7 5.68 7 5 7 C4.67 5.68 4.34 4.36 4 3 C3.01 3.33 2.02 3.66 1 4 C0.34 3.34 -0.32 2.68 -1 2 C-0.67 1.34 -0.34 0.68 0 0 Z " fill="#37B0EA" transform="translate(91,105)"/>
<path d="M0 0 C1.65 1.65 3.3 3.3 5 5 C4.34 6.32 3.68 7.64 3 9 C2.34 9 1.68 9 1 9 C0.67 6.03 0.34 3.06 0 0 Z " fill="#D14067" transform="translate(79,172)"/>
<path d="M0 0 C3 1 3 1 4.6875 4.0625 C5.120625 5.031875 5.55375 6.00125 6 7 C4.35 7.33 2.7 7.66 1 8 C1.33 6.35 1.66 4.7 2 3 C1.34 3 0.68 3 0 3 C0 2.01 0 1.02 0 0 Z " fill="#E22E69" transform="translate(73,165)"/>
<path d="M0 0 C0.99 0.495 0.99 0.495 2 1 C1.67 1.99 1.34 2.98 1 4 C1.61875 3.505 2.2375 3.01 2.875 2.5 C5 1 5 1 7 1 C6.25 2.9375 6.25 2.9375 5 5 C2.9375 5.8125 2.9375 5.8125 1 6 C0 5 0 5 -0.0625 2.4375 C-0.041875 1.633125 -0.02125 0.82875 0 0 Z " fill="#E0F9FE" transform="translate(83,112)"/>
<path d="M0 0 C1.67542976 0.28604898 3.34385343 0.61781233 5 1 C5 2.65 5 4.3 5 6 C4.34 4.68 3.68 3.36 3 2 C2.34 2 1.68 2 1 2 C0.34 3.32 -0.32 4.64 -1 6 C-1.042721 4.33388095 -1.04063832 2.66617115 -1 1 C-0.67 0.67 -0.34 0.34 0 0 Z " fill="#E9C868" transform="translate(46,82)"/>
<path d="M0 0 C0.66 0 1.32 0 2 0 C2.66 3.3 3.32 6.6 4 10 C0.13892543 7.42595029 0.05680308 5.38979741 -1 1 C-0.67 0.67 -0.34 0.34 0 0 Z " fill="#30AEE0" transform="translate(88,46)"/>
<path d="M0 0 C1.15866723 4.63466892 0.70010994 7.33260039 0 12 C-0.33 11.01 -0.66 10.02 -1 9 C-1.66 9 -2.32 9 -3 9 C-2.01 6.03 -1.02 3.06 0 0 Z " fill="#C1F7FE" transform="translate(98,110)"/>
<path d="M0 0 C0.99 0 1.98 0 3 0 C3 1.98 3 3.96 3 6 C2.67 5.01 2.34 4.02 2 3 C1.34 3 0.68 3 0 3 C0 4.65 0 6.3 0 8 C-0.66 8 -1.32 8 -2 8 C-1.34 5.36 -0.68 2.72 0 0 Z " fill="#FCF0BC" transform="translate(58,108)"/>
<path d="M0 0 C4.455 1.98 4.455 1.98 9 4 C8.34 5.32 7.68 6.64 7 8 C6.34 7.01 5.68 6.02 5 5 C4.01 4.67 3.02 4.34 2 4 C2 3.34 2 2.68 2 2 C1.34 2 0.68 2 0 2 C0 1.34 0 0.68 0 0 Z " fill="#C7BF72" transform="translate(75,39)"/>
<path d="M0 0 C1.80411967 2.75924185 2.0127245 3.88972103 1.625 7.25 C1.41875 8.1575 1.2125 9.065 1 10 C0.34 10 -0.32 10 -1 10 C-1.125 3.375 -1.125 3.375 0 0 Z " fill="#E5CD7B" transform="translate(55,108)"/>
<path d="M0 0 C0.99 0 1.98 0 3 0 C3.99 3.3 4.98 6.6 6 10 C2.62358918 6.62358918 1.72549695 4.35482564 0 0 Z " fill="#DFC064" transform="translate(7,96)"/>
<path d="M0 0 C4.21912747 0.4794463 6.79663178 1.16625119 10 4 C5.74357648 4.3648363 3.46444495 3.47460354 0 1 C0 0.67 0 0.34 0 0 Z " fill="#D3EDDE" transform="translate(70,76)"/>
<path d="M0 0 C3.2542015 2.83430453 4.5206753 4.68607774 5 9 C4.34 9 3.68 9 3 9 C3 8.01 3 7.02 3 6 C2.34 6 1.68 6 1 6 C0.67 4.02 0.34 2.04 0 0 Z " fill="#39A4E2" transform="translate(154,52)"/>
<path d="M0 0 C4.44870215 -0.39253254 7.14243493 0.84694043 11 3 C8.83032311 3.95465783 7.43671207 4.14401212 5.17578125 3.3984375 C3.4315257 2.64129615 1.71372869 1.82390802 0 1 C0 0.67 0 0.34 0 0 Z " fill="#64D049" transform="translate(94,185)"/>
<path d="M0 0 C0.33 0 0.66 0 1 0 C1.33 2.64 1.66 5.28 2 8 C1.01 8 0.02 8 -1 8 C-1.125 2.25 -1.125 2.25 0 0 Z " fill="#E12F71" transform="translate(8,125)"/>
<path d="M0 0 C0.33 0 0.66 0 1 0 C1 2.97 1 5.94 1 9 C0.01 9 -0.98 9 -2 9 C-2.20140476 5.37471432 -1.85776765 3.13498292 0 0 Z " fill="#E7CE85" transform="translate(64,112)"/>
<path d="M0 0 C0.5534764 2.07553648 1 3.84365964 1 6 C-1.31 6 -3.62 6 -6 6 C-5.38125 5.7525 -4.7625 5.505 -4.125 5.25 C-1.64931313 3.79371361 -1.04874998 2.62187494 0 0 Z " fill="#48BAEE" transform="translate(103,70)"/>
</svg>
