<?xml version="1.0" encoding="UTF-8"?>
<svg version="1.1" xmlns="http://www.w3.org/2000/svg" width="1118" height="223">
<path d="M0 0 C9.55368507 7.89147297 15.29694833 18.14304246 17.625 30.28515625 C18.93936388 45.7081349 15.32518396 58.03385357 5.625 70.28515625 C6.08390625 70.89101562 6.5428125 71.496875 7.015625 72.12109375 C16.32598216 84.83481676 18.84524483 96.74237291 17.625 112.28515625 C15.40394666 124.27349236 7.99527524 134.65133061 -1.375 142.28515625 C-13.78019468 150.44646854 -27.36347695 152.34673063 -41.859375 149.6328125 C-48.93385966 147.49763773 -54.59981847 143.83375055 -60.375 139.28515625 C-63.42558316 140.74747708 -66.25849269 142.42880693 -69.125 144.22265625 C-79.73798136 150.62165972 -90.93115375 152.91695009 -103.24609375 150.7890625 C-116.21852009 147.53215546 -126.61710242 141.21357311 -134.1875 130.03515625 C-141.02348435 118.44577812 -143.26221902 106.57660961 -140.83203125 93.32421875 C-138.58088664 85.23999779 -134.97228212 78.5043586 -129.375 72.28515625 C-130.73703082 69.37300463 -132.33966477 66.92611391 -134.25 64.34765625 C-141.76675047 53.03568373 -143.1537958 39.86328747 -140.71484375 26.73046875 C-137.32490718 14.25667617 -129.47602127 4.06665254 -118.6875 -2.96484375 C-107.53597362 -9.24597457 -93.66796976 -10.89794948 -81.25 -7.65234375 C-75.93422635 -5.82699434 -71.16050555 -2.92247923 -66.35546875 -0.04296875 C-62.98134163 1.46057413 -61.79208647 1.5532376 -58.375 0.28515625 C-56.19526861 -0.99813678 -56.19526861 -0.99813678 -54.125 -2.58984375 C-37.76844639 -13.93873369 -15.68359903 -11.32417759 0 0 Z " fill="#EFC349" transform="translate(145.375,40.71484375)"/>
<path d="M0 0 C9.058743 8.56259277 14.55977537 19.54239583 15.62109375 31.99609375 C15.87895433 46.08741622 12.18074222 57.1744372 3.3125 68.375 C3.77140625 68.98085937 4.2303125 69.58671875 4.703125 70.2109375 C14.01348216 82.92466051 16.53274483 94.83221666 15.3125 110.375 C13.09144666 122.36333611 5.68277524 132.74117436 -3.6875 140.375 C-16.09269468 148.53631229 -29.67597695 150.43657438 -44.171875 147.72265625 C-58.88319987 143.28258022 -67.23214555 133.27684198 -74.3984375 120.26953125 C-77.75612543 112.72999562 -78.00528923 104.51393519 -77.6875 96.375 C-74.80180871 97.67234861 -73.56736927 98.51515252 -71.4375 101 C-68.47774461 103.55615238 -66.68878648 104.2559631 -62.76171875 103.97241211 C-60.28531104 103.25916238 -59.08601274 102.30382829 -57.1875 100.56640625 C-56.49358154 99.93202637 -55.79966309 99.29764648 -55.0847168 98.64404297 C-50.72031766 94.51299851 -46.37819622 90.36731372 -42.10473633 86.14233398 C-41.03485609 85.08905618 -39.95963257 84.04117851 -38.87915039 82.9987793 C-31.62458865 75.99698975 -25.00408971 69.32593944 -23.05859375 59.0546875 C-23.21545742 52.42950421 -24.08294531 47.99386466 -27.6875 42.375 C-28.6775 41.88 -28.6775 41.88 -29.6875 41.375 C-29.955625 42.096875 -30.22375 42.81875 -30.5 43.5625 C-31.6875 46.375 -31.6875 46.375 -33.125 48.67578125 C-38.3314987 57.67000775 -39.28805941 67.18217226 -38.6875 77.375 C-39.3475 77.375 -40.0075 77.375 -40.6875 77.375 C-41.3475 73.745 -42.0075 70.115 -42.6875 66.375 C-43.3475 66.375 -44.0075 66.375 -44.6875 66.375 C-44.873125 67.921875 -44.873125 67.921875 -45.0625 69.5 C-45.62639814 72.99616846 -46.47432059 76.05897627 -47.6875 79.375 C-48.3475 79.375 -49.0075 79.375 -49.6875 79.375 C-49.6875 76.075 -49.6875 72.775 -49.6875 69.375 C-51.3375 73.005 -52.9875 76.635 -54.6875 80.375 C-55.0175 80.375 -55.3475 80.375 -55.6875 80.375 C-54.90845672 69.81691344 -54.90845672 69.81691344 -52.6875 65.375 C-53.23019531 65.86871094 -53.77289063 66.36242187 -54.33203125 66.87109375 C-55.04746094 67.51175781 -55.76289062 68.15242188 -56.5 68.8125 C-57.20769531 69.45058594 -57.91539063 70.08867188 -58.64453125 70.74609375 C-60.6875 72.375 -60.6875 72.375 -63.6875 73.375 C-62.90938341 68.69549331 -60.07477412 65.61386548 -57.28125 61.91015625 C-55.65038947 59.31596879 -55.07573182 57.38918869 -54.6875 54.375 C-55.25339844 54.19324219 -55.81929687 54.01148437 -56.40234375 53.82421875 C-57.13582031 53.57285156 -57.86929688 53.32148437 -58.625 53.0625 C-59.35589844 52.81886719 -60.08679688 52.57523437 -60.83984375 52.32421875 C-62.6875 51.375 -62.6875 51.375 -63.6875 48.375 C-54.2825 47.385 -54.2825 47.385 -44.6875 46.375 C-44.0275 44.395 -43.3675 42.415 -42.6875 40.375 C-41.71745879 38.36029902 -40.72505118 36.35577953 -39.6875 34.375 C-51.12013472 33.44681259 -51.12013472 33.44681259 -61.07421875 38.37890625 C-62.6875 39.375 -62.6875 39.375 -64.67578125 39.15234375 C-67.28905844 38.14255315 -69.5304055 36.78120387 -71.90625 35.3125 C-73.81264961 34.30913179 -75.58598311 33.81742461 -77.6875 33.375 C-76.9488635 20.94553067 -72.53236211 9.46555272 -63.6875 0.375 C-44.75672204 -15.18162429 -19.12340917 -15.7961944 0 0 Z " fill="#53E427" transform="translate(147.6875,42.625)"/>
<path d="M0 0 C9.058743 8.56259277 14.55977537 19.54239583 15.62109375 31.99609375 C15.87051085 45.62600462 12.52463405 57.83631865 3.3125 68.375 C1.8275 68.87 1.8275 68.87 0.3125 69.375 C-0.285625 68.67375 -0.88375 67.9725 -1.5 67.25 C-7.13060562 61.61939438 -14.99060115 58.08542197 -22.6875 56.375 C-22.955625 55.17875 -23.22375 53.9825 -23.5 52.75 C-24.44089291 48.99310137 -25.71999939 45.73614687 -27.6875 42.375 C-28.6775 41.88 -28.6775 41.88 -29.6875 41.375 C-29.955625 42.096875 -30.22375 42.81875 -30.5 43.5625 C-31.6875 46.375 -31.6875 46.375 -33.125 48.67578125 C-38.3314987 57.67000775 -39.28805941 67.18217226 -38.6875 77.375 C-39.3475 77.375 -40.0075 77.375 -40.6875 77.375 C-41.3475 73.745 -42.0075 70.115 -42.6875 66.375 C-43.3475 66.375 -44.0075 66.375 -44.6875 66.375 C-44.873125 67.921875 -44.873125 67.921875 -45.0625 69.5 C-45.62639814 72.99616846 -46.47432059 76.05897627 -47.6875 79.375 C-48.3475 79.375 -49.0075 79.375 -49.6875 79.375 C-49.6875 76.075 -49.6875 72.775 -49.6875 69.375 C-51.3375 73.005 -52.9875 76.635 -54.6875 80.375 C-55.0175 80.375 -55.3475 80.375 -55.6875 80.375 C-54.90845672 69.81691344 -54.90845672 69.81691344 -52.6875 65.375 C-53.23019531 65.86871094 -53.77289063 66.36242187 -54.33203125 66.87109375 C-55.04746094 67.51175781 -55.76289062 68.15242188 -56.5 68.8125 C-57.20769531 69.45058594 -57.91539063 70.08867188 -58.64453125 70.74609375 C-60.6875 72.375 -60.6875 72.375 -63.6875 73.375 C-62.90938341 68.69549331 -60.07477412 65.61386548 -57.28125 61.91015625 C-55.65038947 59.31596879 -55.07573182 57.38918869 -54.6875 54.375 C-55.25339844 54.19324219 -55.81929687 54.01148437 -56.40234375 53.82421875 C-57.13582031 53.57285156 -57.86929688 53.32148437 -58.625 53.0625 C-59.35589844 52.81886719 -60.08679688 52.57523437 -60.83984375 52.32421875 C-62.6875 51.375 -62.6875 51.375 -63.6875 48.375 C-54.2825 47.385 -54.2825 47.385 -44.6875 46.375 C-44.0275 44.395 -43.3675 42.415 -42.6875 40.375 C-41.71745879 38.36029902 -40.72505118 36.35577953 -39.6875 34.375 C-51.12013472 33.44681259 -51.12013472 33.44681259 -61.07421875 38.37890625 C-62.6875 39.375 -62.6875 39.375 -64.67578125 39.15234375 C-67.28905844 38.14255315 -69.5304055 36.78120387 -71.90625 35.3125 C-73.81264961 34.30913179 -75.58598311 33.81742461 -77.6875 33.375 C-76.9488635 20.94553067 -72.53236211 9.46555272 -63.6875 0.375 C-44.75672204 -15.18162429 -19.12340917 -15.7961944 0 0 Z " fill="#28B1F2" transform="translate(147.6875,42.625)"/>
<path d="M0 0 C1.010625 -0.020625 2.02125 -0.04125 3.0625 -0.0625 C4.031875 -0.06765625 5.00125 -0.0728125 6 -0.078125 C6.886875 -0.0874707 7.77375 -0.09681641 8.6875 -0.10644531 C11.53214301 0.33202373 12.16084682 1.0929191 14 3.25 C15.15644506 5.94721547 16.19635581 8.60415254 17.1796875 11.36328125 C17.47432892 12.16928268 17.76897034 12.97528412 18.07254028 13.80570984 C19.01456103 16.38852385 19.9448806 18.97537941 20.875 21.5625 C21.4927318 23.26134344 22.11121403 24.95991422 22.73046875 26.65820312 C26.19427146 36.17415603 29.60577725 45.70903051 33 55.25 C36.19728484 47.99968644 38.96857178 40.65206979 41.59375 33.1796875 C42.23820503 31.35934801 42.88273741 29.53903591 43.52734375 27.71875 C44.52384488 24.90184159 45.51434488 22.08341756 46.48876953 19.25878906 C47.4440285 16.49683433 48.42284951 13.74422653 49.40625 10.9921875 C49.83617249 9.71890091 49.83617249 9.71890091 50.27478027 8.41989136 C52.37089199 2.64427794 52.37089199 2.64427794 55.44091797 0.72021484 C57.86396891 0.27499484 60.07674894 -0.0082259 62.5390625 -0.015625 C63.36664063 -0.01820312 64.19421875 -0.02078125 65.046875 -0.0234375 C66.32304687 -0.01183594 66.32304687 -0.01183594 67.625 0 C68.48351562 -0.00773437 69.34203125 -0.01546875 70.2265625 -0.0234375 C71.0515625 -0.02085938 71.8765625 -0.01828125 72.7265625 -0.015625 C73.47502441 -0.01336914 74.22348633 -0.01111328 74.99462891 -0.00878906 C77 0.25 77 0.25 80 2.25 C80.29213527 4.6939219 80.38905639 6.88472874 80.35644531 9.33007812 C80.35848969 10.05867538 80.36053406 10.78727264 80.36264038 11.53794861 C80.36565491 13.95263553 80.34715168 16.36664394 80.328125 18.78125 C80.32506839 20.45511709 80.32319152 22.12898673 80.32244873 23.80285645 C80.31784143 27.31349396 80.30339954 30.82390263 80.28125 34.33447266 C80.25296728 38.84068329 80.24203897 43.3467135 80.2375679 47.85300446 C80.23341611 51.31017879 80.22360065 54.76731642 80.21169281 58.22447205 C80.20598444 59.88630376 80.20122761 61.54813902 80.19742584 63.2099762 C80.19057086 65.5300215 80.17694206 67.84992249 80.16113281 70.16992188 C80.16001495 70.86089462 80.15889709 71.55186737 80.15774536 72.26377869 C80.11469365 77.02061269 80.11469365 77.02061269 79 79.25 C76.35409986 79.27684679 73.70846904 79.29676357 71.0625 79.3125 C70.30775391 79.32087891 69.55300781 79.32925781 68.77539062 79.33789062 C66.85005687 79.34652441 64.92464419 79.30224333 63 79.25 C62 78.25 62 78.25 61.87974548 76.11766052 C61.88196609 75.17834183 61.88418671 74.23902313 61.88647461 73.27124023 C61.88658791 71.67970375 61.88658791 71.67970375 61.88670349 70.05601501 C61.89186478 68.901866 61.89702606 67.74771698 61.90234375 66.55859375 C61.9037587 65.38361832 61.90517365 64.20864288 61.90663147 62.99806213 C61.91225008 59.22784936 61.92480574 55.45769496 61.9375 51.6875 C61.9425126 49.13867273 61.94707592 46.58984453 61.95117188 44.04101562 C61.96222556 37.77732367 61.97898179 31.51366601 62 25.25 C59.26870354 31.24493081 56.76442448 37.2883926 54.43359375 43.44921875 C53.77671367 45.16992988 53.11981199 46.89063276 52.46289062 48.61132812 C51.44611584 51.28359242 50.43037993 53.95624822 49.4152832 56.62915039 C48.42396009 59.23682859 47.42892314 61.84306761 46.43359375 64.44921875 C46.13351913 65.24309494 45.83344452 66.03697113 45.52427673 66.85490417 C45.23710281 67.60621109 44.94992889 68.35751801 44.65405273 69.1315918 C44.406306 69.78395309 44.15855927 70.43631439 43.90330505 71.10844421 C42.73364136 73.88148311 41.34594635 76.5581073 40 79.25 C35.05 79.25 30.1 79.25 25 79.25 C21.91034795 73.34222896 19.44612634 67.39771886 17.1796875 61.1328125 C16.4726771 59.20832568 15.76564523 57.28384673 15.05859375 55.359375 C13.95988824 52.35114401 12.86306646 49.34223403 11.76708984 46.33300781 C10.70084219 43.41041872 9.62803313 40.4903007 8.5546875 37.5703125 C8.22757782 36.665159 7.90046814 35.76000549 7.56344604 34.8274231 C7.25617584 33.99250336 6.94890564 33.15758362 6.63232422 32.29736328 C6.36459198 31.56204376 6.09685974 30.82672424 5.8210144 30.06912231 C5.04128795 28.05553815 5.04128795 28.05553815 3 26.25 C3.01474869 26.82549591 3.02949738 27.40099182 3.04469299 27.993927 C3.19739153 33.99612264 3.3420842 39.99847377 3.48217773 46.00097656 C3.53547136 48.23963295 3.59079033 50.47824209 3.64819336 52.71679688 C3.73045772 55.93869848 3.80538208 59.16070103 3.87890625 62.3828125 C3.90594131 63.37991241 3.93297638 64.37701233 3.96083069 65.40432739 C4.06239146 70.15745296 4.0226112 74.57422219 3 79.25 C0.35409986 79.27684679 -2.29153096 79.29676357 -4.9375 79.3125 C-5.69224609 79.32087891 -6.44699219 79.32925781 -7.22460938 79.33789062 C-9.14994313 79.34652441 -11.07535581 79.30224333 -13 79.25 C-14.68503699 77.56496301 -14.11965983 75.48740116 -14.12442017 73.23905945 C-14.12082489 72.52264786 -14.11722961 71.80623627 -14.11352539 71.06811523 C-14.11367142 70.31694427 -14.11381744 69.56577332 -14.1139679 68.7918396 C-14.11326863 66.29739541 -14.10547564 63.80302497 -14.09765625 61.30859375 C-14.09579212 59.58366436 -14.09436819 57.85873443 -14.09336853 56.13380432 C-14.08954297 51.58487497 -14.07971238 47.03597733 -14.06866455 42.48706055 C-14.05845124 37.84879994 -14.05387108 33.21053423 -14.04882812 28.57226562 C-14.03809014 19.46482978 -14.02101327 10.35741752 -14 1.25 C-9.4025367 -0.28248777 -4.81559361 0.02456936 0 0 Z " fill="#FEFEFE" transform="translate(260,68.75)"/>
<path d="M0 0 C0.18433594 0.75023438 0.36867187 1.50046875 0.55859375 2.2734375 C2.99642192 10.87626224 6.68362494 15.81341346 13 22 C14.28547569 23.29396404 15.5692031 24.5896663 16.8515625 25.88671875 C20.06378449 29.12662237 23.2943725 32.34707325 26.53881836 35.5546875 C27.6961713 36.69947103 28.8489146 37.8489146 30 39 C29.34 39 28.68 39 28 39 C29.53369009 53.92334495 31.54495305 65.6224489 42 77 C39.24273086 83.66340042 32.16832872 86.66824448 25.8125 89.3125 C12.64570881 94.17191298 -0.52625604 92.56748181 -13.125 86.8125 C-24.5113855 80.73134008 -31.80434168 71.2517926 -36.4375 59.3125 C-39.60096342 48.8267096 -39.24627044 37.11450684 -35 27 C-34.70996094 26.29488281 -34.41992188 25.58976562 -34.12109375 24.86328125 C-29.08506153 13.80086738 -19.29954324 6.27156491 -8.40234375 1.234375 C-5.2795796 0.10143186 -3.26820852 -0.29710987 0 0 Z " fill="#F82672" transform="translate(42,100)"/>
<path d="M0 0 C0.92692657 -0.00807175 1.85385315 -0.01614349 2.80886841 -0.02445984 C4.78108844 -0.03832832 6.75333275 -0.04903803 8.72558594 -0.05688477 C11.71076962 -0.07394983 14.6948026 -0.11779166 17.6796875 -0.16210938 C30.33331016 -0.26647203 41.65484126 -0.0482936 51.28515625 9.265625 C55.39178007 14.33615074 56.15003538 19.53089268 55.8203125 25.92578125 C55.00762757 32.11601967 52.95757937 35.61455065 48.0078125 39.48828125 C45.00206447 41.17150015 42.18819302 42.29388682 38.8828125 43.23828125 C39.7696875 43.63015625 40.6565625 44.02203125 41.5703125 44.42578125 C48.49418173 48.21431347 52.17845677 53.68034831 54.45898438 61.1171875 C55.06831154 63.25482706 55.64088743 65.398265 56.1953125 67.55078125 C56.37908447 68.2569458 56.56285645 68.96311035 56.75219727 69.69067383 C57.56729442 73.05058247 57.99723701 74.89500771 56.8828125 78.23828125 C50.9428125 78.23828125 45.0028125 78.23828125 38.8828125 78.23828125 C36.85574262 73.50845152 35.41852703 69.90175173 34.3203125 65.05078125 C33.20170301 59.9047387 33.20170301 59.9047387 30.8828125 55.23828125 C26.17847492 52.41145956 20.93176642 52.08630114 15.5625 52.16015625 C14.49499512 52.17143555 13.42749023 52.18271484 12.32763672 52.19433594 C11.52084473 52.20883789 10.71405273 52.22333984 9.8828125 52.23828125 C9.85775635 52.99036865 9.8327002 53.74245605 9.80688477 54.51733398 C9.69130736 57.90367321 9.56840905 61.28970738 9.4453125 64.67578125 C9.40599609 65.85978516 9.36667969 67.04378906 9.32617188 68.26367188 C9.28427734 69.38837891 9.24238281 70.51308594 9.19921875 71.671875 C9.16256104 72.71400146 9.12590332 73.75612793 9.08813477 74.82983398 C8.8828125 77.23828125 8.8828125 77.23828125 7.8828125 78.23828125 C5.03946202 78.338151 2.22584087 78.37706006 -0.6171875 78.36328125 C-1.41511719 78.36714844 -2.21304688 78.37101562 -3.03515625 78.375 C-8.99057983 78.36488892 -8.99057983 78.36488892 -10.1171875 77.23828125 C-10.21744445 74.8706655 -10.25337685 72.53221052 -10.24658203 70.1640625 C-10.24833435 69.4242514 -10.25008667 68.68444031 -10.25189209 67.92221069 C-10.2563106 65.46504402 -10.25337263 63.00794872 -10.25 60.55078125 C-10.25067304 58.85066718 -10.25164307 57.1505532 -10.25289917 55.45043945 C-10.25437614 51.88264044 -10.25222161 48.31486642 -10.24755859 44.74707031 C-10.2418613 40.16339631 -10.24514031 35.57978086 -10.25113106 30.99610901 C-10.25473669 27.48408564 -10.25359807 23.97207627 -10.25100327 20.46005249 C-10.250334 18.76948032 -10.25116239 17.07890689 -10.25348282 15.38833618 C-10.25600939 13.02968968 -10.25216871 10.6711393 -10.24658203 8.3125 C-10.24860626 7.60701019 -10.25063049 6.90152039 -10.25271606 6.1746521 C-10.21884666 -1.50535663 -6.71517236 0.05506086 0 0 Z M8.8828125 14.23828125 C8.8828125 21.82828125 8.8828125 29.41828125 8.8828125 37.23828125 C21.82093201 38.00598669 21.82093201 38.00598669 33.8828125 34.23828125 C36.85059937 29.78660094 36.75953546 25.45287692 35.8828125 20.23828125 C33.87415924 17.14804546 31.26316144 15.62527193 27.6953125 14.625 C23.98108186 14.11429329 20.30953136 14.13267896 16.5703125 14.17578125 C12.765 14.20671875 12.765 14.20671875 8.8828125 14.23828125 Z " fill="#FEFEFE" transform="translate(977.1171875,69.76171875)"/>
<path d="M0 0 C8.20589701 6.75001206 13.18774921 14.58205886 14.75 25.25 C15.99199466 46.31266774 15.99199466 46.31266774 11.75 55.25 C11.18152344 56.50296875 11.18152344 56.50296875 10.6015625 57.78125 C6.43753179 65.77233784 0.14905942 71.1809411 -8.27734375 74.41015625 C-19.64624857 77.55599221 -31.38819123 77.33592597 -42.0234375 71.80859375 C-51.26328105 65.82905536 -56.10433653 57.59424682 -58.8125 47.0625 C-61.24574171 31.42023183 -58.99776122 18.08245207 -50.0625 5.0625 C-37.28282982 -7.71717018 -15.0770902 -10.61926881 0 0 Z M-35.4375 15.375 C-41.18465021 24.49116929 -41.52289848 34.73101827 -39.74609375 45.2265625 C-38.18301513 51.13946564 -35.79276304 56.01651895 -30.453125 59.3828125 C-25.43418295 61.35835352 -19.19891273 61.07758119 -14.05078125 59.6328125 C-9.082557 57.19719714 -7.05467962 53.21772024 -5.25 48.25 C-2.26437834 39.29313501 -3.33201677 26.97601059 -6.96875 18.4296875 C-9.27617164 14.50425678 -12.17520619 12.28739691 -16.25 10.25 C-23.88363773 9.60139026 -29.71226677 9.81334487 -35.4375 15.375 Z " fill="#FEFEFE" transform="translate(542.25,73.75)"/>
<path d="M0 0 C1.61154465 -0.00956978 1.61154465 -0.00956978 3.25564575 -0.01933289 C4.987043 -0.02100212 4.987043 -0.02100212 6.75341797 -0.02270508 C8.5356929 -0.02769768 8.5356929 -0.02769768 10.35397339 -0.03279114 C12.86390801 -0.03785178 15.37384935 -0.04019973 17.88378906 -0.04003906 C21.73757872 -0.04223176 25.59108498 -0.06041385 29.44482422 -0.0793457 C31.88102115 -0.08227847 34.31721945 -0.08426405 36.75341797 -0.08520508 C38.49088791 -0.09598335 38.49088791 -0.09598335 40.26345825 -0.10697937 C41.33151703 -0.10390274 42.39957581 -0.10082611 43.5 -0.09765625 C44.44279816 -0.09908127 45.38559631 -0.10050629 46.35696411 -0.10197449 C48.62060547 0.14526367 48.62060547 0.14526367 50.62060547 2.14526367 C50.85107422 5.14916992 50.85107422 5.14916992 50.80810547 8.70776367 C50.80166016 9.88467773 50.79521484 11.0615918 50.78857422 12.27416992 C50.62060547 15.14526367 50.62060547 15.14526367 49.62060547 16.14526367 C46.59082743 16.2339764 43.58393525 16.26045718 40.55419922 16.24291992 C39.64557632 16.24150497 38.73695343 16.24009003 37.80079651 16.2386322 C34.88653326 16.2330156 31.97234566 16.22046032 29.05810547 16.20776367 C27.08740345 16.20275081 25.11670023 16.19818753 23.14599609 16.1940918 C18.30416988 16.18304078 13.46240052 16.16576505 8.62060547 16.14526367 C8.62060547 21.42526367 8.62060547 26.70526367 8.62060547 32.14526367 C11.13556641 32.13366211 13.65052734 32.12206055 16.24169922 32.11010742 C18.66756056 32.10231695 21.09342054 32.09624013 23.51928711 32.09033203 C25.21004862 32.08529178 26.90080576 32.07845962 28.59155273 32.06982422 C31.01661254 32.0577451 33.44161491 32.05203244 35.86669922 32.04760742 C37.0073307 32.03986549 37.0073307 32.03986549 38.17100525 32.03196716 C39.98793117 32.0317713 41.80473674 32.0832909 43.62060547 32.14526367 C44.62060547 33.14526367 44.62060547 33.14526367 44.71826172 36.08666992 C44.70666016 37.28163086 44.69505859 38.4765918 44.68310547 39.70776367 C44.67408203 40.90530273 44.66505859 42.1028418 44.65576172 43.33666992 C44.64416016 44.26350586 44.63255859 45.1903418 44.62060547 46.14526367 C41.60847517 47.65132882 38.50777925 47.26686698 35.20654297 47.24291992 C34.47690338 47.24150497 33.74726379 47.24009003 32.99551392 47.2386322 C30.66216962 47.23302898 28.32892083 47.22047602 25.99560547 47.20776367 C24.41487769 47.20274908 22.8341484 47.1981861 21.25341797 47.1940918 C17.37574729 47.18390884 13.49828345 47.16433422 9.62060547 47.14526367 C9.29060547 52.42526367 8.96060547 57.70526367 8.62060547 63.14526367 C9.82185059 63.14002686 11.0230957 63.13479004 12.26074219 63.12939453 C16.70734922 63.11132714 21.153953 63.09982527 25.60058594 63.09033203 C27.52702377 63.0852958 29.45345778 63.07846655 31.37988281 63.06982422 C34.14502915 63.05772759 36.91012505 63.05202834 39.67529297 63.04760742 C40.97223587 63.03986549 40.97223587 63.03986549 42.29537964 63.03196716 C48.39286206 63.03139197 48.39286206 63.03139197 50.62060547 64.14526367 C50.64745959 66.45770159 50.66693388 68.77022637 50.68310547 71.08276367 C50.69470703 72.37053711 50.70630859 73.65831055 50.71826172 74.98510742 C50.62060547 78.14526367 50.62060547 78.14526367 49.62060547 79.14526367 C47.77942517 79.2390767 45.93462906 79.26270321 44.09106445 79.25878906 C42.90991562 79.25871353 41.72876678 79.258638 40.51182556 79.25856018 C39.22643387 79.2533989 37.94104218 79.24823761 36.61669922 79.24291992 C34.65447166 79.2407975 34.65447166 79.2407975 32.65260315 79.2386322 C29.16897688 79.23480777 25.68539207 79.22497814 22.20178223 79.21392822 C18.64933839 79.20371249 15.09688787 79.19913424 11.54443359 79.1940918 C4.56980715 79.18335579 -2.4047917 79.16628027 -9.37939453 79.14526367 C-10.86777491 76.16850292 -10.50676308 73.47795153 -10.50878906 70.15698242 C-10.51054138 69.43813873 -10.5122937 68.71929504 -10.51409912 67.97866821 C-10.51850922 65.59667565 -10.5155826 63.21475702 -10.51220703 60.83276367 C-10.51288031 59.18131496 -10.51385054 57.52986634 -10.5151062 55.87841797 C-10.51658203 52.4149481 -10.51443229 48.95150399 -10.50976562 45.48803711 C-10.5040684 41.04237314 -10.50734802 36.59676954 -10.51333809 32.15110779 C-10.51694679 28.74027041 -10.51580369 25.32944742 -10.5132103 21.91860962 C-10.51254188 20.27910352 -10.51336647 18.63959614 -10.51568985 17.00009155 C-10.51822141 14.71120736 -10.51436864 12.42242175 -10.50878906 10.13354492 C-10.50799347 8.8294165 -10.50719788 7.52528809 -10.50637817 6.18164062 C-10.37939453 3.14526367 -10.37939453 3.14526367 -9.37939453 1.14526367 C-6.26989453 0.03582736 -3.27767517 0.01322954 0 0 Z " fill="#FEFEFE" transform="translate(184.37939453125,68.854736328125)"/>
<path d="M0 0 C1.56908867 0.03185898 1.56908867 0.03185898 3.1698761 0.06436157 C5.35379488 0.11019298 7.5376516 0.1590777 9.72143555 0.2109375 C13.0804397 0.28975845 16.43953898 0.35645174 19.79882812 0.421875 C21.92840098 0.46803772 24.05795908 0.51488716 26.1875 0.5625 C27.6982032 0.59227432 27.6982032 0.59227432 29.23942566 0.62265015 C30.16161392 0.64582306 31.08380219 0.66899597 32.03393555 0.69287109 C33.25538521 0.72071182 33.25538521 0.72071182 34.50151062 0.74911499 C36.36328125 0.9140625 36.36328125 0.9140625 37.36328125 1.9140625 C37.48843053 3.89025697 37.53900885 5.87144423 37.55078125 7.8515625 C37.56496094 8.93308594 37.57914063 10.01460937 37.59375 11.12890625 C37.36328125 13.9140625 37.36328125 13.9140625 35.36328125 15.9140625 C32.35019174 16.08952732 29.43017671 16.14533695 26.41796875 16.109375 C25.53295685 16.1065451 24.64794495 16.10371521 23.7361145 16.10079956 C20.90336713 16.0895849 18.07093341 16.0644782 15.23828125 16.0390625 C13.32031706 16.02903435 11.40234792 16.01990822 9.484375 16.01171875 C4.77722249 15.98964139 0.07030509 15.95510295 -4.63671875 15.9140625 C-4.63671875 21.1940625 -4.63671875 26.4740625 -4.63671875 31.9140625 C-2.12175781 31.90246094 0.39320313 31.89085938 2.984375 31.87890625 C5.41023635 31.87111577 7.83609632 31.86503896 10.26196289 31.85913086 C11.95272441 31.8540906 13.64348154 31.84725845 15.33422852 31.83862305 C17.75928832 31.82654393 20.18429069 31.82083127 22.609375 31.81640625 C23.75000648 31.80866432 23.75000648 31.80866432 24.91368103 31.80076599 C26.73060695 31.80057012 28.54741252 31.85208973 30.36328125 31.9140625 C31.36328125 32.9140625 31.36328125 32.9140625 31.4609375 35.85546875 C31.44933594 37.05042969 31.43773437 38.24539062 31.42578125 39.4765625 C31.41675781 40.67410156 31.40773438 41.87164062 31.3984375 43.10546875 C31.38683594 44.03230469 31.37523437 44.95914063 31.36328125 45.9140625 C28.35115096 47.42012765 25.25045503 47.03566581 21.94921875 47.01171875 C21.21957916 47.0103038 20.48993958 47.00888885 19.7381897 47.00743103 C17.4048454 47.00182781 15.07159661 46.98927485 12.73828125 46.9765625 C11.15755347 46.97154791 9.57682418 46.96698493 7.99609375 46.96289062 C4.11842307 46.95270767 0.24095923 46.93313305 -3.63671875 46.9140625 C-3.96671875 52.1940625 -4.29671875 57.4740625 -4.63671875 62.9140625 C-3.43547363 62.90358887 -2.23422852 62.89311523 -0.99658203 62.88232422 C3.45000237 62.84618963 7.89657373 62.82318593 12.34326172 62.80419922 C14.26971619 62.79412668 16.19615533 62.78046807 18.12255859 62.76318359 C20.88773377 62.73899009 23.65270725 62.72759214 26.41796875 62.71875 C27.28259735 62.70842743 28.14722595 62.69810486 29.03805542 62.68746948 C31.14781646 62.68707144 33.25708843 62.79141007 35.36328125 62.9140625 C37.36328125 64.9140625 37.36328125 64.9140625 37.59375 67.91796875 C37.57957031 69.09230469 37.56539062 70.26664062 37.55078125 71.4765625 C37.54433594 72.65347656 37.53789063 73.83039063 37.53125 75.04296875 C37.36328125 77.9140625 37.36328125 77.9140625 36.36328125 78.9140625 C34.52755494 79.01311402 32.6880055 79.04205457 30.84960938 79.04345703 C29.67168823 79.04660919 28.49376709 79.04976135 27.28015137 79.05300903 C25.99789673 79.0509848 24.71564209 79.04896057 23.39453125 79.046875 C22.08875122 79.04783173 20.78297119 79.04878845 19.43762207 79.04977417 C16.67015403 79.05125083 13.90271821 79.04909761 11.13525391 79.04443359 C7.58065476 79.03873631 4.02613111 79.04201548 0.47153473 79.04800606 C-2.90830589 79.05247997 -6.28812598 79.04935136 -9.66796875 79.046875 C-10.95022339 79.04889923 -12.23247803 79.05092346 -13.55358887 79.05300903 C-15.32047058 79.04828079 -15.32047058 79.04828079 -17.12304688 79.04345703 C-18.16593872 79.04266144 -19.20883057 79.04186584 -20.2833252 79.04104614 C-22.63671875 78.9140625 -22.63671875 78.9140625 -23.63671875 77.9140625 C-23.73168583 75.51057964 -23.76230737 73.13595268 -23.75024414 70.73217773 C-23.75039017 69.98100677 -23.75053619 69.22983582 -23.75068665 68.4559021 C-23.74998738 65.96145791 -23.74219439 63.46708747 -23.734375 60.97265625 C-23.73251087 59.24772686 -23.73108694 57.52279693 -23.73008728 55.79786682 C-23.72626172 51.24893747 -23.71643113 46.70003983 -23.7053833 42.15112305 C-23.69516999 37.51286244 -23.69058983 32.87459673 -23.68554688 28.23632812 C-23.67480889 19.12889228 -23.65773202 10.02148002 -23.63671875 0.9140625 C-15.71797604 0.12153934 -7.95342745 -0.19299126 0 0 Z " fill="#FEFEFE" transform="translate(662.63671875,69.0859375)"/>
<path d="M0 0 C1.62100113 0.03014442 1.62100113 0.03014442 3.27474976 0.06089783 C5.00007431 0.10145042 5.00007431 0.10145042 6.76025391 0.14282227 C7.95035065 0.16643326 9.14044739 0.19004425 10.36660767 0.21437073 C14.15680595 0.29076456 17.94678732 0.37489352 21.73681641 0.45922852 C24.31102465 0.51247349 26.88524338 0.56521371 29.45947266 0.61743164 C35.76039051 0.7463469 42.06112504 0.88219829 48.36181641 1.02172852 C48.36181641 5.97172852 48.36181641 10.92172852 48.36181641 16.02172852 C34.83181641 16.35172852 21.30181641 16.68172852 7.36181641 17.02172852 C7.03181641 21.97172852 6.70181641 26.92172852 6.36181641 32.02172852 C17.91181641 32.02172852 29.46181641 32.02172852 41.36181641 32.02172852 C43.18291049 35.66391668 43.63729109 36.83826277 43.61181641 40.64672852 C43.61955078 41.81075195 43.61955078 41.81075195 43.62744141 42.99829102 C43.36181641 45.02172852 43.36181641 45.02172852 41.36181641 47.02172852 C38.78078334 47.19675847 36.30873478 47.2533513 33.72900391 47.21704102 C32.60125046 47.21279617 32.60125046 47.21279617 31.45071411 47.20846558 C29.04592063 47.19725726 26.6414976 47.17215204 24.23681641 47.14672852 C22.60791553 47.13669953 20.97900882 47.12757354 19.35009766 47.11938477 C15.35374586 47.099016 11.35819651 47.05987 7.36181641 47.02172852 C7.36181641 52.30172852 7.36181641 57.58172852 7.36181641 63.02172852 C20.56181641 63.02172852 33.76181641 63.02172852 47.36181641 63.02172852 C49.36181641 70.02172852 49.36181641 70.02172852 48.36181641 79.02172852 C28.56181641 79.02172852 8.76181641 79.02172852 -11.63818359 79.02172852 C-11.63818359 53.28172852 -11.63818359 27.54172852 -11.63818359 1.02172852 C-7.39231574 0.31408387 -4.17888691 -0.08828634 0 0 Z " fill="#FEFEFE" transform="translate(1057.63818359375,68.978271484375)"/>
<path d="M0 0 C1.7114344 0.03014442 1.7114344 0.03014442 3.45744324 0.06089783 C4.6887648 0.08793289 5.92008636 0.11496796 7.1887207 0.14282227 C8.44965042 0.16643326 9.71058014 0.19004425 11.00971985 0.21437073 C14.35858828 0.27802057 17.7073013 0.34622509 21.05603027 0.41662598 C24.47453582 0.48737605 27.89315395 0.55215304 31.31176758 0.61743164 C38.0169633 0.74668486 44.72201798 0.88194292 51.42700195 1.02172852 C51.45385607 3.33416644 51.47333036 5.64669122 51.48950195 7.95922852 C51.50110352 9.24700195 51.51270508 10.53477539 51.5246582 11.86157227 C51.42700195 15.02172852 51.42700195 15.02172852 50.42700195 16.02172852 C47.39722391 16.11044124 44.39033173 16.13692202 41.3605957 16.11938477 C40.45197281 16.11796982 39.54334991 16.11655487 38.60719299 16.11509705 C35.69292975 16.10948045 32.77874214 16.09692516 29.86450195 16.08422852 C27.89379993 16.07921565 25.92309672 16.07465238 23.95239258 16.07055664 C19.11056637 16.05950563 14.268797 16.0422299 9.42700195 16.02172852 C9.42700195 21.30172852 9.42700195 26.58172852 9.42700195 32.02172852 C20.97700195 32.02172852 32.52700195 32.02172852 44.42700195 32.02172852 C46.22893448 35.62559357 46.72054465 36.86790685 46.73950195 40.64672852 C46.75625977 41.42274414 46.77301758 42.19875977 46.7902832 42.99829102 C46.67040039 43.66602539 46.55051758 44.33375977 46.42700195 45.02172852 C42.78395332 47.45042761 40.11977856 47.27848527 35.9152832 47.21704102 C35.18705856 47.21421112 34.45883392 47.21138123 33.70854187 47.20846558 C31.38536058 47.19728108 29.06256649 47.17218018 26.73950195 47.14672852 C25.16333565 47.13669645 23.5871633 47.127571 22.01098633 47.11938477 C18.14938945 47.09904987 14.28862851 47.05989945 10.42700195 47.02172852 C10.09700195 52.30172852 9.76700195 57.58172852 9.42700195 63.02172852 C11.28216431 63.01387329 11.28216431 63.01387329 13.17480469 63.00585938 C17.7462492 62.9878129 22.31769054 62.97629781 26.88916016 62.96679688 C28.87093637 62.96175584 30.85270884 62.95492313 32.83447266 62.94628906 C35.67652304 62.93421337 38.51852443 62.92849806 41.3605957 62.92407227 C42.25225937 62.91891098 43.14392303 62.91374969 44.06260681 62.90843201 C46.18440797 62.90823675 48.30610975 62.95962822 50.42700195 63.02172852 C54.20559664 66.8003232 51.42700195 73.67798867 51.42700195 79.02172852 C31.62700195 79.02172852 11.82700195 79.02172852 -8.57299805 79.02172852 C-8.57299805 53.28172852 -8.57299805 27.54172852 -8.57299805 1.02172852 C-5.41368132 -0.03137706 -3.31144034 -0.06579021 0 0 Z " fill="#FEFEFE" transform="translate(719.572998046875,68.978271484375)"/>
<path d="M0 0 C1.35448242 -0.01836914 1.35448242 -0.01836914 2.73632812 -0.03710938 C3.61353516 -0.03904297 4.49074219 -0.04097656 5.39453125 -0.04296875 C6.59299683 -0.04913208 6.59299683 -0.04913208 7.81567383 -0.05541992 C10.7683992 0.24699508 12.61975778 0.64969661 15.1875 2.1875 C16.42336922 4.60179636 17.27930326 6.69271205 18.09765625 9.24609375 C18.34690857 9.97026993 18.59616089 10.69444611 18.85296631 11.44056702 C19.67040546 13.8295606 20.46028361 16.22671406 21.25 18.625 C21.81101495 20.28443977 22.37378113 21.94328844 22.93823242 23.6015625 C24.10916437 27.04894419 25.26971646 30.49958982 26.42382812 33.95263672 C28.13940692 39.0688142 29.91448578 44.16289244 31.703125 49.25390625 C32.53527769 51.63331077 33.36656918 54.01301407 34.19747925 56.39285278 C34.73029353 57.91632842 35.26488635 59.43918325 35.80130005 60.96139526 C36.5482688 63.0863073 37.28513525 65.21446559 38.01953125 67.34375 C38.43952393 68.54837891 38.8595166 69.75300781 39.29223633 70.99414062 C40.1875 74.1875 40.1875 74.1875 40.1875 79.1875 C33.9175 79.1875 27.6475 79.1875 21.1875 79.1875 C19.44755826 74.54765536 17.75452124 69.88856371 16.1875 65.1875 C6.6175 65.1875 -2.9525 65.1875 -12.8125 65.1875 C-14.4625 69.8075 -16.1125 74.4275 -17.8125 79.1875 C-24.0825 79.1875 -30.3525 79.1875 -36.8125 79.1875 C-36.12110738 73.65635902 -35.54761438 69.7776159 -33.81884766 64.71484375 C-33.40817047 63.49998291 -32.99749329 62.28512207 -32.57437134 61.03344727 C-32.12530001 59.73056315 -31.6760254 58.42774909 -31.2265625 57.125 C-30.76371702 55.76576017 -30.30151934 54.40629959 -29.8399353 53.04663086 C-28.62813204 49.48325948 -27.40694189 45.92317394 -26.18389893 42.36364746 C-25.19179081 39.4711278 -24.20634425 36.57636081 -23.22126198 33.68144226 C-22.03769969 30.20355355 -20.85136456 26.72661359 -19.6640625 23.25 C-19.44104084 22.59691864 -19.21801918 21.94383728 -18.98823929 21.27096558 C-17.60943809 17.23851761 -16.21638093 13.21127981 -14.8125 9.1875 C-14.36834747 7.89368408 -14.36834747 7.89368408 -13.91522217 6.57373047 C-11.15571011 -1.20940912 -7.48526964 0.00527503 0 0 Z M1.1875 16.1875 C-0.08337673 20.04454768 -1.34650301 23.90404178 -2.6027832 27.76586914 C-3.0303945 29.07676956 -3.46004523 30.38700669 -3.8918457 31.6965332 C-4.51541221 33.5888593 -5.13082132 35.48386718 -5.74609375 37.37890625 C-6.11790771 38.51529541 -6.48972168 39.65168457 -6.87280273 40.82250977 C-8.0471317 44.74614566 -8.0471317 44.74614566 -8.8125 51.1875 C-1.8825 51.1875 5.0475 51.1875 12.1875 51.1875 C10.53280518 42.81353203 10.53280518 42.81353203 8.2421875 34.7421875 C7.88769531 33.64648438 7.53320312 32.55078125 7.16796875 31.421875 C6.62076172 29.75898437 6.62076172 29.75898437 6.0625 28.0625 C5.68996094 26.91523437 5.31742188 25.76796875 4.93359375 24.5859375 C4.02322012 21.78478787 3.10777251 18.98540983 2.1875 16.1875 C1.8575 16.1875 1.5275 16.1875 1.1875 16.1875 Z " fill="#FEFEFE" transform="translate(917.8125,68.8125)"/>
<path d="M0 0 C1.79571064 0.04344737 3.59166223 0.07748184 5.38769531 0.10449219 C32.80732338 0.54317006 32.80732338 0.54317006 42.12939453 9.35107422 C48.23970534 16.64348876 49.22605443 24.85414976 48.56298828 34.06201172 C47.32371106 41.15658957 43.93692026 46.32220371 38.56298828 51.06201172 C30.43682498 56.53904578 21.59645704 57.36714994 12.06298828 57.18701172 C11.14517578 57.17798828 10.22736328 57.16896484 9.28173828 57.15966797 C7.04187272 57.13633604 4.80257645 57.10360407 2.56298828 57.06201172 C2.57084351 58.00838501 2.57084351 58.00838501 2.57885742 58.97387695 C2.59956654 61.81574519 2.61262894 64.65759759 2.62548828 67.49951172 C2.63386719 68.49273437 2.64224609 69.48595703 2.65087891 70.50927734 C2.65571289 71.92563477 2.65571289 71.92563477 2.66064453 73.37060547 C2.66849976 74.68242798 2.66849976 74.68242798 2.67651367 76.02075195 C2.56298828 78.06201172 2.56298828 78.06201172 1.56298828 79.06201172 C-1.2803622 79.16188147 -4.09398335 79.20079053 -6.93701172 79.18701172 C-7.73494141 79.19087891 -8.53287109 79.19474609 -9.35498047 79.19873047 C-15.31040404 79.18861939 -15.31040404 79.18861939 -16.43701172 78.06201172 C-16.54788464 75.69991506 -16.59439179 73.3667726 -16.59814453 71.00366211 C-16.60559189 69.8963549 -16.60559189 69.8963549 -16.6131897 68.76667786 C-16.62784566 66.3143319 -16.63461863 63.8620506 -16.64013672 61.40966797 C-16.64588491 59.71194963 -16.65164268 58.01423133 -16.65740967 56.31651306 C-16.66792914 52.75291642 -16.67376574 49.18934241 -16.67724609 45.62573242 C-16.68273588 41.05101519 -16.70677008 36.47659485 -16.73521805 31.90197086 C-16.75380609 28.39419165 -16.75904795 24.88648452 -16.76058197 21.3786602 C-16.76361723 19.69168917 -16.77167495 18.00471966 -16.78476715 16.31779671 C-16.80174984 13.96155068 -16.79996703 11.6060376 -16.79345703 9.24975586 C-16.80267181 8.54786133 -16.8118866 7.8459668 -16.82138062 7.12280273 C-16.80450439 5.18104553 -16.80450439 5.18104553 -16.43701172 2.06201172 C-11.5190851 -1.21660603 -5.74383774 -0.14268207 0 0 Z M2.56298828 16.06201172 C2.47550621 17.98868679 2.45601494 19.91853033 2.46533203 21.84716797 C2.46855469 23.01699219 2.47177734 24.18681641 2.47509766 25.39208984 C2.48347656 26.62378906 2.49185547 27.85548828 2.50048828 29.12451172 C2.505 30.36007813 2.50951172 31.59564453 2.51416016 32.86865234 C2.5259922 35.93315289 2.54247655 38.99755893 2.56298828 42.06201172 C5.43856532 42.14339597 8.3118109 42.20269023 11.18798828 42.24951172 C12.40035156 42.2872168 12.40035156 42.2872168 13.63720703 42.32568359 C18.71131005 42.3875629 22.1826844 41.92137675 26.56298828 39.06201172 C29.92614451 34.353593 30.32941819 29.66523582 29.56298828 24.06201172 C27.95406671 20.3614921 26.07218166 18.06726508 22.56298828 16.06201172 C18.25771913 15.15629227 14.14341778 14.92697074 9.75048828 14.93701172 C8.60966797 14.93443359 7.46884766 14.93185547 6.29345703 14.92919922 C3.64973363 14.75129368 3.64973363 14.75129368 2.56298828 16.06201172 Z " fill="#FEFEFE" transform="translate(370.43701171875,68.93798828125)"/>
<path d="M0 0 C5.52375889 4.26518091 8.63457658 9.79326141 9.6640625 16.6796875 C9.7465625 17.6696875 9.8290625 18.6596875 9.9140625 19.6796875 C5.02418301 23.04147965 -0.13504431 25.04854915 -6.0859375 24.3046875 C-6.7459375 24.0984375 -7.4059375 23.8921875 -8.0859375 23.6796875 C-8.3334375 22.6071875 -8.5809375 21.5346875 -8.8359375 20.4296875 C-10.09523384 16.65179848 -11.05390802 15.14321146 -14.0859375 12.6796875 C-18.03244117 10.70643566 -22.78460463 11.23618849 -27.0859375 11.6796875 C-32.11704433 14.19524091 -35.00705186 17.06638673 -37.140625 22.234375 C-39.70315315 31.57383711 -39.65531571 44.09201636 -35.36328125 52.859375 C-32.68934701 56.66993573 -29.38130367 58.24789878 -25.0859375 59.6796875 C-19.8717323 60.17900699 -15.44182943 60.26078404 -10.5859375 58.1796875 C-7.36699977 54.96074977 -6.36695598 51.96388838 -5.0859375 47.6796875 C-4.42527031 46.01063355 -3.76155498 44.3427459 -3.0859375 42.6796875 C2.51867781 43.10058746 7.63492797 43.59581861 12.9140625 45.6796875 C11.98183548 55.93418467 9.70058553 63.55550357 1.9140625 70.6796875 C-6.0945675 76.89837025 -16.33433359 77.46079219 -26.0859375 76.6796875 C-33.63348305 75.48255512 -40.05828141 73.44179675 -46.0859375 68.6796875 C-46.70210937 68.19886719 -47.31828125 67.71804687 -47.953125 67.22265625 C-54.22078322 61.6947431 -56.97529129 54.29314099 -58.8984375 46.3046875 C-59.65272208 31.72185236 -59.29864856 18.70623564 -50.0859375 6.6796875 C-37.55842198 -7.09000783 -15.77219637 -9.98315051 0 0 Z " fill="#FEFEFE" transform="translate(865.0859375,73.3203125)"/>
<path d="M0 0 C15.58981671 -0.91346582 15.58981671 -0.91346582 21.38671875 4.00390625 C22.97444996 5.21216952 22.97444996 5.21216952 25.0234375 4.78125 C27.26642625 3.98365611 27.26642625 3.98365611 29.9375 1.9375 C35.10126079 -1.17428598 41.18286434 -0.4962871 47 0 C47.99 0.495 47.99 0.495 49 1 C46.42414861 9.32198142 46.42414861 9.32198142 44 13 C37.99234912 15.8120919 31.51688103 15.19261717 25 15 C27.57404971 18.86107457 29.61020259 18.94319692 34 20 C34.703125 21.66015625 34.703125 21.66015625 35 24 C33.671875 26.62109375 33.671875 26.62109375 31.75 29.4375 C31.12609375 30.36433594 30.5021875 31.29117188 29.859375 32.24609375 C28.93898438 33.60927734 28.93898438 33.60927734 28 35 C26.98897139 36.65999968 25.9852042 38.3245447 25 40 C25.54269531 39.50628906 26.08539063 39.01257813 26.64453125 38.50390625 C27.35996094 37.86324219 28.07539062 37.22257812 28.8125 36.5625 C29.52019531 35.92441406 30.22789063 35.28632812 30.95703125 34.62890625 C33 33 33 33 36 32 C35.855625 32.59167969 35.71125 33.18335938 35.5625 33.79296875 C35.2840625 34.97826172 35.2840625 34.97826172 35 36.1875 C34.7215625 37.35345703 34.7215625 37.35345703 34.4375 38.54296875 C33.85391411 41.40448243 33.85391411 41.40448243 34 46 C35.65 42.04 37.3 38.08 39 34 C40.15866723 38.63466892 39.70010994 41.33260039 39 46 C39.66 45.67 40.32 45.34 41 45 C41.91485573 42.19521805 41.91485573 42.19521805 42.625 38.9375 C43.01558594 37.28041016 43.01558594 37.28041016 43.4140625 35.58984375 C43.60742188 34.73519531 43.80078125 33.88054687 44 33 C44.66 33 45.32 33 46 33 C47.80230168 36.82989106 48.19622241 39.78121808 48 44 C48.66 44 49.32 44 50 44 C49.88140625 43.21238281 49.7628125 42.42476562 49.640625 41.61328125 C48.10218235 28.61344084 51.75002955 18.70578969 59 8 C62 9 62 9 64.1875 12.3125 C66.67007355 17.69140936 67.09737764 23.20639133 66 29 C63.12037478 36.15142487 59.31157522 41.40524458 53.80078125 46.72265625 C53.12452194 47.39421249 52.44826263 48.06576874 51.75151062 48.75767517 C49.616703 50.87136089 47.4648364 52.96668327 45.3125 55.0625 C43.85762589 56.50084329 42.40383956 57.94028772 40.95117188 59.38085938 C38.30479535 61.99343583 35.65811808 64.60557749 32.9934082 67.19946289 C32.46221878 67.7177919 31.93102936 68.23612091 31.38374329 68.77015686 C28.60948583 71.23586097 25.83961981 71.50558362 22.17578125 71.4921875 C18.06264174 70.56174661 15.40522313 67.32221445 13 64 C13 63.34 13 62.68 13 62 C12.43990234 61.76297363 11.87980469 61.52594727 11.30273438 61.28173828 C6.86570677 58.81201872 3.51292992 54.88475076 -0.05419922 51.31640625 C-1.48514928 49.88980558 -2.93127918 48.47996094 -4.37890625 47.0703125 C-10.53298878 40.94219656 -15.30040455 35.97947348 -16.53125 27.21875 C-16.46805954 19.69908533 -16.15452998 14.36162403 -12 8 C-11.34 8 -10.68 8 -10 8 C-4.50070462 16.5008192 -1.86183104 24.89229221 -4 35 C-4.185625 36.299375 -4.37125 37.59875 -4.5625 38.9375 C-4.706875 39.948125 -4.85125 40.95875 -5 42 C-4.34 42 -3.68 42 -3 42 C-2.855625 40.72125 -2.71125 39.4425 -2.5625 38.125 C-2.29357254 35.74307106 -2.07773654 34.15547309 -1 32 C-0.01 32 0.98 32 2 32 C2.66 36.29 3.32 40.58 4 45 C4.33 45 4.66 45 5 45 C5 41.04 5 37.08 5 33 C5.66 33 6.32 33 7 33 C8.485 39.435 8.485 39.435 10 46 C10.66 46 11.32 46 12 46 C11.855625 45.33613281 11.71125 44.67226562 11.5625 43.98828125 C11.376875 43.10527344 11.19125 42.22226563 11 41.3125 C10.814375 40.44238281 10.62875 39.57226562 10.4375 38.67578125 C10.01027953 36.06287036 9.92383799 33.64186962 10 31 C14.03810445 32.34603482 15.47295076 34.65336723 18 38 C18 38.66 18 39.32 18 40 C18.66 40 19.32 40 20 40 C18.02026144 34.9370475 18.02026144 34.9370475 14.875 30.5625 C12.2639474 26.99406145 12.2194208 24.38841598 12 20 C14.04698414 17.95301586 18.30411241 18.29954307 21 18 C21.495 16.515 21.495 16.515 22 15 C21.28714844 15.03480469 20.57429688 15.06960937 19.83984375 15.10546875 C9.06341005 15.41005167 9.06341005 15.41005167 4 12 C1.59723815 8.15987168 0 4.55490438 0 0 Z " fill="#F8FBF8" transform="translate(59,76)"/>
<path d="M0 0 C0.76828125 -0.02900391 1.5365625 -0.05800781 2.328125 -0.08789062 C3.07320312 -0.09626953 3.81828125 -0.10464844 4.5859375 -0.11328125 C5.26446777 -0.12786377 5.94299805 -0.14244629 6.64208984 -0.1574707 C9.6077568 0.54542377 10.71610394 1.96643007 12.625 4.3125 C14.14892578 7.28930664 14.14892578 7.28930664 15.5703125 10.72265625 C15.8262619 11.3313707 16.0822113 11.94008514 16.34591675 12.56724548 C17.15658554 14.49943391 17.95387973 16.43677746 18.75 18.375 C19.55556868 20.31573195 20.36392639 22.25524053 21.17550659 24.19346619 C21.9090551 25.94841376 22.63466844 27.70667189 23.35986328 29.46508789 C24.58094013 32.42957326 24.58094013 32.42957326 26.625 35.3125 C26.93727539 34.60230713 27.24955078 33.89211426 27.57128906 33.16040039 C29.00567755 29.89852027 30.44033695 26.63675937 31.875 23.375 C32.61169922 21.69954102 32.61169922 21.69954102 33.36328125 19.99023438 C34.33070468 17.79095845 35.30006881 15.59253506 36.27148438 13.39501953 C37.12863483 11.44293048 37.97507107 9.48607189 38.80664062 7.52294922 C39.15404297 6.70971191 39.50144531 5.89647461 39.859375 5.05859375 C40.15553711 4.35275146 40.45169922 3.64690918 40.75683594 2.91967773 C41.625 1.3125 41.625 1.3125 43.625 0.3125 C50.0236611 -0.01762819 56.32113439 0.16634262 62.625 1.3125 C62.0132546 5.32816505 60.7298369 8.41221702 58.8515625 12.00390625 C58.27881592 13.1029126 57.70606934 14.20191895 57.1159668 15.33422852 C56.65907974 16.19988937 56.65907974 16.19988937 56.19296265 17.08303833 C55.23663651 18.90039535 54.29460896 20.7246238 53.35473633 22.55053711 C50.51679584 28.03212404 47.63104486 33.4299348 44.28515625 38.625 C35.86734027 51.91253799 35.0015748 63.725031 35.625 79.3125 C32.64577407 79.33933987 29.66678705 79.35926037 26.6875 79.375 C25.41229492 79.38756836 25.41229492 79.38756836 24.11132812 79.40039062 C23.30244141 79.40361328 22.49355469 79.40683594 21.66015625 79.41015625 C20.9112915 79.41539307 20.16242676 79.42062988 19.39086914 79.42602539 C17.625 79.3125 17.625 79.3125 16.625 78.3125 C16.63810338 76.77237828 16.70812807 75.23270054 16.80078125 73.6953125 C17.35457499 56.18713065 12.35395015 44.49284264 3.55126953 29.58837891 C1.0620968 25.35520785 -1.30003084 21.05888356 -3.64916992 16.74682617 C-4.69334349 14.83285299 -5.74900001 12.92508665 -6.81762695 11.0246582 C-7.28773193 10.1812085 -7.75783691 9.33775879 -8.2421875 8.46875 C-8.65581543 7.73462891 -9.06944336 7.00050781 -9.49560547 6.24414062 C-10.375 4.3125 -10.375 4.3125 -10.375 1.3125 C-7.11816597 -0.31591701 -3.57541665 0.04454423 0 0 Z " fill="#FEFEFE" transform="translate(568.375,68.6875)"/>
<path d="M0 0 C0 20.46 0 40.92 0 62 C10.56 62 21.12 62 32 62 C33.03354508 65.10063523 33.13364996 67.31444068 33.125 70.5625 C33.12886719 72.01849609 33.12886719 72.01849609 33.1328125 73.50390625 C33 76 33 76 32 78 C15.5 78 -1 78 -18 78 C-19.47569252 75.04861495 -19.12735235 72.41355998 -19.12939453 69.11938477 C-19.13114685 68.41190094 -19.13289917 67.70441711 -19.13470459 66.97549438 C-19.13911503 64.63077357 -19.13618764 62.28612787 -19.1328125 59.94140625 C-19.13348585 58.31477341 -19.13445613 56.68814067 -19.13571167 55.06150818 C-19.13718761 51.64931278 -19.13503769 48.23714353 -19.13037109 44.82495117 C-19.12467839 40.44888759 -19.12795056 36.0728854 -19.13394356 31.69682407 C-19.13755582 28.3365584 -19.13640743 24.97630729 -19.13381577 21.61604118 C-19.13314811 20.00248139 -19.13396931 18.38892027 -19.13629532 16.77536201 C-19.13883222 14.52020894 -19.13496635 12.26515542 -19.12939453 10.01000977 C-19.12859894 8.72586685 -19.12780334 7.44172394 -19.12698364 6.1186676 C-19 3 -19 3 -18 0 C-12.63343685 -2.68328157 -5.98831547 -0.37426972 0 0 Z " fill="#FEFEFE" transform="translate(447,70)"/>
<path d="M0 0 C1.79068573 2.6860286 2.66055791 4.6626589 3.625 7.6875 C4.01558594 8.89986328 4.01558594 8.89986328 4.4140625 10.13671875 C4.60742188 10.75160156 4.80078125 11.36648437 5 12 C5.78375 12.144375 6.5675 12.28875 7.375 12.4375 C10 13 10 13 12 14 C13.87056791 14.2275015 15.74685958 14.40962811 17.625 14.5625 C18.62789062 14.64628906 19.63078125 14.73007813 20.6640625 14.81640625 C21.82035156 14.90728516 21.82035156 14.90728516 23 15 C22.67 16.32 22.34 17.64 22 19 C18.04 19.495 18.04 19.495 14 20 C14.22502432 26.30068108 15.5625403 29.40298707 19.72265625 34.140625 C21 36 21 36 21 40 C20.34 40 19.68 40 19 40 C17.5625 38.28515625 17.5625 38.28515625 16 36.0625 C13.95183196 33.01367363 13.95183196 33.01367363 11 31 C11.495 32.485 11.495 32.485 12 34 C13.1865126 38.08594833 13.14865179 41.76342394 13 46 C12.34 46 11.68 46 11 46 C10.49242138 44.58603098 9.99425075 43.16868271 9.5 41.75 C9.2215625 40.96109375 8.943125 40.1721875 8.65625 39.359375 C8 37 8 37 8 33 C7.34 33 6.68 33 6 33 C6.33 33.99 6.66 34.98 7 36 C7.06740865 37.56118428 7.08514456 39.1250252 7.0625 40.6875 C7.05347656 41.49574219 7.04445312 42.30398437 7.03515625 43.13671875 C7.02355469 43.75160156 7.01195312 44.36648437 7 45 C6.01 45 5.02 45 4 45 C3.67 40.71 3.34 36.42 3 32 C2.01 32 1.02 32 0 32 C-0.66 35.3 -1.32 38.6 -2 42 C-2.66 42 -3.32 42 -4 42 C-4.0721698 38.46367962 -4.0445333 35.23157314 -3.375 31.75 C-2.55557524 23.55575239 -4.63421664 16.83972727 -9 10 C-9 9.34 -9 8.68 -9 8 C-9.66 8 -10.32 8 -11 8 C-12.75380558 11.91290237 -13.52564918 15.5742335 -14.125 19.8125 C-14.29257812 20.97394531 -14.46015625 22.13539062 -14.6328125 23.33203125 C-14.75398438 24.21246094 -14.87515625 25.09289062 -15 26 C-15.33 25.34 -15.66 24.68 -16 24 C-23.07988635 25.61255546 -28.55061754 28.30909206 -34.5546875 32.37890625 C-36.65796278 33.77325008 -38.71811551 34.93335167 -41 36 C-41.33 35.34 -41.66 34.68 -42 34 C-41.01 33.505 -41.01 33.505 -40 33 C-39.67 32.01 -39.34 31.02 -39 30 C-35.535 29.505 -35.535 29.505 -32 29 C-32 28.34 -32 27.68 -32 27 C-27.11817117 24.24614784 -22.44567686 23.02862785 -17 22 C-17.020625 21.113125 -17.04125 20.22625 -17.0625 19.3125 C-16.99179717 15.56524999 -16.68474273 12.36948547 -15 9 C-14.34 9.33 -13.68 9.66 -13 10 C-12.67 8.68 -12.34 7.36 -12 6 C-5.375 4 -5.375 4 -2 4 C-2 3.01 -2 2.02 -2 1 C-1.34 0.67 -0.68 0.34 0 0 Z " fill="#EFC44B" transform="translate(58,76)"/>
<path d="M0 0 C0.99 0 1.98 0 3 0 C3 0.66 3 1.32 3 2 C5.33214148 3.20628008 7.49642139 4.1654738 10 5 C10 5.66 10 6.32 10 7 C11.65 6.67 13.3 6.34 15 6 C14.67 6.99 14.34 7.98 14 9 C13.34 8.67 12.68 8.34 12 8 C11.731875 8.721875 11.46375 9.44375 11.1875 10.1875 C10 13 10 13 8.5625 15.30078125 C3.3560013 24.29500775 2.39944059 33.80717226 3 44 C2.34 44 1.68 44 1 44 C0.01 38.555 0.01 38.555 -1 33 C-1.66 33 -2.32 33 -3 33 C-3.12375 34.03125 -3.2475 35.0625 -3.375 36.125 C-3.93889814 39.62116846 -4.78682059 42.68397627 -6 46 C-6.66 46 -7.32 46 -8 46 C-8 42.7 -8 39.4 -8 36 C-9.65 39.63 -11.3 43.26 -13 47 C-13.33 47 -13.66 47 -14 47 C-13.22095672 36.44191344 -13.22095672 36.44191344 -11 32 C-11.54269531 32.49371094 -12.08539063 32.98742187 -12.64453125 33.49609375 C-13.35996094 34.13675781 -14.07539062 34.77742188 -14.8125 35.4375 C-15.52019531 36.07558594 -16.22789063 36.71367188 -16.95703125 37.37109375 C-19 39 -19 39 -22 40 C-21.22188341 35.32049331 -18.38727412 32.23886548 -15.59375 28.53515625 C-13.96288947 25.94096879 -13.38823182 24.01418869 -13 21 C-13.56589844 20.81824219 -14.13179688 20.63648437 -14.71484375 20.44921875 C-15.44832031 20.19785156 -16.18179688 19.94648437 -16.9375 19.6875 C-17.66839844 19.44386719 -18.39929688 19.20023438 -19.15234375 18.94921875 C-21 18 -21 18 -22 15 C-15.73 14.34 -9.46 13.68 -3 13 C-2.34 11.02 -1.68 9.04 -1 7 C-0.02995879 4.98529902 0.96244882 2.98077953 2 1 C1.34 0.67 0.68 0.34 0 0 Z " fill="#2BB1F1" transform="translate(106,76)"/>
<path d="M0 0 C2.88569129 1.29734861 4.12013073 2.14015252 6.25 4.625 C9.19274154 7.1664586 10.96689247 7.84805884 14.87109375 7.640625 C18.45209976 6.56303787 20.74041614 4.13711208 23.3359375 1.53125 C25 0 25 0 27 0 C27.76131314 15.48003383 24.96668383 25.71098208 15 38 C10.99448694 36.50013828 9.5608292 34.21669291 7.375 30.625 C6.78460938 29.66851562 6.19421875 28.71203125 5.5859375 27.7265625 C0.48895698 18.96377333 -0.39231097 10.04751981 0 0 Z " fill="#512414" transform="translate(70,139)"/>
<path d="M0 0 C6.38238638 2.75102861 9.631306 8.6936291 12.3125 14.875 C14.1753365 19.85287015 14.77500937 24.71272027 15 30 C13.7625 30.433125 12.525 30.86625 11.25 31.3125 C8.66172421 32.26487613 6.94866073 33.03993054 4.75 34.75 C3 36 3 36 1.1875 35.9375 C-1.42628179 34.81730781 -3.80162207 33.43172454 -6.21875 31.9375 C-8.12514961 30.93413179 -9.89848311 30.44242461 -12 30 C-11.33796827 18.85960404 -8.13481182 8.13481182 0 0 Z " fill="#278946" transform="translate(82,46)"/>
<path d="M0 0 C0.18433594 0.75023438 0.36867188 1.50046875 0.55859375 2.2734375 C2.68292846 9.76997864 5.55914727 14.44438738 11.07421875 19.94140625 C13 22 13 22 14 25 C2.2025002 25.70471791 -7.74997608 22.73729215 -18 17 C-18 16.34 -18 15.68 -18 15 C-19.98 14.34 -21.96 13.68 -24 13 C-17.84100633 6.24497468 -9.55861952 -0.54620683 0 0 Z " fill="#EA1E20" transform="translate(42,100)"/>
<path d="M0 0 C8.71859838 0.38749326 16.60048244 5.2625015 23 11 C20.75685444 16.79904107 15.22849195 19.17784137 10 22 C2.76021507 25.20027587 -4.1759023 25.3629736 -12 25 C-11.41655546 21.44414208 -10.10299587 19.75436914 -7.625 17.1875 C-2.87417537 11.94017526 -0.86690584 7.10862785 0 0 Z " fill="#10A027" transform="translate(125,99)"/>
<path d="M0 0 C3 1 3 1 5.1875 4.3125 C8.07468654 10.56807084 8.21867057 17.20917959 6.1171875 23.74609375 C3.44903949 29.55064091 -0.20512306 33.82693707 -5 38 C-5.99 37.67 -6.98 37.34 -8 37 C-11.15364486 30.69271027 -10.31576338 22.91787614 -8.4375 16.375 C-6.38819487 10.41403876 -3.52647625 5.20742993 0 0 Z " fill="#F8FDFB" transform="translate(118,84)"/>
<path d="M0 0 C0.66 0 1.32 0 2 0 C7.49929538 8.5008192 10.13816896 16.89229221 8 27 C7.814375 28.299375 7.62875 29.59875 7.4375 30.9375 C7.293125 31.948125 7.14875 32.95875 7 34 C7.66 34 8.32 34 9 34 C9.144375 32.72125 9.28875 31.4425 9.4375 30.125 C9.70642746 27.74307106 9.92226346 26.15547309 11 24 C11.99 24 12.98 24 14 24 C14 25.98 14 27.96 14 30 C13.67 29.01 13.34 28.02 13 27 C12.34 27 11.68 27 11 27 C10.87625 28.2375 10.7525 29.475 10.625 30.75 C10.30760664 33.92393362 9.5478831 36.20625977 8 39 C1.56658462 33.12872771 -3.43509912 28.360674 -4.375 19.44140625 C-4.61611208 11.83884095 -4.1850442 6.40834893 0 0 Z " fill="#FDF9F1" transform="translate(47,84)"/>
<path d="M0 0 C3.63 0 7.26 0 11 0 C10.67 1.32 10.34 2.64 10 4 C7.36 4.33 4.72 4.66 2 5 C2.22502432 11.30068108 3.5625403 14.40298707 7.72265625 19.140625 C9 21 9 21 9 25 C8.34 25 7.68 25 7 25 C5.5625 23.28515625 5.5625 23.28515625 4 21.0625 C1.95183196 18.01367363 1.95183196 18.01367363 -1 16 C-0.67 16.99 -0.34 17.98 0 19 C1.1865126 23.08594833 1.14865179 26.76342394 1 31 C0.34 31 -0.32 31 -1 31 C-1.50757862 29.58603098 -2.00574925 28.16868271 -2.5 26.75 C-2.7784375 25.96109375 -3.056875 25.1721875 -3.34375 24.359375 C-4 22 -4 22 -4 18 C-4.66 18 -5.32 18 -6 18 C-5.67 18.99 -5.34 19.98 -5 21 C-4.93259135 22.56118428 -4.91485544 24.1250252 -4.9375 25.6875 C-4.94652344 26.49574219 -4.95554687 27.30398437 -4.96484375 28.13671875 C-4.97644531 28.75160156 -4.98804687 29.36648437 -5 30 C-5.99 30 -6.98 30 -8 30 C-8.33 25.71 -8.66 21.42 -9 17 C-9.99 17 -10.98 17 -12 17 C-12.66 20.3 -13.32 23.6 -14 27 C-14.66 27 -15.32 27 -16 27 C-16.11988017 21.12587158 -15.8682013 15.60460391 -14 10 C-13.34 11.65 -12.68 13.3 -12 15 C-10.8553125 14.505 -10.8553125 14.505 -9.6875 14 C-6.92986588 12.97390358 -4.89920516 13 -2 13 C-1.855625 11.783125 -1.71125 10.56625 -1.5625 9.3125 C-1.18652748 6.14358879 -0.63024451 3.15122255 0 0 Z " fill="#E9C662" transform="translate(70,91)"/>
<path d="M0 0 C-6.5 3 -6.5 3 -11 3 C-11 3.66 -11 4.32 -11 5 C-10.01 5 -9.02 5 -8 5 C-8 7.64 -8 10.28 -8 13 C-8.66 13 -9.32 13 -10 13 C-10 13.66 -10 14.32 -10 15 C-9.01 15.33 -8.02 15.66 -7 16 C-6.67 16.66 -6.34 17.32 -6 18 C-5.01 18.33 -4.02 18.66 -3 19 C-1.36084836 22.98079685 -0.80362611 25.22853113 -1.875 29.4375 C-2.431875 30.7059375 -2.431875 30.7059375 -3 32 C-3.66 32 -4.32 32 -5 32 C-5 28.7 -5 25.4 -5 22 C-6.65 25.63 -8.3 29.26 -10 33 C-10.33 33 -10.66 33 -11 33 C-10.22095672 22.44191344 -10.22095672 22.44191344 -8 18 C-8.54269531 18.49371094 -9.08539063 18.98742187 -9.64453125 19.49609375 C-10.35996094 20.13675781 -11.07539062 20.77742188 -11.8125 21.4375 C-12.52019531 22.07558594 -13.22789063 22.71367188 -13.95703125 23.37109375 C-16 25 -16 25 -19 26 C-18.22188341 21.32049331 -15.38727412 18.23886548 -12.59375 14.53515625 C-10.96288947 11.94096879 -10.38823182 10.01418869 -10 7 C-10.84884766 6.72736328 -10.84884766 6.72736328 -11.71484375 6.44921875 C-12.44832031 6.19785156 -13.18179688 5.94648437 -13.9375 5.6875 C-14.66839844 5.44386719 -15.39929688 5.20023437 -16.15234375 4.94921875 C-18 4 -18 4 -19 1 C-16.20910735 0.63843896 -13.41759278 0.28545167 -10.625 -0.0625 C-9.43390625 -0.2181543 -9.43390625 -0.2181543 -8.21875 -0.37695312 C-2.2265625 -1.11328125 -2.2265625 -1.11328125 0 0 Z " fill="#4EB3E2" transform="translate(103,90)"/>
<path d="M0 0 C0.66 0 1.32 0 2 0 C2.875 2.4375 2.875 2.4375 3 6 C1.3792296 9.29592907 -0.56640094 12.24771535 -3 15 C-3.99 15.33 -4.98 15.66 -6 16 C-6.598125 15.29875 -7.19625 14.5975 -7.8125 13.875 C-11.78936514 9.84033159 -17.00595563 7.54512594 -22 5 C-19.18185434 3.59092717 -17.82722796 4.49127309 -14.875 5.4375 C-13.96492187 5.72496094 -13.05484375 6.01242188 -12.1171875 6.30859375 C-11.41851562 6.53675781 -10.71984375 6.76492187 -10 7 C-9.67 6.67 -9.34 6.34 -9 6 C-9.99 6 -10.98 6 -12 6 C-12 5.34 -12 4.68 -12 4 C-9.7252187 2.61888278 -8.49828639 1.94305298 -5.8125 2.25 C-4 3 -4 3 -3 5 C-2.54625 4.175 -2.0925 3.35 -1.625 2.5 C-1.08875 1.675 -0.5525 0.85 0 0 Z " fill="#25B2F4" transform="translate(154,96)"/>
<path d="M0 0 C2.7083445 2.36012878 3.85019927 4.59993115 5.125 7.9375 C5.45757812 8.79214844 5.79015625 9.64679688 6.1328125 10.52734375 C9.87597429 21.20041319 9.21868564 34.16813448 5.15625 44.62890625 C3.78171389 47.44763402 2.22104232 49.77895768 0 52 C0 50.35 0 48.7 0 47 C0.66 47 1.32 47 2 47 C2 46.01 2 45.02 2 44 C2.66 44 3.32 44 4 44 C4 41.69 4 39.38 4 37 C4.66 37 5.32 37 6 37 C5.8897609 33.27024394 5.75921587 29.54146417 5.625 25.8125 C5.5940625 24.75740234 5.563125 23.70230469 5.53125 22.61523438 C5.49257812 21.59365234 5.45390625 20.57207031 5.4140625 19.51953125 C5.3826416 18.58214111 5.3512207 17.64475098 5.31884766 16.67895508 C4.97564839 13.79539803 4.2878786 11.59835657 3 9 C2.34 8.67 1.68 8.34 1 8 C0.40644386 5.35139573 0.25790731 2.70802678 0 0 Z " fill="#61D244" transform="translate(155,118)"/>
<path d="M0 0 C2.37570543 -0.0816082 4.74855841 -0.14077222 7.125 -0.1875 C7.79015625 -0.21263672 8.4553125 -0.23777344 9.140625 -0.26367188 C13.86902292 -0.33320714 16.95121479 0.59721625 21 3 C21 3.33 21 3.66 21 4 C16.48543689 4.25080906 16.48543689 4.25080906 14.125 3.03125 C10.56761604 1.30487249 6.91249002 1.34521971 3 1 C3.66 4.3 4.32 7.6 5 11 C6.98 11 8.96 11 11 11 C11 11.66 11 12.32 11 13 C14.96 13.33 18.92 13.66 23 14 C22.67 14.99 22.34 15.98 22 17 C22 16.34 22 15.68 22 15 C21.28714844 15.03480469 20.57429688 15.06960937 19.83984375 15.10546875 C9.06341005 15.41005167 9.06341005 15.41005167 4 12 C1.59723815 8.15987168 0 4.55490438 0 0 Z " fill="#FEF7D3" transform="translate(59,76)"/>
<path d="M0 0 C2.16874252 0.50603992 3.99967627 0.99983813 6 2 C6 2.66 6 3.32 6 4 C6.78375 4.2475 7.5675 4.495 8.375 4.75 C11.31150088 5.76258651 14.13471074 6.87223633 17 8.0625 C24.41631121 11.02682053 31.09127402 11.1266522 39 11 C39.495 11.99 39.495 11.99 40 13 C26.36193279 16.57502733 13.54889926 10.62641761 2 4 C1.34 3.67 0.68 3.34 0 3 C0 2.01 0 1.02 0 0 Z M-3 3 C-2.01 3.33 -1.02 3.66 0 4 C-0.99 4.66 -1.98 5.32 -3 6 C-3 5.01 -3 4.02 -3 3 Z " fill="#F83061" transform="translate(18,113)"/>
<path d="M0 0 C1.485 0.99 1.485 0.99 3 2 C2.34 2 1.68 2 1 2 C2.24479778 14.00268432 3.37270581 24.64083142 10 35 C7.525 35.495 7.525 35.495 5 36 C5.33 34.35 5.66 32.7 6 31 C5.34 31 4.68 31 4 31 C2.19769832 27.17010894 1.80377759 24.21878192 2 20 C1.34 20 0.68 20 0 20 C0 13.4 0 6.8 0 0 Z " fill="#D23965" transform="translate(69,137)"/>
<path d="M0 0 C0.33 0.99 0.66 1.98 1 3 C0.484375 3.763125 -0.03125 4.52625 -0.5625 5.3125 C-2.38911846 8.007907 -2.38911846 8.007907 -1.1875 11.3125 C-0.795625 12.199375 -0.40375 13.08625 0 14 C-0.99 14 -1.98 14 -3 14 C-2.34 15.98 -1.68 17.96 -1 20 C-4.37503669 18.8141763 -6.64722731 17.72426311 -9 15 C-7.38325319 11.57053707 -5.42402323 8.43736948 -3.375 5.25 C-2.74335937 4.26515625 -2.11171875 3.2803125 -1.4609375 2.265625 C-0.97882813 1.51796875 -0.49671875 0.7703125 0 0 Z " fill="#62D236" transform="translate(93,164)"/>
<path d="M0 0 C6.16356805 1.6658292 11.48259656 4.87805286 17 8 C13.95302936 13.50798539 10.7383981 18.92728134 7 24 C6.67 24 6.34 24 6 24 C5.75 21.75 5.75 21.75 6 19 C7.33333333 17.66666667 8.66666667 16.33333333 10 15 C11.27765265 11.36456099 11.27765265 11.36456099 12 8 C9.02819057 6.10134397 6.48539917 4.64544429 3 4 C3 3.34 3 2.68 3 2 C1.68 1.67 0.36 1.34 -1 1 C-0.67 0.67 -0.34 0.34 0 0 Z " fill="#D5BE6B" transform="translate(67,35)"/>
<path d="M0 0 C0.33 0 0.66 0 1 0 C1 2.64 1 5.28 1 8 C0.40574219 8.13535156 -0.18851563 8.27070312 -0.80078125 8.41015625 C-7.18160285 10.06738363 -12.10758604 12.68662902 -17.5546875 16.37890625 C-19.65796278 17.77325008 -21.71811551 18.93335167 -24 20 C-24.33 19.34 -24.66 18.68 -25 18 C-24.34 17.67 -23.68 17.34 -23 17 C-22.67 16.01 -22.34 15.02 -22 14 C-18.535 13.505 -18.535 13.505 -15 13 C-15 12.34 -15 11.68 -15 11 C-10.11817117 8.24614784 -5.44567686 7.02862785 0 6 C0 4.02 0 2.04 0 0 Z " fill="#F6AC56" transform="translate(41,92)"/>
<path d="M0 0 C0.99 0 1.98 0 3 0 C3 1.98 3 3.96 3 6 C2.67 5.01 2.34 4.02 2 3 C1.34 3 0.68 3 0 3 C-0.12375 4.2375 -0.2475 5.475 -0.375 6.75 C-0.7206728 10.20672799 -1.34445298 11.68890596 -3 15 C-5.64 12.36 -8.28 9.72 -11 7 C-9.68 6.67 -8.36 6.34 -7 6 C-5.26973898 4.52109931 -5.26973898 4.52109931 -4 3 C-4 5.31 -4 7.62 -4 10 C-3.34 10 -2.68 10 -2 10 C-1.855625 8.72125 -1.71125 7.4425 -1.5625 6.125 C-1.29357254 3.74307106 -1.07773654 2.15547309 0 0 Z " fill="#FEE7DD" transform="translate(58,108)"/>
<path d="M0 0 C3 1 3 1 5.1875 4.3125 C7.96193515 10.24552286 8.16007745 17.05573666 6.31640625 23.32421875 C5.5 25.25 5.5 25.25 4 28 C3.67 28 3.34 28 3 28 C3 26.35 3 24.7 3 23 C3.66 23 4.32 23 5 23 C5 18.05 5 13.1 5 8 C4.34 8 3.68 8 3 8 C3 6.68 3 5.36 3 4 C1.02 4.99 -0.96 5.98 -3 7 C-1.125 2.25 -1.125 2.25 0 0 Z " fill="#C7F3E2" transform="translate(118,84)"/>
<path d="M0 0 C0.33 0 0.66 0 1 0 C1.59828863 12.16520214 0.76799717 23.01257507 -7 33 C-7.33 32.34 -7.66 31.68 -8 31 C-7.1953125 29.17578125 -7.1953125 29.17578125 -6 27 C-3.30040988 21.11804635 -1.58559643 16.49232257 -2 10 C-1.67 9.67 -1.34 9.34 -1 9 C-0.76807135 7.48530552 -0.58784762 5.96245438 -0.4375 4.4375 C-0.35371094 3.61121094 -0.26992187 2.78492188 -0.18359375 1.93359375 C-0.12300781 1.29550781 -0.06242187 0.65742188 0 0 Z " fill="#3F3507" transform="translate(96,139)"/>
<path d="M0 0 C0.66 0.33 1.32 0.66 2 1 C1.34 1.94875 0.68 2.8975 0 3.875 C-2.17968457 6.66238955 -2.17968457 6.66238955 -2 9 C-2.66 9 -3.32 9 -4 9 C-3.34 11.31 -2.68 13.62 -2 16 C-5.12613393 13.03839944 -7.04783565 10.90432869 -9 7 C-6.03 4.69 -3.06 2.38 0 0 Z " fill="#37AFD6" transform="translate(92,37)"/>
<path d="M0 0 C0.66 0 1.32 0 2 0 C1.34 2.97 0.68 5.94 0 9 C-0.99 8.34 -1.98 7.68 -3 7 C-3.4125 7.515625 -3.825 8.03125 -4.25 8.5625 C-4.8275 9.036875 -5.405 9.51125 -6 10 C-8.1875 9.6875 -8.1875 9.6875 -10 9 C-10 7.35 -10 5.7 -10 4 C-9.01 4.495 -9.01 4.495 -8 5 C-8.33 5.99 -8.66 6.98 -9 8 C-7.68712379 6.85459775 -6.37470979 5.70866567 -5.0625 4.5625 C-4.33160156 3.92441406 -3.60070312 3.28632812 -2.84765625 2.62890625 C-1.87860647 1.77458541 -0.91348825 0.91348825 0 0 Z " fill="#CFF9FE" transform="translate(93,108)"/>
<path d="M0 0 C0 0.99 0 1.98 0 3 C-8.51308572 6.56001766 -16.89915004 6.69698663 -26 7 C-25.67 5.68 -25.34 4.36 -25 3 C-24.67 3.66 -24.34 4.32 -24 5 C-11.68267066 3.83644139 -11.68267066 3.83644139 0 0 Z " fill="#48D535" transform="translate(137,119)"/>
<path d="M0 0 C1.7074998 1.28062485 3.37373596 2.61767557 5 4 C5 4.66 5 5.32 5 6 C-1.65050424 6.24991456 -7.56986533 5.73955334 -14 4 C-8.99460666 2.61693079 -3.99355965 2.40206091 1 4 C0.67 2.68 0.34 1.36 0 0 Z " fill="#E32330" transform="translate(51,119)"/>
<path d="M0 0 C1.8125 2 1.8125 2 3 4 C2.67 4.66 2.34 5.32 2 6 C-0.97 5.505 -0.97 5.505 -4 5 C-4 4.34 -4 3.68 -4 3 C-5.11375 3.680625 -6.2275 4.36125 -7.375 5.0625 C-9.2734375 6.22265625 -9.2734375 6.22265625 -11 7 C-11.66 6.67 -12.32 6.34 -13 6 C-11.78294994 4.98528829 -10.55073116 3.9887539 -9.3125 3 C-8.62800781 2.443125 -7.94351563 1.88625 -7.23828125 1.3125 C-4.57284221 -0.25047996 -3.04192519 -0.40559003 0 0 Z " fill="#50DA3C" transform="translate(152,112)"/>
<path d="M0 0 C1.65 0.33 3.3 0.66 5 1 C5 2.65 5 4.3 5 6 C4.34 4.68 3.68 3.36 3 2 C2.34 2 1.68 2 1 2 C-0.75380558 5.91290237 -1.52564918 9.5742335 -2.125 13.8125 C-2.29257812 14.97394531 -2.46015625 16.13539062 -2.6328125 17.33203125 C-2.75398438 18.21246094 -2.87515625 19.09289062 -3 20 C-3.33 20 -3.66 20 -4 20 C-4 14.39 -4 8.78 -4 3 C-3.01 3.33 -2.02 3.66 -1 4 C-0.67 2.68 -0.34 1.36 0 0 Z " fill="#EFC67B" transform="translate(46,82)"/>
<path d="M0 0 C0.66 0 1.32 0 2 0 C2.99 4.29 3.98 8.58 5 13 C4.01 13 3.02 13 2 13 C0.948125 13.2784375 0.948125 13.2784375 -0.125 13.5625 C-0.74375 13.706875 -1.3625 13.85125 -2 14 C-3 13 -3 13 -3.09765625 11.15234375 C-3.06510417 9.1015625 -3.03255208 7.05078125 -3 5 C-2.67 5 -2.34 5 -2 5 C-1.67 7.31 -1.34 9.62 -1 12 C-0.67 12 -0.34 12 0 12 C0 8.04 0 4.08 0 0 Z " fill="#FEF6CF" transform="translate(64,109)"/>
<path d="M0 0 C0.33 0 0.66 0 1 0 C1.15855469 0.64066406 1.31710938 1.28132813 1.48046875 1.94140625 C3.10165658 7.95144511 5.09827283 12.14920406 9 17 C8.401875 16.835 7.80375 16.67 7.1875 16.5 C4.88655664 15.8885876 4.88655664 15.8885876 2 16 C1.50113689 13.77691098 1.00542822 11.55323107 0.515625 9.328125 C0.12630359 7.57027986 -0.27720728 5.81556891 -0.6875 4.0625 C-1 2 -1 2 0 0 Z " fill="#DB3237" transform="translate(42,102)"/>
<path d="M0 0 C0.66 0 1.32 0 2 0 C2 4.95 2 9.9 2 15 C1.34 15 0.68 15 0 15 C-0.66 11.37 -1.32 7.74 -2 4 C-2.66 4 -3.32 4 -4 4 C-4.33 5.32 -4.66 6.64 -5 8 C-5 6.35 -5 4.7 -5 3 C-3.68 3 -2.36 3 -1 3 C-0.67 2.01 -0.34 1.02 0 0 Z " fill="#51B0DC" transform="translate(107,105)"/>
<path d="M0 0 C0.99 0.495 0.99 0.495 2 1 C1.67 2.65 1.34 4.3 1 6 C1.99 6.33 2.98 6.66 4 7 C3.67 11.62 3.34 16.24 3 21 C2.67 21 2.34 21 2 21 C0.49025965 13.90961228 -0.28307925 7.24997422 0 0 Z " fill="#641D1D" transform="translate(70,139)"/>
<path d="M0 0 C0.33 0 0.66 0 1 0 C1.33 2.31 1.66 4.62 2 7 C3.98 7 5.96 7 8 7 C8 7.66 8 8.32 8 9 C11.96 9.33 15.92 9.66 20 10 C19.67 10.99 19.34 11.98 19 13 C19 12.34 19 11.68 19 11 C18.28714844 11.03480469 17.57429688 11.06960937 16.83984375 11.10546875 C10.72011121 11.27843562 6.36842332 11.03432622 1 8 C-0.35439668 5.29120665 -0.06501451 2.99066732 0 0 Z " fill="#FEF7D7" transform="translate(62,80)"/>
<path d="M0 0 C0.66 0 1.32 0 2 0 C4.09230769 4.43076923 4.09230769 4.43076923 3.625 7.3125 C3.41875 7.869375 3.2125 8.42625 3 9 C2.67 8.01 2.34 7.02 2 6 C1.34 5.67 0.68 5.34 0 5 C0.04125 6.11375 0.0825 7.2275 0.125 8.375 C0 12 0 12 -2 14 C-2.99 13.67 -3.98 13.34 -5 13 C-4.34 12.67 -3.68 12.34 -3 12 C-2.08514427 9.19521805 -2.08514427 9.19521805 -1.375 5.9375 C-1.11460938 4.83277344 -0.85421875 3.72804688 -0.5859375 2.58984375 C-0.39257812 1.73519531 -0.19921875 0.88054687 0 0 Z " fill="#C2F0FD" transform="translate(103,109)"/>
<path d="M0 0 C4.93810736 0.49381074 8.80700602 1.26967834 13 4 C14.375 6.6875 14.375 6.6875 15 9 C11.69918209 7.38102741 8.47442567 5.64075691 5.25 3.875 C4.26515625 3.33617188 3.2803125 2.79734375 2.265625 2.2421875 C1.51796875 1.83226563 0.7703125 1.42234375 0 1 C0 0.67 0 0.34 0 0 Z " fill="#29B4B4" transform="translate(132,100)"/>
<path d="M0 0 C0.66 0 1.32 0 2 0 C1.34712812 3.8084193 -0.42098651 6.52923321 -2.5 9.75 C-3.1290625 10.73484375 -3.758125 11.7196875 -4.40625 12.734375 C-4.9321875 13.48203125 -5.458125 14.2296875 -6 15 C-6.33 15 -6.66 15 -7 15 C-7.25 12.75 -7.25 12.75 -7 10 C-5.71034824 8.62437146 -4.37310707 7.29233607 -3 6 C-1.80972016 3.40084462 -1.80972016 3.40084462 -1 1 C-0.67 0.67 -0.34 0.34 0 0 Z " fill="#D6C75A" transform="translate(80,44)"/>
<path d="M0 0 C1.65 1.65 3.3 3.3 5 5 C3.50958227 8.79379058 1.30937488 10.68343758 -2 13 C-2.66 13 -3.32 13 -4 13 C-3.67 11.68 -3.34 10.36 -3 9 C-1.68 8.67 -0.36 8.34 1 8 C0.67 5.36 0.34 2.72 0 0 Z " fill="#D7456A" transform="translate(79,172)"/>
<path d="M0 0 C0.33 0.66 0.66 1.32 1 2 C0.07265428 3.48555383 -0.86724813 4.96327506 -1.8125 6.4375 C-2.59560547 7.67306641 -2.59560547 7.67306641 -3.39453125 8.93359375 C-5 11 -5 11 -8 12 C-8.33 11.01 -8.66 10.02 -9 9 C-8.34 9 -7.68 9 -7 9 C-7 8.34 -7 7.68 -7 7 C-5.68 6.67 -4.36 6.34 -3 6 C-2.814375 4.7934375 -2.814375 4.7934375 -2.625 3.5625 C-2.41875 2.716875 -2.2125 1.87125 -2 1 C-1.34 0.67 -0.68 0.34 0 0 Z " fill="#34B2C9" transform="translate(156,100)"/>
<path d="M0 0 C0.33 0.66 0.66 1.32 1 2 C1.66 1.67 2.32 1.34 3 1 C5.2072923 0.92907158 7.41667452 0.91584975 9.625 0.9375 C10.81351563 0.94652344 12.00203125 0.95554687 13.2265625 0.96484375 C14.14179687 0.97644531 15.05703125 0.98804687 16 1 C16 1.33 16 1.66 16 2 C8.61538462 4.21538462 8.61538462 4.21538462 5.5 3.125 C5.005 2.75375 4.51 2.3825 4 2 C3.67 2.66 3.34 3.32 3 4 C1.02 4 -0.96 4 -3 4 C-2.01 2.68 -1.02 1.36 0 0 Z " fill="#5CE23B" transform="translate(110,124)"/>
<path d="M0 0 C0.66 0 1.32 0 2 0 C2.33 1.32 2.66 2.64 3 4 C2.01 4 1.02 4 0 4 C0 4.66 0 5.32 0 6 C-0.66 6 -1.32 6 -2 6 C-2 8.64 -2 11.28 -2 14 C-2.66 14 -3.32 14 -4 14 C-3.38029501 4.19156581 -3.38029501 4.19156581 0 0 Z " fill="#FEF8D6" transform="translate(47,84)"/>
<path d="M0 0 C0.66 0 1.32 0 2 0 C3.85072153 5.14089313 4.21474076 7.95531271 2 13 C1.34 13 0.68 13 0 13 C0 8.71 0 4.42 0 0 Z " fill="#4EB4E7" transform="translate(98,109)"/>
<path d="M0 0 C3 1 3 1 4.75 3.9375 C5.36875 5.4534375 5.36875 5.4534375 6 7 C5.67 7.66 5.34 8.32 5 9 C4.34 8.67 3.68 8.34 3 8 C3 6.68 3 5.36 3 4 C1.02 4.99 -0.96 5.98 -3 7 C-1.125 2.25 -1.125 2.25 0 0 Z " fill="#CCF5FD" transform="translate(118,84)"/>
<path d="M0 0 C3 2 3 2 3.51171875 3.9453125 C3.67447917 5.96354167 3.83723958 7.98177083 4 10 C4.66 10 5.32 10 6 10 C5.67 11.32 5.34 12.64 5 14 C2.46690767 9.35796103 0.53484401 5.34844008 0 0 Z " fill="#E4BF63" transform="translate(5,89)"/>
<path d="M0 0 C1.30211046 3.90633137 0.47812346 6.19538173 -0.4375 10.1875 C-0.72496094 11.45980469 -1.01242188 12.73210937 -1.30859375 14.04296875 C-1.53675781 15.01878906 -1.76492187 15.99460937 -2 17 C-2.33 17 -2.66 17 -3 17 C-3.2031621 11.28888766 -3.33039979 6.34621127 -1 1 C-0.67 0.67 -0.34 0.34 0 0 Z " fill="#C8C65F" transform="translate(72,59)"/>
<path d="M0 0 C-6.625 3 -6.625 3 -10 3 C-10 3.66 -10 4.32 -10 5 C-10.99 5.33 -11.98 5.66 -13 6 C-13.66 5.34 -14.32 4.68 -15 4 C-13.730447 3.35165346 -12.45930294 2.70642185 -11.1875 2.0625 C-10.47980469 1.70285156 -9.77210937 1.34320313 -9.04296875 0.97265625 C-5.54717095 -0.69169108 -3.67208522 -1.13961265 0 0 Z " fill="#E1C362" transform="translate(42,34)"/>
<path d="M0 0 C2.31 0.33 4.62 0.66 7 1 C3.90576832 4.09423168 0.4476188 4.93706005 -3.875 5.125 C-4.57625 5.08375 -5.2775 5.0425 -6 5 C-5.67 4.34 -5.34 3.68 -5 3 C-3.35 3 -1.7 3 0 3 C0 2.01 0 1.02 0 0 Z " fill="#D5386F" transform="translate(64,186)"/>
<path d="M0 0 C0.99 0.495 0.99 0.495 2 1 C2 2.32 2 3.64 2 5 C2.66 5 3.32 5 4 5 C4.33 4.34 4.66 3.68 5 3 C5 5.64 5 8.28 5 11 C4.34 11 3.68 11 3 11 C2.49632243 9.54293274 1.99717444 8.08429904 1.5 6.625 C1.2215625 5.81289062 0.943125 5.00078125 0.65625 4.1640625 C0 2 0 2 0 0 Z " fill="#E9CD7D" transform="translate(66,111)"/>
<path d="M0 0 C0.33 0.66 0.66 1.32 1 2 C-0.125 4.5625 -0.125 4.5625 -2 7 C-4.6875 7.8125 -4.6875 7.8125 -7 8 C-6.02133662 6.85373678 -5.04205413 5.70800212 -4.0625 4.5625 C-3.51722656 3.92441406 -2.97195312 3.28632813 -2.41015625 2.62890625 C-1.63204305 1.73008851 -0.84063472 0.84063472 0 0 Z " fill="#6CDE41" transform="translate(106,128)"/>
<path d="M0 0 C0.66 0.33 1.32 0.66 2 1 C1.34 1.433125 0.68 1.86625 0 2.3125 C-0.66 2.869375 -1.32 3.42625 -2 4 C-2 4.99 -2 5.98 -2 7 C-4.31 7.33 -6.62 7.66 -9 8 C-6.14723863 5.06799526 -3.34920216 2.35684596 0 0 Z " fill="#DA2D19" transform="translate(27,105)"/>
<path d="M0 0 C1.79068573 2.6860286 2.66055791 4.6626589 3.625 7.6875 C3.88539062 8.49574219 4.14578125 9.30398437 4.4140625 10.13671875 C4.60742188 10.75160156 4.80078125 11.36648437 5 12 C2.20766929 9.44722581 1.51032394 7.77639718 1 4 C0.01 4 -0.98 4 -2 4 C-2 3.01 -2 2.02 -2 1 C-1.34 0.67 -0.68 0.34 0 0 Z " fill="#EAC868" transform="translate(58,76)"/>
<path d="M0 0 C0.33 0.99 0.66 1.98 1 3 C0.67 3.33 0.34 3.66 0 4 C-0.1546875 5.6396875 -0.1546875 5.6396875 -0.3125 7.3125 C-1.07747278 11.41553579 -2.00980062 12.29628679 -5 15 C-4.54901762 13.06077578 -4.08894441 11.12366406 -3.625 9.1875 C-3.24214844 7.56908203 -3.24214844 7.56908203 -2.8515625 5.91796875 C-2 3 -2 3 0 0 Z " fill="#D0F4FD" transform="translate(114,91)"/>
<path d="M0 0 C1.65 0 3.3 0 5 0 C1.7129243 3.81300782 -1.39727838 5.22972246 -6 7 C-5.67 6.01 -5.34 5.02 -5 4 C-3.35 3.67 -1.7 3.34 0 3 C0 2.01 0 1.02 0 0 Z " fill="#60D446" transform="translate(140,181)"/>
<path d="M0 0 C0.33 0.66 0.66 1.32 1 2 C0.0625 4.625 0.0625 4.625 -1 7 C-1.66 7 -2.32 7 -3 7 C-3.33 7.66 -3.66 8.32 -4 9 C-4 8.34 -4 7.68 -4 7 C-4.66 6.67 -5.32 6.34 -6 6 C-4.02 4.02 -2.04 2.04 0 0 Z " fill="#522E21" transform="translate(95,139)"/>
<path d="M0 0 C2.375 0.3125 2.375 0.3125 5 1 C7 4 7 4 7 7 C6.34 7 5.68 7 5 7 C4.67 5.68 4.34 4.36 4 3 C3.01 3.33 2.02 3.66 1 4 C0.34 3.34 -0.32 2.68 -1 2 C-0.67 1.34 -0.34 0.68 0 0 Z " fill="#37B0EA" transform="translate(91,105)"/>
<path d="M0 0 C3 1 3 1 4.6875 4.0625 C5.120625 5.031875 5.55375 6.00125 6 7 C4.35 7.33 2.7 7.66 1 8 C1.33 6.35 1.66 4.7 2 3 C1.34 3 0.68 3 0 3 C0 2.01 0 1.02 0 0 Z " fill="#E22E69" transform="translate(73,165)"/>
<path d="M0 0 C0.99 0.495 0.99 0.495 2 1 C1.67 1.99 1.34 2.98 1 4 C1.61875 3.505 2.2375 3.01 2.875 2.5 C5 1 5 1 7 1 C6.25 2.9375 6.25 2.9375 5 5 C2.9375 5.8125 2.9375 5.8125 1 6 C0 5 0 5 -0.0625 2.4375 C-0.041875 1.633125 -0.02125 0.82875 0 0 Z " fill="#E0F9FE" transform="translate(83,112)"/>
<path d="M0 0 C1.67542976 0.28604898 3.34385343 0.61781233 5 1 C5 2.65 5 4.3 5 6 C4.34 4.68 3.68 3.36 3 2 C2.34 2 1.68 2 1 2 C0.34 3.32 -0.32 4.64 -1 6 C-1.042721 4.33388095 -1.04063832 2.66617115 -1 1 C-0.67 0.67 -0.34 0.34 0 0 Z " fill="#E9C868" transform="translate(46,82)"/>
<path d="M0 0 C0.5534764 2.07553648 1 3.84365964 1 6 C-1.31 6 -3.62 6 -6 6 C-4 4 -2 2 0 0 Z " fill="#43B7EC" transform="translate(103,70)"/>
<path d="M0 0 C0.33 1.32 0.66 2.64 1 4 C0.01 4 -0.98 4 -2 4 C-2 4.99 -2 5.98 -2 7 C-3.98 7.99 -3.98 7.99 -6 9 C-4.68775452 5.06326356 -3.08089673 2.77280706 0 0 Z " fill="#DC3C6E" transform="translate(17,112)"/>
<path d="M0 0 C1.15866723 4.63466892 0.70010994 7.33260039 0 12 C-0.33 11.01 -0.66 10.02 -1 9 C-1.66 9 -2.32 9 -3 9 C-2.01 6.03 -1.02 3.06 0 0 Z " fill="#C1F7FE" transform="translate(98,110)"/>
<path d="M0 0 C0.99 0 1.98 0 3 0 C3 1.98 3 3.96 3 6 C2.67 5.01 2.34 4.02 2 3 C1.34 3 0.68 3 0 3 C0 4.65 0 6.3 0 8 C-0.66 8 -1.32 8 -2 8 C-1.34 5.36 -0.68 2.72 0 0 Z " fill="#FCF0BC" transform="translate(58,108)"/>
<path d="M0 0 C1.80411967 2.75924185 2.0127245 3.88972103 1.625 7.25 C1.41875 8.1575 1.2125 9.065 1 10 C0.34 10 -0.32 10 -1 10 C-1.125 3.375 -1.125 3.375 0 0 Z " fill="#E5CD7B" transform="translate(55,108)"/>
<path d="M0 0 C4.21912747 0.4794463 6.79663178 1.16625119 10 4 C5.74357648 4.3648363 3.46444495 3.47460354 0 1 C0 0.67 0 0.34 0 0 Z " fill="#D3EDDE" transform="translate(70,76)"/>
<path d="M0 0 C2 1 2 1 2.8515625 3.06640625 C3.10679688 3.89011719 3.36203125 4.71382812 3.625 5.5625 C3.88539062 6.38878906 4.14578125 7.21507812 4.4140625 8.06640625 C4.60742188 8.70449219 4.80078125 9.34257813 5 10 C4.01 10 3.02 10 2 10 C1.34 6.7 0.68 3.4 0 0 Z " fill="#228D69" transform="translate(90,55)"/>
<path d="M0 0 C0.33 0 0.66 0 1 0 C1 2.97 1 5.94 1 9 C0.01 9 -0.98 9 -2 9 C-2.20140476 5.37471432 -1.85776765 3.13498292 0 0 Z " fill="#E7CE85" transform="translate(64,112)"/>
</svg>
