<?xml version="1.0" encoding="UTF-8"?>
<svg version="1.1" xmlns="http://www.w3.org/2000/svg" width="500" height="500">
<path d="M0 0 C3.99722913 0.88236959 7.93033771 1.96959739 11.86962891 3.07910156 C13.86819391 3.6329668 15.86689714 4.18633346 17.86572266 4.73925781 C18.89681152 5.02559082 19.92790039 5.31192383 20.99023438 5.60693359 C25.79758391 6.93486727 30.61483925 8.22528387 35.43212891 9.51660156 C44.15049978 11.85786079 52.86466475 14.21424783 61.57666016 16.57910156 C63.67838336 17.14934027 65.78010864 17.71957129 67.88183594 18.28979492 C71.01887744 19.14095087 74.15582147 19.99245629 77.29241943 20.84524536 C89.26407423 24.10002757 101.24317006 27.31643288 113.26139832 30.39564514 C121.2860093 32.46620741 129.18391684 34.87159659 137.05712891 37.45410156 C137.05712891 38.44410156 137.05712891 39.43410156 137.05712891 40.45410156 C130.5963609 43.43964467 124.13390872 46.42116554 117.66259766 49.38378906 C106.31903578 54.58444556 95.02455352 59.83651244 83.90917969 65.50976562 C57.41196808 79.02033964 57.41196808 79.02033964 47.74462891 82.32910156 C41.01430053 84.69825451 34.7657426 87.99069367 28.43066406 91.23876953 C16.88509148 97.15050172 5.3800851 103.03639169 -6.60693359 108.00488281 C-10.3794277 109.6437532 -14.02937845 111.46251588 -17.69287109 113.32910156 C-23.63182422 116.34391365 -29.62214342 119.21355251 -35.69287109 121.95410156 C-36.45567383 122.30456543 -37.21847656 122.6550293 -38.00439453 123.01611328 C-38.72143555 123.33596191 -39.43847656 123.65581055 -40.17724609 123.98535156 C-41.12422363 124.41170898 -41.12422363 124.41170898 -42.09033203 124.84667969 C-43.94287109 125.45410156 -43.94287109 125.45410156 -47.94287109 125.45410156 C-48.88952426 105.53932378 -45.29664855 85.56796234 -39.94287109 66.45410156 C-39.71148437 65.61347168 -39.48009766 64.7728418 -39.24169922 63.90673828 C-35.35712473 50.16071353 -17.36056455 -3.11192769 0 0 Z " fill="#8B81BE" transform="translate(97.94287109375,127.5458984375)"/>
<path d="M0 0 C1.81274414 0.15673828 1.81274414 0.15673828 4 1 C5.53295898 3.34716797 5.53295898 3.34716797 6.99609375 6.4921875 C7.54861816 7.65967529 8.10114258 8.82716309 8.67041016 10.0300293 C9.2596859 11.31157321 9.8487098 12.59323294 10.4375 13.875 C11.05113821 15.18402251 11.66622827 16.49236535 12.28271484 17.80004883 C13.55844226 20.50901694 14.82734761 23.22103708 16.09228516 25.93505859 C17.91545068 29.83483626 19.78332191 33.71165618 21.66796875 37.58203125 C21.96108444 38.18490967 22.25420013 38.78778809 22.55619812 39.40893555 C23.94763938 42.27011261 25.34104225 45.13032276 26.73608398 47.98974609 C29.39946955 53.4976941 31.85067416 59.01470496 34.0703125 64.71508789 C35.75552583 68.85687139 37.84824959 72.78381385 39.91210938 76.74609375 C41.89011976 80.60848089 43.64247868 84.50269969 45.27734375 88.5234375 C48.09264453 95.37541837 51.32060119 101.99540995 54.58773804 108.63961792 C60.38632841 120.43725598 66.05741076 132.27816833 71.46142578 144.26269531 C73.40555455 148.5663717 75.39542687 152.82675603 77.53125 157.0390625 C79.997435 161.92384874 82.19438915 166.89342197 84.3125 171.9375 C84.85100586 173.19143555 84.85100586 173.19143555 85.40039062 174.47070312 C85.73876953 175.27314453 86.07714844 176.07558594 86.42578125 176.90234375 C86.72911377 177.61898193 87.03244629 178.33562012 87.3449707 179.07397461 C88 181 88 181 88 184 C75.05159546 190.47420227 47.54960598 182.07660098 34 178 C33.06285156 177.71946777 32.12570313 177.43893555 31.16015625 177.14990234 C11.62118947 171.15331213 -7.45458969 163.16820682 -24 151 C-25.54447988 150.11366551 -27.10454456 149.25313413 -28.6875 148.4375 C-34.99831433 144.95901361 -34.99831433 144.95901361 -37 142 C-37.62419527 135.50663535 -35.77381737 129.8724326 -33.9375 123.6875 C-33.2813079 121.41311901 -32.62639487 119.13836867 -31.97265625 116.86328125 C-31.6389502 115.70908691 -31.30524414 114.55489258 -30.96142578 113.36572266 C-29.5385971 108.38473836 -28.20550727 103.3812806 -26.875 98.375 C-22.94408845 83.66551968 -18.86389887 68.99729725 -14.79443359 54.32568359 C-9.77922295 36.2397328 -4.80429269 18.14327005 0 0 Z " fill="#D5A9BF" transform="translate(164,266)"/>
<path d="M0 0 C-0.54036993 6.42242947 -2.73644023 11.76480945 -5.1875 17.6875 C-8.22495473 25.20870199 -10.95990979 32.69963551 -13.1875 40.5 C-15.21907293 47.59734023 -17.61047974 54.30621291 -20.4453125 61.12890625 C-22.23973618 65.50579899 -23.77421426 69.96543354 -25.3125 74.4375 C-28.26126783 82.98859686 -31.39215029 91.46078796 -34.58862305 99.92211914 C-37.49757124 107.63092452 -40.32003296 115.36813191 -43.11425781 123.11914062 C-45.21198123 128.91045313 -47.41625659 134.6498319 -49.6875 140.375 C-52.0297547 146.30569243 -54.0995249 152.25323503 -55.93505859 158.36474609 C-59.26805017 169.35629601 -63.20483928 180.16164628 -67 191 C-71.70507812 191.25244141 -71.70507812 191.25244141 -74.359375 188.98046875 C-75.14828125 188.05878906 -75.9371875 187.13710938 -76.75 186.1875 C-77.1819165 185.68613525 -77.61383301 185.18477051 -78.05883789 184.66821289 C-78.95282772 183.62487071 -79.84026151 182.57587673 -80.72119141 181.52148438 C-81.87788864 180.14528407 -83.06800404 178.7973426 -84.26171875 177.453125 C-90.71915946 169.98707147 -95.7081281 161.74145904 -100.67871094 153.25048828 C-101.89672123 151.17590978 -103.13704428 149.11656938 -104.3828125 147.05859375 C-114.99581933 129.23386249 -121.37482041 110.13977612 -126 90 C-126.19142578 89.1754834 -126.38285156 88.3509668 -126.58007812 87.50146484 C-129.14975825 76.23244342 -129.14975825 76.23244342 -128 72 C-125.27622551 69.73018793 -123.14531983 68.53761457 -120 67 C-118.06390928 65.93467428 -116.1428026 64.84481254 -114.22143555 63.75317383 C-112.1204815 62.55993371 -110.01200397 61.38088967 -107.90234375 60.203125 C-104.79664622 58.45994145 -101.73091204 56.66289452 -98.6875 54.8125 C-94.6105438 52.3393712 -90.46098133 50.03892992 -86.265625 47.7734375 C-82.07920237 45.49994961 -77.91414491 43.18897809 -73.75 40.875 C-72.61498047 40.24513184 -72.61498047 40.24513184 -71.45703125 39.60253906 C-65.04349714 36.03789906 -58.66296824 32.45017071 -52.4375 28.5625 C-38.85063321 20.17844725 -25.16537623 11.95203441 -10.99609375 4.5859375 C-8.00529414 3.05102221 -8.00529414 3.05102221 -5.28515625 1.2890625 C-3 0 -3 0 0 0 Z " fill="#FDC78F" transform="translate(180,201)"/>
<path d="M0 0 C1.31093005 45.29991632 -15.51277909 87.22911625 -41 124 C-41.33 124.33 -41.66 124.66 -42 125 C-49.70519447 124.98070401 -56.97864435 122.8168362 -64.3125 120.6875 C-66.89656561 119.9562277 -69.48111797 119.22691607 -72.06640625 118.5 C-72.76285248 118.30343307 -73.45929871 118.10686615 -74.17684937 117.90434265 C-83.67423219 115.23229672 -93.2144167 112.71898192 -102.75 110.1875 C-106.6133977 109.16059395 -110.47663703 108.13309299 -114.33984375 107.10546875 C-115.30328705 106.84928268 -116.26673035 106.59309662 -117.2593689 106.32914734 C-123.9895214 104.53840497 -130.71639488 102.73572896 -137.44140625 100.92578125 C-138.36289459 100.67789352 -139.28438293 100.4300058 -140.23379517 100.17460632 C-143.77060306 99.22301387 -147.30738798 98.27134825 -150.84338379 97.31674194 C-161.53534512 94.43032649 -172.24563817 91.64495425 -183 89 C-183.33 87.68 -183.66 86.36 -184 85 C-173.24196826 79.5967341 -162.45591744 74.25568109 -151.625 69 C-150.90732452 68.65138916 -150.18964905 68.30277832 -149.45022583 67.94360352 C-140.64912423 63.67264061 -131.82913476 59.48825802 -122.85253906 55.59594727 C-117.4226411 53.23078104 -112.15128506 50.60563049 -106.87451172 47.91894531 C-102.49670914 45.70575289 -98.07313862 43.67641858 -93.5625 41.75 C-76.79980028 34.57357544 -60.43779387 26.36566225 -44.19873047 18.08105469 C-32.9611941 12.35052077 -21.55601818 7.05803856 -10 2 C-8.62908203 1.37738281 -8.62908203 1.37738281 -7.23046875 0.7421875 C-4.71037873 -0.09637135 -2.63878899 -0.15078794 0 0 Z " fill="#DAD38A" transform="translate(451,249)"/>
<path d="M0 0 C7.24558196 -0.67927331 14.5623982 3.6184433 21.16918945 6.26025391 C29.57356948 9.60756707 37.82808965 12.6734375 46.57421875 14.98828125 C51.46951737 16.43398518 56.15717018 18.32696108 60.89428711 20.21875 C66.67000104 22.51511083 72.4970217 24.60598216 78.375 26.625 C83.63770616 28.43552987 88.83105644 30.27728061 93.9375 32.5 C99.25385028 34.79774461 104.685078 36.58633254 110.1875 38.375 C119.05638777 41.26226914 127.61926827 44.6265422 136.20605469 48.25390625 C142.33358525 50.80231853 148.58573894 52.89573777 154.9375 54.8046875 C162.10809773 57.00459609 169.18976558 59.40713058 176.25 61.9375 C177.47074219 62.35451172 178.69148437 62.77152344 179.94921875 63.20117188 C181.10550781 63.61818359 182.26179687 64.03519531 183.453125 64.46484375 C184.49629883 64.832146 185.53947266 65.19944824 186.61425781 65.57788086 C189 67 189 67 189.96899414 69.50878906 C190 72 190 72 188.04296875 74.39453125 C187.10066406 75.19246094 186.15835938 75.99039063 185.1875 76.8125 C184.68412109 77.24409424 184.18074219 77.67568848 183.66210938 78.12036133 C182.12197836 79.43126017 180.56298373 80.71649683 179 82 C177.72576172 83.07894531 177.72576172 83.07894531 176.42578125 84.1796875 C170.60006441 89.00161738 164.44171184 93.05521011 158 97 C156.99066406 97.63808594 155.98132813 98.27617187 154.94140625 98.93359375 C151.65192884 100.99907956 148.33603212 103.01062305 145 105 C143.9171875 105.6496875 142.834375 106.299375 141.71875 106.96875 C122.97580566 117.60663733 100.43667386 125.27427723 79 128 C78.37182373 128.14477783 77.74364746 128.28955566 77.09643555 128.4387207 C74.71158498 128.78862046 73.28548143 128.80220733 71 128 C68.04065822 124.77640242 66.14883093 121.04529163 64.125 117.1875 C63.52276611 116.09759766 62.92053223 115.00769531 62.30004883 113.88476562 C60.49981938 110.60665725 58.74413748 107.30823169 57 104 C56.06387567 102.24605447 55.12768434 100.4921447 54.19140625 98.73828125 C52.5440597 95.63235972 50.91675429 92.51687453 49.30078125 89.39453125 C46.03915219 83.11834533 42.54970496 76.97272019 39.04394531 70.83056641 C38.06398051 69.11219034 37.09035966 67.39020081 36.1171875 65.66796875 C32.01641287 58.43584948 27.80350054 51.27552417 23.5625 44.125 C18.24485321 35.15309321 13.03879629 26.13128206 8 17 C7.65678711 16.38205566 7.31357422 15.76411133 6.95996094 15.12744141 C5.96765628 13.33800102 4.98244824 11.54486717 4 9.75 C3.1646875 8.22632813 3.1646875 8.22632813 2.3125 6.671875 C1.1970495 4.40113648 0.47054687 2.47037104 0 0 Z " fill="#7FCCCD" transform="translate(202,321)"/>
<path d="M0 0 C17.9965814 -0.94903847 36.72896211 1.99450159 54 7 C54.96711914 7.27521484 55.93423828 7.55042969 56.93066406 7.83398438 C79.39888407 14.37094134 108.00792396 25.00792396 125 42 C125.46587644 48.07966227 124.07839737 53.23627911 122.40234375 59.05078125 C121.99768639 60.49601418 121.99768639 60.49601418 121.58485413 61.97044373 C120.71053094 65.08681547 119.82397503 68.19956565 118.9375 71.3125 C118.33426563 73.45641876 117.73205485 75.60062579 117.13085938 77.74511719 C115.9521596 81.94830992 114.77008063 86.15052626 113.58544922 90.35205078 C111.67574774 97.1386667 109.82167362 103.93919516 108 110.75 C107.72913574 111.76070557 107.45827148 112.77141113 107.17919922 113.81274414 C105.43030566 120.35488118 103.70293753 126.90265408 101.98461914 133.45288086 C100.15723456 140.41621691 98.31440325 147.37543352 96.46383667 154.3326416 C95.95554183 156.24463417 95.44857169 158.15697875 94.94165039 160.06933594 C92.72155958 168.4081324 90.39794203 176.71092563 88 185 C85 184 85 184 83.484375 181.4921875 C82.89567783 180.29158474 82.31871785 179.08519475 81.75 177.875 C81.41991943 177.1934082 81.08983887 176.51181641 80.74975586 175.80957031 C79.96493624 174.1865654 79.18467968 172.56135009 78.40771484 170.93457031 C76.77404554 167.52896764 75.1161529 164.13543017 73.45703125 160.7421875 C67.46218643 148.46177653 61.53141306 136.16989625 56.00463867 123.66992188 C53.46143537 117.94210666 50.70736145 112.34834903 47.86401367 106.76464844 C45.39758482 101.88658674 43.2025398 96.92409477 41.05712891 91.89550781 C37.72108655 84.18740776 34.0040605 76.66075876 30.33044434 69.10992432 C25.67548689 59.53694604 21.17173879 49.90730681 16.77587891 40.21191406 C14.17401055 34.494996 11.47384333 28.84773917 8.625 23.25 C0 6.26641763 0 6.26641763 0 0 Z " fill="#8996CC" transform="translate(249,50)"/>
<path d="M0 0 C3.45399293 2.90209428 5.26543071 6.83936212 7.375 10.75 C8.26865681 12.38198955 9.16323349 14.01347564 10.05859375 15.64453125 C10.53409668 16.51287598 11.00959961 17.3812207 11.49951172 18.27587891 C24.86105763 42.53362855 38.84918316 66.46348511 53.12109375 90.1953125 C55.53477506 94.21390439 57.91232707 98.24918268 60.25 102.3125 C60.75660156 103.18358398 60.75660156 103.18358398 61.2734375 104.07226562 C63.13336472 107.31249316 64.61547265 110.53868163 66 114 C67.52825314 116.60515691 69.13838408 119.14606871 70.7578125 121.6953125 C72 124 72 124 72 127 C66.77587134 126.49735411 62.65644996 125.68661719 57.8125 123.5625 C50.36768201 120.42242204 42.77075017 117.79380101 35.125 115.1875 C32.60265336 114.3261312 30.08041586 113.46446371 27.55859375 112.6015625 C26.92983337 112.38643005 26.301073 112.17129761 25.65325928 111.949646 C19.1423168 109.71588255 12.66197484 107.39950671 6.1875 105.0625 C4.66890381 104.51468872 4.66890381 104.51468872 3.11962891 103.95581055 C-2.26730834 102.00615259 -7.64162178 100.0267441 -13 98 C-16.91595961 96.51895253 -20.83274058 95.04010604 -24.75 93.5625 C-25.75804687 93.18029297 -26.76609375 92.79808594 -27.8046875 92.40429688 C-32.88557256 90.49084336 -37.97505834 88.6534327 -43.1328125 86.95703125 C-48.53474925 85.18000887 -53.82931927 83.19398627 -59.125 81.125 C-66.53530281 78.26306242 -73.97872179 75.60874185 -81.53271484 73.15332031 C-87.16327289 71.31287481 -92.68762025 69.25514488 -98.21044922 67.11547852 C-103.84579754 64.96932276 -109.54508935 63.40318538 -115.40234375 61.95703125 C-116.68818359 61.48330078 -116.68818359 61.48330078 -118 61 C-118.495 59.515 -118.495 59.515 -119 58 C-116.46388474 54.19889747 -113.37872817 51.5024016 -109.8125 48.6875 C-106.37851468 45.95561391 -103.13813774 43.1876715 -100 40.125 C-93.6278436 34.40930021 -85.98560885 30.54627265 -78.53515625 26.42773438 C-76.11696498 25.06587165 -73.74474563 23.64725204 -71.375 22.203125 C-52.17862455 10.73534389 -22.6582941 -2.01407059 0 0 Z " fill="#A7D2A2" transform="translate(227,52)"/>
<path d="M0 0 C1.33721816 0.50699054 2.67486832 1.01284307 4.01293945 1.51757812 C6.65322742 2.51643681 9.28994167 3.52393558 11.92382812 4.53955078 C15.08295225 5.75326151 18.24901791 6.94390314 21.421875 8.12109375 C23.03160464 8.725619 24.64101321 9.33100037 26.25 9.9375 C26.96663818 10.20312744 27.68327637 10.46875488 28.42163086 10.74243164 C32.97629511 12.49831724 35.58149265 13.86756394 37.6965332 18.33032227 C38.06093506 19.27447998 38.42533691 20.2186377 38.80078125 21.19140625 C40.72177226 25.97121191 42.79215501 30.64497708 45.04296875 35.27734375 C45.34478058 35.89896393 45.64659241 36.52058411 45.95755005 37.16104126 C46.8858689 39.06692542 47.81758084 40.97111891 48.75 42.875 C49.69579068 44.81083596 50.64055649 46.74715541 51.58332825 48.6844635 C52.42989155 50.42344951 53.27966376 52.16087232 54.12963867 53.89819336 C57.97197536 62.04834662 57.66285646 67.01121471 54.77734375 75.44921875 C54.02822315 77.51147031 53.2686062 79.56993122 52.5 81.625 C52.09587891 82.71337158 51.69175781 83.80174316 51.27539062 84.9230957 C50.44238602 87.16448427 49.6069301 89.40496332 48.76904297 91.64453125 C47.62818083 94.75823997 46.55544074 97.88643543 45.50390625 101.03125 C44.85693219 102.89588933 44.20980475 104.76047545 43.5625 106.625 C43.29171631 107.47860107 43.02093262 108.33220215 42.74194336 109.21166992 C39.83681385 117.33801501 34.0873251 120.27539809 26.6328125 123.921875 C25.32052679 124.51667452 24.00532161 125.10506848 22.6875 125.6875 C15.213795 129.08902651 7.95306617 132.81639533 0.71923828 136.70019531 C-0.04146973 137.1072168 -0.80217773 137.51423828 -1.5859375 137.93359375 C-2.59406494 138.47777954 -2.59406494 138.47777954 -3.62255859 139.03295898 C-9.43763835 141.93111213 -15.67610432 141.68685032 -21.77734375 139.7578125 C-23.31582272 139.20904927 -24.84821375 138.6430018 -26.375 138.0625 C-27.62917725 137.5981958 -27.62917725 137.5981958 -28.90869141 137.12451172 C-30.7460922 136.4415338 -32.5812943 135.75261909 -34.41455078 135.05859375 C-37.69600163 133.84163185 -40.99918314 132.70110307 -44.30859375 131.5625 C-46.64378794 130.73073378 -48.9784305 129.8974171 -51.3125 129.0625 C-52.42359131 128.68883301 -53.53468262 128.31516602 -54.67944336 127.93017578 C-62.25972147 125.14236116 -65.81052224 122.13519908 -69.4375 114.9375 C-70.06914062 113.79410156 -70.70078125 112.65070313 -71.3515625 111.47265625 C-72.97690374 108.17373305 -74.5858388 104.86826395 -76.171875 101.55029297 C-77.64546958 98.50816158 -79.16896308 95.49259382 -80.6875 92.47265625 C-81.81425211 90.17012741 -82.93925034 87.86673948 -84.0625 85.5625 C-84.62018066 84.46945557 -85.17786133 83.37641113 -85.75244141 82.25024414 C-86.25952637 81.1905542 -86.76661133 80.13086426 -87.2890625 79.0390625 C-87.75135254 78.10400879 -88.21364258 77.16895508 -88.68994141 76.20556641 C-90.45467002 68.4907861 -86.75290356 60.3734073 -84.1015625 53.16796875 C-83.78093842 52.28393875 -83.46031433 51.39990875 -83.12997437 50.48908997 C-82.45619592 48.63828107 -81.77871291 46.78881689 -81.09765625 44.94067383 C-80.06035014 42.11915228 -79.04132353 39.29146756 -78.0234375 36.46289062 C-77.36307006 34.65585097 -76.70164829 32.84919619 -76.0390625 31.04296875 C-75.73787506 30.20332077 -75.43668762 29.36367279 -75.12637329 28.49858093 C-72.21957817 20.69379265 -68.83696049 16.66120201 -61.1875 13.125 C-59.74850131 12.43400304 -58.30970491 11.74258468 -56.87109375 11.05078125 C-56.13616699 10.70225098 -55.40124023 10.3537207 -54.64404297 9.99462891 C-51.82775152 8.64537664 -49.04234991 7.23930678 -46.25708008 5.82739258 C-43.62142339 4.49465631 -40.97417125 3.18592938 -38.32617188 1.87792969 C-36.4962669 0.9667619 -34.67795492 0.03507328 -32.859375 -0.8984375 C-31.75078125 -1.44757813 -30.6421875 -1.99671875 -29.5 -2.5625 C-28.54222656 -3.0471875 -27.58445313 -3.531875 -26.59765625 -4.03125 C-17.03160878 -7.1529268 -9.01503413 -3.49423188 0 0 Z M-19.4375 2.9375 C-19.44265625 3.87851563 -19.4478125 4.81953125 -19.453125 5.7890625 C-20.06996218 15.72014104 -20.06996218 15.72014104 -23.78515625 19.02734375 C-26.95163734 20.60015452 -30.08846034 21.80473658 -33.4375 22.9375 C-35.79311802 23.85043056 -38.14732803 24.7670039 -40.5 25.6875 C-41.56347656 26.07421875 -42.62695312 26.4609375 -43.72265625 26.859375 C-46.59091611 27.88923754 -46.59091611 27.88923754 -49.4375 29.9375 C-53.69080603 29.66601238 -56.24686889 28.75998136 -59.4375 25.9375 C-60.0975 26.2675 -60.7575 26.5975 -61.4375 26.9375 C-60.1285428 30.05947478 -60.1285428 30.05947478 -57.4375 31.9375 C-57.25139616 36.87959085 -57.74930171 40.76837138 -59.30078125 45.45703125 C-59.69330078 46.64361328 -60.08582031 47.83019531 -60.49023438 49.05273438 C-60.90595703 50.27283203 -61.32167969 51.49292969 -61.75 52.75 C-62.15412109 53.98943359 -62.55824219 55.22886719 -62.97460938 56.50585938 C-63.37099609 57.68599609 -63.76738281 58.86613281 -64.17578125 60.08203125 C-64.53712158 61.15815674 -64.89846191 62.23428223 -65.27075195 63.34301758 C-66.4375 65.9375 -66.4375 65.9375 -69.4375 67.9375 C-71.31904883 68.37861565 -73.21812638 68.7484267 -75.125 69.0625 C-76.11886719 69.23007813 -77.11273438 69.39765625 -78.13671875 69.5703125 C-78.89597656 69.69148438 -79.65523437 69.81265625 -80.4375 69.9375 C-80.4375 70.5975 -80.4375 71.2575 -80.4375 71.9375 C-79.19033203 72.01097656 -79.19033203 72.01097656 -77.91796875 72.0859375 C-76.83128906 72.16070312 -75.74460938 72.23546875 -74.625 72.3125 C-73.54605469 72.38210937 -72.46710938 72.45171875 -71.35546875 72.5234375 C-68.4375 72.9375 -68.4375 72.9375 -65.4375 74.9375 C-64.41015625 76.90527344 -64.41015625 76.90527344 -63.5 79.296875 C-63.16226563 80.16570312 -62.82453125 81.03453125 -62.4765625 81.9296875 C-62.13367188 82.83976562 -61.79078125 83.74984375 -61.4375 84.6875 C-60.75242047 86.47488794 -60.06497368 88.2613706 -59.375 90.046875 C-59.04822266 90.89378906 -58.72144531 91.74070312 -58.38476562 92.61328125 C-57.58784881 94.56860291 -56.66647848 96.47253375 -55.71875 98.359375 C-53.98597301 101.84606041 -53.88798885 104.09092195 -54.4375 107.9375 C-55.90620849 110.25785543 -57.50115019 111.95274144 -59.4375 113.9375 C-58.9425 114.9275 -58.9425 114.9275 -58.4375 115.9375 C-57.9528125 115.504375 -57.468125 115.07125 -56.96875 114.625 C-56.2984375 114.068125 -55.628125 113.51125 -54.9375 112.9375 C-54.2878125 112.380625 -53.638125 111.82375 -52.96875 111.25 C-47.35266077 108.33795373 -42.06595218 109.89407932 -36.29296875 111.58984375 C-34.06557121 112.33758466 -31.84294915 113.09968212 -29.625 113.875 C-28.49384766 114.22884766 -27.36269531 114.58269531 -26.19726562 114.94726562 C-18.19916009 117.73397899 -18.19916009 117.73397899 -16.03442383 121.15454102 C-15.26149739 123.43630499 -14.77359534 125.55589727 -14.4375 127.9375 C-14.210625 128.948125 -13.98375 129.95875 -13.75 131 C-13.646875 131.639375 -13.54375 132.27875 -13.4375 132.9375 C-11.07900581 129.39975872 -11.52549788 128.82952065 -11.9375 124.8125 C-11.7578125 121.8671875 -11.7578125 121.8671875 -10.4375 118.9375 C-5.19102655 114.77483353 1.41228964 112.4435394 7.5625 109.9375 C8.84990361 109.37455266 10.13645734 108.80965486 11.421875 108.2421875 C14.9243459 106.78718093 17.76867348 106.07801209 21.5625 105.9375 C24.3125 107.375 24.3125 107.375 26.5625 108.9375 C27.5525 108.9375 28.5425 108.9375 29.5625 108.9375 C28.51108193 106.67290723 27.5559535 104.93022611 25.875 103.0625 C23.97185139 99.98121177 24.76374865 98.46861363 25.5625 94.9375 C26.57350854 91.59096364 27.71276534 88.29665303 28.875 85 C29.31875977 83.69772461 29.31875977 83.69772461 29.77148438 82.36914062 C31.57713132 77.20959224 33.39089221 72.4143691 36.5625 67.9375 C39.140625 66.81640625 39.140625 66.81640625 41.8125 66.5 C42.70453125 66.37753906 43.5965625 66.25507813 44.515625 66.12890625 C45.19109375 66.06574219 45.8665625 66.00257813 46.5625 65.9375 C46.5625 65.2775 46.5625 64.6175 46.5625 63.9375 C45.88703125 63.92332031 45.2115625 63.90914062 44.515625 63.89453125 C43.62359375 63.84683594 42.7315625 63.79914063 41.8125 63.75 C40.93078125 63.71519531 40.0490625 63.68039063 39.140625 63.64453125 C35.47774135 62.64001316 34.60619859 61.1230221 32.5625 57.9375 C31.05913642 55.01044254 29.73548919 52.02288358 28.4375 49 C28.09074219 48.21431641 27.74398437 47.42863281 27.38671875 46.61914062 C21.88129071 34.0157182 21.88129071 34.0157182 23.5625 27.9375 C24.5226817 26.24758021 25.51605934 24.57540712 26.5625 22.9375 C26.5625 22.2775 26.5625 21.6175 26.5625 20.9375 C24.30444052 21.98588476 22.61799438 22.88398757 20.8125 24.625 C17.31985032 26.66237898 14.31713326 25.82094312 10.5625 24.9375 C7.32742494 24.04098247 4.14126133 23.06778755 0.95703125 22.00390625 C-2.40057007 20.88051118 -2.40057007 20.88051118 -5.80078125 20.27734375 C-9.1753658 19.5233157 -11.56661912 18.88156107 -14.4375 16.9375 C-16.66376688 12.35744737 -17.65513915 7.98237857 -18.4375 2.9375 C-18.7675 2.9375 -19.0975 2.9375 -19.4375 2.9375 Z " fill="#F7F8F7" transform="translate(268.4375,183.0625)"/>
<path d="M0 0 C0.81146484 0.30421875 1.62292969 0.6084375 2.45898438 0.921875 C4.0507639 1.52312828 5.63799253 2.13659551 7.2199707 2.76318359 C8.62379447 3.30876302 10.04121659 3.82148481 11.47338867 4.28759766 C14.99353353 5.5210616 16.32634058 6.44293257 18.29296875 9.6640625 C18.73253906 10.84742188 19.17210937 12.03078125 19.625 13.25 C20.1128246 14.51059348 20.60110628 15.77101017 21.08984375 17.03125 C21.53457031 18.2171875 21.97929687 19.403125 22.4375 20.625 C23.17215152 22.33998977 23.91951941 24.04967397 24.6875 25.75 C24.98140625 26.41257813 25.2753125 27.07515625 25.578125 27.7578125 C26.41786604 29.65257947 26.41786604 29.65257947 27.5 31.49291992 C30.5306409 38.38526028 25.90964038 48.27516369 23.6875 54.9375 C23.35234375 56.00806641 23.0171875 57.07863281 22.671875 58.18164062 C20.15697897 65.78824851 17.73799 68.87066232 10.73046875 72.66015625 C9.36508507 73.34219103 7.99651112 74.01787228 6.625 74.6875 C5.95146484 75.02587891 5.27792969 75.36425781 4.58398438 75.71289062 C1.20557968 77.38431189 -2.20576384 78.95460371 -5.69921875 80.37109375 C-6.29822998 80.61400146 -6.89724121 80.85690918 -7.5144043 81.10717773 C-12.62762422 82.39995869 -16.84924455 81.43856869 -21.73046875 79.7265625 C-22.87064453 79.32953125 -24.01082031 78.9325 -25.18554688 78.5234375 C-26.36181641 78.10320312 -27.53808594 77.68296875 -28.75 77.25 C-29.93787109 76.8375 -31.12574219 76.425 -32.34960938 76 C-43.82030511 71.96606276 -43.82030511 71.96606276 -45.88110352 68.24243164 C-46.31350342 67.26653076 -46.74590332 66.29062988 -47.19140625 65.28515625 C-47.90780273 63.6909082 -47.90780273 63.6909082 -48.63867188 62.06445312 C-49.12916016 60.95005859 -49.61964844 59.83566406 -50.125 58.6875 C-51.10326802 56.48990443 -52.08364394 54.29324566 -53.06640625 52.09765625 C-53.49767822 51.12062744 -53.9289502 50.14359863 -54.37329102 49.13696289 C-55.56268904 46.46727652 -55.56268904 46.46727652 -57.5625 43.625 C-57.32629765 36.30272706 -54.77290241 29.71475945 -52.3125 22.875 C-51.92964844 21.75222656 -51.54679688 20.62945312 -51.15234375 19.47265625 C-50.57419922 17.85423828 -50.57419922 17.85423828 -49.984375 16.203125 C-49.46762207 14.73987793 -49.46762207 14.73987793 -48.94042969 13.24707031 C-46.44918136 8.50645957 -42.33478042 6.3111616 -37.62109375 4.08203125 C-36.70779297 3.64826172 -35.79449219 3.21449219 -34.85351562 2.76757812 C-33.91185547 2.32865234 -32.97019531 1.88972656 -32 1.4375 C-31.05447266 0.98697266 -30.10894531 0.53644531 -29.13476562 0.07226562 C-18.1240155 -5.11796076 -11.24137977 -4.34224087 0 0 Z " fill="#F8757E" transform="translate(266.5625,212.375)"/>
<path d="M0 0 C0.66 0.33 1.32 0.66 2 1 C2.33 1.99 2.66 2.98 3 4 C4.85804317 5.44870619 4.85804317 5.44870619 7.0625 6.6875 C7.79597656 7.12449219 8.52945313 7.56148437 9.28515625 8.01171875 C9.85105469 8.33785156 10.41695312 8.66398438 11 9 C10.01 9.33 9.02 9.66 8 10 C8.75150023 13.27773504 8.75150023 13.27773504 12 15 C12.69752254 22.4424978 10.10000846 28.80310979 7.75 35.75 C7.35425781 36.98105469 6.95851562 38.21210938 6.55078125 39.48046875 C6.15761719 40.65738281 5.76445312 41.83429688 5.359375 43.046875 C5.00327148 44.11776367 4.64716797 45.18865234 4.28027344 46.29199219 C2.88457262 49.24414961 1.80871139 50.39304097 -1 52 C-3.796875 52.51171875 -3.796875 52.51171875 -6.75 52.6875 C-7.73484375 52.75324219 -8.7196875 52.81898438 -9.734375 52.88671875 C-10.85585937 52.94279297 -10.85585937 52.94279297 -12 53 C-12 53.66 -12 54.32 -12 55 C-10.77023438 54.94779297 -10.77023438 54.94779297 -9.515625 54.89453125 C-8.43796875 54.86746094 -7.3603125 54.84039062 -6.25 54.8125 C-4.64898437 54.76029297 -4.64898437 54.76029297 -3.015625 54.70703125 C0.40847891 55.03968383 1.61946415 55.55584181 4 58 C5.30078125 60.375 5.30078125 60.375 6.3125 63 C6.65925781 63.86625 7.00601563 64.7325 7.36328125 65.625 C8 68 8 68 7 71 C5.02 66.71 3.04 62.42 1 58 C-1.4440625 57.8453125 -1.4440625 57.8453125 -3.9375 57.6875 C-9.31036403 57.21424255 -13.99473778 55.96502887 -19 54 C-15.31146578 62.59930463 -11.52452299 71.08783801 -7.29296875 79.4375 C-5.69818818 82.59815274 -4.20489546 85.66881844 -3 89 C-3.33 89.99 -3.66 90.98 -4 92 C-4.38929688 91.16082031 -4.77859375 90.32164062 -5.1796875 89.45703125 C-5.44467041 88.88815186 -5.70965332 88.31927246 -5.98266602 87.7331543 C-6.58803335 86.4301653 -7.18997495 85.12558027 -7.78881836 83.81958008 C-9.68274526 79.71725049 -11.66847518 75.68434169 -13.76171875 71.6796875 C-14.22529785 70.76985107 -14.68887695 69.86001465 -15.16650391 68.92260742 C-16.08012584 67.1325923 -17.01531006 65.35338033 -17.97412109 63.5871582 C-18.3964502 62.74757568 -18.8187793 61.90799316 -19.25390625 61.04296875 C-19.63877197 60.31102295 -20.0236377 59.57907715 -20.42016602 58.82495117 C-21.9540647 51.35179679 -18.22151703 43.18075582 -15.6640625 36.23046875 C-15.34343842 35.34643875 -15.02281433 34.46240875 -14.69247437 33.55158997 C-14.01869592 31.70078107 -13.34121291 29.85131689 -12.66015625 28.00317383 C-11.62285014 25.18165228 -10.60382353 22.35396756 -9.5859375 19.52539062 C-8.92557006 17.71835097 -8.26414829 15.91169619 -7.6015625 14.10546875 C-7.30037506 13.26582077 -6.99918762 12.42617279 -6.68887329 11.56108093 C-5.01478901 7.06613965 -3.29969704 3.58972543 0 0 Z " fill="#FBC68F" transform="translate(200,200)"/>
<path d="M0 0 C2.15403345 2.7193996 3.77334735 5.364845 5.2265625 8.51171875 C5.814375 9.77145508 5.814375 9.77145508 6.4140625 11.05664062 C7.01347656 12.35891602 7.01347656 12.35891602 7.625 13.6875 C8.42782001 15.42143879 9.23241263 17.15455834 10.0390625 18.88671875 C10.39178223 19.65201904 10.74450195 20.41731934 11.10791016 21.20581055 C11.86879598 22.97491145 11.86879598 22.97491145 13 24 C14.41120902 24.22571184 15.83176043 24.39388349 17.25390625 24.53515625 C18.10791016 24.62216797 18.96191406 24.70917969 19.84179688 24.79882812 C20.73962891 24.88583984 21.63746094 24.97285156 22.5625 25.0625 C23.91504883 25.19881836 23.91504883 25.19881836 25.29492188 25.33789062 C27.52958434 25.56253923 29.76457839 25.78305769 32 26 C31.39378489 32.46931047 29.36744038 38.21578835 27.1875 44.3125 C26.84396484 45.29412109 26.50042969 46.27574219 26.14648438 47.28710938 C24.18595116 52.84501873 22.10029522 58.3351771 19.88598633 63.79663086 C18.778396 66.55110941 17.75300819 69.33090577 16.75 72.125 C16.41484375 73.05570312 16.0796875 73.98640625 15.734375 74.9453125 C15.49203125 75.62335938 15.2496875 76.30140625 15 77 C10.42409231 77.31199371 8.49497103 76.91247585 5 74 C2.85266073 73.29485154 2.85266073 73.29485154 1 73 C1 72.34 1 71.68 1 71 C2.65 71.33 4.3 71.66 6 72 C5.55527344 71.49210937 5.11054688 70.98421875 4.65234375 70.4609375 C4.08644531 69.77257812 3.52054687 69.08421875 2.9375 68.375 C2.36902344 67.70210938 1.80054688 67.02921875 1.21484375 66.3359375 C-0.76028231 62.53810667 0.48036394 59.72580551 1.66967773 55.77587891 C2.48838348 53.20980149 3.36206116 50.6679057 4.25 48.125 C4.53746094 47.26519531 4.82492187 46.40539062 5.12109375 45.51953125 C7.03781844 40.00371652 9.0865927 34.43616301 13 30 C15.67578125 29 15.67578125 29 18.3125 29 C19.63701172 28.9690625 19.63701172 28.9690625 20.98828125 28.9375 C21.65214844 28.958125 22.31601562 28.97875 23 29 C23 28.34 23 27.68 23 27 C22.33613281 27.06960937 21.67226563 27.13921875 20.98828125 27.2109375 C20.10527344 27.26507813 19.22226562 27.31921875 18.3125 27.375 C17.00732422 27.47941406 17.00732422 27.47941406 15.67578125 27.5859375 C12.44151316 26.87770361 11.15918259 25.51321431 9.19848633 22.8984375 C6.9737675 19.37441762 5.32242258 15.63766042 3.6875 11.8125 C3.32849609 11.00619141 2.96949219 10.19988281 2.59960938 9.36914062 C0 3.41232143 0 3.41232143 0 0 Z " fill="#F599A3" transform="translate(292,220)"/>
<path d="M0 0 C6.90983934 0.13233618 13.39854809 3.08878065 19.8125 5.4375 C21.52856445 6.04948242 21.52856445 6.04948242 23.27929688 6.67382812 C31.7414048 9.7414048 31.7414048 9.7414048 34 12 C34.62173629 14.25022905 35.15105891 16.52657204 35.625 18.8125 C36.01558594 20.64748047 36.01558594 20.64748047 36.4140625 22.51953125 C36.90702404 25.4477228 37.12382257 28.04514312 37 31 C31.01624991 29.80630055 25.38043491 28.22202266 19.67578125 26.06640625 C18.92588425 25.78780258 18.17598724 25.50919891 17.40336609 25.22215271 C15.83353131 24.63749433 14.26475541 24.04998538 12.69702148 23.4597168 C10.31038326 22.56170354 7.92018426 21.6737393 5.52929688 20.78710938 C3.9945724 20.21412862 2.46005965 19.64058038 0.92578125 19.06640625 C0.21940018 18.80380508 -0.4869809 18.54120392 -1.21476746 18.27064514 C-5.27662218 16.73608002 -9.14444533 15.01402841 -13 13 C-11.7497504 9.2492512 -10.19172201 8.9376643 -6.828125 7.1875 C-4.8317886 5.89073447 -3.84889161 4.62990392 -2.5 2.6875 C-1.675 1.800625 -0.85 0.91375 0 0 Z " fill="#80CCCA" transform="translate(218,292)"/>
<path d="M0 0 C3.02936606 2.77361172 4.82012253 5.22507756 6.48046875 8.97265625 C6.91834717 9.94638184 7.35622559 10.92010742 7.80737305 11.92333984 C8.26281494 12.9592627 8.71825684 13.99518555 9.1875 15.0625 C10.1550425 17.22319736 11.12381038 19.3833464 12.09375 21.54296875 C12.57714844 22.62368652 13.06054688 23.7044043 13.55859375 24.81787109 C16.06506725 30.35130192 18.7044284 35.82132619 21.3581543 41.28540039 C24 46.78635485 24 46.78635485 24 49 C20.93141711 49.04818187 17.88013752 49.04027533 14.8125 49 C13.94818359 49.01933594 13.08386719 49.03867188 12.19335938 49.05859375 C5.9410045 48.91486145 5.9410045 48.91486145 3.41821289 46.4621582 C2.07014386 44.3665731 1.01965948 42.27293562 0 40 C-0.36037354 39.27345215 -0.72074707 38.5469043 -1.09204102 37.79833984 C-2.16500631 35.61150656 -3.18280909 33.40643724 -4.1875 31.1875 C-4.86628721 29.70081539 -5.54719494 28.21509669 -6.23046875 26.73046875 C-6.52332764 26.08489014 -6.81618652 25.43931152 -7.11791992 24.77416992 C-8.0843511 22.73667403 -8.0843511 22.73667403 -10 20 C-9.89611345 15.32510523 -8.45520279 13.05714026 -5.34375 9.65625 C-2.97616445 6.73806316 -1.58000037 3.39407488 0 0 Z " fill="#8A95CB" transform="translate(300,197)"/>
<path d="M0 0 C1.258125 0.309375 2.51625 0.61875 3.8125 0.9375 C6.60453759 1.61128825 8.95534642 2.00104561 11.8359375 1.93359375 C14.9097079 1.87043408 17.10791911 1.92439584 20 3 C22.99374092 6.92064917 26 11.92988511 26 17 C26.66 17 27.32 17 28 17 C28.85016793 18.67908165 29.67936025 20.36879073 30.5 22.0625 C30.9640625 23.00222656 31.428125 23.94195312 31.90625 24.91015625 C33.21655072 28.61175578 33.48375887 31.09537482 33 35 C31.56468897 37.41211992 30.2691396 39.32037648 28.5 41.4375 C28.07074219 41.97826172 27.64148438 42.51902344 27.19921875 43.07617188 C26.14784571 44.39622913 25.07594844 45.69989563 24 47 C21.6015625 46.65625 21.6015625 46.65625 19 46 C16.94981225 42.845865 15.83363753 39.55103884 14.6875 36 C11.2917555 25.49606493 6.42515796 15.61994477 1.3203125 5.86328125 C0 3 0 3 0 0 Z " fill="#D3A8BD" transform="translate(181,254)"/>
<path d="M0 0 C-0.05184083 3.10553392 -0.1468995 6.20827831 -0.25 9.3125 C-0.26417969 10.19357422 -0.27835938 11.07464844 -0.29296875 11.98242188 C-0.32519531 12.82998047 -0.35742188 13.67753906 -0.390625 14.55078125 C-0.41157227 15.33106689 -0.43251953 16.11135254 -0.45410156 16.9152832 C-1.21744536 19.83039621 -2.44376584 20.46507194 -5 22 C-6.84649629 22.93289109 -8.71789349 23.8173666 -10.60546875 24.6640625 C-11.67087891 25.14617187 -12.73628906 25.62828125 -13.83398438 26.125 C-14.94064453 26.62 -16.04730469 27.115 -17.1875 27.625 C-19.39019102 28.61525879 -21.5920614 29.6073457 -23.79296875 30.6015625 C-24.7677417 31.03807129 -25.74251465 31.47458008 -26.74682617 31.92431641 C-28.91845782 32.8072996 -28.91845782 32.8072996 -30 34 C-32.25 34.375 -32.25 34.375 -35 34 C-37.375 31.8125 -37.375 31.8125 -40 29 C-42.27832956 27.24012122 -44.62474315 25.63007823 -47 24 C-46.25 20.203125 -46.25 20.203125 -44 18.375 C-41.41840255 17.19176783 -39.6332576 16.69711509 -36.8984375 16.21484375 C-31.61679681 15.08077533 -27.31115063 12.8081363 -22.625 10.1875 C-20.96343339 9.2855577 -19.30067714 8.38580339 -17.63671875 7.48828125 C-16.84313965 7.05854004 -16.04956055 6.62879883 -15.23193359 6.18603516 C-3.5907781 0 -3.5907781 0 0 0 Z " fill="#8F86BE" transform="translate(248,179)"/>
<path d="M0 0 C1.0725 0.2475 2.145 0.495 3.25 0.75 C3.745 2.73 3.745 2.73 4.25 4.75 C5.013125 4.87375 5.77625 4.9975 6.5625 5.125 C9.25 5.75 9.25 5.75 12.25 7.75 C14.2396995 8.14013716 16.24019869 8.48202649 18.25 8.75 C15.54264674 12.00479602 11.98883603 13.5249924 8.25 15.3125 C1.02161364 18.83901281 -6.10041381 22.53754584 -13.18945312 26.33618164 C-25.24614243 32.75 -25.24614243 32.75 -30.75 32.75 C-30.83089542 29.97858283 -30.89044062 27.20952181 -30.9375 24.4375 C-30.97520508 23.25897461 -30.97520508 23.25897461 -31.01367188 22.05664062 C-31.02333984 21.29931641 -31.03300781 20.54199219 -31.04296875 19.76171875 C-31.0586792 19.06522217 -31.07438965 18.36872559 -31.09057617 17.65112305 C-30.63873338 15.12890097 -29.72767019 14.33998584 -27.75 12.75 C-26.00415039 11.69091797 -26.00415039 11.69091797 -24.09765625 10.7421875 C-23.40349609 10.39542969 -22.70933594 10.04867188 -21.99414062 9.69140625 C-21.27419922 9.33949219 -20.55425781 8.98757813 -19.8125 8.625 C-19.09642578 8.26535156 -18.38035156 7.90570313 -17.64257812 7.53515625 C-12.23430951 4.85858958 -12.23430951 4.85858958 -9.62670898 4.27392578 C-7.51238816 3.87190884 -7.51238816 3.87190884 -5.9375 1.625 C-3.75 -0.25 -3.75 -0.25 0 0 Z " fill="#D9D48C" transform="translate(288.75,288.25)"/>
<path d="M0 0 C7.78344951 1.47545688 14.92233983 4.05382589 22.3125 6.875 C30.82175629 10.09885539 39.34281568 13.19412976 48 16 C48 20 48 20 46.609375 21.81640625 C44.7527166 23.5599489 42.89318833 25.2961305 41 27 C40.34 27.639375 39.68 28.27875 39 28.9375 C36.01391027 30.52386017 33.31204532 30.19107954 30 30 C30 29.34 30 28.68 30 28 C28.2675 27.690625 28.2675 27.690625 26.5 27.375 C24.66343971 26.92977326 22.83068359 26.46880502 21 26 C20.36239746 25.85949219 19.72479492 25.71898437 19.06787109 25.57421875 C14.11708815 24.43467011 9.02192808 23.23900575 5 20 C2.0438709 15.19002723 1.61308368 9.50023641 1 4 C0.68468497 2.66229102 0.35577568 1.32752121 0 0 Z " fill="#A7D2A0" transform="translate(249,179)"/>
<path d="M0 0 C0.33 0.66 0.66 1.32 1 2 C-0.10096078 4.91754606 -1.27101311 7.76164358 -2.5 10.625 C-12.74584053 35.4931931 -17.83830084 60.11227684 -17 87 C-16.11183594 86.55011719 -15.22367188 86.10023438 -14.30859375 85.63671875 C1.5407315 77.64218868 17.5111146 69.8968999 33.77587891 62.78173828 C39.50674715 60.26057276 45.06861818 57.48574959 50.6484375 54.64453125 C54.01527173 52.99250653 57.41612179 51.51085645 60.875 50.0625 C66.79581394 47.57722008 72.51043822 44.80413358 78.23193359 41.8996582 C82.89216906 39.53766004 87.59315741 37.31091088 92.375 35.203125 C94.5190521 34.22043445 96.61597059 33.19103593 98.71875 32.125 C103.24628998 29.84639257 107.86528993 27.79930615 112.5 25.75 C119.48991169 22.63664022 126.36381512 19.36756027 133.17919922 15.89086914 C138.56451129 13.16538418 144.04807871 10.71401886 149.59863281 8.34521484 C152.56401103 7.07841391 155.46140192 5.76497677 158.3359375 4.30078125 C161 3 161 3 163 3 C163 2.34 163 1.68 163 1 C163.99 1.33 164.98 1.66 166 2 C163.64628078 4.67037169 161.35801184 5.91816051 158.10546875 7.32421875 C157.12497559 7.75524902 156.14448242 8.1862793 155.13427734 8.63037109 C154.09996582 9.08234863 153.0656543 9.53432617 152 10 C149.93153654 10.9394942 147.8651562 11.88358698 145.80078125 12.83203125 C144.74487793 13.31639648 143.68897461 13.80076172 142.60107422 14.29980469 C132.26378812 19.05480281 121.98679862 23.88291942 111.85205078 29.05566406 C85.35483917 42.56623808 85.35483917 42.56623808 75.6875 45.875 C68.95717163 48.24415295 62.7086137 51.5365921 56.37353516 54.78466797 C44.82796257 60.69640016 33.3229562 66.58229013 21.3359375 71.55078125 C17.5634434 73.18965164 13.91349264 75.00841432 10.25 76.875 C4.31104687 79.88981208 -1.67927233 82.75945094 -7.75 85.5 C-8.51280273 85.85046387 -9.27560547 86.20092773 -10.06152344 86.56201172 C-10.77856445 86.88186035 -11.49560547 87.20170898 -12.234375 87.53125 C-13.18135254 87.95760742 -13.18135254 87.95760742 -14.14746094 88.39257812 C-16 89 -16 89 -20 89 C-21.13596752 65.10260926 -15.84569089 41.34580978 -8.5 18.75 C-8.22768555 17.90477783 -7.95537109 17.05955566 -7.67480469 16.1887207 C-5.71655542 10.40544225 -3.12774325 5.23912727 0 0 Z " fill="#F6F5F9" transform="translate(70,164)"/>
<path d="M0 0 C1.65 0 3.3 0 5 0 C6.31093005 45.29991632 -10.51277909 87.22911625 -36 124 C-36.33 124.33 -36.66 124.66 -37 125 C-44.70519447 124.98070401 -51.97864435 122.8168362 -59.3125 120.6875 C-61.89656561 119.9562277 -64.48111797 119.22691607 -67.06640625 118.5 C-67.76285248 118.30343307 -68.45929871 118.10686615 -69.17684937 117.90434265 C-77.72302856 115.49991358 -86.30421256 113.22697327 -94.88467407 110.94857788 C-97.75447372 110.18631171 -100.62376776 109.42217011 -103.49291992 108.6574707 C-112.31145964 106.30772407 -121.13150182 103.96386609 -129.9552002 101.63356018 C-133.76985633 100.62509537 -137.5833419 99.61225377 -141.39660645 98.59854126 C-143.20522306 98.11891517 -145.0143826 97.64133142 -146.82409668 97.16586304 C-149.32420795 96.50886315 -151.82242061 95.84506727 -154.3203125 95.1796875 C-155.42794449 94.89142342 -155.42794449 94.89142342 -156.55795288 94.59733582 C-159.81702797 93.72225644 -162.16260995 92.89159336 -165 91 C-159.2321477 91.60705646 -153.82207814 92.68312754 -148.2265625 94.1875 C-147.39779602 94.40581482 -146.56902954 94.62412964 -145.71514893 94.84906006 C-143.01708758 95.56106328 -140.32103927 96.28038161 -137.625 97 C-135.73986078 97.49945649 -133.85460542 97.99847486 -131.96923828 98.49707031 C-128.14482523 99.5091667 -124.32117914 100.52409246 -120.49804688 101.54101562 C-115.50700028 102.86740812 -110.51211786 104.17867294 -105.515625 105.484375 C-91.90827672 109.04593327 -78.3296767 112.6634083 -64.85498047 116.70605469 C-51.48001899 121.58232746 -51.48001899 121.58232746 -38 122 C-35.1357993 118.65384245 -33.1591523 114.82304632 -31 111 C-30.22653224 109.78583163 -29.44358512 108.57766134 -28.65234375 107.375 C-14.01143958 85.06450569 -3.97924252 59.44270839 0 33 C0.20109375 31.8759375 0.4021875 30.751875 0.609375 29.59375 C1.71417291 22.96496253 2.19695977 16.45852852 2.25 9.75 C2.25926514 9.01023926 2.26853027 8.27047852 2.27807617 7.50830078 C2.38556204 3.29457623 2.38556204 3.29457623 0 0 Z " fill="#FCFCF7" transform="translate(446,249)"/>
<path d="M0 0 C0.66 0.33 1.32 0.66 2 1 C2.33 1.99 2.66 2.98 3 4 C4.85804317 5.44870619 4.85804317 5.44870619 7.0625 6.6875 C7.79597656 7.12449219 8.52945313 7.56148437 9.28515625 8.01171875 C9.85105469 8.33785156 10.41695312 8.66398438 11 9 C10.01 9.33 9.02 9.66 8 10 C8.75150023 13.27773504 8.75150023 13.27773504 12 15 C12.69752254 22.4424978 10.10000846 28.80310979 7.75 35.75 C7.35425781 36.98105469 6.95851562 38.21210938 6.55078125 39.48046875 C6.15761719 40.65738281 5.76445312 41.83429688 5.359375 43.046875 C5.00327148 44.11776367 4.64716797 45.18865234 4.28027344 46.29199219 C2.88457262 49.24414961 1.80871139 50.39304097 -1 52 C-3.796875 52.51171875 -3.796875 52.51171875 -6.75 52.6875 C-7.73484375 52.75324219 -8.7196875 52.81898438 -9.734375 52.88671875 C-10.85585937 52.94279297 -10.85585937 52.94279297 -12 53 C-12 53.66 -12 54.32 -12 55 C-10.77023438 54.94779297 -10.77023438 54.94779297 -9.515625 54.89453125 C-8.43796875 54.86746094 -7.3603125 54.84039062 -6.25 54.8125 C-4.64898437 54.76029297 -4.64898437 54.76029297 -3.015625 54.70703125 C0.40847891 55.03968383 1.61946415 55.55584181 4 58 C5.30078125 60.375 5.30078125 60.375 6.3125 63 C6.65925781 63.86625 7.00601563 64.7325 7.36328125 65.625 C8 68 8 68 7 71 C5.02 66.71 3.04 62.42 1 58 C-1.4440625 57.8453125 -1.4440625 57.8453125 -3.9375 57.6875 C-9.31036403 57.21424255 -13.99473778 55.96502887 -19 54 C-15.31146578 62.59930463 -11.52452299 71.08783801 -7.29296875 79.4375 C-5.69818818 82.59815274 -4.20489546 85.66881844 -3 89 C-3.33 89.99 -3.66 90.98 -4 92 C-4.38929688 91.16082031 -4.77859375 90.32164062 -5.1796875 89.45703125 C-5.44467041 88.88815186 -5.70965332 88.31927246 -5.98266602 87.7331543 C-6.58803335 86.4301653 -7.18997495 85.12558027 -7.78881836 83.81958008 C-9.68274526 79.71725049 -11.66847518 75.68434169 -13.76171875 71.6796875 C-14.22529785 70.76985107 -14.68887695 69.86001465 -15.16650391 68.92260742 C-16.08012584 67.1325923 -17.01531006 65.35338033 -17.97412109 63.5871582 C-18.3964502 62.74757568 -18.8187793 61.90799316 -19.25390625 61.04296875 C-19.63877197 60.31102295 -20.0236377 59.57907715 -20.42016602 58.82495117 C-21.9540647 51.35179679 -18.22151703 43.18075582 -15.6640625 36.23046875 C-15.34343842 35.34643875 -15.02281433 34.46240875 -14.69247437 33.55158997 C-14.01869592 31.70078107 -13.34121291 29.85131689 -12.66015625 28.00317383 C-11.62285014 25.18165228 -10.60382353 22.35396756 -9.5859375 19.52539062 C-8.92557006 17.71835097 -8.26414829 15.91169619 -7.6015625 14.10546875 C-7.30037506 13.26582077 -6.99918762 12.42617279 -6.68887329 11.56108093 C-5.01478901 7.06613965 -3.29969704 3.58972543 0 0 Z M-1 3 C-5.73321165 13.84595231 -9.80514047 24.95119114 -13.90673828 36.04736328 C-14.65340625 38.06393373 -15.4073177 40.07783316 -16.16748047 42.08935547 C-16.53373535 43.0692041 -16.89999023 44.04905273 -17.27734375 45.05859375 C-17.60855225 45.93700928 -17.93976074 46.8154248 -18.28100586 47.72045898 C-19.15040192 50.07846925 -19.15040192 50.07846925 -19 53 C-15.90628313 52.78518352 -12.83227088 52.46498924 -9.75 52.125 C-8.87730469 52.06570312 -8.00460938 52.00640625 -7.10546875 51.9453125 C-4.42315781 51.617702 -2.41396542 51.22511486 0 50 C2.13598442 46.90524334 2.99946106 43.59636443 4 40 C4.64263382 38.18663378 5.29498846 36.37668307 5.95703125 34.5703125 C6.57865087 32.75627789 7.19713699 30.94116653 7.8125 29.125 C8.29879883 27.74054688 8.29879883 27.74054688 8.79492188 26.328125 C9.09591797 25.43867188 9.39691406 24.54921875 9.70703125 23.6328125 C9.9800708 22.83762207 10.25311035 22.04243164 10.53442383 21.22314453 C11.04689396 18.77607951 10.79602119 17.34423055 10 15 C9.34 15 8.68 15 8 15 C7.79375 14.319375 7.5875 13.63875 7.375 12.9375 C5.55930804 9.05852171 3.00376505 6.03879438 0 3 C-0.33 3 -0.66 3 -1 3 Z " fill="#F8F0ED" transform="translate(200,200)"/>
<path d="M0 0 C6.73259822 0.56263923 12.60384582 2.8960565 18.875 5.3125 C19.91269531 5.70373047 20.95039063 6.09496094 22.01953125 6.49804688 C28.10353475 8.81119575 34.08756915 11.27773641 40 14 C39.54002177 18.60785213 38.03991017 20.34503765 34.5625 23.3125 C33.655 24.08980469 32.7475 24.86710937 31.8125 25.66796875 C30.884375 26.43753906 29.95625 27.20710938 29 28 C28.175 28.69738281 27.35 29.39476562 26.5 30.11328125 C20.63957166 34.95001297 14.47312269 39.03597466 8 43 C6.99066406 43.63808594 5.98132813 44.27617187 4.94140625 44.93359375 C1.65192884 46.99907956 -1.66396788 49.01062305 -5 51 C-6.62421875 51.97453125 -6.62421875 51.97453125 -8.28125 52.96875 C-27.02419434 63.60663733 -49.56332614 71.27427723 -71 74 C-71.63760254 74.12810059 -72.27520508 74.25620117 -72.93212891 74.38818359 C-75.24866367 74.68028509 -76.76643913 74.70897833 -79 74 C-81.66702212 71.22394624 -83.30901367 68.02925798 -85.0625 64.625 C-85.55943359 63.73554688 -86.05636719 62.84609375 -86.56835938 61.9296875 C-89.13335815 57.22064942 -89.13335815 57.22064942 -90 55 C-89.67 54.34 -89.34 53.68 -89 53 C-87.51092705 55.22308063 -86.03377283 57.45268345 -84.5625 59.6875 C-84.14162109 60.31333984 -83.72074219 60.93917969 -83.28710938 61.58398438 C-81.02936566 65.03381677 -79.44137697 67.8029063 -79 72 C-65.87627525 70.51133869 -53.70480377 68.16445109 -41.23925781 63.77636719 C-39.09450582 63.03276586 -36.93982353 62.34162784 -34.7734375 61.6640625 C-10.75909591 53.96390364 10.54365112 39.85090427 29.625 23.625 C30.22932861 23.11300049 30.83365723 22.60100098 31.45629883 22.07348633 C34.05250178 19.83581548 36.08732469 17.86901296 38 15 C37.31075439 14.75354736 36.62150879 14.50709473 35.91137695 14.25317383 C10.62339399 5.20289345 10.62339399 5.20289345 0 1 C0 0.67 0 0.34 0 0 Z " fill="#F5FAFA" transform="translate(352,375)"/>
<path d="M0 0 C3.45913777 1.30869688 6.64689069 2.77133516 9.8125 4.6875 C10.60269531 5.14511719 11.39289063 5.60273437 12.20703125 6.07421875 C14.38443618 8.41291293 14.30791105 9.77959669 14.22200012 12.88957214 C13.7831035 17.06191061 12.56123441 21.0304014 11.40234375 25.05078125 C10.99768639 26.49601418 10.99768639 26.49601418 10.58485413 27.97044373 C9.71053094 31.08681547 8.82397503 34.19956565 7.9375 37.3125 C7.33426563 39.45641876 6.73205485 41.60062579 6.13085938 43.74511719 C4.9521596 47.94830992 3.77008063 52.15052626 2.58544922 56.35205078 C0.67574774 63.1386667 -1.17832638 69.93919516 -3 76.75 C-3.27086426 77.76070557 -3.54172852 78.77141113 -3.82080078 79.81274414 C-5.56969434 86.35488118 -7.29706247 92.90265408 -9.01538086 99.45288086 C-10.84276544 106.41621691 -12.68559675 113.37543352 -14.53616333 120.3326416 C-15.04445817 122.24463417 -15.55142831 124.15697875 -16.05834961 126.06933594 C-18.27844042 134.4081324 -20.60205797 142.71092563 -23 151 C-23.99 150.67 -24.98 150.34 -26 150 C-25.82114258 149.48155518 -25.64228516 148.96311035 -25.45800781 148.42895508 C-23.35359378 142.23481792 -21.50924486 135.9875597 -19.75 129.6875 C-19.44843994 128.61081055 -19.14687988 127.53412109 -18.83618164 126.42480469 C-16.23680085 117.04627655 -13.87998176 107.61457494 -11.55566406 98.16479492 C-9.63181043 90.39020725 -7.52485847 82.69460641 -5.26928711 75.01074219 C-2.80848259 66.53508998 -0.71863643 57.973792 1.38134766 49.40283203 C3.41245877 41.17315452 5.62675629 33.0197149 8.13476562 24.921875 C9.82224932 19.30006302 10.60158552 13.85315481 11 8 C10.2059375 7.50628906 9.411875 7.01257813 8.59375 6.50390625 C7.5728125 5.86324219 6.551875 5.22257812 5.5 4.5625 C4.4790625 3.92441406 3.458125 3.28632812 2.40625 2.62890625 C1.6121875 2.09136719 0.818125 1.55382812 0 1 C0 0.67 0 0.34 0 0 Z " fill="#F6F7FA" transform="translate(360,84)"/>
<path d="M0 0 C-0.54036993 6.42242947 -2.73644023 11.76480945 -5.1875 17.6875 C-8.22495473 25.20870199 -10.95990979 32.69963551 -13.1875 40.5 C-15.21907293 47.59734023 -17.61047974 54.30621291 -20.4453125 61.12890625 C-22.23973618 65.50579899 -23.77421426 69.96543354 -25.3125 74.4375 C-28.25998324 82.98487171 -31.38974562 91.45326837 -34.58422852 99.91113281 C-37.19038255 106.81868996 -39.73981784 113.74451941 -42.25 120.6875 C-45.07414643 128.49604636 -47.96630667 136.26991604 -51 144 C-53.7141551 135.85753469 -46.31249975 123.36379331 -43.25 115.625 C-39.29290507 105.4805798 -35.59669068 95.27852136 -32.0625 84.98046875 C-24.47654158 62.88562402 -16.64157502 40.82126409 -8.1640625 19.05078125 C-6.00926522 13.40347697 -4.00849976 7.7007206 -2 2 C-2.99 1.67 -3.98 1.34 -5 1 C-3 0 -3 0 0 0 Z " fill="#FDFAF5" transform="translate(180,201)"/>
<path d="M0 0 C1.998565 0.55386524 3.99726823 1.1072319 5.99609375 1.66015625 C7.54272705 2.08965576 7.54272705 2.08965576 9.12060547 2.52783203 C13.92795433 3.85576553 18.74519147 5.14625452 23.5625 6.4375 C32.3169343 8.78724052 41.06601261 11.15603562 49.8125 13.53515625 C52.99990736 14.40131062 56.18735699 15.26730928 59.37481689 16.13327026 C61.46644479 16.70198304 63.55788214 17.27139718 65.64910889 17.84158325 C79.12382443 21.51521109 92.62311649 25.04697038 106.1875 28.375 C106.1875 28.705 106.1875 29.035 106.1875 29.375 C101.13523786 29.55375187 96.96076053 28.99807852 92.09765625 27.64453125 C91.41700607 27.45797974 90.7363559 27.27142822 90.03507996 27.07922363 C87.77104927 26.4567962 85.51065713 25.82206059 83.25 25.1875 C81.63340045 24.74082972 80.016531 24.29513528 78.39941406 23.8503418 C74.88854538 22.88406223 71.37883381 21.91370936 67.86962891 20.94140625 C61.90237045 19.29200261 55.92661737 17.67471206 49.94921875 16.0625 C48.40215492 15.64507034 48.40215492 15.64507034 46.82383728 15.21920776 C44.73655344 14.65612825 42.64924774 14.09312978 40.56192017 13.5302124 C15.2373201 6.69971156 15.2373201 6.69971156 5.7890625 3.9921875 C4.61956055 3.65791748 3.45005859 3.32364746 2.24511719 2.97924805 C0.21494763 2.39446079 -1.81328433 1.80287461 -3.83886719 1.20239258 C-10.24208058 -0.78766899 -10.24208058 -0.78766899 -16.8125 -0.625 C-18.77177722 1.38820228 -20.1652001 3.07601648 -21.6875 5.375 C-22.29078125 6.23351562 -22.29078125 6.23351562 -22.90625 7.109375 C-23.8929061 8.51888371 -24.85518106 9.94540372 -25.8125 11.375 C-26.1425 10.715 -26.4725 10.055 -26.8125 9.375 C-25.52639867 7.3920112 -24.23400861 5.41366624 -22.9375 3.4375 C-22.21820313 2.33535156 -21.49890625 1.23320312 -20.7578125 0.09765625 C-15.99978163 -6.56167611 -6.71346346 -1.89085177 0 0 Z " fill="#E0DEEB" transform="translate(109.8125,130.625)"/>
<path d="M0 0 C-1.09501831 0.36291138 -1.09501831 0.36291138 -2.2121582 0.7331543 C-18.1970735 6.24212104 -18.1970735 6.24212104 -29.31446838 18.23066711 C-30.81007606 21.42362696 -32.05766794 24.66136146 -33.1875 28 C-33.40878571 28.64923431 -33.63007141 29.29846863 -33.85806274 29.96737671 C-37.09871291 39.60732226 -37.09871291 39.60732226 -35.01611328 49.21655273 C-34.62149902 49.94817627 -34.22688477 50.6797998 -33.8203125 51.43359375 C-33.16869141 52.6546582 -33.16869141 52.6546582 -32.50390625 53.90039062 C-32.04886719 54.73763672 -31.59382812 55.57488281 -31.125 56.4375 C-30.23127982 58.10260113 -29.33803955 59.76795995 -28.4453125 61.43359375 C-28.0124292 62.22072754 -27.5795459 63.00786133 -27.13354492 63.81884766 C-26 66 -26 66 -24.74609375 69.36328125 C-22.06815828 73.40714354 -18.41554679 74.25848481 -13.9375 75.75 C-12.29922964 76.32371336 -10.66243068 76.90165077 -9.02734375 77.484375 C-7.94054321 77.85127441 -7.94054321 77.85127441 -6.83178711 78.22558594 C-5 79 -5 79 -3 81 C-4.67059878 80.68696867 -6.33603534 80.34656961 -8 80 C-8.9293335 79.80833252 -8.9293335 79.80833252 -9.87744141 79.61279297 C-23.8109209 76.48066635 -23.8109209 76.48066635 -27.6796875 70.46484375 C-29.47341093 67.09193543 -30.8678983 63.58335002 -32.20019531 60.00683594 C-33.75879923 56.09605321 -35.99555427 52.50135869 -38.06640625 48.84375 C-40.62581608 41.04772342 -36.38396895 32.5722632 -33.75 25.25 C-33.36714844 24.12722656 -32.98429688 23.00445312 -32.58984375 21.84765625 C-32.01169922 20.22923828 -32.01169922 20.22923828 -31.421875 18.578125 C-30.90512207 17.11487793 -30.90512207 17.11487793 -30.37792969 15.62207031 C-26.97528599 9.14716009 -19.67878639 6.67192203 -13.375 3.6875 C-12.42109375 3.22021484 -11.4671875 2.75292969 -10.484375 2.27148438 C-9.56914062 1.83513672 -8.65390625 1.39878906 -7.7109375 0.94921875 C-6.87868652 0.55049561 -6.04643555 0.15177246 -5.18896484 -0.2590332 C-3 -1 -3 -1 0 0 Z " fill="#FDF4F5" transform="translate(248,210)"/>
<path d="M0 0 C1.32 0.66 2.64 1.32 4 2 C4.28004821 9.58523729 2.15587677 15.63795677 -0.25 22.75 C-0.64574219 23.98105469 -1.04148438 25.21210938 -1.44921875 26.48046875 C-1.84238281 27.65738281 -2.23554688 28.83429688 -2.640625 30.046875 C-2.99672852 31.11776367 -3.35283203 32.18865234 -3.71972656 33.29199219 C-5.11542738 36.24414961 -6.19128861 37.39304097 -9 39 C-11.796875 39.51171875 -11.796875 39.51171875 -14.75 39.6875 C-15.73484375 39.75324219 -16.7196875 39.81898438 -17.734375 39.88671875 C-18.85585937 39.94279297 -18.85585937 39.94279297 -20 40 C-20 40.66 -20 41.32 -20 42 C-19.18015625 41.96519531 -18.3603125 41.93039063 -17.515625 41.89453125 C-16.43796875 41.86746094 -15.3603125 41.84039062 -14.25 41.8125 C-12.64898437 41.76029297 -12.64898437 41.76029297 -11.015625 41.70703125 C-7.59152109 42.03968383 -6.38053585 42.55584181 -4 45 C-2.69921875 47.375 -2.69921875 47.375 -1.6875 50 C-1.34074219 50.86625 -0.99398437 51.7325 -0.63671875 52.625 C0 55 0 55 -1 58 C-2.98 53.71 -4.96 49.42 -7 45 C-8.711875 44.896875 -10.42375 44.79375 -12.1875 44.6875 C-16.51452579 44.30832764 -19.50815513 43.76939421 -23 41 C-20.40019136 37.67042052 -17.88935445 37.38238288 -13.8125 36.8125 C-12.72582031 36.65394531 -11.63914063 36.49539062 -10.51953125 36.33203125 C-9.68808594 36.22246094 -8.85664063 36.11289063 -8 36 C-6.57007953 31.78439669 -5.14608199 27.56685358 -3.72753906 23.34741211 C-3.24413754 21.91229357 -2.75912183 20.47771771 -2.27246094 19.04370117 C-1.57321879 16.98236386 -0.87980523 14.91914458 -0.1875 12.85546875 C0.23144531 11.61434326 0.65039062 10.37321777 1.08203125 9.09448242 C2.14219868 6.05860813 2.14219868 6.05860813 2 3 C1.34 2.67 0.68 2.34 0 2 C0 1.34 0 0.68 0 0 Z " fill="#FCF8F4" transform="translate(208,213)"/>
<path d="M0 0 C0.66 0.66 1.32 1.32 2 2 C1.72621439 9.50628873 -0.38584877 16.22439219 -2.75 23.3125 C-3.08515625 24.38306641 -3.4203125 25.45363281 -3.765625 26.55664062 C-6.28052103 34.16324851 -8.69951 37.24566232 -15.70703125 41.03515625 C-17.07241493 41.71719103 -18.44098888 42.39287228 -19.8125 43.0625 C-20.48603516 43.40087891 -21.15957031 43.73925781 -21.85351562 44.08789062 C-34.88250577 50.53381207 -34.88250577 50.53381207 -42 50 C-42 49.67 -42 49.34 -42 49 C-40.2675 48.505 -40.2675 48.505 -38.5 48 C-31.66848547 45.73367217 -25.24961925 42.38290713 -18.91577148 38.98974609 C-17 38 -17 38 -15.10180664 37.23291016 C-10.89933875 35.35577409 -9.38803674 33.34083298 -7.63671875 29.078125 C-6.96164987 27.14407247 -6.31252598 25.20079976 -5.6875 23.25 C-5.35427734 22.28578125 -5.02105469 21.3215625 -4.67773438 20.328125 C-1.20862654 10.37632632 -1.20862654 10.37632632 0 0 Z " fill="#FDF4F4" transform="translate(293,244)"/>
<path d="M0 0 C-1.4595886 3.8480063 -3.33899114 5.21206544 -7 7 C-7.79277344 7.14179688 -8.58554688 7.28359375 -9.40234375 7.4296875 C-12.16853776 8.03700227 -13.86849767 8.92550302 -16.25 10.4375 C-21.10205356 13.45443497 -26.00537709 16.3666772 -30.9375 19.25 C-32.40549324 20.10844313 -33.8729717 20.96776742 -35.33984375 21.828125 C-35.97269287 22.1984082 -36.60554199 22.56869141 -37.25756836 22.95019531 C-38.86743411 23.92012984 -40.43617908 24.95745272 -42 26 C-42.99 26 -43.98 26 -45 26 C-45.20625 26.639375 -45.4125 27.27875 -45.625 27.9375 C-47 30 -47 30 -50.125 30.75 C-51.548125 30.87375 -51.548125 30.87375 -53 31 C-50.06024208 27.54897983 -46.85927658 25.70299534 -42.93359375 23.6015625 C-39.19973242 21.56310292 -35.53861442 19.41156123 -31.875 17.25 C-30.78360718 16.60671753 -30.78360718 16.60671753 -29.67016602 15.95043945 C-17.37624132 8.74766196 -17.37624132 8.74766196 -5.265625 1.24609375 C-3 0 -3 0 0 0 Z " fill="#FDF2E6" transform="translate(165,209)"/>
<path d="M0 0 C1.10843561 3.32530684 0.9402565 3.91089982 -0.15234375 7.078125 C-0.43070068 7.89901611 -0.70905762 8.71990723 -0.99584961 9.56567383 C-1.30659424 10.45150146 -1.61733887 11.3373291 -1.9375 12.25 C-2.25017822 13.16354248 -2.56285645 14.07708496 -2.88500977 15.01831055 C-3.91386594 18.01556775 -4.95631297 21.00787739 -6 24 C-6.75039128 26.16783335 -7.50038819 28.33580324 -8.25 30.50390625 C-10.15584499 36.00640771 -12.07364611 41.50464731 -14 47 C-15.65 47 -17.3 47 -19 47 C-19.66 45.68 -20.32 44.36 -21 43 C-19.35 43.99 -17.7 44.98 -16 46 C-15.73574219 44.87335938 -15.47148438 43.74671875 -15.19921875 42.5859375 C-14.00777762 37.83061504 -12.45118903 33.24233587 -10.8125 28.625 C-10.51077881 27.7680957 -10.20905762 26.91119141 -9.89819336 26.02832031 C-6.79041332 17.27740261 -3.42879442 8.62930631 0 0 Z " fill="#FEFBF8" transform="translate(127,345)"/>
<path d="M0 0 C2.88233393 2.68038697 4.78843537 5.12136139 6.5625 8.625 C9.28150856 13.7815036 12.24719452 18.73333778 15.3125 23.6875 C19.02824846 29.73061813 22.70712503 35.79108973 26.25 41.9375 C26.64485596 42.60547607 27.03971191 43.27345215 27.4465332 43.96166992 C28.37794438 45.59796729 29.19952013 47.29582048 30 49 C29.67 49.99 29.34 50.98 29 52 C28.67837891 51.43192627 28.35675781 50.86385254 28.02539062 50.27856445 C22.4128485 40.37755175 16.77632134 30.52056638 10.74609375 20.8671875 C8.46887686 17.12786492 6.38016521 13.30197244 4.32421875 9.4375 C3.37989134 7.69926901 2.37518978 5.99328003 1.33203125 4.3125 C0 2 0 2 0 0 Z " fill="#F7FAF6" transform="translate(261,112)"/>
<path d="M0 0 C0.99 0.33 1.98 0.66 3 1 C2.40316406 1.51175781 1.80632812 2.02351562 1.19140625 2.55078125 C-1.43819317 5.48974531 -2.70787827 8.5478047 -4.0625 12.1875 C-4.31854004 12.85515381 -4.57458008 13.52280762 -4.83837891 14.21069336 C-5.57107185 16.13616938 -6.28728618 18.06705747 -7 20 C-7.34675781 20.91523438 -7.69351562 21.83046875 -8.05078125 22.7734375 C-9.57781333 27.01438914 -10.47495833 30.42632718 -10 35 C-8.33474792 37.52628873 -8.33474792 37.52628873 -6.0625 39.6875 C-2.0828877 43.7513369 -2.0828877 43.7513369 -1 47 C-4.91593446 46.21681311 -8.36406635 44.60820142 -12 43 C-12 42.34 -12 41.68 -12 41 C-10.35 41.33 -8.7 41.66 -7 42 C-7.44472656 41.49210937 -7.88945312 40.98421875 -8.34765625 40.4609375 C-8.91355469 39.77257812 -9.47945313 39.08421875 -10.0625 38.375 C-10.63097656 37.70210938 -11.19945312 37.02921875 -11.78515625 36.3359375 C-13.76028231 32.53810667 -12.51963606 29.72580551 -11.33032227 25.77587891 C-10.51161652 23.20980149 -9.63793884 20.6679057 -8.75 18.125 C-8.31880859 16.83529297 -8.31880859 16.83529297 -7.87890625 15.51953125 C-5.90317864 9.83392209 -3.41838867 4.95406073 0 0 Z " fill="#FDF9F9" transform="translate(305,250)"/>
<path d="M0 0 C1.95042378 0.54071477 3.90094515 1.08107766 5.8515625 1.62109375 C6.80579102 1.88647949 7.76001953 2.15186523 8.74316406 2.42529297 C12.61399936 3.49549734 16.49314129 4.53311767 20.375 5.5625 C21.56867188 5.87960938 22.76234375 6.19671875 23.9921875 6.5234375 C24.81976563 6.74257812 25.64734375 6.96171875 26.5 7.1875 C26.5 7.5175 26.5 7.8475 26.5 8.1875 C19.27939913 7.72727305 12.72500806 6.34637517 5.8125 4.25 C4.91466797 3.98509766 4.01683594 3.72019531 3.09179688 3.44726562 C-0.70565385 2.32611351 -4.49397324 1.18940483 -8.26953125 -0.00390625 C-11.66573703 -0.85398436 -14.03805357 -1.41621818 -17.5 -0.8125 C-19.45927722 1.20070228 -20.8527001 2.88851648 -22.375 5.1875 C-22.97828125 6.04601562 -22.97828125 6.04601562 -23.59375 6.921875 C-24.5804061 8.33138371 -25.54268106 9.75790372 -26.5 11.1875 C-26.83 10.5275 -27.16 9.8675 -27.5 9.1875 C-26.21389867 7.2045112 -24.92150861 5.22616624 -23.625 3.25 C-22.90570313 2.14785156 -22.18640625 1.04570312 -21.4453125 -0.08984375 C-16.59541375 -6.87775425 -6.81636824 -1.91736167 0 0 Z " fill="#F9F9FB" transform="translate(110.5,130.8125)"/>
<path d="M0 0 C2.15403345 2.7193996 3.77334735 5.364845 5.2265625 8.51171875 C5.814375 9.77145508 5.814375 9.77145508 6.4140625 11.05664062 C7.01347656 12.35891602 7.01347656 12.35891602 7.625 13.6875 C8.42782001 15.42143879 9.23241263 17.15455834 10.0390625 18.88671875 C10.39178223 19.65201904 10.74450195 20.41731934 11.10791016 21.20581055 C11.86879598 22.97491145 11.86879598 22.97491145 13 24 C15.85528607 24.400383 18.69736487 24.7518227 21.5625 25.0625 C22.36880859 25.15337891 23.17511719 25.24425781 24.00585938 25.33789062 C26.00347377 25.56247449 28.0016856 25.78173236 30 26 C27.38058783 27.74627478 25.96175123 28.38722388 23 29 C23 28.34 23 27.68 23 27 C22.33613281 27.06960937 21.67226563 27.13921875 20.98828125 27.2109375 C20.10527344 27.26507813 19.22226562 27.31921875 18.3125 27.375 C17.00732422 27.47941406 17.00732422 27.47941406 15.67578125 27.5859375 C12.44151316 26.87770361 11.15918259 25.51321431 9.19848633 22.8984375 C6.9737675 19.37441762 5.32242258 15.63766042 3.6875 11.8125 C3.32849609 11.00619141 2.96949219 10.19988281 2.59960938 9.36914062 C0 3.41232143 0 3.41232143 0 0 Z " fill="#F9F9FB" transform="translate(292,220)"/>
<path d="M0 0 C0.66 0.33 1.32 0.66 2 1 C0.68 2.65 -0.64 4.3 -2 6 C-0.34097656 6.39058594 -0.34097656 6.39058594 1.3515625 6.7890625 C6.44589057 8.06432544 11.39957107 9.70210216 16.375 11.375 C17.25671875 11.66632813 18.1384375 11.95765625 19.046875 12.2578125 C25.1244449 14.28961006 31.07558414 16.55847088 37 19 C32.71723884 20.33836286 30.00180656 19.10388771 26 17.4375 C18.5930592 14.47489851 11.09113487 12.16470322 3.38867188 10.09350586 C2.16180664 9.74751343 2.16180664 9.74751343 0.91015625 9.39453125 C-0.18607056 9.09832886 -0.18607056 9.09832886 -1.30444336 8.79614258 C-1.86397705 8.53341553 -2.42351074 8.27068848 -3 8 C-3.33 7.01 -3.66 6.02 -4 5 C-2.0625 2.3125 -2.0625 2.3125 0 0 Z " fill="#FAFCFA" transform="translate(112,105)"/>
<path d="M0 0 C1.91864771 0.25642304 3.83490994 0.53073436 5.75 0.8125 C6.81734375 0.96332031 7.8846875 1.11414063 8.984375 1.26953125 C12.11707776 2.02835951 13.52773273 3.02218619 16 5 C18.11264636 5.76681725 18.11264636 5.76681725 20.25 6.1875 C21.4875 6.455625 22.725 6.72375 24 7 C23.67 4.69 23.34 2.38 23 0 C25.33936818 2.12669835 26.80653848 4.06224856 28 7 C28 7.99 28 8.98 28 10 C22.25634802 9.48364505 17.59525654 8.33120183 12.3125 6.0625 C11.35633789 5.66514648 11.35633789 5.66514648 10.38085938 5.25976562 C8.58463981 4.51273107 6.79220344 3.75661892 5 3 C3.33500711 2.32916403 1.6690767 1.66060971 0 1 C0 0.67 0 0.34 0 0 Z " fill="#ECF3EB" transform="translate(271,169)"/>
<path d="M0 0 C-0.61538462 5.53846154 -0.61538462 5.53846154 -2.5625 7.875 C-3.2740625 8.431875 -3.2740625 8.431875 -4 9 C-3.67 7.68 -3.34 6.36 -3 5 C-3.51949219 5.433125 -4.03898437 5.86625 -4.57421875 6.3125 C-5.27160156 6.869375 -5.96898437 7.42625 -6.6875 8 C-7.71423828 8.8353125 -7.71423828 8.8353125 -8.76171875 9.6875 C-11.38783056 11.22741897 -13.00603356 11.25168194 -16 11 C-15.44570313 10.76539063 -14.89140625 10.53078125 -14.3203125 10.2890625 C-10.43630816 8.13128231 -7.46262263 4.92774889 -4.2421875 1.8984375 C-2 0 -2 0 0 0 Z " fill="#F4F7F7" transform="translate(298,199)"/>
<path d="M0 0 C4.87871896 -0.4573799 8.58654806 1.17589184 13 3 C14.485 3.5878125 14.485 3.5878125 16 4.1875 C16.66 4.455625 17.32 4.72375 18 5 C18 5.33 18 5.66 18 6 C16.02 6 14.04 6 12 6 C12 5.34 12 4.68 12 4 C10.906875 3.855625 9.81375 3.71125 8.6875 3.5625 C5 3 5 3 2 2 C1.67 2.66 1.34 3.32 1 4 C0.67 2.68 0.34 1.36 0 0 Z " fill="#D2EBE9" transform="translate(202,321)"/>
<path d="M0 0 C2.125 0.375 2.125 0.375 4 1 C3.09515208 2.15518918 2.1755794 3.29885406 1.25 4.4375 C0.73953125 5.07558594 0.2290625 5.71367187 -0.296875 6.37109375 C-2.19667629 8.18810554 -3.43586908 8.60423197 -6 9 C-5.34 8.67 -4.68 8.34 -4 8 C-3.32060826 6.00428677 -2.65438441 4.00405227 -2 2 C-1.34 1.34 -0.68 0.68 0 0 Z " fill="#91CDCE" transform="translate(387,389)"/>
<path d="M0 0 C3 2 3 2 3.6875 4.125 C3.8421875 5.053125 3.8421875 5.053125 4 6 C4.99 5.67 5.98 5.34 7 5 C7 7.31 7 9.62 7 12 C4 11 4 11 2.83203125 9.00390625 C2.49558594 8.19824219 2.15914063 7.39257812 1.8125 6.5625 C1.46832031 5.75941406 1.12414062 4.95632812 0.76953125 4.12890625 C0 2 0 2 0 0 Z " fill="#ACB1D2" transform="translate(329,221)"/>
<path d="M0 0 C2.64 0 5.28 0 8 0 C8 0.66 8 1.32 8 2 C8.62648437 2.19335938 9.25296875 2.38671875 9.8984375 2.5859375 C11.12433594 2.97652344 11.12433594 2.97652344 12.375 3.375 C13.18710938 3.63023437 13.99921875 3.88546875 14.8359375 4.1484375 C17 5 17 5 19 7 C14.71620357 6.28739906 10.74906147 4.93078264 6.6875 3.4375 C6.04232422 3.20353516 5.39714844 2.96957031 4.73242188 2.72851562 C3.15378781 2.15552993 1.57672974 1.57820536 0 1 C0 0.67 0 0.34 0 0 Z " fill="#E7F0E5" transform="translate(157,128)"/>
<path d="M0 0 C1.10408203 0.185625 1.10408203 0.185625 2.23046875 0.375 C1.54984375 0.82875 0.86921875 1.2825 0.16796875 1.75 C-3.93742064 5.41864584 -6.74267227 9.80418125 -9.76953125 14.375 C-10.09953125 13.715 -10.42953125 13.055 -10.76953125 12.375 C-9.56218272 10.36175381 -8.32786997 8.3646574 -7.08203125 6.375 C-6.39753906 5.26125 -5.71304688 4.1475 -5.0078125 3 C-2.76953125 0.375 -2.76953125 0.375 0 0 Z " fill="#F2F1F6" transform="translate(93.76953125,127.625)"/>
<path d="M0 0 C-4.44404597 3.62107449 -8.21434368 5.33060893 -14 5 C-5.39244186 -1.69476744 -5.39244186 -1.69476744 0 0 Z " fill="#F18F9C" transform="translate(254,209)"/>
<path d="M0 0 C0 0.66 0 1.32 0 2 C-0.99 2 -1.98 2 -3 2 C-2.15570324 4.27426046 -2.15570324 4.27426046 0.50390625 4.8515625 C1.51324219 5.10679687 2.52257812 5.36203125 3.5625 5.625 C4.57441406 5.88539063 5.58632813 6.14578125 6.62890625 6.4140625 C7.80259766 6.70410156 7.80259766 6.70410156 9 7 C5.72814447 8.07310858 3.57052408 7.89263102 0.25 7.0625 C-0.54921875 6.86785156 -1.3484375 6.67320312 -2.171875 6.47265625 C-3.07679688 6.23869141 -3.07679688 6.23869141 -4 6 C-4.33 4.68 -4.66 3.36 -5 2 C-2 0 -2 0 0 0 Z " fill="#F8F8EE" transform="translate(272,332)"/>
<path d="M0 0 C0.66 0 1.32 0 2 0 C3.32 2.31 4.64 4.62 6 7 C2.08406554 6.21681311 -1.36406635 4.60820142 -5 3 C-5 2.34 -5 1.68 -5 1 C-2.525 1.495 -2.525 1.495 0 2 C0 1.34 0 0.68 0 0 Z " fill="#F8F2E8" transform="translate(298,290)"/>
<path d="M0 0 C-1.450954 3.82524236 -3.38181932 5.19090966 -7 7 C-7.66 7 -8.32 7 -9 7 C-8.8125 5.1875 -8.8125 5.1875 -8 3 C-5.09303401 0.85802506 -3.64478912 0 0 0 Z " fill="#F9E1C7" transform="translate(165,209)"/>
<path d="M0 0 C2.33936818 2.12669835 3.80653848 4.06224856 5 7 C5 7.99 5 8.98 5 10 C3.68 10 2.36 10 1 10 C1 9.34 1 8.68 1 8 C0.34 7.67 -0.32 7.34 -1 7 C-0.34 7 0.32 7 1 7 C0.67 4.69 0.34 2.38 0 0 Z " fill="#E1E9E0" transform="translate(294,169)"/>
<path d="M0 0 C5.77378925 0.4811491 9.95859836 2.18467181 15 5 C14.67 5.66 14.34 6.32 14 7 C13.34 6.67 12.68 6.34 12 6 C11.34 6.66 10.68 7.32 10 8 C9.92910156 7.37609375 9.85820312 6.7521875 9.78515625 6.109375 C9.19995468 3.80770679 9.19995468 3.80770679 6.93359375 2.953125 C6.10988281 2.72109375 5.28617187 2.4890625 4.4375 2.25 C3.61121094 2.00765625 2.78492188 1.7653125 1.93359375 1.515625 C1.29550781 1.34546875 0.65742188 1.1753125 0 1 C0 0.67 0 0.34 0 0 Z " fill="#E8F1EB" transform="translate(288,192)"/>
<path d="M0 0 C1.98 0.495 1.98 0.495 4 1 C4.33 2.32 4.66 3.64 5 5 C3 6 1 7 -1 8 C-0.67 5.36 -0.34 2.72 0 0 Z " fill="#E7D2DA" transform="translate(164,266)"/>
<path d="M0 0 C1.5 1.375 1.5 1.375 3 3 C3 3.66 3 4.32 3 5 C3.99 5.33 4.98 5.66 6 6 C6 7.32 6 8.64 6 10 C6.66 10.33 7.32 10.66 8 11 C7.67 11.99 7.34 12.98 7 14 C5.82807953 12.04480616 4.6626071 10.0857461 3.5 8.125 C2.8503125 7.03445313 2.200625 5.94390625 1.53125 4.8203125 C0 2 0 2 0 0 Z " fill="#FCEBD7" transform="translate(74,343)"/>
<path d="M0 0 C5 7.5 5 7.5 5 11 C3 11 3 11 1.375 10 C-0.82559052 6.79914107 -0.18792122 3.82106483 0 0 Z " fill="#E8D7DE" transform="translate(169,271)"/>
<path d="M0 0 C2.31 0.33 4.62 0.66 7 1 C6.319375 1.61875 6.319375 1.61875 5.625 2.25 C3.94049626 4.06408095 3.00734029 5.75285627 2 8 C0.74335022 5.09399739 0 3.20395416 0 0 Z " fill="#B8D2B4" transform="translate(249,179)"/>
<path d="M0 0 C-0.33 1.65 -0.66 3.3 -1 5 C-2.9375 4.6875 -2.9375 4.6875 -5 4 C-5.33 3.01 -5.66 2.02 -6 1 C-4 0 -4 0 0 0 Z " fill="#E5A1A4" transform="translate(308,292)"/>
<path d="M0 0 C-6.75 4 -6.75 4 -9 4 C-8.1875 2.0625 -8.1875 2.0625 -7 0 C-3.86650268 -1.04449911 -3.01031744 -0.93423645 0 0 Z " fill="#E68089" transform="translate(265,288)"/>
<path d="M0 0 C3.05849168 2.75264252 4.87391379 5.00751252 6 9 C5.67 9.99 5.34 10.98 5 12 C4.15885829 10.56705502 3.32734313 9.12845595 2.5 7.6875 C1.80390625 6.48673828 1.80390625 6.48673828 1.09375 5.26171875 C0 3 0 3 0 0 Z " fill="#ED8893" transform="translate(210,252)"/>
<path d="M0 0 C-0.33 2.31 -0.66 4.62 -1 7 C-1.33 5.68 -1.66 4.36 -2 3 C-3.65 3 -5.3 3 -7 3 C-4.74624683 0.74624683 -3.20799182 0 0 0 Z " fill="#E2ABB4" transform="translate(324,246)"/>
<path d="M0 0 C0.66 0.33 1.32 0.66 2 1 C-3.29230769 5.92307692 -3.29230769 5.92307692 -6.875 6.3125 C-7.926875 6.1578125 -7.926875 6.1578125 -9 6 C-8.443125 5.7525 -7.88625 5.505 -7.3125 5.25 C-4.60028873 3.78393985 -2.36412635 1.97010529 0 0 Z " fill="#FCFDFC" transform="translate(291,204)"/>
<path d="M0 0 C0 0.66 0 1.32 0 2 C1.65 2 3.3 2 5 2 C5 2.33 5 2.66 5 3 C1.7 3 -1.6 3 -5 3 C-5 2.34 -5 1.68 -5 1 C-2 0 -2 0 0 0 Z " fill="#8DCCC7" transform="translate(278,444)"/>
</svg>
